<svg xmlns="http://www.w3.org/2000/svg" viewBox="0 0 895.5 95.3"><g id="Layer_3" data-name="Layer 3"><path d="M411.1,1.3H483V26.4H411.1Zm-1.2,26.3h74.4V0H409.9Z" style="fill:#fff"/><polygon points="429.8 7.2 429.8 20.4 430.8 20.5 430.8 21.3 425.7 21.3 425.7 20.5 426.8 20.4 426.8 14.4 420.3 14.4 420.3 20.4 421.3 20.5 421.3 21.3 416.3 21.3 416.3 20.5 417.3 20.4 417.3 7.2 416.3 7.1 416.3 6.3 421.3 6.3 421.3 7.1 420.3 7.2 420.3 12.9 426.8 12.9 426.8 7.2 425.7 7.1 425.7 6.3 430.8 6.3 430.8 7.1 429.8 7.2" style="fill:#fff"/><polygon points="436.7 20.5 437.7 20.6 437.7 21.3 433 21.3 433 20.6 434 20.5 434 11.5 433 11.3 433 10.7 436.7 10.7 436.7 20.5" style="fill:#fff"/><polygon points="439.7 20.6 440.7 20.5 440.7 7.1 439.7 7 439.7 6.3 443.5 6.3 443.5 20.5 444.4 20.6 444.4 21.3 439.7 21.3 439.7 20.6" style="fill:#fff"/><path d="M450.1,10.7h2.6v.9h-2.6V18c0,1.6.4,2.1,1.9,2.1h1.5v.7a10.3,10.3,0,0,1-3.5.7c-2.1,0-2.6-.9-2.6-2.8v-7h-2v-.9h2V8.4l2.7-.8Z" style="fill:#fff"/><path d="M465.3,16.1c0,3.3-2.3,5.5-5.8,5.5s-5.6-1.4-5.6-5.5,2.3-5.7,5.8-5.7,5.6,2,5.6,5.7m-3.1-.1c0-3.4-1-4.8-2.6-4.8S457,12.6,457,16s1,4.8,2.6,4.8,2.6-1.3,2.6-4.8" style="fill:#fff"/><path d="M478,20.6v.7h-4.7v-.7h1V14.4c0-1.7-.6-2.4-1.9-2.4a4.1,4.1,0,0,0-2.2.9v7.6h.9v.7h-4.7v-.7h1v-9h-1v-.8h3.8v1.5a5.8,5.8,0,0,1,3.8-1.7c2.1,0,3.1,1.3,3.1,3.7v6.4Z" style="fill:#fff"/><path d="M436.9,7.8a1.5,1.5,0,0,1-1.5,1.5,1.4,1.4,0,0,1-1.5-1.5,1.5,1.5,0,0,1,1.5-1.5,1.5,1.5,0,0,1,1.5,1.5" style="fill:#fff"/><rect x="493.8" y="13.5" width="401.6" height="0.7" style="fill:#fff"/><rect x="0.1" y="13.5" width="400.2" height="0.7" style="fill:#fff"/><rect x="476.1" y="83.5" width="419.3" height="0.71" style="fill:#fff"/><rect y="83.5" width="418.5" height="0.71" style="fill:#fff"/><polyline points="423.5 75.2 423.5 93.8 431.9 93.8 431.9 93 424.3 93 424.3 76 469.7 76 469.7 93 462 93 462 93.8 470.5 93.8 470.5 75.2" style="fill:#fff"/><polygon points="436.1 95.2 436.1 93.7 434.2 93.7 434.2 95.2 433.5 95.2 433.5 91.6 434.2 91.6 434.2 93.1 436.1 93.1 436.1 91.6 436.8 91.6 436.8 95.2 436.1 95.2" style="fill:#fff"/><path d="M438.9,93.4a1.2,1.2,0,1,0,2.4,0,1.2,1.2,0,0,0-2.4,0m3.1,0a1.9,1.9,0,1,1-3.8,0,1.9,1.9,0,0,1,3.8,0" style="fill:#fff"/><polygon points="445.9 95.2 444 92.7 444 95.2 443.3 95.2 443.3 91.6 444.1 91.6 446 94.2 446 91.6 446.6 91.6 446.6 95.2 445.9 95.2" style="fill:#fff"/><path d="M448.7,93.4a1.2,1.2,0,1,0,2.4,0,1.2,1.2,0,0,0-2.4,0m3.1,0a1.9,1.9,0,0,1-1.9,1.9,1.8,1.8,0,0,1-1.9-1.9,1.8,1.8,0,0,1,1.9-1.8,1.9,1.9,0,0,1,1.9,1.8" style="fill:#fff"/><path d="M453.8,93.5h1c.6,0,.8-.2.8-.6s-.2-.7-.8-.7h-1Zm1-1.9c1.1,0,1.5.4,1.5,1.2s-.2,1-.8,1.1l.9,1.3h-.7l-.9-1.2h-1v1.2h-.6V91.6Z" style="fill:#fff"/><path d="M460.4,92l-.3.5a2.8,2.8,0,0,0-1.2-.4c-.4,0-.7.2-.7.5s.2.3.8.4,1.5.4,1.5,1.2-.6,1.1-1.4,1.1a2.9,2.9,0,0,1-1.7-.5l.3-.5a2.3,2.3,0,0,0,1.4.4c.4,0,.7-.1.7-.4s-.2-.4-1-.6-1.3-.4-1.3-1,.7-1.1,1.4-1.1a2.4,2.4,0,0,1,1.5.4" style="fill:#fff"/><polygon points="436 79.8 436 88.1 436.7 88.2 436.7 88.7 433.4 88.7 433.4 88.2 434.1 88.1 434.1 84.3 430 84.3 430 88.1 430.7 88.2 430.7 88.7 427.5 88.7 427.5 88.2 428.1 88.1 428.1 79.8 427.5 79.7 427.5 79.2 430.7 79.2 430.7 79.7 430 79.8 430 83.3 434.1 83.3 434.1 79.8 433.4 79.7 433.4 79.2 436.7 79.2 436.7 79.7 436 79.8" style="fill:#fff"/><polygon points="440.4 88.2 441 88.2 441 88.7 438.1 88.7 438.1 88.2 438.7 88.2 438.7 82.5 438.1 82.4 438.1 82 440.4 82 440.4 88.2" style="fill:#fff"/><polygon points="442.3 88.3 442.9 88.2 442.9 79.7 442.3 79.6 442.3 79.2 444.7 79.2 444.7 88.2 445.3 88.3 445.3 88.7 442.3 88.7 442.3 88.3" style="fill:#fff"/><path d="M448.9,82h1.6v.6h-1.6v4c0,1,.2,1.3,1.1,1.3h1v.4a7.4,7.4,0,0,1-2.2.5c-1.4,0-1.7-.7-1.7-1.8V82.6h-1.2V82h1.2V80.5l1.8-.5Z" style="fill:#fff"/><path d="M456.5,85.3c0-2.1-.6-3-1.7-3s-1.6.9-1.6,3,.6,3.1,1.6,3.1,1.7-.9,1.7-3.1m1.9.1a3.3,3.3,0,0,1-3.6,3.5c-2.2,0-3.5-.9-3.5-3.5a3.4,3.4,0,0,1,3.6-3.6,3.2,3.2,0,0,1,3.5,3.6" style="fill:#fff"/><path d="M466.5,88.2v.5h-3v-.5h.6V84.3q0-1.5-1.2-1.5a2.8,2.8,0,0,0-1.4.6v4.8h.6v.5h-3v-.5h.6V82.5h-.6V82h2.4v.9a3.6,3.6,0,0,1,2.4-1.1c1.4,0,2,.8,2,2.3v4.1Z" style="fill:#fff"/><path d="M440.5,80.2a.9.9,0,0,1-1,.9.9.9,0,0,1-.9-.9,1,1,0,0,1,.9-1,1,1,0,0,1,1,1" style="fill:#fff"/><path d="M785.2,46.8H783V52h2.2c1.1,0,1.9-1.1,1.9-2.6S786.3,46.8,785.2,46.8Zm1.1,2.6c0,1.2-.4,1.9-1.1,2h-1.4v-4h1.4C785.9,47.5,786.3,48.2,786.3,49.4Z" style="fill:#fff"/><path d="M771,52l1.9-5.2h-.6l-1.4,4v-.3c-.3-1.1-1-3.5-1-3.6h-.7l-1,3.8-1.4-3.9h-1l1.9,5.1h.6l1.1-3.8,1.1,3.8Z" style="fill:#fff"/><path d="M748.9,48.7h-2.8V46.8h-.9v1.9h-1v.6h1V52h.9V49.2h2.8V52h.8V46.8h-.8Z" style="fill:#fff"/><polygon points="756.4 48.8 758 51.9 758.1 52 758.4 52 760.2 48.5 760.2 52 760.9 52 760.9 46.8 760.3 46.8 758.1 50.9 756 46.8 756 46.8 755.5 46.8 755.5 52 756.4 52 756.4 48.8" style="fill:#fff"/><path d="M765.3,51.4h-2.7V49.5h2.3v-.6h-2.3V47.4h2.8l-.4-.7h-3.2V52h3.6l.2-.7Z" style="fill:#fff"/><path d="M752.6,46.7a2.7,2.7,0,1,0,2.4,2.7A2.6,2.6,0,0,0,752.6,46.7Zm1.8,2.7a1.8,1.8,0,1,1-3.6,0,1.8,1.8,0,1,1,3.6,0Z" style="fill:#fff"/><path d="M775,46.7a2.7,2.7,0,1,0,2.4,2.7A2.5,2.5,0,0,0,775,46.7Zm1.9,2.7a2,2,0,0,1-1.9,1.9,1.9,1.9,0,0,1-1.8-1.9,1.9,1.9,0,0,1,1.8-2A2,2,0,0,1,776.9,49.4Z" style="fill:#fff"/><path d="M780.2,46.7a2.7,2.7,0,1,0,2.4,2.7A2.6,2.6,0,0,0,780.2,46.7Zm1.8,2.7a1.9,1.9,0,0,1-1.8,1.9,2,2,0,0,1-1.9-1.9,2,2,0,0,1,1.9-2A1.9,1.9,0,0,1,782,49.4Z" style="fill:#fff"/><path d="M757.4,55.2h0c-.4-.2-.8-.3-.8-.7s.4-.4.6-.4.5,0,.6.3l.2.3.3-.7h-.1c-.2-.2-.7-.2-1-.2s-1.2.3-1.2,1,.6,1,1.1,1.2.7.3.7.7-.3.5-.7.5a.9.9,0,0,1-.8-.5l-.2-.3-.3.8h.1a2.8,2.8,0,0,0,1.3.4,1.2,1.2,0,0,0,1.3-1.2C758.5,55.7,757.9,55.4,757.4,55.2Z" style="fill:#fff"/><path d="M762,53.9V56a.9.9,0,0,1-1,1l-.7-.2a1.1,1.1,0,0,1-.3-.8V53.7h-.7V56a1.5,1.5,0,0,0,1.6,1.6,1.3,1.3,0,0,0,1.1-.5h.1v.2h.7a17.6,17.6,0,0,1,0-2.3V53.8H762Z" style="fill:#fff"/><path d="M764.7,55.3V53.8H764v3.7h.7V55.3Z" style="fill:#fff"/><path d="M765.7,54.1h1v3.4h.8V55.7h0V54.1h1.1v-.4h-2.8Z" style="fill:#fff"/><path d="M774.4,55.2h0c-.4-.2-.7-.3-.7-.7s.3-.4.5-.4.5,0,.6.3l.2.3.3-.7h-.1a1.5,1.5,0,0,0-1-.2c-.6,0-1.2.3-1.2,1s.6,1,1.1,1.2.7.3.7.7-.2.5-.6.5a1,1,0,0,1-.9-.5l-.2-.3-.3.8h.1a2.8,2.8,0,0,0,1.3.4,1.2,1.2,0,0,0,1.3-1.2C775.5,55.7,774.9,55.4,774.4,55.2Z" style="fill:#fff"/><path d="M770.2,57V55.7h1.7v-.5h-1.7v-1h2.1l-.3-.6h-2.5v3.8h2.8v-.6h-2.2Z" style="fill:#fff"/><path d="M151.1,54.7c0,1.8-1.4,2.8-3.5,2.8h-1.8c.4-.1.5-.3.5-.8V52.8c0-.5,0-.7-.5-.8h2.1c1.8,0,3.2.9,3.2,2.7m-3.2,2.1a2,2,0,0,0,2.2-2.1,2,2,0,0,0-2.2-2.2h-.8v3.8c0,.4.1.5.4.5Zm-12.1-3.5c0-1.1-1-1.3-1.8-1.3h-1.9c.4.1.4.8.4,1.1v3.2c0,.4,0,1-.5,1.2h1.8c-.5-.2-.5-.8-.5-1.2V52.6h.5a1,1,0,0,1,1.1,1c0,.6-.6,1-1.1,1.1l2.3,2.9h1.2a5.1,5.1,0,0,1-1.4-1.5l-1.1-1.3a1.3,1.3,0,0,0,1-1.4M124,51.7v5c0,.5-.1.7-.5.8h1.8c-.4-.2-.5-.3-.5-.8V53.5l4.3,4.1V52.8c0-.6,0-.7.4-.9h-1.7c.5.2.5.3.5.9v3Zm-5.3,0a2.7,2.7,0,0,1,2.8,2.9,2.8,2.8,0,0,1-2.8,2.9,2.8,2.8,0,0,1-2.8-2.9,2.8,2.8,0,0,1,2.8-2.9m0,5.2c1.1,0,1.9-.9,1.9-2.3s-.7-2.3-1.8-2.3a2.4,2.4,0,0,0-.1,4.6m-6.9-4.6a1.8,1.8,0,0,1,1.6.7V51.7c-.1.1-.1.2-.3.2a8.8,8.8,0,0,0-1.5-.2,2.9,2.9,0,0,0-3,2.9,2.9,2.9,0,0,0,3.1,2.9,4.2,4.2,0,0,0,1.8-.3V56.1a2.3,2.3,0,0,1-1.8.8,2.3,2.3,0,0,1,0-4.6m29.6,1L140,56.8a.4.4,0,0,1-.1.3c0,.2.1.3.4.4h-1.8a1.7,1.7,0,0,0,.6-.6l2.3-5.2,2.3,5.2c.1.3.2.4.6.6h-1.8c.2-.1.3-.2.3-.4v-.3Z" style="fill:#fff"/><path d="M166.3,56.8a2.1,2.1,0,0,1-2.2-2.3,2.2,2.2,0,0,1,4.1-1.1h.8a2.7,2.7,0,0,0-2.8-1.9,3.1,3.1,0,0,0,0,6.1,2.9,2.9,0,0,0,2.9-1.9h-.9a1.9,1.9,0,0,1-1.9,1.1m8.2-5.1h.8v5.7h-.8v-.6a2.6,2.6,0,0,1-2,.8,2.8,2.8,0,0,1-2.9-3.1,2.9,2.9,0,0,1,3-3,3.1,3.1,0,0,1,1.9.6Zm0,1.4a2.3,2.3,0,0,0-1.9-.9,2.1,2.1,0,0,0-2.2,2.3,2.1,2.1,0,0,0,2.2,2.3,2.3,2.3,0,0,0,1.9-.9Zm35.6-1.5h-.6a3.7,3.7,0,0,0-1.2.7A32.4,32.4,0,0,0,203,57h0c-.1.4-.1,1.2-.2,1.5-.1,1.9-1.2,5.6-3.2,5.6a1,1,0,0,1-1.1-1.1,5.6,5.6,0,0,1,1.4-3,28.4,28.4,0,0,1,1.9-2.3l.5-.5c0-.8.1-2,0-3.5s-.1-.5-.4-.2a14.3,14.3,0,0,0-1.1,1.2,13.6,13.6,0,0,1-2.4,2.4l-.7.2c-.5,0-.7-.4-.7-.9s.1-.6.1-.9.2-1.2.4-1.9a9,9,0,0,1-3.7,3.2h0a7.7,7.7,0,0,1-1.9.5c-.2,0-.4-.2-.1-.3a11.4,11.4,0,0,0,1.9-.9,3,3,0,0,0,1.2-2.4A1.7,1.7,0,0,0,193,52a1.9,1.9,0,0,0-1.7.7c-.1.1-.1.4-.1.8a68.3,68.3,0,0,0-.2,8.7c-.2.5-.2.7-.5.7s-.3-.5-.3-.7-.1-2.2-.1-2.5.1-3.7.2-5,.1-1.3.1-1.3a5.8,5.8,0,0,1-1.7,1.8,3,3,0,0,1-3.1,2.3,2.6,2.6,0,0,1-2.7-2.7,3.1,3.1,0,0,1,3.2-3.3,2.7,2.7,0,0,1,2.7,2.8v.5a8.1,8.1,0,0,0,1.7-2.3,3.2,3.2,0,0,1,2.4-.9c1.6-.1,2.8.7,2.8,2.3a3.3,3.3,0,0,1-.8,2.1,6,6,0,0,0,2.6-3.4c.2-.6,0-.9.9-.9s-.3,2.1-.4,2.8-.2,1.3-.2,1.7.5.6,1.4-.1a14,14,0,0,0,3-4.1l.3-.3c.3,0,.3.4.4,1s.1,2.8.1,3.9a44.4,44.4,0,0,1,4.7-4.2l1.2-.9,1-.6c.2-.1.3,0,.4.1s.1.5-.2.6m-22.3,4.2-.9.3a4.1,4.1,0,0,1-3.1-.5,1.9,1.9,0,0,0,2,1.4,2.2,2.2,0,0,0,2-1.2m.3-1.4c0-1.5-.8-2.4-2.1-2.4a2.3,2.3,0,0,0-2.3,2.4c.3,1.7,2.8,2,4.2,1a3,3,0,0,0,.2-1m14.2,3.3-.4.4c-1.1,1.4-2.7,3.4-2.7,4.9s.1.7.6.7,1.7-1.7,2.1-3,.3-2.3.4-2.6Zm-19.7-.4c-.6,0-.9-.5-.9-1.1V53.7c0-1.2-.6-2.2-2.4-2.2a3.1,3.1,0,0,0-1.8.7v-.5h-.8v1.2h0v4.5h.8V53a2.7,2.7,0,0,1,1.8-.8,1.4,1.4,0,0,1,1.5,1c.1.1.1.4.1.7v2.3a1.2,1.2,0,0,0,1.3,1.3,1.1,1.1,0,0,0,1.2-.4h0l-.8.2" style="fill:#fff"/><path d="M66.9,56.9h1V51h-1v-.2h2v5.9h1.7a1.3,1.3,0,0,0,1.2-.4,2.1,2.1,0,0,0,.7-1.3h.1v1.9H66.9Z" style="fill:#fff"/><polygon points="77.4 57 78.3 57 80.2 54.1 78.3 51.1 77.5 51.1 77.5 50.9 80.2 51 80.2 51.1 79.3 51.1 80.8 53.4 82.3 51.1 81.4 51.1 81.4 51 83.3 51 83.3 51.1 82.5 51.1 80.9 53.5 83.2 57.1 83.9 57.1 83.9 57.2 81.1 57.2 81.1 57 82 57.1 80.3 54.3 78.5 57 79.4 57 79.4 57.2 77.4 57.1 77.4 57" style="fill:#fff"/><path d="M88.2,57.1h1V51.2h-1V51h3.6c.3,0,.5.2.8.3s.4.4.4.6a1.7,1.7,0,0,1,.2.5c0,.1-.1.2-.1.4s-.1.2-.2.4l-.5.4-.9.2h.4l.5.2a.5.5,0,0,1,.5.3c.2.1.3.2.3.4a.8.8,0,0,1,.1.4v.5a.9.9,0,0,1,.1.5v.3a.5.5,0,0,0,.2.4c.1.2.2.2.4.2h.2l.3-.2h0c0,.1,0,.1-.1.1H93.1l-.4-.3a.8.8,0,0,1-.2-.4c0-.2-.1-.4-.1-.6v-.8a6.4,6.4,0,0,0-.2-.7c-.1-.1-.2-.3-.4-.3l-.4-.2H90.1v3.1h1v.2H88.2Zm1.9-3.2h1.4l.3-.2.3-.4a2,2,0,0,1,.1-.7,1.4,1.4,0,0,0-.2-.7c0-.2-.2-.3-.3-.4l-.4-.2H90.2Z" style="fill:#fff"/><path d="M438.8,58.1h0a1.5,1.5,0,0,1-1.1.3,1.4,1.4,0,0,1-1.5-1.5,1.5,1.5,0,0,1,1.5-1.5,1.4,1.4,0,0,1,1.1.4h0l-.3.3h-.1a.9.9,0,0,0-.6-.3,1,1,0,0,0,0,2l.7-.2h.1Zm-9.3-.1h-1.2V55.6a.1.1,0,0,0-.1-.1h-.5v2.8a.1.1,0,0,0,.1.1h1.7c.1,0,.1,0,.1-.1v-.3c0-.1,0-.1-.1-.1m2.8,0h-1.2V55.6a.1.1,0,0,0-.1-.1h-.5v2.8a.1.1,0,0,0,.1.1h1.7c.1,0,.1,0,.1-.1v-.3c0-.1,0-.1-.1-.1m2.8-2.5h-1.7a.1.1,0,0,0-.1.1v2.8c0,.1,0,.1.1.1h1.7c.1,0,.1,0,.1-.1v-.3c0-.1,0-.1-.1-.1h-1.3v-.7H435v-.4h-1.2V56h1.4v-.4a.1.1,0,0,0-.1-.1m-12.6,2.3h-.1l-.7.2a1,1,0,0,1,0-2,1.1,1.1,0,0,1,.7.3h.1l.2-.3h0a1.3,1.3,0,0,0-1-.4,1.6,1.6,0,0,0-1.6,1.5,1.5,1.5,0,0,0,1.6,1.5,1.3,1.3,0,0,0,1-.3h0Zm28.4-2.3h-.5v1.8h0l-1.7-1.9h-.1c-.1,0-.1,0-.1.1v2.8c0,.1,0,.1.1.1h.3c.1,0,.1,0,.1-.1V56.6h0l1.8,1.9h.2V55.6h-.1m-7.8,0h-.5v2.8a.1.1,0,0,0,.1.1h.4a.1.1,0,0,0,.1-.1V55.6h-.1m-1.5,0h-2.1a.1.1,0,0,0-.1.1V56h.9v2.4c0,.1,0,.1.1.1h.4V56h.9v-.4a.1.1,0,0,0-.1-.1m-15,1.5a1.5,1.5,0,0,1-1.5,1.5,1.5,1.5,0,0,1-1.6-1.5,1.6,1.6,0,0,1,1.6-1.5,1.5,1.5,0,0,1,1.5,1.5m-.6,0a1,1,0,0,0-.9-1,1,1,0,0,0-1,1,.9.9,0,0,0,1,1,.9.9,0,0,0,.9-1m21.4,0a1.5,1.5,0,0,1-1.6,1.5,1.5,1.5,0,0,1-1.5-1.5,1.5,1.5,0,0,1,1.5-1.5,1.6,1.6,0,0,1,1.6,1.5m-.6,0a1,1,0,0,0-1-1,1,1,0,0,0-.9,1,.9.9,0,0,0,.9,1,.9.9,0,0,0,1-1" style="fill:#fff"/><path d="M418.5,49.3v.5c0,.1,0,.1-.1.1h-3.2a.1.1,0,0,1-.1-.1v-.5h3.4m37.5,0h-.8l-1,1.7-1.1-1.7h-.7c-.1,0-.1,0,0,.1l1.4,2.4v1.6c0,.1,0,.1.1.1h.5c.1,0,.1,0,.1-.1V51.8h0l1.5-2.4h0m-21.5,3.5h-2V51.7h1.6a.1.1,0,0,0,.1-.1v-.5a.1.1,0,0,0-.1-.1h-1.6V49.9h1.9a.1.1,0,0,0,.1-.1v-.5h-2.7v4.1c0,.1,0,.1.1.1h2.6a.1.1,0,0,0,.1-.1v-.5h-.1m4-1.8c-.6-.2-.8-.4-.8-.7s.2-.5.6-.5a1.5,1.5,0,0,1,.9.4h0a.1.1,0,0,0,.1-.1l.3-.3h0c0-.1,0-.1-.1-.1a1.7,1.7,0,0,0-1.2-.4c-.8,0-1.4.4-1.4,1.1s.4,1,1.1,1.4.9.4.9.7-.2.5-.6.5a1.7,1.7,0,0,1-1-.3h-.2l-.3.4a.1.1,0,0,0,.1.1c0,.1.5.5,1.4.5a1.3,1.3,0,0,0,1.4-1.2c0-.7-.4-1-1.2-1.4m-21.4-.5h-.7v2.9a.1.1,0,0,0,.1.1h.6c.1,0,.1,0,.1-.1V50.5h-.1m26.5,0h-.7v2.9c0,.1,0,.1.1.1h.5c.1,0,.1,0,.1-.1V50.5h0m6.7,2.9h-.8l-.9-1.7h-.7v1.6c0,.1,0,.1-.1.1h-.6a.1.1,0,0,1-.1-.1V49.3h1.8a1.3,1.3,0,0,1,.5,2.5Zm-.8-2.9a.7.7,0,0,0-.7-.6h-.9v1.3h.9a.7.7,0,0,0,.7-.7m-20.2.1a1.3,1.3,0,0,1-1.4,1.4h-.8v1.4c0,.1,0,.1-.1.1h-.6a.1.1,0,0,1-.1-.1V49.3h1.6a1.3,1.3,0,0,1,1.4,1.4m-.7,0a.7.7,0,0,0-.8-.7h-.7v1.4h.7a.7.7,0,0,0,.8-.7M424,53.4h-.8l-.3-.7H421l-.3.7c0,.1-.1.1-.2.1h-.6l1.9-4.2h.3Zm-1.4-1.3-.6-1.4h-.1l-.6,1.4Zm22.2-2.9h-3.2v.5c0,.1,0,.1.1.1h3.1c.1,0,.1,0,.1-.1v-.5h-.1" style="fill:#fff"/><path d="M323.9,60.1l.2.2a1.4,1.4,0,0,1-1,.5,1.4,1.4,0,0,1-1.4-1.4h0a1.4,1.4,0,0,1,1.4-1.4,1.8,1.8,0,0,1,1,.4l-.2.2a1.1,1.1,0,0,0-.8-.3,1.1,1.1,0,0,0-1.1,1.1h0a1.1,1.1,0,0,0,1.1,1.1,1.2,1.2,0,0,0,.8-.4m4-.7h0a1.4,1.4,0,0,1-1.4,1.4,1.3,1.3,0,0,1-1.3-1.4h0a1.3,1.3,0,0,1,1.4-1.4,1.3,1.3,0,0,1,1.3,1.4m-.3,0a1,1,0,0,0-1.1-1.1,1,1,0,0,0-1,1.1h0a1,1,0,0,0,1.1,1.1,1,1,0,0,0,1-1.1Zm2-1.3h-.3v2.6h1.8v-.3h-1.5Zm3.1,0h-.3v2.6h1.8v-.3h-1.5Zm3.1,1.4h1.4v-.3h-1.4v-.9h1.6v-.2h-1.9v2.6h1.9v-.3h-1.6Zm4.2,1a1,1,0,0,1-1-1.1h0a1,1,0,0,1,1-1.1,1.1,1.1,0,0,1,.8.3l.2-.2a1.3,1.3,0,0,0-1-.4,1.4,1.4,0,0,0-1.4,1.4h0a1.4,1.4,0,0,0,1.4,1.4,1.1,1.1,0,0,0,1-.5l-.2-.2a1,1,0,0,1-.8.4m2.1-2.2h.9v2.4h.3V58.3h.9v-.2h-2.1Zm3.4,2.4h.3V58.1h-.3Zm4.5-1.3h0a1.4,1.4,0,1,1-2.8,0h0a1.4,1.4,0,1,1,2.8,0m-.4,0a1,1,0,1,0-2,0h0a1,1,0,1,0,2,0Zm3.7.8-1.7-2.1h-.3v2.6h.3V58.5l1.8,2.2h.2V58.1h-.3ZM327.5,55a2.8,2.8,0,0,1-2.3,1.4c-1.6,0-2.5-1.3-2.5-3.6s.6-3.4,1.6-3.7a3.6,3.6,0,0,0-3,3.7,3.5,3.5,0,0,0,3.5,3.8,3.1,3.1,0,0,0,2.7-1.6m-.2-3.5V49.2l-.4.5h-.1a3,3,0,0,0-1.7-.6,3.3,3.3,0,0,1,2.2,2.4m6.8,3a2.1,2.1,0,0,1-2.3,1.9,1.8,1.8,0,0,1-2-2.1V49.9a.7.7,0,0,1,.4-.6h-1.9a.7.7,0,0,1,.4.6v4.4c0,1.4,1,2.3,2.8,2.3a2.4,2.4,0,0,0,2.6-2.1m13.6,1.1a4.2,4.2,0,0,0,2,1c-1-.3-1.6-1.7-1.6-3.8s.5-3.3,1.6-3.7a3.8,3.8,0,0,0-2,1,3.7,3.7,0,0,0-1.1,2.7,3.9,3.9,0,0,0,1.1,2.8m3.1,1a4.1,4.1,0,0,0,2.1-1,3.9,3.9,0,0,0,1.1-2.8,3.7,3.7,0,0,0-1.1-2.7,3.8,3.8,0,0,0-2-1c1.1.4,1.6,1.7,1.6,3.7s-.6,3.5-1.7,3.8m-7.4-.2h2a.5.5,0,0,1-.4-.6V49.9a.5.5,0,0,1,.4-.6h-2a.5.5,0,0,1,.4.6v5.9a.5.5,0,0,1-.4.6m-1-.8a.6.6,0,0,1-1.2,0c0-.3-.1-.5-.1-.7a2.9,2.9,0,0,1-.2-.9c-.3-1.2-2.2-1.2-2.2-1.2s2.5-.2,2.5-1.9-.1-1.6-2.4-1.6h-.2c.8.1,1.2.8,1.2,1.8a1.5,1.5,0,0,1-1.5,1.7c1.1.1,1.3,1.1,1.4,2s.6,1.8,1.4,1.8a1.2,1.2,0,0,0,1.3-1m-5,.2V49.3h-1.5a.6.6,0,0,1,.3.6v5.9a.6.6,0,0,1-.3.6h1.9a.7.7,0,0,1-.4-.6m-3.7-6.3c.3.1.4.5.4,1.2s.1-1.1.4-1.2a.5.5,0,0,1,.4-.2h-1.6a.5.5,0,0,1,.4.2" style="fill:#fff"/><path d="M294.1,47c0-.8-.6-1.4-1.6-1.7V43.4h1.9v4.5h-.6a1.6,1.6,0,0,0,.3-.9m-2.6-5.5c-3.4,0-5.8,2.2-5.8,4.4a3.6,3.6,0,0,0,1.5,2.9h0a3.6,3.6,0,0,1-1.2-2.6c.1-2.5,3.2-3.9,6-3.9s5.4.4,5.4,3.7c0,1.6-1.8,3.8-5.6,3.8-2,0-3.5-1-3.5-2.5s1-2.2,2.6-2.2l1.1.2a3.4,3.4,0,0,0-2.2.4v2.2h1.9V45.4l.8.3v2.2h.5a2.1,2.1,0,0,1-1.7.6h0c1.8.1,2.5-.7,2.5-1.6s-1-1.8-2.1-1.9V43.4h-1.9v1.7c-1.2.2-2.3.9-2.3,2.1s2.5,3,4.7,3,6-1.7,6-3.9-3.8-4.8-6.7-4.8" style="fill:#fff"/><polygon points="283.4 52.9 283.4 59.3 283.9 59.4 283.9 59.8 281.4 59.8 281.4 59.4 282 59.3 282 56.4 278.8 56.4 278.8 59.3 279.3 59.4 279.3 59.8 276.8 59.8 276.8 59.4 277.3 59.3 277.3 52.9 276.8 52.8 276.8 52.4 279.3 52.4 279.3 52.8 278.8 52.9 278.8 55.6 282 55.6 282 52.9 281.4 52.8 281.4 52.4 283.9 52.4 283.9 52.8 283.4 52.9" style="fill:#fff"/><path d="M286.7,59.4h.5v.4h-2.3v-.4h.5V54.9h-.5v-.4h1.8Zm.2-6.5a.8.8,0,0,1-.8.8.7.7,0,0,1-.8-.8.8.8,0,0,1,.8-.8.9.9,0,0,1,.8.8" style="fill:#fff"/><polygon points="288.2 59.4 288.6 59.4 288.6 52.6 288.2 52.5 288.2 52.2 290 52.2 290 59.4 290.4 59.4 290.4 59.8 288.2 59.8 288.2 59.4" style="fill:#fff"/><path d="M293.2,54.5h1.2V55h-1.2v3.1c0,.8.2,1.1.9,1.1h.7v.4l-1.7.3c-1,0-1.2-.5-1.2-1.4V55h-1v-.5h1V53.4l1.3-.4Z" style="fill:#fff"/><path d="M300.5,57.2a2.6,2.6,0,0,1-2.8,2.7,2.4,2.4,0,0,1-2.7-2.7,2.6,2.6,0,0,1,2.8-2.8,2.5,2.5,0,0,1,2.7,2.8m-1.5,0c0-1.7-.4-2.4-1.2-2.4s-1.3.7-1.3,2.4.5,2.3,1.3,2.3,1.2-.6,1.2-2.3" style="fill:#fff"/><path d="M306.9,59.4v.4h-2.3v-.4h.4v-3q0-1.2-.9-1.2a3,3,0,0,0-1.1.4v3.8h.5v.4h-2.3v-.4h.5V55h-.5v-.4H303v.8a2.8,2.8,0,0,1,1.9-.9q1.5,0,1.5,1.8v3.2Z" style="fill:#fff"/><path d="M32,58.5h.4l.2-.6h1.7l.3.6h.3L33.5,55Zm1.5-2.7.7,1.8H32.7Zm2.7,2.8a.9.9,0,0,0,.9-.9,1.1,1.1,0,0,0-.8-1c-.3-.3-.6-.4-.6-.8a.5.5,0,0,1,.5-.5l.6.2.2-.2a1.1,1.1,0,0,0-.8-.3.7.7,0,0,0-.8.8,1.1,1.1,0,0,0,.7,1c.4.3.6.4.6.8a.6.6,0,0,1-.5.6.9.9,0,0,1-.7-.3l-.2.2a1.1,1.1,0,0,0,.9.4m3.2-3.2v-.3H37.6v.3h.8v3.1h.3V55.4Zm3.8,1.4a1.7,1.7,0,0,0-1.8-1.7,1.6,1.6,0,0,0-1.7,1.7,1.7,1.7,0,0,0,1.7,1.8,1.8,1.8,0,0,0,1.8-1.8m-.4,0a1.4,1.4,0,0,1-1.4,1.5A1.5,1.5,0,0,1,40,56.8a1.4,1.4,0,1,1,2.8,0m2.8-.7a.7.7,0,0,1-.8.7h-.5a12.2,12.2,0,0,0,1.5,1.7h.4L44.9,57H45a1,1,0,0,0,1-.9,1,1,0,0,0-1.1-1h-1v3.4h.3V55.4h.7a.7.7,0,0,1,.7.7m1.6-1h-.3v3.4h.3Zm.6,3.4h.4l.2-.6h1.7l.3.6h.3L49.3,55Zm1.5-2.7.7,1.8H48.5Z" style="fill:#fff"/><path d="M9.5,58.6l.9-2.2.9,2.2,1.3-3.5h-.3l-1,2.7-.9-2.1-.9,2.1-1-2.7H8.1Zm3-.1h.3l.3-.7h1.7l.2.7h.4L13.9,55Zm1.4-2.8.7,1.8H13.2Zm3.8,2.8v-.3H16.3V55.1H16v3.4Zm1.5,0A1.7,1.7,0,0,0,21,56.8a1.7,1.7,0,0,0-1.8-1.7h-.9v3.4h.9m0-3.1a1.4,1.4,0,0,1,0,2.8h-.6V55.4h.6M25,56.8A1.8,1.8,0,0,0,23.2,55a1.7,1.7,0,0,0-1.7,1.8,1.6,1.6,0,0,0,1.7,1.7A1.7,1.7,0,0,0,25,56.8m-.4,0a1.4,1.4,0,0,1-1.4,1.4,1.4,1.4,0,0,1-1.4-1.4,1.4,1.4,0,1,1,2.8,0m2.9-.8a.7.7,0,0,1-.8.8h-.6c.1,0,1.5,1.7,1.5,1.7H28L26.7,57h.2a1,1,0,1,0-.1-1.9H25.7v3.4H26V55.4h.7a.8.8,0,0,1,.8.6m3-.6v-.3H28.7v3.4H29V57h1.2v-.3H29V55.4Z" style="fill:#fff"/><path d="M33,45.9l1.5-3.2h.3l-1.6,3.5Zm-8.2-3.3H23.1l4.2,8.8L29,47.9l1.7,3.6,1.7-3.6,1.5,3.5h1.4l-4.2-8.8-1.5,3.2.2.4.9-2,1.1,2.5H30v.2h1.8v.3H30.3v.2h1.8l-1.1,2.3-3.2-7.1H26.6l2.2,4.8-1.1,2.3-3.2-7.1h.3Zm6.2.9.2-.3L35,51.4h-.3Zm-3.7-.8h.3L31,50.1l-.2.3Zm.3,7.4v.3l-3.6-7.7h.3Z" style="fill:#fff"/><path d="M376,58.3a1.8,1.8,0,0,0-1.8,1.9,1.7,1.7,0,0,0,1.8,1.7,1.8,1.8,0,1,0,0-3.6m.1,3.5c-1,0-1.4-1-1.4-1.8s.7-1.5,1.2-1.5,1.4.9,1.4,1.8-.6,1.5-1.2,1.5m5.4-3.4h-.2c-.1,0-.2,0-.2.1a2.8,2.8,0,0,0-.1,1v.6a2.1,2.1,0,0,1-.3,1.2,1.4,1.4,0,0,1-1,.4c-.4,0-.8,0-1-.3s-.4-.6-.4-1.2V59.2c0-.5,0-.6-.3-.7h-.1c-.1,0-.1-.1,0-.1h1.2a.1.1,0,0,1,.1.1H379c-.3.1-.3.2-.3.7v1.1c0,.9.3,1.4,1.1,1.4s1-.6,1-1.4v-.6a2.8,2.8,0,0,0-.1-1c0-.1-.1-.1-.3-.1h1.1m2.1,1.6a.1.1,0,0,1-.1-.1.7.7,0,0,0,.6-.7.7.7,0,0,0-.4-.6,1.5,1.5,0,0,0-.9-.2h-1.1c-.1,0-.1.1,0,.1h.1c.3,0,.3.1.3.5v2c0,.5,0,.6-.3.6h-.1v.2h1.2c1,0,1.4-.4,1.4-1a.9.9,0,0,0-.7-.9m-1.1-1.3a.1.1,0,0,1,.1-.1h.2a.7.7,0,0,1,.8.7c0,.5-.3.6-.8.6s-.3,0-.3-.1Zm.5,3h-.4a1.3,1.3,0,0,1-.1-.6v-.8c0-.1,0-.1.3-.1s1,.5,1,.9-.3.7-.8.7m4.4-.5-.3.7h-2.4v-.2h.2c.3,0,.3-.1.3-.6V59.2c0-.5,0-.6-.4-.6h-.1v-.2H386c.1,0,.1.1,0,.2h-.1c-.3,0-.3.1-.3.6V61c0,.3,0,.5.1.6h1.2c.1,0,.2-.2.3-.5s.2,0,.2.1m2.9,0a2.5,2.5,0,0,1-.2.7h-2.6v-.2h.2c.3,0,.3-.1.3-.6V59.2c0-.5,0-.6-.3-.6h-.1c0-.1,0-.2.1-.2h2.2c.1.1.1.5.1.7s-.1.1-.1,0-.1-.4-.4-.5h-.9c-.1,0-.1,0-.1.2v1c0,.2,0,.2.1.2h.8c0-.1.1-.1.1-.2v-.2c.1-.1.1-.1.2,0a4.3,4.3,0,0,0-.1.5,4.3,4.3,0,0,0,.1.5h-.2v-.2a.2.2,0,0,0-.2-.2h-.8V61c0,.3,0,.5.1.6h1.2c.1,0,.3-.2.4-.5a.1.1,0,0,1,.1.1M372.5,58a2.7,2.7,0,0,0-1.3-.2h-1.6V58h.2q.3,0,.3.6v2.3c-.1.7-.1.7-.4.8h1.6a3.2,3.2,0,0,0,1.4-.3,2.1,2.1,0,0,0,1.1-1.8,1.9,1.9,0,0,0-1.3-1.8m-1.1,3.7c-.4,0-.6-.1-.7-.3a.8.8,0,0,1-.2-.6V58h.6a1.7,1.7,0,0,1,1.9,1.8c0,1.1-.5,1.9-1.7,1.9m19.9-3.9h3c0,.3-.1.6-.1.8s-.1.1-.1,0-.1-.4-.2-.4l-.7-.2h-.4c-.2,0-.2,0-.2.2v2.7c0,.7,0,.8.4.8h.2c0,.1,0,.2-.1.2h-1.6a.1.1,0,0,1,0-.2h.2c.4,0,.4-.1.4-.8V58.2c0-.2,0-.2-.2-.2h-.3a1.1,1.1,0,0,0-.8.2.5.5,0,0,0-.2.4h-.2a2.2,2.2,0,0,0,.1-.8h.8m9.2,3.3c-.1.3-.3.5-.4.5h-.6c-.5,0-.6,0-.6-.1a.7.7,0,0,1-.1-.5v-.8h.8a.2.2,0,0,1,.2.2v.2h.2v-1h-.2v.2a.3.3,0,0,1-.1.2h-.8c-.1,0-.1,0-.1-.1V58.8c0-.2,0-.2.1-.2h.9c.3,0,.3.2.4.5a.1.1,0,0,0,.1-.1c0-.2,0-.6-.1-.6H398a.3.3,0,0,0-.1.2h.1c.3,0,.3.1.3.6v1.9c0,.5,0,.6-.3.7h-.5a4.2,4.2,0,0,1-1.1-1.4h0a1.1,1.1,0,0,0,.6-.9.7.7,0,0,0-.4-.7l-.9-.2h-.9c.2.1.2.1.2.6v1.9c0,.5,0,.6-.3.6h1.1s.1-.1,0-.1h-.1c-.3,0-.3-.1-.3-.6v-.7c0-.1,0-.1.2-.1s.3.1.4.2a3.5,3.5,0,0,1,.5.8c.4.5.6.6,1.1.6h2.8a1.4,1.4,0,0,0,.2-.7c0-.1,0-.1-.1-.1m-4.7-.9c-.3,0-.4,0-.4-.1h0V58.8c0-.2,0-.2.3-.2a.8.8,0,0,1,.9.8.7.7,0,0,1-.3.6c-.1.2-.3.2-.5.2m8,1a4.9,4.9,0,0,1-.3.7H401c-.1,0-.1-.1,0-.1h.1c.3-.1.4-.2.4-.7V59.2c0-.5-.1-.6-.4-.6h0c-.1,0-.1-.1,0-.1h2.3v.6a.1.1,0,0,1-.1.1c-.1-.3-.1-.5-.4-.5H402c-.1,0-.1,0-.1.2v1.1c0,.1,0,.1.2.1h.7c.1,0,.1-.1.1-.2v-.2h.1v1c0,.1-.1.1-.1,0v-.2c0-.1,0-.1-.2-.2h-.8v.8a.7.7,0,0,0,.1.5c0,.1.1.1.6.1h.7c.1,0,.2-.2.3-.5h.2" style="fill:#fff"/><path d="M380.6,47.2Zm1.9,1.8Zm5.7,1.1Zm-7.7-2Zm3.8,1.8Zm9.6-.7a6.4,6.4,0,0,1-3.4,5.8,10.8,10.8,0,0,1-4.4.9l-3.1-.2h-2.6a.5.5,0,0,1,0-.5h.4c1.1-.1,1.5-.4,1.5-2.4v-.3H382c0-.1.1-.1-.1-.1s-.1.1-.1,0h-.1c-.1,0-.1.1-.1,0h-.2a.1.1,0,0,1,.1-.1.1.1,0,0,0,.1-.1h-.4c-.1,0-.1-.1-.1,0H381a.3.3,0,0,1,.1-.2.1.1,0,0,0-.1-.1h-.1c0,.1,0,.1-.1.1h0c-.1.1-.1,0-.1.1h0c0,.1-.1.1,0,.1h-.1c-.1.1-.1,0-.2,0h-.2a.1.1,0,0,0-.2,0h0c0,.1,0,.1-.1.1h-.3c-.1,0-.1,0,0-.1h-.3s-.1,0,0,.1h0a.1.1,0,0,1-.1.1h-.3c0,.1,0,.1-.1.1h-.1s.1-.1,0-.1h-.2c-.1,0,0,0,0-.1h0c0-.1.1-.1,0-.1s-.1.1-.1,0h.1c0-.1.1-.1,0-.1s.1-.1,0-.1,0,.1-.1.1h0c-.1,0-.1.1-.1,0h0a.1.1,0,0,0,.1-.1v-.2a.1.1,0,0,1-.1-.1.1.1,0,0,1,.1.1h.1c.1-.1.1,0,.1-.1s-.1-.1,0-.1h.1c.1,0,.2,0,.1-.1h-.2c-.1.1,0,.1-.1.1h-.1a.1.1,0,0,0-.1.1h.1a.1.1,0,0,1-.1.1s.1.1,0,.1H378a.1.1,0,0,1-.1-.1h-.1V51h-.2a.1.1,0,0,1,.1-.1h-.1a.1.1,0,0,1-.1-.1h0a.1.1,0,0,1-.1-.1h.1c.1-.1,0-.1,0-.1h-.2c0-.1,0-.1.1-.1h0c-.1,0-.1.1-.1,0s0,0,.1-.1h.1c.1.1,0,.1.1.1h0c.1.1.1,0,.2,0h-.3c0,.1,0,.1-.1,0h-.1c0,.1-.1,0-.1,0h-.1a.1.1,0,0,0,.1-.1c.1-.1-.1,0-.1,0h0a.1.1,0,0,0,.1-.1h0a.1.1,0,0,1,.1-.1h.2c.1-.1.1-.1.1,0h.1a.1.1,0,0,1,.1-.1c-.1-.1,0-.1,0-.1h.1c.1-.1.1,0,.1,0h.2a.1.1,0,0,0,.1.1h.2a.1.1,0,0,0,.1.1h1a.1.1,0,0,0-.1.1h-.1a.1.1,0,0,1-.1.1h0c.1,0,.1,0,.1-.1h-.3c-.1,0-.1,0-.1-.1h0a.1.1,0,0,1,.1-.1h-.3a497582161915.9,497582161915.9,0,0,0,.2.2v-.2a.1.1,0,0,1,.1.1c.1,0,.1,0,.1.1a.1.1,0,0,0,.1-.1h0c.1,0,.1,0,.1-.1h0c-.1,0-.1.1-.1.2h-.1c-.1,0-.1,0,0-.1a.1.1,0,0,0-.1-.1.1.1,0,0,1-.1.1h-.1c0-.1.1,0,.1-.1h.2c-.1-.1.1-.1,0-.1a.1.1,0,0,1-.1-.1h.1c0-.1-.1,0-.1,0s0-.1,0-.2H379v-.2h.1c.1,0,.1,0,.1-.1h.2s0,.2.1.2h0v-.4h.1a.1.1,0,0,1,.1.1h.1v.2c0,.1,0,.2.1.2h.2v-.2h-.2a.1.1,0,0,0,.1-.1h.3v-.2h-.1a.1.1,0,0,1-.1.1c0-.1.1-.1.1-.2h.3c0-.1,0-.2-.1-.1h-.1s0,.1-.1,0h.2c0-.1,0,0,.1-.1h-.1c.1,0,.1,0,.1-.1h.2a.1.1,0,0,0-.1-.1h-.1a.1.1,0,0,1-.1-.1h.1c.1-.1.1,0,.1,0h0c0-.1,0,0-.1-.1h.3c.1.1.1,0,.1.1h.1v.2a.1.1,0,0,0,.1-.1c-.1-.1,0-.1,0-.1s.1.1.1,0h0c.1,0,0-.1.1-.2a.1.1,0,0,1,.1.1h0a.1.1,0,0,0,.1-.1.1.1,0,0,1,.1-.1c0-.1,0-.1.1,0h.1a.1.1,0,0,1,.1.1c.1,0,.1,0,.1-.1h0c-.1,0-.1-.1,0-.1s.1,0,0-.1h.3c.1.1,0,.1,0,.2h0a.1.1,0,0,1,.1.1h.3c.1-.1,0-.1,0-.1h.2a.1.1,0,0,1,.1.1c-.1,0-.1,0-.1.1h0c.1,0,.1-.1.2,0s.2.1.2,0v-.2c0-.1,0-.1.1,0s-.1.1,0,.1,0-.2.1-.1h0v.2c.1-.1.1-.1.1-.2h.2s.1.1.1,0-.1-.1,0-.1,0-.1.1-.1h0v.2h.5s.1-.2.1-.1.1.1.1.2h.9a12.4,12.4,0,0,1,4.3.6,5.7,5.7,0,0,1,3.9,5.7m-13.4-5.8h0m0,.1h0m.1-.1h0m-.1.6h0m-.1.4h0m0,.1h0m-1.1,1.1h0m-.1,1h0m-1.6,3c.1,0,0-.1,0,0h0m0,.2h0m1,2.4h0m.1,0h0m6.3-6h0a.1.1,0,0,1-.1-.1h.2c-.1,0-.1,0-.1.1m.3.4h0c.1,0,0,0,0-.1h0m0-1.2h0m.7-.7h0m.1,0h0m.4.4Zm.3-.3h0m0-.1h0m.2,5.1h0m0-2.9h0m.1-1h0m.1-.1h.2a.1.1,0,0,1,.1-.1h-.3m0-.1h0m.1-.5Zm0,.1h0m0,.4h0m.1-.7h0Zm0,.4h0m0-.2h0m0,.3h0m.1-.1h0m0-.3h0m0,.2Zm0-.1h0m0,1.6h0a.1.1,0,0,0,.1-.1h-.1m.3.1h0m.1.2h0m0-.1h0m.1-.1h0c-.1,0-.1.1,0,.1m-.1.7h0c.1,0,.1,0,.1.1h-.1m.1-.5h0m0,.2h0m.2.3h0m0-.3Zm.1.9h0m0-.4h0m.1-.2h0m0,.1h0m.1-.1h0m-.1.6Zm0-.3Zm-.1-.1h0m0,1.4h0a.1.1,0,0,0-.1.1h.1m0,.2h.1a.1.1,0,0,1,.1-.1h0a.1.1,0,0,0,.1-.1h-.3Zm0-.1h0m.2,0h0s-.1.1,0,.1m.1,1.2h.1a.1.1,0,0,0-.1-.1h0m0-.7h0a.1.1,0,0,0,.1.1h-.1m.2,1h0m0-.3h0m0,.7h0Zm-.1-1h0m0,0h0m0,.5h0m0,0h0m-.1.3h0m-.3.6h0c.1,0,.1-.1,0-.1h0s.1-.1,0-.1h0m-.2,0h0a.1.1,0,0,0-.1-.1h0c.1,0,.1,0,.1-.1Zm0,.2h0a.1.1,0,0,0-.1.1h0c.1,0,.1,0,.1-.1h0m-.2-.1c.1,0,.1,0,0-.1h0m-.1-.2h0c.1-.1.1-.1,0-.1h0m-.2.4h0m-.4-.1H387c-.1,0-.1,0-.1-.1h.3m0,.5h0m-.2-.4h0m0,.2h0m0,.2h0Zm-.4-.6h0m0,.2h0m-.1-1.3h0m0,1h0a.1.1,0,0,0-.1-.1h.1m-.1,0h0m0,.2h0m-.2-1.1h.1a.1.1,0,0,0-.1-.1h0m0,1.3h0m-.1-.7h0m.1.1h0c-.1,0-.1.1,0,.1m0,.4h0m-.2-.4h0m0,.4h0m-.2-.7h0a.1.1,0,0,0,.1-.1h-.1Zm.1-.1h0m0,.6h0m0,.3h0m-.1.1h0m0-.9h0m0-1.9h0s-.1.1,0,.1h0m-.1,1.7Zm0,.5h0m0,.4h-.2c.1,0,.1,0,.1-.1h0a.1.1,0,0,1-.1.1h.1a.1.1,0,0,1,.1-.1m-.1.4h0m0-.1h0m-.1-.1h0m-.1-.1h-.1a.1.1,0,0,0,.1-.1h0m0-.1h0m-.1-2.7h0m-.1,2.9h0m0-3.4Zm-.1,2.9h0s.1,0,0-.1m-.2.3h0m0,.1h0c.1,0,0,0,0-.1m0-.1h0m-.1-.1c.1,0,.1,0,.1-.1a.1.1,0,0,0-.1.1m.1-.8Zm-.3,1.6h0m0-2.1h.1c-.1.1-.1.1-.1,0h-.1a.1.1,0,0,1-.1.1h.2m-.1,0h0m0,.8c-.1-.1-.1,0,0,0h0m-.2-4.1h0m0,2.4h0m-.1-2.2h0m.1.6h0m0-.5h0m0,.8h0m0,.2h0m.1-.6h0m0-.4h0m0-2.2h0a.1.1,0,0,0-.1-.1h.1Zm.2,3.7h0a.1.1,0,0,0-.1-.1h.1m0,.9h0m-.1-1.9h0c-.1,0-.1,0-.1.1h.1m-.1-.8h0m.1.4Zm0-.1Zm0,0Zm.1-.2h0a.1.1,0,0,1-.1-.1h.1Zm-.1-.8h0m.1.5Zm0-.5h0m0-1.9h0m0,.6h0m-.1-.9h0m0,0h0m0,.9h0m0,1.3h0m-.1-1.3h0m0-1.3h0m0,6.8h0s-.1,0,0,.1m0-1.8h0m0,.9h0c.1,0,.1-.1,0-.1m0,0h0m.3-.3h0m0,0h0Zm.1-.8h0m.2-2h0Zm.1,1.2h0m0-1.2h0m-.1,1.5h0m0,0c.1,0,.1,0,.1-.1H385m0,.7h0m.1,1.5h0m-.1-.5h0m0,.7Zm-.1.1a.1.1,0,0,0,.1.1h0c0-.1,0-.1-.1-.1m.1-.2h0m-.1-.4h0c.1-.1,0-.1,0-.1h0a.1.1,0,0,0,.1-.1Zm-.2,1.8h0m0-.8h0m0,0c.1-.1,0-.1,0-.1h0m0,.8h0m0,.1h0m0,.4Zm.1-.7h0m.3-.2Zm0,.6h0m.3-3.4h0m0-.1h0m0-1h.1a.1.1,0,0,0-.1.1h.1c.1,0,.1,0,.1.1h0c-.1,0-.1,0-.1-.1h-.1m-.1-.1h.1a.1.1,0,0,0-.1-.1h0m.2-.8h0m.2.4h0Zm0-.3h0m-.1,4.3h-.1c.1,0,.1,0,.1-.1h0m-.2-1.2h0m0-.9h0m-.1,1.1h0m0,0h0m.1.1h.1c0-.1-.1,0-.1,0h0m0-1.2h0m.1-.4h0m0,2.5h0m0-.4h0m0,.9h0c-.1.1-.1.1,0,.1m-.1,0c0,.1,0,.1.1.1h-.1m.2-1.3h0m-.1-.3h0m.1.5h0m0-.3c.1,0,0-.1,0-.1h0m.1-1.1c0-.1,0-.1-.1-.1a.1.1,0,0,0,.1.1m0,.8h0m0-1.2h-.1a.1.1,0,0,0-.1.1h0c.1,0,0,.1,0,.1h.1a.1.1,0,0,0,.1-.1m-.1-.3a.1.1,0,0,0-.1.1h.1Zm0-.3h0m.1-.9h0m0,.5h0m-.1-.8h0m-.1,1.1h0a.1.1,0,0,0-.1.1h.1m-.1.5h0m0,.4h0m-.1,2.6h0m0,.6h0m.1-1.3h0Zm0,1.2h0m0-.1c.1,0,.1-.1,0-.1h0m.3-.4h0m0-3h0m0-1.6h0m.1-.6h0m0-.1h0m.1,0h0m0-.6h0m.1,1.8h0m-.1.1h0c.1,0,.1,0,.1-.1h-.1m.2,2.1Zm0-.9h0m-.1,1.8Zm.1-.5H386a.1.1,0,0,0,.1-.1m-.1-.1h0m-.1.1h0m.1-.5h0m-.2-.8h0m0-.5h0m.2-.3h0m-.1-.5Zm0-1.1h0m0,.7h0m-.1-.5h.1c-.1,0,0,.1-.1.1m0,.8h0m0,.9h0m0,1.1h0c-.1,0,0,.1,0,.1h0m.6-4.1h0m.2.2h0m0-.7h0m0,.2h0a.1.1,0,0,1,.1-.1h-.1m.3,1.3Zm0,2.3h0m0-.1h0m0-1h0m0-1h0m0,3.7h-.2a.1.1,0,0,0-.1-.1h.1a.1.1,0,0,1,.1.1h.1m.1.1h0a.1.1,0,0,1-.1.1h.1m.2-2.4Zm.2.1h-.1a.1.1,0,0,1,.1.1h0m.1.2Zm.2,1.5a.1.1,0,0,1,.1.1h-.1Zm.1-1.4h0m0,2.6h0m.1-.8h0Zm-.2,1.2h0a.1.1,0,0,0,.1-.1h-.1m0-.4h0m0,.9h0c-.1,0,0,.1,0,.1m0,.1c-.1,0,0,.1,0,.1h0m-.1-.6h.1a.1.1,0,0,0-.1.1h0m-.4-.2h0m0-.3h0m.1.9h0m0,.1h0m.1-.2h0m0-.9c-.1,0-.1.1,0,.1h0m0,0h0m0-.4h0m.1-.1h0c-.1,0-.1,0-.1-.1h.1m0,.7Zm0,.2h.1a.1.1,0,0,0-.1.1m.1-.3c-.1,0,0,.1,0,.1h0c.1,0,0,0,0-.1m0,.3h0m0-1c.1,0,.1,0,0-.1h0m.2-.1h0m.1-.1Zm-.2,0h0m0-.2h0m0,.1h-.1a.1.1,0,0,0,.1-.1h0m-.3-.9Zm0,.4h0m0-.8h0m0,.2h0m0,.2h0m.1-.2h.1c-.1,0-.1.1-.1,0m.1.9h0m-.1-.2h0m.2-1.1h0m-.1-.1h0s.1,0,0-.1m-.3-.8h0m0-1.1h0m-.1,2h0m.1.4h0m0-.4h0c.1,0,0-.1,0-.1m0,.9h0c.1,0,0-.1,0-.1h0m0-.3h0m0-.8h-.1c.1,0,.1,0,.1-.1h0m-.2.5h0m.1-.1h0m0,.6h0m0-.8h-.1c0,.1,0,.1.1.1h0m0,.9h0m-.1.4h0m.1-1.8h0m0-.6h0m0-.5h0m-.1.4h0c0,.1,0,.1.1.1h-.1m0,.6h0m0-1.1h0m0,.1h0m0,3.1h.3a.1.1,0,0,0-.1.1h-.2Zm0,1.1h0m0,.3h0m0,.3h.2a.1.1,0,0,0-.1-.1h-.1m.1.2h0m-.2-1.2h0m-.1,0h0m.1.7h0m0,0h0c0-.1-.1,0,0,0m0-.1h0a.1.1,0,0,0-.1.1h.1m-.1-.3h.1a.1.1,0,0,0-.1.1h0m0,.7h0m-.1-.8h0m0,.3h0m-.1-.5h-.1c.1.1.1,0,.1,0m-.2.4h0m.1-.3h0m0-.4h0m-.3.3h0Zm0-.2h0m.1-1h0m0,.1h0m0,.2h0c0-.1-.1,0,0,0m0,.9c.1-.1,0-.1,0-.1h0m.1-.9h0m0,.1h0s-.1,0,0,.1m0,.7h0m0-.2h-.1a.1.1,0,0,1,.1.1h0m0-3h0m0-.4Zm0-.2h0m0,0h0m0,1.7h0m.2-.8Zm0,0h0m.1-.8Zm0,3.4h0m-.1-3.7h0m-.1.1h0m0,.3h0c0,.1,0,.1.1,0h-.1m0,2.7h0m.2-.1h0m.1-1.8h0c-.1,0,0,.1-.1.1h.1m-.1,2h0c.1,0,0-.1,0-.1m.1-3.1c0,.1-.1.1,0,.1h0m-.1,0h0m-.1-.2Zm0-.8h0m-.2.5h0m0-.1h0m0-.4h0m-.1,1.7h0m0-.5h0m0,1.1h0m-.1,1.3c.1,0,0-.1,0-.1h0m0,1h-.1a.1.1,0,0,0,.1.1h0m0-.2h0m-.1-.3h0c.1,0,0,0,0-.1m.1.4h0c-.1.1-.1.1,0,.1h0m0-.9c-.1-.1-.1,0,0,0h0m-.1-.2h0m-.1.7h0m0,.4h0m0-.2h.1s-.1-.1-.1,0m.1-.1h0m-.1-.8h.1c-.1,0-.1,0-.1.1Zm.1-.9h0m-.1,1h0m.2,3.3h0m.1-.2h0m0-1.3Zm.1.1Zm0,1h0m.2.1h0m0,.2c.1,0,0-.1,0-.1h0m.1-.1h0c-.1,0,0,.1,0,0m.6-.6h0m.1-.5h0m0,.4h0m0,.4h0m0,.1Zm.1-.2h0m0,0h0m.5-2.9h0m0,0h0m0,.1h0m0,.1h0m.1-.7h0m0,.8h0m0,0h0m0-1.1h0m0,.1Zm-.1.1h.1a.1.1,0,0,0-.1-.1m0-.1h0m0,.3h0m-.1-.5h0m0,.8h0m0,0h.1c0-.1,0,0-.1-.1h0m0,.2h0m0,.6h0c.1,0,.1-.1,0-.1h0m.2,1.3h0m0,.1h0m.1-.6h0a.1.1,0,0,0-.1-.1h.1m-.2,1.2h.1c.1,0,0-.1,0-.1h-.1Zm-.2-.3h0m.1-1.4h0c-.1,0-.1.1,0,0m.1,1.4h0m0,0h0m-.2-2.4h0m0-.2h0Zm0,.9h0m0,2.2h0m.2.1h0m.3-1.7h.1a.1.1,0,0,0-.1-.1h0m0,0Zm0,.5h0m0,.3Zm0-.8c-.1,0-.1.1,0,0h0m.2.5h0m-.4-2.1h0m0-.8h0m-.3.9c0,.1-.1.1,0,.1h0m-.1,1h0a.1.1,0,0,1,.1.1h-.1Zm0-1.6h0c.1,0,0-.1,0-.1m0-.2h-.2a.1.1,0,0,0,.1.1h.1m-.3-1.3h0m0,.2h-.1a.1.1,0,0,0,.1-.1Zm-.1,0h0m.2.2h0m0-.9h0m-.1,0h-.1c.1.1.1.1.1,0h0m0-.2h0m-.3.5h0m-.2,2.3h0m-.1-1.6h0m0,1.6h0m.1-1.2h0m0-1.4Zm-.3,0h0m.1-1.6h0c-.1,0-.1.1,0,.1h0m-.1.4h0c.1,0,.1-.1,0-.1m0,.7h0m0-.8h0m-.1.2c.1-.1.1-.1,0-.1h0m0-.6h0m0,.2h-.1a.1.1,0,0,0,.1-.1h0m-.1.8h0m0-.4h0m-.2.9h0m-.1,1.9h0m-.1-.2h0Zm.1-.1h0Zm-.1-1.2h0m.1-1.3a.1.1,0,0,0-.1-.1h.1m-.4.8a.1.1,0,0,1-.1-.1h.1m-.1-.6h0m0,.9h0Zm-.2.2Zm-.1-.4h0m.1-.5h0m-.1.4h0m-.2,2.1h0m0-1.4h0m-.1,1.9h.1a.1.1,0,0,0-.1.1h.3a.1.1,0,0,0,.1-.1h-.4m-.2-1.1h0m0,0h0m0-1a.1.1,0,0,0-.1-.1h.1m-.2,1.7h0a.1.1,0,0,0-.1-.1h0a.1.1,0,0,1,.1.1h0Zm0-1.2Zm0-2.2h0m0,.1h0m-.1-.6c0,.1,0,.1-.1.1h.1m0-.2h-.1a.1.1,0,0,1,.1-.1Zm-.1-.1h0m0-.4h0m0,0h0m0,.4h0m0,.1h0s-.1.1,0,.1m-.2-.1h0c0,.1,0,.1.1.1s-.1-.1,0-.1h-.1m-.1-.2h.1a.1.1,0,0,1-.1.1h0m0,5.5h0a.1.1,0,0,0,.1-.1h-.1m0-3.6h0m-.3,2.9h0m.1-4.7h0m0-.1h0m-.1.4Zm.1,1.2h0m0-.1Zm0,.5h0m0-.5Zm0,.9h0m-.1,1.4h0m0-2.4h0m0-.4h0m.1,4h0m0-3.2h0m.1.6h0s-.1,0,0,.1m0,2.1h0m.1.4c-.1,0,0,.1,0,.1h0m-.1-4.9h0c.1-.1,0-.1,0-.1h0m0,1.5h0m0,.1h.1c0-.1,0-.1-.1-.1h0m0,.1h0m0-1.6h0m-.2-.1h0m-.1.2h0Zm-.1,6.9Zm0-3.7h.1a.1.1,0,0,0-.1-.1Zm0,3.2h0m0-3.3h0m0,1.9h0m-.4,3.6h-.1a.1.1,0,0,1,.1.1h0m0,.2h0m-.2-2.5c.1,0,0-.1,0,0h0m0,.7Zm-.1.2h0m0,0Zm0-4.1h0m-.1-.7h0m0,.1h0m-.2,1.1h0m0,.9h0m0-1.2Zm-.1,2.1h0c.1,0,0,.1,0,.1s.1-.1,0-.2m0,.3h0m-.1-2.7h0m0,.4Zm0,1.4h0m0,.7h.1a.1.1,0,0,0-.1-.1Zm.1-1.1h0m0-1Zm0-.4h0m0-.2h0m0-.6h0m-.1-1.5h0m-.1,2.8h0m0-3.5h0m.2.4h0m0,1.6Zm0-.4h0m.1.6h.1c.1,0,0,0,0-.1h-.1m0-.2h.1s0-.1-.1,0h0m.2.1h0a.1.1,0,0,0-.1.1Zm-.1.5h0m-.1.1h.1c0-.1,0-.1-.1,0m.2-.3h0m-.1-.1h0m-.1,0h.1a.1.1,0,0,0-.1-.1h0m0,0Zm-.1.5h0m0,.1h0Zm.3-.5h0m.1-1h0m.1,0h0m0,2.6h0a.1.1,0,0,0,.1-.1h-.1m0-.1h0m0,.2h0c.1,0,.1,0,.1-.1h-.1Zm.1-2h.1a.1.1,0,0,0-.1-.1h0m.1.2h0m.1-1h0m.2,2.8h0m0,1.2h0m0-1.5h-.1c.1,0,.1,0,.1.1h0m0,2.6h0m-.1.5h.1a.1.1,0,0,0-.1-.1h0m.1-.8h0Zm0-2.1h-.1c.1,0,.1,0,.1-.1m0-.5h0Zm0-1.7h0m0-.1h0m-.1-1.2h0c.1.1.1,0,0,0m0,.1h0m0,1.2h.1a.1.1,0,0,1-.1-.1h0m0,3.8h0m-.1.6h0m0,.7h0m0,1.2h0m0-3.5h0a.1.1,0,0,0-.1.1h.1m-.2,0h0m.1-.1h0c-.1.1-.1,0-.1.1h0a.1.1,0,0,0,.1-.1m0,0h0m-.1,0h0m.1-1h0m0-.1h0m0,2.9h0m0-4.6h0m-.1,2.1h0Zm0,.2h0m0,0h0c.1,0,.1,0,.1-.1h-.1m0,.6h0m-.1.1Zm0,1.5h0m0,.8h0c.1,0,.1,0,.1-.1h0c-.1,0-.1,0-.1.1m.1,1.3h0m.1-.1c.1,0,0-.1,0-.1h0m0-.3h0m.1-1.8h0m0,.4h-.1a.1.1,0,0,0,.1.1m0,1.8h0m0,.2Zm.1-1h0Zm.1-.7h0s-.1,0,0,.1Zm.1-2.8Zm-.1-.2h0m.1-2.2h-.1c0,.1,0,.1.1.1m.1-.4h0m-.1.4h0m.1,2h0m0,2.6h0c0-.1,0-.1-.1-.1h.1m0-1.1h0m0-.2h-.1c0,.1.1,0,.1,0m0,0h0m0,2.1h0m0-5.2h0m0-.3h0Zm0-.6h0m-.1-.9a.1.1,0,0,0,.1-.1.1.1,0,0,0-.1.1m0,.9h0m0-.1h-.1a.1.1,0,0,0,.1.1h0v-.2h0m-.1-.8h0m0,1.3h0m0,.4h0m-.1-1.7h0m0,1.6h0m-.1-.2h0m-.1-1.3a.1.1,0,0,0,.1.1h-.1m0,1.5h0m0-.2h0m-.1-.1h0m.1-1.4h-.1s0,.1.1,0m-.2,0h0m0,1.7h0Zm0-1.7h0m-.1.9h0a.1.1,0,0,0,.1.1H383m-.1-.5Zm0-.3h0m-.1,0h0m-.1,0s0,.1.1,0h-.1m0,.5h-.1a.1.1,0,0,1,.1-.1h.1c-.1.1-.1.1,0,.1h.1s.1,0,0-.1h0c-.1.1-.1.1-.1,0h-.1Zm0-.1h0m-.1-.4h0m0,.3h0m-.1-.2h.1c0-.1,0-.1-.1-.1h0m-.1-.3h0c.1.1.1,0,.1,0h-.1m0,.2h.1a.1.1,0,0,0-.1-.1h0m0,3.7h0m0,.7h0m0,.3h0m-.1,1.8h0m-.1.4h0m-.2,0h-.2c.1,0,.1,0,.1-.1h.1m0,.5Zm0,1.2h0m-.1-.5Zm-.1-.8h0m0,0h0m.1,0h0m0-.1Zm0-.1h0m0,.2Zm-.1-.1h0m-.1-2.3Zm-.2-.2h0m0,.5h0m-.1.8h0m0,1.8h0m-.2.1h0m0,0h0m-.1-.3h.1s0-.1-.1,0m.1-.3h0m-.7-.7Zm-.1-.3Zm-.2,1h0m0,.6h0m-.2-2.2h.1a.1.1,0,0,0-.1-.1h0Zm-.2-.2h0a.1.1,0,0,0,.1-.1h.1a.1.1,0,0,1-.1-.1h-.1Zm0-.3c.1-.1.1-.1,0-.1h0m0,.9h.1c0-.1,0-.1-.1-.1h0m.1.6h0c.1-.1,0-.1,0-.1Zm.1,0h0m0-.7h0m.1,0h0m-.1.6h0s.1.1,0,.1h0m.1-.2h0m.1-.4a.1.1,0,0,0-.1.1h.1m0,0h0m0,2h0m0,.2Zm0-.1h0m0-1.7h0m.1-.1Zm0-1.2h0m0-.3h0m0,.3h0m0,1.9h0m0,.9c.1,0,0-.1,0-.1h0m0-.3h0m.1-.3Zm0-1.4h0m0-1.1h-.2a.1.1,0,0,0,.1.1h.1Zm-.5-1.1h0m0,.2h0m0,.7h0m.1-1.2h-.2a.1.1,0,0,1-.1.1h0a.1.1,0,0,1,.1.1h.1a.1.1,0,0,0-.1-.1h.2m-.2.3h0m0,.3h0m0,.6h0m0-.6h0m-.1.2s.1-.1,0-.1h0m0-.3h0m.3-.5h0m.1,0h0m.3-.8h-.1c0,.1,0,.1.1.1h0m0-.4h0m.7-1.3H381a.1.1,0,0,1,.1-.1Zm-.1,2.5a.1.1,0,0,0,.1-.1.1.1,0,0,0-.1.1m0-.8h0m.1.8h0m-.1-.6h0m.1-1.8h0m-.1,1.6h0m-.1,1.5h.1c-.1,0-.1,0-.1-.1m.1,0h0m0,.8c-.1-.1-.1,0-.1,0h.1m-.1,1h0m-.1.6h0m0-.3h0m0-.5c.1-.1.1-.1,0-.1h0m0,.2h-.1c0,.1.1.1.1,0h0m-.1.4h0m0-.9h-.1a.1.1,0,0,0,.1-.1m-.1.2Zm-.1.8h0m0-.7h0m0-.7h0Zm.2,0h0m-.2-1.1h.2a.1.1,0,0,0-.1.1h-.1a.1.1,0,0,1,.1.1h-.2a.1.1,0,0,1,.1.1h0m0,.1h0m-.1,0h0m-.1-.9h0v.2h0m-.1,1.4a.1.1,0,0,0,.1.1.1.1,0,0,0-.1-.1m.1-1.5h0c.1,0,0-.1,0-.1m0,1.5h0m0-1.1h0m.2-.5h0Zm.1,0h0m-.1.7h0m0-.1h0m.2-.6h-.1c0,.1,0,.1.1.1h0m0,.7h0m.2-.2h0Zm0-.2h0m0-.4h0m0,.8h0m-.1-.8h-.1c0,.1,0,.1.1.1h0m0,1.4h0m0,1.2h0m0-.4h0m-.1-.7h0m0,.8h0m-.1.1Zm-.1,0h0m.4-.1Zm0-1.4h0m0-.2c.1,0,.1-.1,0-.1h0m.1-.2h0m0-.1h0m-.1-.4h0m0-.2h0m-.1-.2Zm-.1.2Zm-.4-.1h0m0-.3h0m0,.5h0m-.1.6Zm0-.3h0m-.1.1h0m0,.2h0m0,.1h0m0,.4h0m0-.2h0m0,.4h0m0,.6h0m0,.1h0m.1-.2h0m0,.1h0m.2,1.5h0m.2.4h0m0-.8s-.1.1,0,.1h0m0,.7h0m0-.4h0m0,.2Zm0,.7c0,.1,0,.1.1.1h-.1Zm.3-.1h0m.1-.9h-.1a.1.1,0,0,0,.1.1h0m0,.1h0m0,.4h0m0-.4Zm0,.3h0m0-1.5h0c.1,0,0,0,0-.1m0-.1h0m.1-.8h0m0,.9c.1.1.1,0,.1,0h-.1m.1-.7h0m-.1.6h0c.1,0,.1-.1,0-.1m0-4h0m0,1.8h0m0,3Zm.1.4c-.1,0-.1,0-.1-.1h.1m-.1.1h0m0,.2h0m.1-.2h-.1c0,.1,0,.1.1,0m-.1.4h0m.1,1.3h0m0-3.7h0m.1-2.6h0m.1.7h0m0-.7h0m0,.4h0m.1.9h0m0-1h0m.1,1.1h-.2c.1,0,.1,0,.1-.1h.1Zm.1.2h0m0,.2h0m0-1.3h0m-.1,1.9h0c.1,0,0-.1,0-.1m0-.7Zm-.1.9h0m-.1-1h0m-.1-.8h0m0-.6h0m0,1h0m0,2.6h0m0-.1h0c.1.1.1,0,0,0h0m0-2.5h0m0-.5h0m-.1,2.2h0m0,2.6h0m.1.3h0m.1-1.8Zm0-.2h0m0,0h0m0,.4h0m.1-.6h-.1a.1.1,0,0,0,.1-.1m-.1,0h0m.2-1h0Zm.2-2.3h0m0,0h0m.1.5h0m0,1.7h0m-.1-1.6h0m0,2.4Zm-.1-1.5h0m.1,0h0m0-1.3h0m0,1.3h0m-.1-2.5h0m0,1.8h0m0,2.3Zm.1.1h0M382,50h0c-.1,0,0,.1,0,0m0-.7h0c.1-.1,0-.1,0-.1h0Zm0-.6h0m.1,1.2h0m0,.5h0Zm0-.1h0m.1-1.7h0c.1,0,0-.1,0-.1h0m.1-1.9h0m-.1.6h0c.1,0,0,0,0-.1m0,1.6h0m.1,1.1h0m0-3.2h0m0,3.5h0m0,0h0m.1-.9h0m0-.4a.1.1,0,0,0-.1.1c.1,0,.1,0,.1-.1m0-.1h0s-.1.1,0,.1m0-.1h0m0,.5h0m0-5.8h0m0-.1h0c-.1,0,0,.1,0,0m-.1,4.9h0m0-.6h0m0-3.5h0m0,.8h0m-.1-1.3h0m0,.6h0m0,1.5h0c.1,0,.1,0,.1-.1h-.1m0,2h0m0-.7h0m0,1.1H382c-.1,0-.1,0-.1.1h.3m0-.8h0c-.1,0-.1.1,0,.1m-.1-.6h0m0-1.3h0m0,0h0m0,2.1h0a.1.1,0,0,0-.1.1h.1c.1-.1.1-.1,0-.1h0m0-.5c0-.1-.1,0-.1,0h.1m0-1.9h0m-.1-.5h0m0,2.4h0m0-1.6h0m0-.8h0m-.1-.9h0m.1.1c0,.1-.1.1,0,.1h0m-.1-.3h0m0,0Zm0-.1h0c0,.1-.1.1,0,.1m0,0s-.1.1,0,.1h0m-.1,1.4h0m-.1-1.3h0m0,.8h0m-.1-.4h0m0,.4h0m-.1.5h0a.1.1,0,0,0-.1-.1h.2a.1.1,0,0,0-.1-.1Zm-.1-.3h0m0-.7h0m.1.8h0m-.1-.6a.1.1,0,0,0,.1.1h-.1m0-.5h0m0-.2h0m0,.2h0c-.1,0-.1.1,0,.1m-.1.3Zm0,.2h0m0,0h0m-.1-.2h0m.1-.1h0m-.1-.4h0m0,.4h0m0,.1h0m0,1.6Zm0,2h0m-.1-1.1h0c.1-.1.1-.1,0-.1m0-2.6h0m-.1-.1h0m0,.2h0Zm-.1,0h0m0-.2h0m.1.1h0m-.1-.2h0m0-.2h0m0,.4h0m0,.4h0m0-.9h0m-.1,0h0m0,.3h0m0,.6h0Zm0,.2h.1c-.1,0-.1,0-.1-.1h0m-.1-.2h0c0-.1,0-.1.1-.1h-.1m0,0h0m0-.2h0m0-.4h0m-.1.5h0m0-.1h0m-.1.5h0m.1,0h0m0,0h0m0,.3h0Zm-.2.3h0m-.1.3h0c-.1.1,0,.1,0,.1h0m-.1.7h0m0-.1h0m-.1-.2h0c.1,0,.1,0,.1.1h-.1Zm0,.1h0m-.1.5h.1c-.1,0-.1,0-.1.1h0m-.1-.7h0c.1,0,0,0,0-.1h0m-.1.9h.1c-.1,0,0,.1,0,.1h-.1m0-1.4h0Zm-.1.7h0Zm0,1.2h0m-.1-.9h0m-.2-.6h.1c-.1,0-.1,0-.1.1m.1.6h0c.1,0,0-.1,0-.1m0-.6h0m-.1-.3h0m-.1,1.6h0m0-.8h0c.1,0,.1,0,.1-.1h-.1m.1.6h0m0-.9h0Zm.1,1Zm-.1-.6h0c.1,0,0,.1,0,.1s.1-.1,0-.1m0,.3h0m0-.2h0m0,1.5h0m.1-.9h0a.1.1,0,0,0-.1.1h.1m0,.3h0m0,.3h0m0,.1h0m0,0h0m0-.7Zm0-.4c.1.1.1,0,.1,0h-.1m.1,1h0m0,.3h0m0,.1h0m0-1.4h0m0,.4h0m0,.1h0m0,.1h0m.1.2h0m0,.1h0m0,.4h0m0,.7h.1c.1,0,.1,0,.1.1h0a.1.1,0,0,1,.1.1h.1c.1,0,.1,0,.1-.1h-.1c-.1-.1-.1-.1,0-.1H380a.1.1,0,0,1-.1.1h-.2Zm0,1Zm0-.9h0m0,0h0c0,.1-.1.1,0,.1m-.1.4h0m0,1.4h0m0-.1h0m0-.3h0m0-.5Zm-.2-.7Zm-.1.1h0m0,.3h0m0,.8Zm0,.2h.1a.1.1,0,0,0-.1-.1h0Zm0,1h0m0-.5h0m0,.7h0m-.3.2h.1a.1.1,0,0,1-.1.1h0m-.1-.6h0m.2.3h0m0-1.5h0m0,1.3h0m0-.2h0m0-1.3h0m0-.9h0m0,2.2h0m.1-1.1h0m0,1.5Zm0-.2h0m0,.5h0m0,.1h0m0-2.2h0m0,.7h0m0-1.5h0m-.1-.3c-.1,0-.1.1,0,.1h0m-.1.5h0Zm0,2.1h0m-.1-2.3h0m-.1-.1Zm-.2,0h.1c.1-.1,0-.1,0-.2h-.1m0,.3h0m.1.5h-.1c.1.1.1.1.1,0m0,.4s-.1.1,0,.1h0m-.1-.3h0m-.1-1.5h0m0,1.8h0m-.2-1.1h0s-.1.1,0,.1m-.2-.1h0m0,.2h.1c.1,0,.1,0,0-.1h-.1m.2.2Zm-.3.6h0m0,.1h0m0-.2h0a.1.1,0,0,0,.1-.1H378m0-.5h0m.1,0h.1a.1.1,0,0,0-.1-.1h0m0,.5h0m-.1.2Zm.2-.3h0m.1-.4h0m-.1-.1h0m-.1,0Zm-.1-.3h0Zm-.1.2h0m0,.8h0m0,.1h0m0,.4h0c0-.1-.1-.1,0,0m-.2-.5h0m.1.4h0m.1.2h0m0,.9h0m.1-.1h0m0-.4h0m.1.4Zm0-.1h0m.1.2h0m0-.3h0m0-.5h0m-.1-.3h0m0-.1c0,.1,0,.1.1.1h-.1m-.1.4h0m.1-.2h0m.1.1h0m.1-.4h-.2c0-.1,0-.1.1-.1h.1Zm0,.3h0m0,.1h0m0,.6h0m0-.4h0m.1.3h0m-.1,0h0m.1-.9h0m0-.8h.1a.1.1,0,0,0-.1-.1h0Zm.1,1.4h0m0,.3h0m0-.1h.1a.1.1,0,0,0-.1-.1m.1-.3h-.1c0,.1.1.1.1,0h0m0-.6s-.1,0,0-.1h0m.1.9Zm0-.1h0m.1-1.3h0m0,2.9h0c-.1,0-.1,0,0,.1m0,.1h0m.1.1h0m0-.3h0m.1.2h0m0-.4h-.1a.1.1,0,0,1,.1-.1h0m.1.3h0m0-.3h0m.1.2h-.1c.1,0,.1.1.1,0m0-.3h0m0,.4h0m.1-.2h0m.1-.3Zm0-.3h0m0-.1h0m0-.7h.5a.1.1,0,0,0,.1-.1h.2a.1.1,0,0,0-.1-.1h0c0,.1,0,.1-.1.1h-.6Zm.6.7h-.1c0-.1,0-.1-.1-.1h.2m0,.1c-.1,0,0,.1,0,0h0m-.2.6h0m0,0h0m0-.2Zm.1-.1h0m-.2-.4h0m0-.1h0m0-.2h0m0,.4h0m.1-.6h0m0-.2Zm0,.1h0m0,.8h0m.1-.6h0m0-.1h0m0,.3h0m.1.1h-.1a.1.1,0,0,1,.1.1h0m0-.4h0m0,.1h0m0,.6Zm0,.4Zm.1-1h0m0,.8h0m0,.2h0m-.4-1.1h0m-.2.9h0m0-.2h0m-.1.4h0m.2-.1Zm0-1.1h0m0,.5h0m.2,1.2h-.1c0,.1,0,.1.1.1h0m.2-.2Zm.2.3h0m.1-.2h0m0,0h0m0-.2h-.6c0,.1-.1.1,0,.1h.2a.1.1,0,0,0,.1-.1h.3m0-.3h0m0,0h0m.1-.2h0m0-.3h0m0-.4h0m.1.7h0m-.1.4h0m0,.2h0m.1.1h0m0,0h0m.1-.1h0m0-.3h0m0,.1h0m.1-.2h-.1a.1.1,0,0,0-.1-.1h.2m-.1-.2h0m0,0h0m.1.3h0m0-.7h0m0-.2h0m.1.3h0m0-.3h0m0,1.1h0m.1.1h-.1c0,.1,0,0,.1,0m0-.5h0m0-.1h0c-.1.1-.1,0-.1,0h-.1c0,.1,0,0,.1,0h0a.1.1,0,0,1,.1-.1h0m0,.1h0m0,.4h0m0,0h0m.1-.1c0-.1-.1,0-.1,0h.1m0-.2h0m-.1-.4h0m.1-.5h0m-.1.7h0m.1.2h0m0,.1h0m.1.4s-.1,0,0-.1h0Zm0-.7h0Zm-.1-.2h0m.1-.7h.1c0-.1,0-.1-.1-.1h-.4a.1.1,0,0,0-.1.1h.5m0,.3h0m0,.7h0m.1,0h0Zm.1-.2h0m0-.6h0m0-.7h0m.1,1.9h0m0-2.1h0m.1,1.5h0m.1.5h0m0-.3h0m.1-1.9h-.2a.1.1,0,0,0-.1-.1h.3m.1,1.2Zm0,1.5h0m0-.1h0m0-.7h0m0-.6h0m.1,0h0c0-.1-.1-.1-.1,0h.1m0,1.2c-.1.1-.1.1,0,.1h0m0-1.2Zm0,.9h0m0,.3h0m0,.2h0Zm.2,0h0M382,52h0m.1-.4h0m0,.2h0m0,.6h0m0-.2h0m0,.4h0m.1-.2h0m0-.2h0m0-.7h0m.1-.6Zm.1.2h0m0,.1Zm0,0h0m0-1.6Zm.1,1.5h0m0-.8h0m0,.4h0m-.1-.5h0m.1,0h0m0,.7Zm0-1.3h0m0-.5h0m.1,1.9Zm0-.4h0m0,.2c0,.1.1.1.1,0h-.1m.1.4h0m0-2h0m.1-.4h0m0,1.8h0m0-2.4h0m0,2.4h0m0-3.5h0Zm0,4.1h0Zm0-.5h0m.1,0Zm0,.2h0m0-4h0m0-.3h.1c.1-.1,0-.1,0-.1h-.3a.1.1,0,0,1,.1-.1h.1Zm.1,4.3Zm0,.2h0m.6,1.3h0c-.1.1-.1,0-.1,0s0,0,0,.1h-.1c0-.1,0-.2-.1-.1h0c-.1,0-.1-.1-.1,0s.1,0,.1.1,0-.1-.1,0h0a.1.1,0,0,1-.1-.1H383v.3a4,4,0,0,0,.3,2.1h0c.3-.3.3-.9.3-2Zm.1-1h-.1c0-.1,0-.1.1-.1h0m.1-.1h0m0-.7Zm.1-.1h0m0-.3h0m0,.3h0m0,.3h0m0-2.2h0m0-.3h0m0-.1h0m.1,2.1h0m0-1.8h0Zm.1,1.7h0Zm0-.3h0m0-1.7h0c.1,0,.1,0,.1-.1h0c-.1,0-.1,0-.1.1Zm0,.2h0m0,.1h0m.1,1.9s-.1-.1-.1,0h.1m-.1-.4a.1.1,0,0,0,.1.1h-.1m.1-.2h0c0,.1-.1.1,0,.1h0m0,2h0m0-1.4h0c.1.1,0,0,.1,0h-.1m.1-.3c0-.1,0-.1-.1-.1h.1m0-.2Zm0-1.4h0m0,1.5h0m0,.6h0m0,.1h0m0,.9Zm7.6-2.4c.1-2.1-1-5.7-6-5.7h-.8c-.1.1,0,.2-.1.2s-.1-.1-.1,0h0a.1.1,0,0,1,.1.1c0,.1.1.1,0,.2s-.1-.1-.1,0a.1.1,0,0,0-.1.1h0s.1.1.1,0h.3a.1.1,0,0,0,.1.1h0a.1.1,0,0,0,.1.1c-.1.1-.1,0-.1.1h0c.1.1,0,.1.1.1h.4v-.2h.2v.2a.1.1,0,0,0,.1.1c.1,0,.1,0,.1-.1h0c.1,0,.1,0,0-.1H386a.1.1,0,0,1,.1-.1c.1,0,.1.1.1,0a.1.1,0,0,0,.1-.1c0,.1,0,.1.1.1h.2a.1.1,0,0,0,.1-.1c-.1,0-.2.1-.1,0h.3c.1,0,.2-.1.2,0a.1.1,0,0,0,.1.1h0a.1.1,0,0,0,.1.1h0c.1,0,.1.1.1.2a.1.1,0,0,0-.1.1s.1.1,0,.1,0,.1-.1,0a.1.1,0,0,0-.1-.1h-.2a.1.1,0,0,1,.1.1h0c-.1.1-.1,0-.1.1s.1.1,0,.1-.2-.1-.1,0h.3c0-.1,0,0,.1-.1h0c.1,0,0,.1.1,0h.3a.1.1,0,0,0,.1.1h.1v.2h-.1a.1.1,0,0,1-.1.1h.3c-.1,0-.1,0-.1.1h.2c.1.1.1,0,.1,0h.1s-.1-.1-.1,0h0c0,.1.1.1,0,.1h-.3c.1,0,.1,0,.1.1h0c.1.1.1,0,0,.1h0c-.1,0-.1-.1-.1,0h-.2v.2h0c0,.1-.1.1,0,.1h0c.1,0,.1-.1.1,0h.1c.1-.1.1-.2.1-.1h.1c.1,0,.1-.1.1,0h-.1c.1.1,0,.1,0,0h.1c.1,0,.1,0,.1.1h.1c0,.1,0,0,.1,0h0v.2a.1.1,0,0,1,.1.1h-.1s-.1,0,0,.1h.1c0,.1,0,.2.1.1h0c.1.1.1,0,.1.1s.1,0,.1.1.1,0,0,.1h-.2c0,.1.1.1,0,.1h-.2c0,.1.1.1,0,.1h0c-.1,0,0,0-.1-.1h-.1v.2h.1c.1,0,.1,0,.1.1v.2h.1c-.1.1-.1,0-.1.1h.2c0,.1-.1.1,0,.1h0c.1-.1,0-.1.1-.2h0c.1.1,0,.1.1.1h.2c0-.1,0-.1.1,0h.2c0-.1-.1-.1,0-.1h0a.1.1,0,0,1,.1.1h0a.1.1,0,0,0,.1.1h0s-.2-.1-.1,0a.1.1,0,0,0,.1.1h-.3c.1.1,0,.1,0,.1H389c-.1,0-.2-.1-.1,0h0c.1,0,.1.1.2,0h.1c.1,0,.1-.1.1,0h.1c-.1,0-.1,0-.1.1h.1c0,.1,0,0-.1,0h-.1s-.1.1,0,.1h0c-.1,0,0,0,0,.1h0c-.1,0-.1-.1-.1,0s0,.1,0,.1h-.3a.1.1,0,0,1-.1.1h0a.3.3,0,0,0-.1.2h0c.1,0,.2,0,.1.1h0c.1.1,0,.1,0,.1h0a.1.1,0,0,1-.1-.1h-.2c0,.1,0,.1-.1.2s-.1,0,0,.1h-.7c.1,0,.1,0,.1.1h0c-.1,0-.1,0-.1.1a.3.3,0,0,0-.1-.2h-.3a.1.1,0,0,0,.1.1s.2-.1.2,0h-.2c-.1,0-.1,0-.1-.1a.1.1,0,0,1-.1-.1c0,.1,0,.1-.1.1h-.2c0-.1,0-.1-.1-.1h-.2c0,.1-.1,0-.1.1h-.1c0,.1.1.1.1.2h-.1a.1.1,0,0,1-.1-.1h0c-.1,0,0-.1-.1-.1H386c-.1.1,0,.1-.1,0h-.1c.1,0,.1,0,.1.1h0s-.1-.1-.1,0h0a.1.1,0,0,1,.1.1h.1c0,.1,0,.1-.1.1s0,0,0-.1-.1.1-.2,0h0c0-.1,0-.1-.1-.1h-.3c-.1,0-.2-.1-.2,0s-.1-.1-.4.2h0c-.1,0-.1-.1-.1,0h-.2c0-.1.1-.1,0-.1h-.1a3.5,3.5,0,0,0,.4,1.7,1.9,1.9,0,0,0,1.8.8c3.8,0,5.4-2.5,5.4-6.1M389,51.1h0a.1.1,0,0,0,.1-.1H389Zm0-1.3h0m.3.1h0a.1.1,0,0,1,.1-.1h-.1m-.6-1.7h0m-.1.2h0m.1-.1h0m0-.2h0m-1-2.4h0m.1,0Zm0,.2h0m-.1-.7h0m-.1,0h0c.1,0,0-.1,0-.1m-.7-.5h0m0,.2h0m0-.5h0a.1.1,0,0,1,.1-.1h-.1Zm.2,0h.1a.1.1,0,0,0-.1.1h0m.1,0h0m.7,3.3Zm-6.3,1.8h0c-.1.1,0,.1,0,.1m4.7,1.2Zm-4.7-1.1h-.1c0,.1,0,.1.1.1h0m-.1-1.4h0M386,45Zm.2-.5Zm-6,3.7h0m5.6,3.8h0m.7-1.5Zm-.7,1.5h0m-5.3-3.9h0m6.1,3.6Z" style="fill:#fff"/><path d="M480.9,51.2h9.3v-12h-9.3Zm8.9-.4h-8.5V39.6h8.5Z" style="fill:#fff"/><path d="M481.6,50.6h8V39.8h-8Zm1.4-5.3.8.4V42.4a.7.7,0,0,0-.7-.7v-.3h4.8v1.7h-.4a1.1,1.1,0,0,0-1.2-1.2h-1.1v3.3a1.8,1.8,0,0,1,1-1.1v.3a1.8,1.8,0,0,1,1-.2v.2a1.1,1.1,0,0,1,.9.5h-.8v.3l-.7.2.2.2a1.3,1.3,0,0,1-1.5.3h0l.4-.4c.9-.8,1.3-.8,1.9-.7a1.6,1.6,0,0,0-1.8.3c-1.6,1.3-2.5.8-3,.4Zm5,3.7h-4.9v-.2c.2-.1.7-.2.7-.7V46.3h0a2.7,2.7,0,0,0,1.4-.4v2.6h1.2c.9,0,1.2-.7,1.2-1.5h.4Z" style="fill:#fff"/><path d="M471.1,55.7c0-.4,0-.5-.7-.5v1.1h1.2c.2-.1.2-.3.3-.6h.2v.8c0,.1-.1.1-.2.1h-2.3V54.1h2.3c0,.1,0,.1.1.3v.4h-.2a.5.5,0,0,0-.2-.4c-.2-.2-.5-.2-.9-.2h-.2v1h.6a.6.6,0,0,0,.1-.4h.2v1.1h-.2" style="fill:#fff"/><path d="M477.9,54v2.4H477v-2c-.1.1-.1.2-.2.4l-.5.9-.3.8h-.3c0-.1-.1-.2-.2-.5l-.8-1.7v2.1h-.3V54.1h1a1.3,1.3,0,0,0,.3.5l.5,1.1.5-1.1.3-.5h.9" style="fill:#fff"/><path d="M481.5,55.2h.7a.5.5,0,0,1,.3.5.4.4,0,0,1-.3.4,1.1,1.1,0,0,1-.7.2V55.2Zm-.9.6v.6h1.2a2.4,2.4,0,0,0,1.4-.3.5.5,0,0,0,0-.8c-.2-.2-.6-.2-.7-.3h0c.1,0,.7-.2.7-.6s-.1-.4-.5-.6h-2.1v1.7Zm.9-1.7h.6c.2.1.3.2.3.4s-.1.3-.3.4h-.6v-.9" style="fill:#fff"/><path d="M487,54.8l-.4-1h-.5a4.9,4.9,0,0,1-.4,1l-.2.6-.5,1h.4l.2-.7h1l.2.7h1l-.3-.6c-.1-.1-.1-.3-.2-.4Zm-1.3.7.4-.9.3.7v.2h-.8" style="fill:#fff"/><path d="M490.2,55.6c0,.2.1.3.1.4a1,1,0,0,0,.8.4c.5,0,.8-.2.8-.5s-.3-.3-.6-.4H491c-.3-.1-1-.3-1-.9s.5-.8,1.1-.8l.7.2.2-.2h.1v.8h-.2c0-.2-.1-.2-.1-.3a.7.7,0,0,0-.7-.4c-.3,0-.6.1-.6.4s.2.3.7.4h.3c.2,0,.9.2.9.8s-.5.9-1.2.9a1.4,1.4,0,0,1-.9-.2v.2H490v-.9h.2" style="fill:#fff"/><path d="M494.6,55.6c.1.2.1.3.2.4a.9.9,0,0,0,.8.4c.5,0,.7-.2.7-.5s-.3-.3-.6-.4h-.3c-.3-.1-1-.3-1-.9s.5-.8,1.1-.8l.8.2v-.2h.1v.8h-.2c0-.2,0-.2-.1-.3a.7.7,0,0,0-.7-.4c-.3,0-.6.1-.6.4s.3.3.7.4h.3a.9.9,0,0,1,.9.8c0,.5-.5.9-1.2.9l-.9-.2v.2h-.2c0-.1.1-.3.1-.4s-.1-.3-.1-.5h.2" style="fill:#fff"/><path d="M500.8,55.3v1.1h-.9V55.3l-.6-.8-.4-.4h1l.7,1,.5-.7.2-.3h.4l-.9,1.2" style="fill:#fff"/><path d="M473.9,60.9c.1.2.1.3.2.4s.4.4.8.4.7-.2.7-.4-.3-.4-.6-.5h-.3c-.3-.1-1-.3-1-.9s.5-.8,1.1-.8l.8.2h.2V60h-.2a.4.4,0,0,0-.1-.3.7.7,0,0,0-.7-.4c-.3,0-.6.2-.6.4s.3.3.7.4h.3c.3.1.9.2.9.8s-.5.9-1.2.9l-.9-.2v.2h-.2v-.9h.2" style="fill:#fff"/><path d="M480.7,60.7a1.7,1.7,0,0,1-.1.8,1.4,1.4,0,0,1-1.2.4,1.8,1.8,0,0,1-1.2-.3,1.5,1.5,0,0,1-.2-1V59.4h-.5v-.2h1.9v.2h-.5V61a.7.7,0,0,0,.1.5c.1.1.2.2.6.2s.8-.4.8-.6a9.7,9.7,0,0,0,.1-1.7H480v-.2h1.2v.2h-.4v1.3" style="fill:#fff"/><path d="M483.9,61.7H483V59.4h-.5v-.2h1.9v.2h-.5v2.3" style="fill:#fff"/><path d="M487.9,61.7H487V59.4h-.6c-.4.1-.4.4-.5.6v.2h-.2v-1H489v.9h-.2V60c-.1-.3-.1-.4-.2-.5h-.7v2.3" style="fill:#fff"/><path d="M492.4,61c-.1-.4-.1-.4-.7-.5v1.1h1.2a.5.5,0,0,0,.3-.5h.2v.4c0,.2,0,.3-.1.4h-2.5V59.4h-.5v-.2h2.9V60H493c0-.2,0-.3-.1-.4a1.3,1.3,0,0,0-.9-.2h-.3v1h.5c.2-.1.2-.2.2-.4h.2c0,.3-.1.5-.1.7s.1.3.1.4h-.2" style="fill:#fff"/><path d="M495.2,60.9l.2.4c.1.3.4.4.8.4s.7-.2.7-.4-.2-.4-.6-.5h-.2c-.4-.1-1.1-.3-1.1-.9s.5-.8,1.1-.8a1.5,1.5,0,0,1,.8.2h.3c-.1.3-.1.3-.1.4s0,.3.1.4H497l-.2-.3a.7.7,0,0,0-.7-.4c-.3,0-.6.2-.6.4s.3.3.7.4h.3c.3.1.9.2.9.8s-.5.9-1.2.9l-.9-.2v.2H495a.6.6,0,0,0,.1-.4.9.9,0,0,0-.1-.5h.2" style="fill:#fff"/><polygon points="588.1 49.6 585.2 49.6 585.2 50.4 586.3 50.4 586.3 57.5 587.1 57.5 587.1 50.4 588.1 50.4 588.1 49.6" style="fill:#fff"/><polygon points="592.3 49.6 589.4 49.6 589.4 50.4 590.4 50.4 590.4 57.5 591.2 57.5 591.2 50.4 592.3 50.4 592.3 49.6" style="fill:#fff"/><path d="M573.8,57.5h.8V51.8a2.8,2.8,0,0,0-.4-1.3,2.4,2.4,0,0,0-2-1.1,2.5,2.5,0,0,0-2.1,1.1,2.2,2.2,0,0,0-2-1.1,2.4,2.4,0,0,0-2.4,2.4v5.7h.8V51.8a1.7,1.7,0,0,1,1.6-1.7,1.8,1.8,0,0,1,1.7,1.7h0v5.7h.8V51.8a1.6,1.6,0,1,1,3.2,0Z" style="fill:#fff"/><path d="M580.2,56.9a3.4,3.4,0,1,1,0-6.7,3.4,3.4,0,1,1,0,6.7m0-7.5a4.1,4.1,0,0,0-4.2,4.1,4.2,4.2,0,0,0,4.2,4.2,4.2,4.2,0,0,0,4.2-4.2,4,4,0,0,0-4.2-4.1" style="fill:#fff"/><path d="M597.3,56.9a3.4,3.4,0,1,1,0-6.7,3.4,3.4,0,1,1,0,6.7m0-7.5a4.1,4.1,0,0,0-4.2,4.1,4.2,4.2,0,0,0,8.4,0,4.1,4.1,0,0,0-4.2-4.1" style="fill:#fff"/><path d="M617.3,57.6h.7v1.2c0,.2,0,.3-.1.4a.7.7,0,0,1-.6.2,1,1,0,0,1-1-.9V57.2a6.1,6.1,0,0,1,.1-1.4.9.9,0,0,1,1-.7c.9,0,1,.4,1.2,1.1h.2V54.9h-.1l-.3.2a2.9,2.9,0,0,0-1-.3,2,2,0,0,0-1.5.6,2.4,2.4,0,0,0-.8,1.9,2.2,2.2,0,0,0,3.9,1.5V57.6h.5v-.3h-2.2Z" style="fill:#fff"/><path d="M622.6,57.2h0c0-.5-.1-.7-.5-.9l-.8-.2c-.5,0-1.4.3-1.4.9a.4.4,0,0,0,.4.4c.3,0,.5-.1.5-.4s-.2-.3-.2-.4.4-.2.5-.2.5.1.5.6v.6a2.6,2.6,0,0,0-1.5.4,1,1,0,0,0-.5.8c0,.6.4.8.9.8a1.7,1.7,0,0,0,1.2-.5c0,.1,0,.1.1.2a1.1,1.1,0,0,0,.8.3h.5v-.3h-.5Zm-1,1.2c0,.3,0,.5-.2.6l-.3.2a.6.6,0,0,1-.6-.6c0-.7.6-.8,1.1-.8Z" style="fill:#fff"/><path d="M625.8,56.1c-.5,0-.7.3-1,.7v-.6h-1.5v.3h.5v2.8h-.5v.3h2.2v-.3h-.7V57.8a2,2,0,0,1,.3-1.1l.4-.3a.1.1,0,0,1,.1.1,1,1,0,0,0-.1.4.5.5,0,0,0,.5.4.5.5,0,0,0,.5-.5A.7.7,0,0,0,625.8,56.1Z" style="fill:#fff"/><path d="M630.2,54.9h-1.5v.2h.5v1.6a1,1,0,0,0-1-.6l-.6.2a1.8,1.8,0,0,0-.9,1.6,1.5,1.5,0,0,0,1.5,1.7,1,1,0,0,0,1-.6v.5h1.6v-.2h-.6Zm-1,3.9c-.2.3-.4.6-.8.6s-.7-1-.7-1.5.1-1.5.7-1.5a.9.9,0,0,1,.7.5,1.8,1.8,0,0,1,.2,1A2.8,2.8,0,0,1,629.2,58.8Z" style="fill:#fff"/><path d="M634.1,57.7a1.5,1.5,0,0,0-1.6-1.6,1.7,1.7,0,0,0-1.7,1.8,1.7,1.7,0,0,0,1.8,1.7,1.5,1.5,0,0,0,1.5-1h-.2c-.3.5-.6.9-1.2.9s-.8-.7-.8-1.3v-.4Zm-1.6-1.4c.5,0,.6.3.6.7v.4h-1.2C631.9,56.9,631.8,56.3,632.5,56.3Z" style="fill:#fff"/><path d="M638.2,57.2a.9.9,0,0,0-.7-1h-.4l-.6.2-.7.4v-.5h-1.5v.3h.5v2.8h-.5v.3h2v-.3h-.5V57.7a1.1,1.1,0,0,1,.1-.5,1,1,0,0,1,.8-.7c.5,0,.5.4.5.8v2h-.5v.3h2v-.3h-.5Z" style="fill:#fff"/><polygon points="639.8 55.2 640.4 55.2 640.4 59.3 639.8 59.3 639.8 59.6 641.9 59.6 641.9 59.3 641.4 59.3 641.4 55.2 641.9 55.2 641.9 54.9 639.8 54.9 639.8 55.2" style="fill:#fff"/><path d="M646.1,57.2a1,1,0,0,0-.7-1h-.5l-.6.2a1.3,1.3,0,0,0-.6.4v-.5h-1.5v.3h.5v2.8h-.5v.3h2v-.3h-.5V57.2a1.1,1.1,0,0,1,.9-.7c.4,0,.4.4.4.8v2h-.4v.3h2v-.3h-.5Z" style="fill:#fff"/><path d="M650.6,59.3V57.2a.9.9,0,0,0-.6-1h-.5l-.6.2-.6.4v-.5h-1.6v.3h.6v2.8h-.6v.3h2.1v-.3h-.5V57.2a1.1,1.1,0,0,1,.8-.7c.5,0,.5.4.5.8v2h-.4v.3h2v-.3Z" style="fill:#fff"/><path d="M622.1,47.1h-6.9v6.8h6.9Zm-6.5.4h.7c.7.1,1.1.1,1.5.5s.8.8.7,1.5h0c-.2.1-.3.1-.4,0h0a1.8,1.8,0,0,0-.3-1.1,2.6,2.6,0,0,0-1.9-.6,2.7,2.7,0,0,0,.6,1.9s.8.6,1.4.2l-.8-.7c-.3-.3-.4-.4-.4-.5h0a.1.1,0,0,1,.1-.1h0l.6.5a5.7,5.7,0,0,1,.8.9h0c-.9.9-2.1-.3-2.1-.3a1.9,1.9,0,0,1-.4-1.5,2.2,2.2,0,0,1-.1-.6Zm1,.9c0,.1,0,.2-.1.2a.2.2,0,0,1-.2-.2h.2A.1.1,0,0,1,616.6,48.4Zm1.2,4.6c-.4.4-.8.4-1.5.4h-.7a2.2,2.2,0,0,1,.1-.6c0-.7,0-1.1.4-1.5s.8-.8,1.5-.7.1,0,.1.1.1.2-.1.3h0a1.4,1.4,0,0,0-1,.3,2.3,2.3,0,0,0-.7,1.9,2.6,2.6,0,0,0,1.9-.6s.6-.8.2-1.4a5,5,0,0,1-.6.8c-.3.3-.5.4-.6.4h-.1l.4-.6.9-.8h.2C619.1,51.8,617.8,53,617.8,53Zm-1.2-.4c0,.1,0,.2-.1.2a.2.2,0,0,1-.2-.2c0-.1.1-.1.2-.1S616.6,52.5,616.6,52.6Zm2.7-4.5a2.5,2.5,0,0,1,1.5-.5h.8v.2a1.8,1.8,0,0,0-.1.6,2.5,2.5,0,0,1-.5,1.5,1.7,1.7,0,0,1-1.5.6h0a.2.2,0,0,1,0-.3h0a1.6,1.6,0,0,0,1.1-.4,2.3,2.3,0,0,0,.6-1.8,2.3,2.3,0,0,0-1.9.6s-.6.8-.2,1.3l.7-.7c.3-.3.5-.4.5-.5h.2l-.5.5-.9.9a.1.1,0,0,1-.1-.1C618.1,49.2,619.3,48.1,619.3,48.1Zm1.2.3h.2a.1.1,0,0,1,.1.1.3.3,0,0,1-.1.2A.2.2,0,0,1,620.5,48.4Zm1.1,5.1h-.8a1.9,1.9,0,0,1-1.5-.4s-.8-.8-.6-1.5h0c.1-.1.2-.1.3.1h0a1.3,1.3,0,0,0,.4,1,2.1,2.1,0,0,0,1.8.7,2.2,2.2,0,0,0-.6-1.9s-.8-.6-1.3-.2l.7.6.5.6h-.2l-.5-.4a7.5,7.5,0,0,0-.9-.9.3.3,0,0,1,.1-.2c.9-.9,2,.4,2,.4s.4.8.5,1.5a2.1,2.1,0,0,0,.1.6Zm-1.1-.9c0-.1.1-.1.2-.1a.1.1,0,0,1,.1.1c0,.1,0,.2-.1.2A.2.2,0,0,1,620.5,52.6Z" style="fill:#fff"/><polygon points="625.4 53.6 624.9 53.5 624.9 50.8 627.9 50.8 627.9 53.5 627.4 53.6 627.4 53.9 629.7 53.9 629.7 53.6 629.2 53.5 629.2 47.5 629.7 47.5 629.7 47.1 627.4 47.1 627.4 47.5 627.9 47.5 627.9 50.1 624.9 50.1 624.9 47.5 625.4 47.5 625.4 47.1 623.1 47.1 623.1 47.5 623.6 47.5 623.6 53.5 623.1 53.6 623.1 53.9 625.4 53.9 625.4 53.6" style="fill:#fff"/><polygon points="632.8 53.6 632.4 53.5 632.4 49.1 630.7 49.1 630.7 49.4 631.1 49.5 631.1 53.5 630.7 53.6 630.7 53.9 632.8 53.9 632.8 53.6" style="fill:#fff"/><polygon points="635.9 53.6 635.4 53.5 635.4 47.1 633.7 47.1 633.7 47.4 634.2 47.5 634.2 53.5 633.7 53.6 633.7 53.9 635.9 53.9 635.9 53.6" style="fill:#fff"/><path d="M637.2,52.7c0,.8.2,1.3,1.2,1.3l1.6-.3v-.4h-.7c-.7,0-.8-.3-.8-1V49.5h1.1v-.4h-1.1V47.7l-1.3.4v1h-.9v.4h.9Z" style="fill:#fff"/><path d="M642.7,54.1a2.5,2.5,0,0,0,2.6-2.6,2.3,2.3,0,0,0-2.5-2.5,2.4,2.4,0,0,0-2.6,2.5C640.2,53.4,641.2,54.1,642.7,54.1Zm0-4.8c.8,0,1.2.7,1.2,2.2s-.4,2.2-1.2,2.2-1.1-.7-1.1-2.2S642,49.3,642.7,49.3Z" style="fill:#fff"/><path d="M648,53.6h-.5V50.1l1-.4c.6,0,.9.3.9,1.1v2.7H649v.3h2.1v-.3h-.5V50.6c0-1-.4-1.6-1.3-1.6a2.5,2.5,0,0,0-1.8.8v-.7h-1.7v.3h.4v4h-.4v.3H648Z" style="fill:#fff"/><path d="M631.8,48.5a.7.7,0,0,0,0-1.4.7.7,0,0,0,0,1.4Z" style="fill:#fff"/><path d="M550.7,51.9a2.9,2.9,0,1,0,3,2.9A2.8,2.8,0,0,0,550.7,51.9Zm0,5.4c-1.2,0-1.8-.8-1.8-2.5s.6-2.5,1.8-2.5,1.8.8,1.8,2.5S551.9,57.3,550.7,57.3Zm-13.3-4.5-2.3,3.7-2.4-3.8v4.8h-.5V52h1.3l1.9,3,1.9-3h1.2v5.5h-1.1Zm-2.9,3.7.3.4-3.8,6-.3-.3ZM523.3,52v.5H521v5h-1.1v-5h-2.2V52Zm3.3.5v2h1.8V55h-1.8v2.1h3.2v.4h-4.3V52h4.3v.5Zm11.6-.9h-.6l3-4.8.4.2Zm7.7,2.3c0-1.2-.9-1.9-2.3-1.9h-2.4v5.5h1.1V55.8h1.3C544.9,55.8,545.9,55.1,545.9,53.9Zm-3.6,1.5v-3h.9c1.1,0,1.6.5,1.6,1.5s-.5,1.5-1.6,1.5Z" style="fill:#fff"/><polygon points="822.3 53 822.3 54 818.1 54 818.1 47.4 822.3 47.4 822.3 48.3 819.1 48.3 819.1 50.2 821.9 50.2 821.9 51.1 819.1 51.1 819.1 53 822.3 53" style="fill:#fff"/><polygon points="817 47.4 817 54 816 54 816 49.9 816 49.9 814.6 53 813.8 53 812.4 49.9 812.4 49.9 812.4 54 811.4 54 811.4 47.4 812.3 47.4 814.2 51.7 816.1 47.4 817 47.4" style="fill:#fff"/><path d="M810.2,48.5c.2.4.3.6.3,2.2s-.1,1.8-.3,2.2a2.4,2.4,0,0,1-2.1,1.1,2.4,2.4,0,0,1-2-1.1c-.2-.4-.3-.6-.3-2.2s.1-1.8.3-2.2a2.4,2.4,0,0,1,2-1.2,2.5,2.5,0,0,1,2.1,1.2m-.7,2.2c0-1.4-.1-1.5-.4-1.9a1.4,1.4,0,0,0-1-.5,1.6,1.6,0,0,0-1,.5c-.3.4-.3.5-.3,1.9s0,1.5.3,1.9a1.5,1.5,0,0,0,1,.4,1.3,1.3,0,0,0,1-.4c.3-.4.4-.6.4-1.9" style="fill:#fff"/><polygon points="804.8 47.4 804.8 54 803.8 54 803.8 51.1 801.2 51.1 801.2 54 800.2 54 800.2 47.4 801.2 47.4 801.2 50.2 803.8 50.2 803.8 47.4 804.8 47.4" style="fill:#fff"/><path d="M823.4,47.4V57.8l8.5,3.2V44.1Zm1.1,9.7V55.4l3.5-3.6a3,3,0,0,0,1-2.1c0-1-.7-1.5-1.4-1.3a1.9,1.9,0,0,0-1.4,1.7h-1.7a4.3,4.3,0,0,1,3.1-3.6c1.2-.2,2.8,0,3,2.8a5.6,5.6,0,0,1-1.4,3.9l-2.8,2.8,4.3,1.1v2.1Z" style="fill:#fff"/><path d="M822.3,55.6l-.3.3a.7.7,0,0,0-.6-.2.3.3,0,0,0-.3.3v.2h.6l.4.2c.2.2.2.3.2.6a.8.8,0,0,1-.9.7,1.2,1.2,0,0,1-.9-.3l.3-.3.6.2c.3,0,.5-.1.5-.3a.3.3,0,0,0-.1-.2h-.5a.6.6,0,0,1-.5-.2.8.8,0,0,1-.2-.5c0-.4.3-.7.9-.7a1.1,1.1,0,0,1,.8.3" style="fill:#fff"/><polygon points="819.2 57.4 819.2 57.8 817.6 57.8 817.6 55.3 819.2 55.3 819.2 55.7 818.1 55.7 818.1 56.3 819 56.3 819 56.8 818.1 56.8 818.1 57.4 819.2 57.4" style="fill:#fff"/><polygon points="816.2 55.3 816.2 55.7 815.5 55.7 815.5 57.8 815 57.8 815 55.7 814.4 55.7 814.4 55.3 816.2 55.3" style="fill:#fff"/><rect x="812.5" y="55.3" width="0.5" height="2.5" style="fill:#fff"/><path d="M810.9,55.3v1.6a.9.9,0,1,1-1.8,0V55.3h.4v1.6a.5.5,0,0,0,.5.5.5.5,0,0,0,.4-.5V55.3Z" style="fill:#fff"/><path d="M807.6,55.6l-.4.3c-.1-.2-.3-.2-.5-.2s-.4.1-.4.3.1.1.1.2h.5l.5.2c.2.2.2.3.2.6a.8.8,0,0,1-.9.7,1.2,1.2,0,0,1-.9-.3l.3-.3.6.2c.3,0,.4-.1.4-.3v-.2h-.6a.5.5,0,0,1-.4-.2c-.2-.1-.2-.3-.2-.5a.7.7,0,0,1,.8-.7,1.4,1.4,0,0,1,.9.3" style="fill:#fff"/><polygon points="243.1 55.9 243.4 55.9 243.4 57.7 241.4 57.7 241.4 55.9 241.7 55.9 241.7 55.7 240.2 55.7 240.2 55.9 240.5 55.9 240.5 60 240.2 60.1 240.2 60.3 241.7 60.3 241.7 60.1 241.4 60 241.4 58.2 243.4 58.2 243.4 60 243.1 60.1 243.1 60.3 244.6 60.3 244.6 60.1 244.3 60 244.3 55.9 244.6 55.9 244.6 55.7 243.1 55.7 243.1 55.9" style="fill:#fff"/><polygon points="246.4 57 245.3 57 245.3 57.2 245.6 57.3 245.6 60 245.3 60.1 245.3 60.3 246.7 60.3 246.7 60.1 246.4 60 246.4 57" style="fill:#fff"/><path d="M246,56.5a.5.5,0,0,0,0-1,.5.5,0,0,0,0,1" style="fill:#fff"/><polygon points="248.5 55.5 247.4 55.5 247.4 55.7 247.6 55.8 247.6 60 247.4 60.1 247.4 60.3 248.8 60.3 248.8 60.1 248.5 60 248.5 55.5" style="fill:#fff"/><path d="M250.5,59.3v-2h.8V57h-.8v-.9l-.8.2V57h-.6v.3h.6v2.2c0,.5.1.8.8.8a2.6,2.6,0,0,0,1.1-.2v-.2h-.5c-.5,0-.6-.1-.6-.6" style="fill:#fff"/><path d="M253.4,60.1c-.5,0-.8-.4-.8-1.4s.3-1.5.8-1.5.8.4.8,1.5-.3,1.4-.8,1.4m.1-3.2a1.7,1.7,0,0,0-1.8,1.8,1.5,1.5,0,0,0,1.7,1.7,1.8,1.8,0,0,0,.1-3.5" style="fill:#fff"/><path d="M258.9,58.1q0-1.2-.9-1.2a2,2,0,0,0-1.2.6V57h-1.1v.2h.3V60h-.3v.2h1.4v-.2h-.3V57.7a1.1,1.1,0,0,1,.7-.3c.4,0,.6.3.6.8V60h-.3v.2h1.4v-.2h-.3Z" style="fill:#fff"/><path d="M244.8,50.5c.2.1.5-.2.6-.4s.1-.4,0-.5a.2.2,0,0,0-.2-.2c-.3-.1-.5.1-.6.4v.4c0,.1.1.3.2.3" style="fill:#fff"/><path d="M232.1,50.8a.6.6,0,0,0,.6-.8c0-.1-.1-.3-.2-.3s-.5.1-.6.4a1.3,1.3,0,0,0-.1.6h.3" style="fill:#fff"/><path d="M233.7,59.4c-.5,0-.2-1.5.8-2.8l1.5-1.8c-.1.6-.8,4.7-2.3,4.6m1.9-6.8c0,.2-.5,1.1-.9,1s-.2-.8.2-1.4.6-.8.9-.7,0,.8-.2,1.1m16.6.8c-.8-.4-1.7.6-2.1.6s-.2-1.7-.7-1.8-1.6,2-2.3,1.8.3-2,1.6-2,.6-.2.6-.4a.4.4,0,0,0-.4-.4c-1.6,0-2.4,1.9-2.4,1.9s-.8,1.3-1.4,1.3-.6-1.7-.4-2.1.6-.9-.1-.9-.4.3-.5.4-1.5,2.8-2.2,2.7-.1-2-.1-2.4a.8.8,0,0,0-.4-1c-.2-.1-.6.1-.9.4a15.6,15.6,0,0,0-1.3,1.3s.7-1.5.1-1.6-.5.3-.6.4l-2.1,2.2s.6-1.5,0-1.4-.7.7-.7.7,1-1.7.3-2.1a.6.6,0,0,0-.8.1,3.6,3.6,0,0,0-1.4,1.6c-.2.2-1.2,1.9-1.9,1.8s-.1-2.2.1-2.6-.1-.5-.4-.5-.4.1-.4.2l-2,1.4a2.5,2.5,0,0,0,.5-.7c.2-.9-.7-1-2.9-1.6-.1,0-3.2-.7-3.1-1s1.6-1.2,3-1.6a11.8,11.8,0,0,1,3.6-.7c.2,0,.8-.1.9-.4s-.7-.7-1.4-.6a18.1,18.1,0,0,0-3.6.9c-2.3.8-3.3,1.7-3.4,2.3s.7,1.3,2.2,1.7,3.5.9,3.6,1.1-.5.5-.5.5a13.2,13.2,0,0,1-4.8,1.7c-1.9-.2-.8,1.2.5,1a25.8,25.8,0,0,0,7.3-3.2c-.1,0-.1.2-.2.5s-.2,2,1,2,1.7-1.2,1.8-1.3a1,1,0,0,0,.7.8,2.1,2.1,0,0,0,1.6-.8c0,.2-.1.6-.1.7s-1,1-1.9,2.1-2.4,3.7-.6,3.8a2,2,0,0,0,2-1.6,31.9,31.9,0,0,0,1-4.3l2.1-2.1-.6,2.2a.3.3,0,0,0,.1.2c.1.1.3,0,.4-.2s1.9-2.5,2.4-2.5-.2,1.2,0,2a1.1,1.1,0,0,0,.9,1c.8,0,1.8-1.6,1.8-1.6s.3,1.3,1.3,1.3.7,0,1.4-.7.1.8.8.9,1.7-1.5,1.7-1.5-.2,1,1.2,1.1,2.7-.8,2.1-1" style="fill:#fff"/><path d="M239.3,57.3h.2l-.5,1.1c-.1.3-.2.5-.4.5h-.2v-.3h.2a.3.3,0,0,0,.3-.3h0l-.4-1.1h.3l.3.7.3-.7h-.1Zm-1.5,1h-.3v-.7h.2c.2,0,.3.2.3.5s-.1.4-.2.4m.1-1.1-.4.2v-.6h-.3v1.5h.6c.3,0,.5-.3.5-.7s-.2-.6-.4-.6" style="fill:#fff"/><path d="M848.4,56.4a1.1,1.1,0,0,1,.8.3h.1l.3-.3h-.1a1.5,1.5,0,0,0-1.1-.4,1.4,1.4,0,0,0-1.5,1.3,1.5,1.5,0,0,0,1.5,1.4,1.5,1.5,0,0,0,1.1-.4h.1V57.2h-1.3v.4h.9v.5l-.8.2a.9.9,0,0,1-1-1A.9.9,0,0,1,848.4,56.4Z" style="fill:#fff"/><path d="M852.7,56.8a.8.8,0,0,0-.2-.5.9.9,0,0,0-.7-.3h-1.5v2.7h.5V57.6h.9l.6,1.1h.5l-.6-1.1A.8.8,0,0,0,852.7,56.8Zm-1.9-.4h1a.5.5,0,0,1,.4.2v.2c0,.3-.2.4-.5.4h-1Z" style="fill:#fff"/><path d="M854.3,56l-1.2,2.7h.5l.3-.8h1.2l.4.8h.4L854.7,56Zm.6,1.5h-.8l.4-.9Z" style="fill:#fff"/><polygon points="858.3 57.9 856.8 56 856.4 56 856.4 58.7 856.8 58.7 856.8 56.8 858.4 58.7 858.7 58.7 858.7 56 858.3 56 858.3 57.9" style="fill:#fff"/><path d="M861.7,56.4a1.1,1.1,0,0,0-1-.4h-1.1v2.7h1.1a1.3,1.3,0,0,0,1-.4,1.2,1.2,0,0,0,.4-1A1.1,1.1,0,0,0,861.7,56.4Zm-1.7,0h.7a.8.8,0,0,1,.7.3c.2.1.2.4.2.6s0,.6-.2.7a.8.8,0,0,1-.7.3H860Z" style="fill:#fff"/><polygon points="865.7 56 864.8 58.1 863.9 56 863.4 56 864.6 58.7 865 58.7 866.2 56 865.7 56" style="fill:#fff"/><path d="M867.2,56,866,58.7h.5l.3-.8H868l.4.8h.4L867.6,56Zm.6,1.5H867l.4-.9Z" style="fill:#fff"/><path d="M871.4,57.9a1.3,1.3,0,0,1-1,.4.9.9,0,0,1-1-1,.9.9,0,0,1,1-.9,1.4,1.4,0,0,1,.9.3h0l.3-.3h0a1.7,1.7,0,0,0-1.2-.4,1.3,1.3,0,0,0-1.4,1.3,1.4,1.4,0,0,0,1.4,1.4,2,2,0,0,0,1.3-.5h0l-.3-.3Z" style="fill:#fff"/><path d="M873.1,56l-1.2,2.7h.4l.4-.8h1.2l.3.8h.5L873.5,56Zm.6,1.5h-.8l.4-.9Z" style="fill:#fff"/><polygon points="874.5 56.4 875.4 56.4 875.4 58.7 875.9 58.7 875.9 56.4 876.9 56.4 876.9 56 874.5 56 874.5 56.4" style="fill:#fff"/><rect x="877.3" y="56" width="0.4" height="2.64" style="fill:#fff"/><path d="M879.8,56a1.4,1.4,0,0,0-1.5,1.3,1.4,1.4,0,0,0,1.5,1.4,1.4,1.4,0,0,0,1.4-1.4A1.3,1.3,0,0,0,879.8,56Zm1,1.3a1,1,0,0,1-1,1,.9.9,0,0,1-1-1,.9.9,0,0,1,1-.9A1,1,0,0,1,880.8,57.3Z" style="fill:#fff"/><polygon points="883.8 57.9 882.3 56 881.9 56 881.9 58.7 882.3 58.7 882.3 56.8 883.8 58.7 884.2 58.7 884.2 56 883.8 56 883.8 57.9" style="fill:#fff"/><path d="M886.2,57h-.1c-.4,0-.7,0-.7-.3s.3-.3.6-.3a1.3,1.3,0,0,1,.9.3h0l.3-.3h-.1A2.4,2.4,0,0,0,886,56c-.5,0-1.1.2-1.1.8s.7.6,1.2.7.8.1.8.4-.4.4-.7.4a1.4,1.4,0,0,1-1.1-.4H885l-.2.3h0a1.7,1.7,0,0,0,1.4.5c.7,0,1.2-.3,1.2-.8S886.6,57.1,886.2,57Z" style="fill:#fff"/><polygon points="862 48.3 860.2 48.3 860.2 48.6 860.6 48.7 860.6 53.1 860.2 53.1 860.2 53.5 862.5 53.5 862.5 53.1 862 53.1 862 48.3" style="fill:#fff"/><polygon points="856.7 46.5 857.3 46.6 857.3 49.4 854.1 49.4 854.1 46.6 854.6 46.5 854.6 46.2 852.2 46.2 852.2 46.5 852.6 46.6 852.6 53 852.2 53.1 852.2 53.5 854.6 53.5 854.6 53.1 854.1 53 854.1 50.1 857.3 50.1 857.3 53 856.7 53.1 856.7 53.5 859.2 53.5 859.2 53.1 858.7 53 858.7 46.6 859.2 46.5 859.2 46.2 856.7 46.2 856.7 46.5" style="fill:#fff"/><polygon points="865.7 53.1 865.3 53.1 865.3 45.9 863.4 45.9 863.4 46.3 863.9 46.3 863.9 53.1 863.4 53.1 863.4 53.5 865.7 53.5 865.7 53.1" style="fill:#fff"/><path d="M861.4,47.5a.9.9,0,0,0,.8-.9.9.9,0,0,0-.8-.8.8.8,0,0,0-.8.9A.7.7,0,0,0,861.4,47.5Z" style="fill:#fff"/><path d="M868.5,51.9V48.8h1.2v-.5h-1.2V46.8l-1.3.4v1.1h-1v.5h.9v3.4c0,.9.3,1.3,1.3,1.3l1.7-.3v-.3h-.7C868.7,52.9,868.5,52.7,868.5,51.9Z" style="fill:#fff"/><path d="M878.3,49.4a1.8,1.8,0,0,1,1.1-.5q.9,0,.9,1.2v3h-.5v.4h2.3v-.4h-.5V50c0-1.2-.4-1.8-1.4-1.8a2.7,2.7,0,0,0-1.9.8v-.7h-1.8v.3h.4v4.4h-.4v.4h2.3v-.4h-.5Z" style="fill:#fff"/><path d="M875.8,50.9a2.5,2.5,0,0,0-2.7-2.8,2.7,2.7,0,0,0-2.8,2.8c0,2,1,2.7,2.7,2.7A2.6,2.6,0,0,0,875.8,50.9Zm-4,0c0-1.7.5-2.4,1.2-2.4s1.3.8,1.3,2.4-.4,2.3-1.3,2.3S871.8,52.5,871.8,50.9Z" style="fill:#fff"/><path d="M680.6,42.6l-15,4.4V57.2l15,4.4,15-4.4V47Zm14.2,14-14.2,4.2-14.2-4.2v-9l14.2-4.2,14.2,4.2Z" style="fill:#fff"/><path d="M684.7,53.4c.1.7.7.4,1,.3l.7-.6c0,.7.8.9,1.4.5s.8-1.4.8-1.4.7-.4.7-.4l-.7,2h.8a6.3,6.3,0,0,1,1-2.3c.2-.3.4-.4.4-.3s0,.3-.2.9a2,2,0,0,0-.3,1.7.9.9,0,0,0,1,.9,2.4,2.4,0,0,0,2-1.2,3.1,3.1,0,0,0,.6-1.7c0-.4-.1-.5-.3-.5s-.1.1-.1.8a3.3,3.3,0,0,1-1.1,1.9,1,1,0,0,1-1.4.2c-.3-.3,0-1.3.3-2a3,3,0,0,0,.3-1.3c-.1-.3-.5-.2-.7-.2l-.7.5v-.4h-.7a2.8,2.8,0,0,1-.4.8l-.5.2v-.4a.7.7,0,0,0-.6-.7,1.1,1.1,0,0,0-1.2.6,3,3,0,0,0-.6,1.4l-.6.7c-.2.1-.3.2-.2-.5a10.7,10.7,0,0,1,.6-1.9h.6v-.3h-.6l.3-1.1h-.7l-.4,1h-.5V51h.5l-.3.8a12.3,12.3,0,0,0-.4,1.6m3.2-2.3a.4.4,0,0,1,.3-.2c.2.1.1.7,0,1a.7.7,0,0,1-.3-.4c-.1-.3,0-.4,0-.4m-.7,1.2a1.7,1.7,0,0,1,.4-.8.9.9,0,0,0,.5.7s-.1.5-.2.8-.4.6-.6.5-.2-.8-.1-1.2" style="fill:#fff"/><path d="M674.6,51.6h-.3a8.1,8.1,0,0,1,.5-1.4,3,3,0,0,1,.9-1.3s-.3-.2-1,.3a8.3,8.3,0,0,0-1.3,2.4h-1.2a6.8,6.8,0,0,1,.6-1.5l.6-1-1.5.3a3.8,3.8,0,0,0-1.3.4c-.3.1-.4.5-.3.6s.3-.1.5-.3a5.6,5.6,0,0,1,1.7-.6,5.7,5.7,0,0,0-1.1,2h-.7v.3h.6s-.3,1-.6,1.8-.9,1.4-1.6,1.4a1.7,1.7,0,0,1-1.3-1.7c0-1,0-1.3.5-1.9s.2-.5-.1-.4-.5.3-.7.9a4,4,0,0,0,.4,2.7,1.6,1.6,0,0,0,2.4.3,4.9,4.9,0,0,0,1.3-1.8,5.8,5.8,0,0,0,.5-1.3h1.2s-1.1,2.8.4,3.5a2.6,2.6,0,0,1-.1-1.5,12.9,12.9,0,0,1,.6-2h.4v-.3" style="fill:#fff"/><path d="M680.3,51.5c.1-.8-.3-.9-.6-.8l-.7.5v-.5h-.6a18.9,18.9,0,0,1-.6,1.8c-.1.2-.6.8-.8.8s-.1-.4,0-.7l.6-1.9h-.7v.2c-.2-.4-.9-.4-1.4.2a3.6,3.6,0,0,0-.8,1.8c0,.5,0,.9.5.9s1-.7,1-.7.1.7.5.7,1-.6,1-.6l-.2.5h.8c.1-.5.5-1.4.6-1.8a2.2,2.2,0,0,1,.6-.7c.2,0,.3.1.2.3s-.7,2.2-.7,2.2h.7l.6-1.4a1.8,1.8,0,0,1,.7-1.1c.2-.2.1,0,.1.2a12.7,12.7,0,0,0-.6,1.8c-.1.2,0,.6.5.6s1-.6,1-.6l-.5,1.7h.7l.4-1.3a.6.6,0,0,0,.5.2c.4,0,1-.5,1.3-1.2s.4-1.9-.2-1.9a.8.8,0,0,0-.7.3v-.3h-.6l-.5,1.8a1.5,1.5,0,0,1-.8.8c-.3.2-.3-.2-.1-.6a13.1,13.1,0,0,0,.5-1.5c.1-.4-.2-.6-.6-.5s-.9.8-.9.8m-3.8.3a2.8,2.8,0,0,1-.5,1.1c-.2.2-.5.4-.6.3s-.1-.5.1-1,.4-.9.6-1,.4-.2.5-.1a1,1,0,0,1-.1.7m6.5.4c.2-.7.6-1.2.8-1.1s.1.7-.2,1.3-.6,1-.8,1-.1-.6.2-1.2" style="fill:#fff"/><path d="M721,41.5a10.7,10.7,0,0,0-10.1,7.3h1.3V46.6h1v2.2h1.5v.8h-1.5v5c0,.5,0,.8.3.9l.7.2h.5v.6l-.8.2c-1.2,0-1.7-.4-1.7-1.7V49.6h-1.5a10.1,10.1,0,0,0-.3,2.5A10.6,10.6,0,1,0,721,41.5Zm-1.6,8.1a2.6,2.6,0,0,0-2.8,2.7v4h-.9V48.8h.8v1.8h0a3,3,0,0,1,2.9-1.9Zm7,6.7h-.8V54.9h-.1a2.6,2.6,0,0,1-2.5,1.6c-1.9,0-2.6-1.1-2.6-2.8V48.8h.9v4.9c0,1.3.5,2,2,2s2.2-1.4,2.2-3V48.8h.9Z" style="fill:#fff"/></g></svg>