<svg id="step2" xmlns="http://www.w3.org/2000/svg" width="27.897" height="29.634" viewBox="0 0 27.897 29.634">
  <path id="Path_1" data-name="Path 1" d="M49.295,6.965H49.2c-.131-.019-3.23-.672-4.481-1.961-.952-.952-1.942-2.95-.616-4.3A2.28,2.28,0,0,1,45.747,0,4.085,4.085,0,0,1,48.38,1.326c1.27,1.288,1.344,4.818,1.344,5.21a.4.4,0,0,1-.168.336.349.349,0,0,1-.261.093ZM45.747.878a1.414,1.414,0,0,0-1.027.467,1.472,1.472,0,0,0-.28,1.625,4.1,4.1,0,0,0,.878,1.438,8.854,8.854,0,0,0,3.51,1.587c-.075-1.214-.336-3.286-1.064-4.033A3.234,3.234,0,0,0,45.747.878Z" transform="translate(-35.346)" fill="#00175a"/>
  <path id="Path_2" data-name="Path 2" d="M72.748,6.965a.5.5,0,0,1-.28-.093.454.454,0,0,1-.168-.336c0-.392.075-3.921,1.344-5.21A4.047,4.047,0,0,1,76.277,0,2.28,2.28,0,0,1,77.92.71c1.326,1.344.337,3.342-.62,4.29-1.27,1.27-4.351,1.923-4.481,1.961h-.075ZM76.3.878a3.234,3.234,0,0,0-2.017,1.083c-.747.747-1.008,2.82-1.064,4.033a8.988,8.988,0,0,0,3.51-1.587A4.1,4.1,0,0,0,77.6,2.969a1.472,1.472,0,0,0-.28-1.625A1.414,1.414,0,0,0,76.3.878Z" transform="translate(-58.8)" fill="#00175a"/>
  <path id="Path_3" data-name="Path 3" d="M65.928,37.928H60.7V32.7h5.228Zm-4.369-.878h3.492V33.559H61.559Z" transform="translate(-49.366 -26.594)" fill="#00175a"/>
  <path id="Path_4" data-name="Path 4" d="M68.792,75.177H65.3V56h3.492ZM66.178,74.3h1.737V56.878H66.178Z" transform="translate(-53.107 -45.543)" fill="#00175a"/>
  <path id="Path_5" data-name="Path 5" d="M25.264,56.146H2.614a.877.877,0,0,1-.878-.878V37.847h.878V55.268h22.65V37.847h.878V55.268a.877.877,0,0,1-.878.878Zm1.755-18.3H.878A.877.877,0,0,1,0,36.969V33.478A.877.877,0,0,1,.878,32.6H27.019a.877.877,0,0,1,.878.878V36.97a.9.9,0,0,1-.878.877Zm0-.878v-3.49H.878V36.97Z" transform="translate(0 -26.513)" fill="#00175a"/>
</svg>
