<?xml version="1.0" encoding="UTF-8"?>
<svg width="119px" height="31px" viewBox="0 0 119 31" version="1.1" xmlns="http://www.w3.org/2000/svg" xmlns:xlink="http://www.w3.org/1999/xlink">
    <title>Logo Lockup</title>
    <defs>
        <polygon id="path-1" points="28.7022064 28.8054016 0.00390296927 28.8054016 0.00390296927 0.000115221606 28.7022064 0.000115221606"></polygon>
    </defs>
    <g id="Design--1280-Breakpoint-(Desktop)" stroke="none" stroke-width="1" fill="none" fill-rule="evenodd">
        <g id="FULL-PAGE-1280" transform="translate(-125.000000, -20.000000)">
            <g id="Logo-Lockup-Copy-9" transform="translate(125.000000, 20.000000)">
                <g id="logo-blue-box-small" transform="translate(89.573734, 0.000000)">
                    <g id="Group-3">
                        <mask id="mask-2" fill="white">
                            <use xlink:href="#path-1"></use>
                        </mask>
                        <g id="Clip-2"></g>
                        <path d="M28.7022064,15.597088 L28.7022064,0.000115221606 L0.00390296927,0.000115221606 L0.00390296927,28.8055168 L28.7022064,28.8055168 L28.7022064,20.3776324 C28.658585,20.4029812 28.7022064,15.597088 28.7022064,15.597088" id="Fill-1" fill="#006FCF" mask="url(#mask-2)"></path>
                    </g>
                    <path d="M25.1748979,13.98243 L27.3536731,13.98243 L27.3536731,8.9195926 L24.9912288,8.9195926 L24.9912288,9.62762937 L24.5412394,8.9195926 L22.484145,8.9195926 L22.484145,9.83502826 L22.0823688,8.9195926 L18.7688626,8.9195926 C18.6236492,8.9195926 18.4801577,8.92938644 18.340684,8.948398 C18.2012102,8.96740957 18.0646063,8.99679108 17.933742,9.03539031 C17.8338719,9.06477182 17.7368716,9.09991441 17.6427412,9.14139419 C17.5422972,9.1851784 17.4452969,9.23587591 17.3528883,9.29348671 L17.3528883,9.14024198 L17.3528883,8.9195926 L6.53649778,8.9195926 L6.24664492,9.76877584 L5.95679205,8.9195926 L3.37681457,8.9195926 L3.37681457,9.83502826 L2.97618626,8.9195926 L0.923109628,8.9195926 L0.000172189821,11.092096 L0.000172189821,13.98243 L1.44427082,13.98243 L1.72494023,13.2501967 L2.21740311,13.2501967 L2.49749856,13.98243 L13.7828194,13.98243 L13.7828194,13.3665705 L14.246584,13.98243 L17.3528883,13.98243 L17.3528883,13.8602951 L17.3528883,13.6350368 C17.4389833,13.6868866 17.528522,13.7312469 17.6186346,13.7704222 C17.7093213,13.8090215 17.8011558,13.8418596 17.8941384,13.8689367 C18.0221328,13.9058076 18.1512751,13.9328847 18.2781217,13.9513201 C18.4279268,13.9726361 18.5754361,13.98243 18.7154838,13.98243 L20.5510273,13.98243 L20.8316967,13.2501967 L21.3241596,13.2501967 L21.604255,13.98243 L24.7691039,13.98243 L24.7691039,13.3515917 L25.1748979,13.98243 Z M28.7105289,20.3737725 L28.7105289,15.5972608 L11.1115813,15.5972608 L10.6524085,16.2517195 L10.1886439,15.5972608 L5.08206776,15.5972608 L5.08206776,20.6600982 L10.169129,20.6600982 L10.6231362,19.9906606 L11.0920665,20.6600982 L14.2850397,20.6600982 L14.2850397,19.5441769 L14.1886134,19.5441769 C14.6093305,19.5441769 14.9950357,19.464674 15.3336757,19.3321692 L15.3336757,20.6600982 L17.6427412,20.6600982 L17.6427412,20.0436626 L18.1070798,20.6600982 L27.6142537,20.6600982 C28.0298052,20.6600982 28.4017352,20.5581271 28.7105289,20.3737725 L28.7105289,20.3737725 Z" id="Fill-4" fill="#FFFFFF"></path>
                    <path d="M27.6478881,19.1370414 L25.9231201,19.1370414 L25.9231201,19.8254905 L27.6042667,19.8254905 C28.3337776,19.8254905 28.7688439,19.3847678 28.7688439,18.7591145 C28.7688439,18.1426789 28.3676416,17.7843397 27.7202079,17.7843397 L26.9522413,17.7843397 C26.7496312,17.7843397 26.6044178,17.6535632 26.6044178,17.4496209 C26.6044178,17.2508637 26.7496312,17.1200872 26.9522413,17.1200872 L28.4015056,17.1200872 L28.7062816,16.4316381 L26.9952887,16.4316381 C26.2663518,16.4316381 25.8312855,16.8775457 25.8312855,17.4836113 C25.8312855,18.1092646 26.2422452,18.4681799 26.8799215,18.4681799 L27.6478881,18.4681799 C27.8510721,18.4681799 27.9957116,18.5989565 27.9957116,18.8075076 C27.9957116,19.0062648 27.8510721,19.1370414 27.6478881,19.1370414 L27.6478881,19.1370414 Z M24.503128,19.1370414 L22.77836,19.1370414 L22.77836,19.8254905 L24.4589327,19.8254905 C25.1890175,19.8254905 25.6240838,19.3847678 25.6240838,18.7591145 C25.6240838,18.1426789 25.2223075,17.7843397 24.5748738,17.7843397 L23.8074812,17.7843397 C23.6042972,17.7843397 23.4590838,17.6535632 23.4590838,17.4496209 C23.4590838,17.2508637 23.6042972,17.1200872 23.8074812,17.1200872 L25.2567455,17.1200872 L25.5603735,16.4316381 L23.8505286,16.4316381 C23.1210178,16.4316381 22.6859515,16.8775457 22.6859515,17.4836113 C22.6859515,18.1092646 23.0969112,18.4681799 23.7351614,18.4681799 L24.503128,18.4681799 C24.7057381,18.4681799 24.8509515,18.5989565 24.8509515,18.8075076 C24.8509515,19.0062648 24.7057381,19.1370414 24.503128,19.1370414 L24.503128,19.1370414 Z M22.2761397,17.1200872 L22.2761397,16.4316381 L19.6089194,16.4316381 L19.6089194,19.8254905 L22.2761397,19.8254905 L22.2761397,19.1370414 L20.3820517,19.1370414 L20.3820517,18.4583861 L22.2319443,18.4583861 L22.2319443,17.7843397 L20.3820517,17.7843397 L20.3820517,17.1200872 L22.2761397,17.1200872 Z M17.9030922,17.1200872 C18.1981108,17.1200872 18.3530816,17.2998329 18.3530816,17.5222106 C18.3530816,17.7405555 18.1981108,17.9249101 17.9030922,17.9249101 L16.9376813,17.9249101 L16.9376813,17.1200872 L17.9030922,17.1200872 Z M16.9376813,18.5891626 L17.3285522,18.5891626 L18.3674308,19.8254905 L19.3380074,19.8254905 L18.2176256,18.5603572 C18.7921657,18.4532011 19.1308056,18.0458928 19.1308056,17.5170256 C19.1308056,16.8723607 18.6865559,16.4316381 17.9713942,16.4316381 L16.164549,16.4316381 L16.164549,19.8254905 L16.9376813,19.8254905 L16.9376813,18.5891626 Z M14.8846047,17.5659948 C14.8846047,17.8085363 14.7296338,18.0021085 14.4346153,18.0021085 L13.4445238,18.0021085 L13.4445238,17.1200872 L14.4346153,17.1200872 C14.7296338,17.1200872 14.8846047,17.3188444 14.8846047,17.5659948 L14.8846047,17.5659948 Z M12.6713915,16.4316381 L12.6713915,19.8254905 L13.4445238,19.8254905 L13.4445238,18.6911338 L14.473645,18.6911338 C15.2077476,18.6911338 15.6617547,18.2112358 15.6617547,17.5613859 C15.6617547,16.8925245 15.217505,16.4316381 14.5029172,16.4316381 L12.6713915,16.4316381 Z M11.4832817,19.8254905 L12.4544323,19.8254905 L11.1015943,18.1144496 L12.4446749,16.4316381 L11.5027966,16.4316381 L10.6521789,17.5371894 L9.80213513,16.4316381 L8.83098454,16.4316381 L10.1838226,18.1282762 L8.83557627,19.8254905 L9.77802855,19.8254905 L10.6280723,18.7055365 L11.4832817,19.8254905 Z M8.62320882,17.1200872 L8.62320882,16.4316381 L5.95656247,16.4316381 L5.95656247,19.8254905 L8.62320882,19.8254905 L8.62320882,19.1370414 L6.72969476,19.1370414 L6.72969476,18.4583861 L8.5795874,18.4583861 L8.5795874,17.7843397 L6.72969476,17.7843397 L6.72969476,17.1200872 L8.62320882,17.1200872 Z" id="Fill-6" fill="#006FCF"></path>
                    <path d="M24.1985243,11.0726235 L25.522664,13.1483408 L26.4794654,13.1483408 L26.4794654,9.75391225 L25.7109248,9.75391225 L25.7109248,11.9943964 L25.5031491,11.6642865 L24.2760097,9.75391225 L23.2761608,9.75391225 L23.2761608,13.1483408 L24.0441274,13.1483408 L24.0441274,10.8300821 L24.1985243,11.0726235 Z M20.8167162,10.9856312 L21.073279,10.2724095 L21.3338596,10.9856312 L21.6432273,11.7662576 L20.5079224,11.7662576 L20.8167162,10.9856312 Z M22.1942347,13.1483408 L23.0488702,13.1483408 L21.6041976,9.75391225 L20.5756504,9.75391225 L19.1258121,13.1483408 L19.9620807,13.1483408 L20.2519336,12.4161075 L21.9038079,12.4161075 L22.1942347,13.1483408 Z M18.6235918,13.1483408 L18.6528641,13.1483408 L18.9719892,12.4547067 L18.7492904,12.4547067 C18.1793421,12.4547067 17.8464418,12.0957914 17.8464418,11.4799319 L17.8464418,11.421745 C17.8464418,10.8738663 18.1506438,10.4613729 18.739533,10.4613729 L19.5947424,10.4613729 L19.5947424,9.75391225 L18.6769707,9.75391225 C17.6478495,9.75391225 17.0727355,10.456764 17.0727355,11.4171361 L17.0727355,11.4851169 C17.0727355,12.4691094 17.6478495,13.1385469 18.6235918,13.1483408 L18.6235918,13.1483408 Z M15.7491698,13.1483408 L16.522302,13.1483408 L16.522302,11.5767181 L16.522302,9.75391225 L15.7491698,9.75391225 L15.7491698,11.517955 L15.7491698,13.1483408 Z M14.0439166,10.4423613 C14.3383612,10.4423613 14.493332,10.6215309 14.493332,10.8444848 C14.493332,11.0628297 14.3383612,11.2471843 14.0439166,11.2471843 L13.0779317,11.2471843 L13.0779317,10.4423613 L14.0439166,10.4423613 Z M13.0779317,11.9120129 L13.4693765,11.9120129 L14.5076811,13.1483408 L15.4788317,13.1483408 L14.357876,11.8826314 C14.932416,11.7760514 15.271056,11.3687431 15.271056,10.8398759 C15.271056,10.195211 14.8268063,9.75391225 14.1116446,9.75391225 L12.3047994,9.75391225 L12.3047994,13.1483408 L13.0779317,13.1483408 L13.0779317,11.9120129 Z M11.6866379,10.4423613 L11.6866379,9.75391225 L9.0194176,9.75391225 L9.0194176,13.1483408 L11.6866379,13.1483408 L11.6866379,12.4593156 L9.79254989,12.4593156 L9.79254989,11.7806603 L11.6430165,11.7806603 L11.6430165,11.1066139 L9.79254989,11.1066139 L9.79254989,10.4423613 L11.6866379,10.4423613 Z M5.90335581,13.1483408 L6.57489611,13.1483408 L7.55121239,10.3985771 L7.55121239,13.1483408 L8.31458727,13.1483408 L8.31458727,9.75391225 L7.03923466,9.75391225 L6.24658752,12.0473983 L5.45451434,9.75391225 L4.16940432,9.75391225 L4.16940432,13.1483408 L4.93277919,13.1483408 L4.93277919,10.3985771 L5.90335581,13.1483408 Z M1.70995971,10.9856312 L1.96652254,10.2724095 L2.22710314,10.9856312 L2.53647085,11.7662576 L1.40116597,11.7662576 L1.70995971,10.9856312 Z M3.08690431,13.1483408 L3.94211375,13.1483408 L2.49744116,9.75391225 L1.46832,9.75391225 L0.0196296396,13.1483408 L0.855324236,13.1483408 L1.14460313,12.4161075 L2.79705145,12.4161075 L3.08690431,13.1483408 Z" id="Fill-8" fill="#006FCF"></path>
                </g>
                <g id="HH-logo" fill="#FFFFFF" fill-rule="nonzero">
                    <g id="Logos-/-Hilton-Honors--black">
                        <polygon id="Shape" points="1.07874518e-14 9.96641407e-14 1.07874518e-14 28.2188071 12.5631677 28.2188071 12.5631677 26.9982705 1.1936215 26.9982705 1.1936215 1.20833127 69.1215359 1.20833127 69.1215359 26.9982705 57.6555354 26.9982705 57.6555354 28.2188071 70.3151574 28.2188071 70.3151574 9.96641407e-14"></polygon>
                        <g id="Group" transform="translate(14.948892, 24.898947)">
                            <polygon id="Shape" points="4.03464054 5.67253354 4.03464054 3.3718708 1.09703217 3.3718708 1.09703217 5.67253354 0.0731354781 5.67253354 0.0731354781 0.1947651 1.09703217 0.1947651 1.09703217 2.45890939 4.03464054 2.45890939 4.03464054 0.1947651 5.05853724 0.1947651 5.05853724 5.67253354"></polygon>
                            <path d="M12.9327904,2.93364932 C12.9327904,4.49177012 11.628541,5.74557046 10.0195605,5.74557046 C8.41057998,5.74557046 7.10633062,4.47959731 7.10633062,2.93364932 C7.10633062,1.37552852 8.41057998,0.121728188 10.0195605,0.121728188 C11.628541,0.121728188 12.9327904,1.37552852 12.9327904,2.93364932 Z M8.1789843,2.93364932 C8.1789843,3.9561661 8.97128532,4.79609059 10.0317497,4.79609059 C11.0800249,4.79609059 11.8845152,3.96833892 11.8845152,2.93364932 C11.8845152,1.91113255 11.0922142,1.07120805 10.0317497,1.07120805 C8.97128532,1.07120805 8.1789843,1.91113255 8.1789843,2.93364932 Z" id="Shape"></path>
                            <polygon id="Shape" points="18.8445749 5.67253354 15.9435342 1.85026845 15.9435342 5.67253354 14.944016 5.67253354 14.944016 0.1947651 16.0166697 0.1947651 18.9177103 4.02920301 18.9177103 0.1947651 19.9172285 0.1947651 19.9172285 5.67253354"></polygon>
                            <path d="M27.7427247,2.93364932 C27.7427247,4.49177012 26.4384753,5.74557046 24.8294948,5.74557046 C23.2205143,5.74557046 21.9162649,4.47959731 21.9162649,2.93364932 C21.9162649,1.37552852 23.2205143,0.121728188 24.8294948,0.121728188 C26.4384753,0.121728188 27.7427247,1.37552852 27.7427247,2.93364932 Z M22.9767294,2.93364932 C22.9767294,3.9561661 23.7690304,4.79609059 24.8294948,4.79609059 C25.8899593,4.79609059 26.6822603,3.96833892 26.6822603,2.93364932 C26.6822603,1.91113255 25.8899593,1.07120805 24.8294948,1.07120805 C23.7690304,1.07120805 22.9767294,1.91113255 22.9767294,2.93364932 Z" id="Shape"></path>
                            <path d="M32.2039889,0.1947651 C33.8982941,0.1947651 34.5687027,0.730369126 34.5687027,1.99634228 C34.5687027,2.90930368 34.2152145,3.43273489 33.3741565,3.65184563 L34.7515414,5.67253354 L33.5813737,5.67253354 L32.3015028,3.78574664 C32.1917996,3.79791945 32.0942856,3.79791945 31.9480147,3.79791945 L30.8144148,3.79791945 L30.8144148,5.67253354 L29.7905181,5.67253354 L29.7905181,0.1947651 L32.2039889,0.1947651 Z M30.8144148,3.00668623 L32.2405566,3.00668623 C33.1547501,3.00668623 33.496049,2.7267114 33.496049,2.05720637 C33.496049,1.38770134 33.1547501,1.10772651 32.2405566,1.10772651 L30.8144148,1.10772651 L30.8144148,3.00668623 Z" id="Shape"></path>
                            <path d="M40.7730291,0.706023488 L40.3464054,1.49725671 C39.7491324,1.1685906 39.0177776,0.973825501 38.4205045,0.973825501 C37.9207454,0.973825501 37.4819325,1.1685906 37.4819325,1.64333053 C37.4819325,1.947651 37.6647712,2.08155201 38.6642894,2.34935402 C40.0051065,2.70236577 40.9071108,2.94582214 40.9071108,4.07789429 C40.9071108,5.17344797 39.980728,5.74557046 38.7008572,5.74557046 C37.750096,5.74557046 36.8359025,5.48994126 36.1411154,5.02737415 L36.6043068,4.26048657 C37.2625261,4.66218959 38.0792056,4.86912751 38.8105604,4.86912751 C39.3590765,4.86912751 39.8344571,4.66218959 39.8344571,4.19962247 C39.8344571,3.63967281 39.4687797,3.57880872 38.3717475,3.3110067 C37.0918767,2.99451342 36.3727111,2.69019295 36.3727111,1.76505872 C36.3727111,0.620813757 37.3356616,0.109555369 38.5180185,0.109555369 C39.3468872,0.121728188 40.175756,0.340838925 40.7730291,0.706023488 Z" id="Shape"></path>
                        </g>
                        <g id="Group" transform="translate(6.090289, 6.086409)">
                            <polygon id="XMLID_6534_" points="12.7882801 0.932216593 12.7882801 13.2542077 13.7599974 13.3856742 13.7599974 14.1027638 8.94939676 14.1027638 8.94939676 13.3856742 9.99309317 13.2542077 9.99309317 7.64895666 3.85087984 7.64895666 3.85087984 13.2542077 4.79860416 13.3856742 4.79860416 14.1027638 0.0839755728 14.1027638 0.0839755728 13.3856742 1.03169989 13.2542077 1.03169989 0.932216593 0.0839755728 0.812701646 0.0839755728 0.107563453 4.79860416 0.107563453 4.79860416 0.812701646 3.85087984 0.932216593 3.85087984 6.20282579 9.99309317 6.20282579 9.99309317 0.932216593 8.94939676 0.812701646 8.94939676 0.107563453 13.7599974 0.107563453 13.7599974 0.812701646"></polygon>
                            <polygon id="XMLID_6533_" points="19.3263783 13.3378682 20.2381131 13.4693346 20.2381131 14.1027638 15.8233972 14.1027638 15.8233972 13.4693346 16.7231355 13.3378682 16.7231355 4.91206436 15.8233972 4.78059791 15.8233972 4.14716869 19.3263783 4.14716869"></polygon>
                            <polygon id="XMLID_6532_" points="22.1455582 13.4812861 23.0333 13.3617712 23.0333 0.84855613 22.1455582 0.729041182 22.1455582 0.107563453 25.6605358 0.107563453 25.6605358 13.3617712 26.560274 13.4812861 26.560274 14.1027638 22.1455582 14.1027638"></polygon>
                            <path d="M31.9227142,4.14716869 L34.2860267,4.14716869 L34.2860267,5.07938528 L31.9227142,5.07938528 L31.9227142,11.0073267 C31.9227142,12.537118 32.24662,13.0271293 33.6382152,13.0271293 C34.1540651,13.0271293 34.6099325,13.0271293 35.0418069,12.9195659 L35.0418069,13.6008011 C33.7701768,14.0430064 32.6904909,14.2342303 31.7907526,14.2342303 C29.7633423,14.2342303 29.2954784,13.3259167 29.2954784,11.5809984 L29.2954784,5.07938528 L27.4480158,5.07938528 L27.4480158,4.14716869 L29.3674575,4.14716869 L29.3674575,2.0556571 L31.9347107,1.29076144 L31.9347107,4.14716869 L31.9227142,4.14716869 Z" id="XMLID_6531_"></path>
                            <path d="M46.1505755,9.21460248 C46.1505755,12.3219911 44.0391897,14.4015512 40.7281528,14.4015512 C37.5250846,14.4015512 35.4736813,13.0390808 35.4736813,9.21460248 C35.4736813,6.01160188 37.5850671,3.86033282 40.896104,3.86033282 C44.1711513,3.86033282 46.1505755,5.79647497 46.1505755,9.21460248 M43.271413,9.15484501 C43.271413,6.01160188 42.3236887,4.62522848 40.8001319,4.62522848 C39.3125646,4.62522848 38.3648403,5.93989291 38.3648403,9.15484501 C38.3648403,12.3219911 39.3125646,13.6366556 40.8001319,13.6366556 C42.3836713,13.6366556 43.271413,12.3817486 43.271413,9.15484501" id="XMLID_6528_"></path>
                            <path d="M58.1230929,13.4693346 L58.1230929,14.1027638 L53.7083771,14.1027638 L53.7083771,13.4693346 L54.5961189,13.3378682 L54.5961189,7.66090816 C54.5961189,6.08331085 54.0202864,5.39012415 52.8086388,5.39012415 C52.2448028,5.39012415 51.3690576,5.77257198 50.721246,6.21477729 L50.721246,13.3259167 L51.6209843,13.4573831 L51.6209843,14.0908124 L47.1822754,14.0908124 L47.1822754,13.4573831 L48.0820137,13.3259167 L48.0820137,4.95987034 L47.1822754,4.82840389 L47.1822754,4.1232657 L50.7092495,4.1232657 L50.7092495,5.5096391 C51.8009319,4.63717998 52.8566248,3.93204178 54.3441921,3.93204178 C56.3236164,3.93204178 57.2113581,5.07938528 57.2113581,7.3262663 L57.2113581,13.3139652 L58.1230929,13.4693346 Z" id="XMLID_6527_"></path>
                            <path d="M19.4583399,1.50588834 C19.4583399,2.2827355 18.8225248,2.90421323 18.0427517,2.90421323 C17.2629785,2.90421323 16.6271634,2.27078401 16.6271634,1.50588834 C16.6271634,0.729041182 17.2629785,0.107563453 18.0427517,0.107563453 C18.8225248,0.107563453 19.4583399,0.729041182 19.4583399,1.50588834" id="XMLID_6415_"></path>
                        </g>
                    </g>
                </g>
                <rect id="Vert-Rule" fill="#FFFFFF" x="79.7054409" y="0" width="1" height="28.8111498"></rect>
            </g>
        </g>
    </g>
</svg>