<svg id="Layer_1" data-name="Layer 1" xmlns="http://www.w3.org/2000/svg" xmlns:xlink="http://www.w3.org/1999/xlink" viewBox="0 0 291 159"><defs><mask id="mask" x="205" y="43.51" width="27.55" height="12.77" maskUnits="userSpaceOnUse"><g transform="translate(0 -0.5)"><g id="mask-2"><polygon id="path-1" points="205 44 232.6 44 232.6 56.8 205 56.8 205 44" style="fill:#fff;fill-rule:evenodd"/></g></g></mask><mask id="mask-2-2" x="205" y="43.51" width="27.55" height="12.77" maskUnits="userSpaceOnUse"><g transform="translate(0 -0.5)"><g id="mask-4"><polygon id="path-3" points="205 44 232.6 44 232.6 56.8 205 56.8 205 44" style="fill:#fff;fill-rule:evenodd"/></g></g></mask></defs><g id="Page-1"><g id="mobile_footer" data-name="mobile footer"><path id="Fill-1" d="M110,28h72V1H110Zm1.2-1.2h69.6V2.2H111.2Z" transform="translate(0 -0.5)" style="fill:none;stroke:#fff"/><polygon id="Fill-2" points="129 7.4 129 20.6 130 20.7 130 21.5 125.1 21.5 125.1 20.7 126.1 20.6 126.1 14.6 119.9 14.6 119.9 20.6 120.8 20.7 120.8 21.5 116 21.5 116 20.7 117 20.6 117 7.4 116 7.3 116 6.5 120.8 6.5 120.8 7.3 119.9 7.4 119.9 13 126.1 13 126.1 7.4 125.1 7.3 125.1 6.5 130 6.5 130 7.3 129 7.4" style="fill:#fefefe"/><polygon id="Fill-3" points="136 20.7 137 20.9 137 21.5 132 21.5 132 20.9 133 20.7 133 12.3 132 12.1 132 11.5 136 11.5 136 20.7" style="fill:#fefefe"/><polygon id="Fill-4" points="139 20.8 140 20.7 140 7.3 139 7.2 139 6.5 143 6.5 143 20.7 144 20.8 144 21.5 139 21.5 139 20.8" style="fill:#fefefe"/><path id="Fill-5" d="M148.7,11.9h2.5v.9h-2.5v6c0,1.5.4,2,1.8,2H152v.7a12.2,12.2,0,0,1-3.4.6c-2.2,0-2.7-.9-2.7-2.7V12.8H144v-.9h2V9.8l2.7-.8Z" transform="translate(0 -0.5)" style="fill:#fefefe"/><path id="Fill-7" d="M161,16.5c0-3.3-.9-4.7-2.5-4.7s-2.5,1.4-2.5,4.7.9,4.7,2.5,4.7,2.5-1.3,2.5-4.7m3,.1c0,3.2-2.2,5.4-5.6,5.4s-5.4-1.4-5.4-5.4a5.2,5.2,0,0,1,5.6-5.6c3.4,0,5.4,2,5.4,5.6" transform="translate(0 -0.5)" style="fill:#fefefe"/><path id="Fill-9" d="M176,21.3V22h-4.4v-.7h.8V15c0-1.7-.5-2.4-1.7-2.4a3.9,3.9,0,0,0-2.1.9v7.7h.9V22H165v-.7h.9V12.1H165v-.8h3.6v1.5a5.6,5.6,0,0,1,3.6-1.7c2,0,2.9,1.2,2.9,3.7v6.5Z" transform="translate(0 -0.5)" style="fill:#fefefe"/><path id="Fill-11" d="M136,8.5A1.5,1.5,0,1,1,134.5,7,1.5,1.5,0,0,1,136,8.5" transform="translate(0 -0.5)" style="fill:#fefefe"/><polygon id="Fill-13" points="191 14 291 14 291 13 191 13 191 14" style="fill:#fefefe"/><polygon id="Fill-13-2" data-name="Fill-13" points="191 14 291 14 291 13 191 13 191 14" style="fill:#fefefe"/><polygon id="Fill-13-3" data-name="Fill-13" points="0 14 100 14 100 13 0 13 0 14" style="fill:#fefefe"/><polygon id="Fill-13-4" data-name="Fill-13" points="191 149 291 149 291 148 191 148 191 149" style="fill:#fefefe"/><polygon id="Fill-13-5" data-name="Fill-13" points="179 149 291 149 291 148 179 148 179 149" style="fill:#fefefe"/><polygon id="Fill-13-6" data-name="Fill-13" points="0 149 100 149 100 148 0 148 0 149" style="fill:#fefefe"/><polygon id="Fill-13-7" data-name="Fill-13" points="0 149 113 149 113 148 0 148 0 149" style="fill:#fefefe"/><g id="Group-37"><g id="Group-31"><g id="Group-34"><path id="Fill-126" d="M165.2,84.6H173V74.4h-7.8Zm-.3.4h8.5V74h-8.5Z" transform="translate(0 -0.5)" style="fill:none;stroke:#fff"/><path id="Fill-127" d="M171.4,83h-4.5v-.3a.6.6,0,0,0,.6-.6V80.5h0a1.9,1.9,0,0,0,1.2-.4v2.4h1.2c.8,0,1.1-.6,1.1-1.4h.4Zm-4.7-3.5a1,1,0,0,0,.8.4v-3c0-.5-.4-.6-.6-.7V76h4.3v1.5h-.3a1,1,0,0,0-1.1-1.1h-1.1v3.1c.3-.7.6-.9,1-1v.3c.3-.3.6-.2.9-.2v.2a1,1,0,0,1,.8.4h-.7v.3l-.7.2.2.2a1.2,1.2,0,0,1-1.3.2h-.1l.4-.3c.8-.7,1.2-.8,1.7-.7s-.9-.3-1.6.3-2.3.7-2.7.3Zm-1.2,4.9h7.3V74.6h-7.3Z" transform="translate(0 -0.5)" style="fill:#fefefe"/><g id="Group-33"><path id="Fill-128" d="M155.9,89.1c-.1-.4-.1-.4-.6-.5v1.1h1.1c.2-.1.2-.3.3-.6h.1v.8h-2.3V87.6H154v-.2h2.6a.4.4,0,0,0,.1.3v.4h-.2a.4.4,0,0,0-.1-.3,1.3,1.3,0,0,0-.9-.2h-.2v.9h.5a.4.4,0,0,0,.1-.3h.2v1h-.2" transform="translate(0 -0.5)" style="fill:#fefefe"/><path id="Fill-129" d="M162.1,87.6v2.1h-.8V87.9c-.1.1-.1.2-.2.4l-.4.8-.4.7h-.2c-.1-.1-.1-.2-.2-.4l-.7-1.6v1.9h-.3V87.6h-.4v-.2h1.3l.2.5.5,1,.5-1c.1-.3.2-.3.2-.5h1.3v.2h-.4" transform="translate(0 -0.5)" style="fill:#fefefe"/><path id="Fill-130" d="M165.3,87.6h.7a.5.5,0,0,1,.2.4l-.2.4h-.6v-.9Zm-.7,1.6c0,.1,0,.4-.1.5h-.4v.2h1.6a1.9,1.9,0,0,0,1.2-.4l.2-.3a.5.5,0,0,0-.2-.4c-.1-.2-.5-.2-.6-.2h0c.1,0,.6-.1.6-.5a.5.5,0,0,0-.4-.5h-2.4v.2h.4c0,.2.1.4.1.6Zm.8-.6a1,1,0,0,1,.7.2c.1,0,.2.2.2.3a.5.5,0,0,1-.3.5h-.7c0-.1.1-.4.1-.6Z" transform="translate(0 -0.5)" style="fill:#fefefe"/><path id="Fill-131" d="M169.3,88.9l.3-.8.3.6v.2Zm1.2-.6-.4-.9h-.5c-.1.2-.1.4-.3.8l-.3.6a4.1,4.1,0,0,1-.4.9h.3l.3-.6h.8l.3.6h.8c0-.2-.1-.2-.2-.5s-.1-.3-.2-.4Z" transform="translate(0 -0.5)" style="fill:#fefefe"/><path id="Fill-132" d="M173.3,89c.1.2.1.3.2.3s.3.4.7.4.7-.2.7-.4-.3-.3-.6-.4h-.2c-.3-.1-1-.3-1-.8s.5-.8,1.1-.8a.8.8,0,0,1,.6.2h.3v.7h-.2a.4.4,0,0,0-.1-.3.6.6,0,0,0-.6-.4c-.3,0-.6.2-.6.4s.2.2.6.3h.3c.3.1.8.2.8.8s-.4.8-1.1.8l-.8-.2v.2h-.1V89h.1" transform="translate(0 -0.5)" style="fill:#fefefe"/><path id="Fill-133" d="M177.4,89a.4.4,0,0,0,.1.3.8.8,0,0,0,.8.4c.4,0,.6-.2.6-.4s-.2-.3-.5-.4h-.3c-.3-.1-.9-.3-.9-.8a1,1,0,0,1,1-.8l.7.2h.3v.4a.4.4,0,0,0,.1.3H179v-.3a.7.7,0,0,0-.7-.4.5.5,0,0,0-.5.4c0,.2.2.2.6.3h.3c.2.1.8.2.8.8s-.5.8-1.1.8l-.8-.2v.2h-.2V89h.2" transform="translate(0 -0.5)" style="fill:#fefefe"/><path id="Fill-134" d="M183,88.7v1h-.8v-.9l-.5-.8-.4-.4H181v-.2h1.6v.2h-.4l.7.9.4-.6c.1-.1.2-.2.2-.3h-.3v-.2h1v.2h-.4l-.8,1.1" transform="translate(0 -0.5)" style="fill:#fefefe"/><path id="Fill-135" d="M158.4,93.9l.2.3a.7.7,0,0,0,.7.4c.5,0,.7-.2.7-.4s-.3-.3-.6-.4h-.2c-.3,0-.9-.2-.9-.7s.4-.8,1-.8l.6.2h.3V93H160c0-.2,0-.3-.1-.4a.7.7,0,0,0-.6-.3c-.3,0-.6.1-.6.3s.2.3.6.4h.3c.3.1.8.2.8.8s-.4.8-1.1.8l-.8-.2v.2h-.1v-.8h.1" transform="translate(0 -0.5)" style="fill:#fefefe"/><path id="Fill-136" d="M164.7,93.6c0,.4,0,.6-.2.8a1.3,1.3,0,0,1-1,.4,2.3,2.3,0,0,1-1.1-.3c-.2-.2-.2-.5-.2-.9V92.5h.8v1.4a.7.7,0,0,0,.1.5c.1.1.2.2.6.2s.7-.4.7-.6a7.5,7.5,0,0,0,0-1.5h.3v1.1" transform="translate(0 -0.5)" style="fill:#fefefe"/><path id="Fill-137" d="M167.6,94.6h-.8V92.5h-.5v-.2h1.8v.2h-.5v2.1" transform="translate(0 -0.5)" style="fill:#fefefe"/><path id="Fill-138" d="M171.2,94.6h-.8V92.5h-.5c-.4.1-.4.3-.4.5v.2h-.2v-.9h3c-.1.2-.1.3-.1.8h-.1V93c0-.2,0-.3-.1-.4h-.7v2.1" transform="translate(0 -0.5)" style="fill:#fefefe"/><path id="Fill-139" d="M175.3,94c0-.4,0-.5-.6-.5v1h1.1a.5.5,0,0,0,.3-.5h.2v.7c0,.1,0,.1-.2.1h-2.1V92.5h-.4v-.2h2.6V93H176c-.1-.1-.1-.3-.2-.4h-1.1v.9h.5c.1-.1.1-.2.2-.4h.1V94h-.2" transform="translate(0 -0.5)" style="fill:#fefefe"/><path id="Fill-140" d="M178,93.9a.4.4,0,0,0,.1.3.7.7,0,0,0,.7.4c.5,0,.7-.2.7-.4s-.2-.3-.5-.4h-.3c-.3,0-.9-.2-.9-.7s.4-.8,1-.8l.7.2h.2V93h-.2c0-.2,0-.3-.1-.4a.6.6,0,0,0-.6-.3c-.3,0-.5.1-.5.3s.2.3.6.4h.2c.3.1.9.2.9.8s-.5.8-1.1.8a1.3,1.3,0,0,1-.8-.2l-.2.2h-.1v-.8h.2" transform="translate(0 -0.5)" style="fill:#fefefe"/></g></g><g id="Group-27"><path id="Fill-51" d="M128.4,87.1a.8.8,0,0,0-.7-.8.9.9,0,0,0-.8.8.8.8,0,0,0,.8.7.7.7,0,0,0,.7-.7Zm.5,0a1.2,1.2,0,0,1-1.2,1.1,1.1,1.1,0,0,1-1.2-1.1,1.2,1.2,0,0,1,1.2-1.2,1.2,1.2,0,0,1,1.2,1.2Zm-16.5,0a.8.8,0,0,0-.7-.8.9.9,0,0,0-.8.8.8.8,0,0,0,.8.7.7.7,0,0,0,.7-.7Zm.4,0a1.1,1.1,0,0,1-1.1,1.1,1.1,1.1,0,0,1-1.2-1.1,1.2,1.2,0,0,1,1.2-1.2,1.1,1.1,0,0,1,1.1,1.2Zm11.7-1.2h-1.8v.2h.7v1.8c0,.1,0,.1.1.1h.3V86.3h.7V86Zm1.1,0h-.4v2.1c0,.1,0,.1.1.1h.3V86Zm6,0h-.3v1.3h-.1l-1.3-1.4h-.2v2.2a.1.1,0,0,0,.1.1h.3a.1.1,0,0,0,.1-.1V86.7h0l1.3,1.5h.2V86Zm-21.9,1.7h-.1l-.5.2a.7.7,0,0,1-.8-.7.7.7,0,0,1,.8-.8l.5.2h0l.2-.2c.1-.1.1-.1,0-.1a1,1,0,0,0-.8-.3,1.1,1.1,0,0,0-1.1,1.2,1,1,0,0,0,1.1,1.1,1.1,1.1,0,0,0,.8-.2c.1-.1.1-.1,0-.1Zm9.7-1.7H118v2.1c0,.1,0,.1.1.1h1.3c.1,0,.1,0,.1-.1v-.2c0-.1,0-.1-.1-.1h-1v-.6h.9v-.3h-.9v-.5h1.1V86Zm-2.1,1.9h-1V86h-.4v2.1c0,.1,0,.1.1.1h1.3v-.2Zm-2.2,0h-.9V86h-.5v2.1a.1.1,0,0,0,.1.1h1.3c.1,0,.1,0,.1-.1v-.2c0-.1,0-.1-.1-.1Zm7.1.1c.1,0,.1,0,0,.1a1,1,0,0,1-.7.2,1.1,1.1,0,0,1-1.2-1.1,1.2,1.2,0,0,1,1.2-1.2.9.9,0,0,1,.7.3c.1,0,.1,0,0,.1v.2H122l-.5-.2a.7.7,0,0,0-.8.8.7.7,0,0,0,.8.7l.5-.2h.1Z" transform="translate(0 -0.5)" style="fill:#fefefe"/><path id="Fill-52" d="M126.9,81h-2.5v.4H127v-.4Zm-17.1,2.3-.5-1.1h-.1l-.5,1.1Zm1,1h-.6l-.2-.5h-1.5l-.2.5h-.5c-.1,0-.1,0-.1-.1h0l1.5-3.3h.2Zm3.6-2.2c0-.3-.2-.5-.6-.5h-.6v1h.6c.4,0,.6-.2.6-.5Zm.6,0a1.1,1.1,0,0,1-1.1,1.1h-.7v1.1h-.5V81.1h1.2a1.1,1.1,0,0,1,1.1,1.1Zm15.5,0a.5.5,0,0,0-.5-.5h-.7v1h.7a.5.5,0,0,0,.5-.5Zm.6,2.2h-.5a.1.1,0,0,1-.1-.1l-.6-1.2h-.6v1.2a.1.1,0,0,1-.1.1h-.4a.1.1,0,0,1-.1-.1V81.1h1.4a1,1,0,0,1,1,1.1.9.9,0,0,1-.7.9ZM125.9,82h-.5v2.2a.1.1,0,0,0,.1.1h.4a.1.1,0,0,0,.1-.1V82.1Zm-20.4,0H105v2.2a.1.1,0,0,0,.1.1h.4a.1.1,0,0,0,.1-.1V82.1Zm16.5.4c-.4-.2-.6-.3-.6-.5a.5.5,0,0,1,.5-.4l.6.3h.2l.2-.2h0c0-.1,0-.1-.1-.1a1.7,1.7,0,0,0-.9-.3c-.6,0-1.1.3-1.1.9s.3.7.9,1,.6.4.6.6-.1.4-.5.4l-.7-.3h-.2v.3c-.1.1-.1.1,0,.2a1.8,1.8,0,0,0,1,.3c.7,0,1.1-.4,1.1-.9s-.3-.8-.9-1.1Zm-3.1,1.4h-1.5V83h1.3v-.4h-1.3v-.8h1.5v-.4h-2.1v3.2h2.1a.1.1,0,0,0,.1-.1v-.4a.1.1,0,0,0-.1-.1Zm16.6-2.7h-.6l-.8,1.3-.8-1.3h-.6l1.1,1.8v1.3h.5a.1.1,0,0,0,.1-.1V83h0l1.1-1.8Zm-28.9,0v.4H104v-.4h2.6Z" transform="translate(0 -0.5)" style="fill:#fefefe"/></g><g id="Group-20"><polygon id="Fill-90" points="277.5 80.7 274.9 80.7 274.9 81.4 275.8 81.4 275.8 88 276.5 88 276.5 81.4 277.5 81.4 277.5 80.7" style="fill:#fefefe"/><polygon id="Fill-91" points="281.3 80.7 278.7 80.7 278.7 81.4 279.6 81.4 279.6 88 280.4 88 280.4 81.4 281.3 81.4 281.3 80.7" style="fill:#fefefe"/><path id="Fill-92" d="M264.4,88.5h.7V83.2a1.9,1.9,0,0,0-.4-1.2,2.1,2.1,0,0,0-1.8-1,2,2,0,0,0-1.8,1,2.3,2.3,0,0,0-1.9-1,2.2,2.2,0,0,0-2.2,2.2v5.3h.7V83.2a1.5,1.5,0,1,1,3,0h0v5.2h.7V83.2a1.5,1.5,0,1,1,3,0Z" transform="translate(0 -0.5)" style="fill:#fefefe"/><path id="Fill-93" d="M270.3,81a3.8,3.8,0,1,0,3.8,3.8,3.7,3.7,0,0,0-3.8-3.8m0,6.9a3.1,3.1,0,1,1,3.1-3.1,3.1,3.1,0,0,1-3.1,3.1" transform="translate(0 -0.5)" style="fill:#fefefe"/><path id="Fill-94" d="M285.9,81a3.8,3.8,0,1,0,0,7.6,3.8,3.8,0,1,0,0-7.6m0,6.9a3.1,3.1,0,1,1,3.1-3.1,3.1,3.1,0,0,1-3.1,3.1" transform="translate(0 -0.5)" style="fill:#fefefe"/></g><g id="Fill-147"><path id="Fill-95" d="M16.4,80.3a1.7,1.7,0,0,1,.3,1.2,1.7,1.7,0,0,1,.3-1.2h-.6Zm3.4,5.8V80.2H18.3a.5.5,0,0,1,.4.6v5.3a.5.5,0,0,1-.4.6h1.8a.6.6,0,0,1-.3-.6Zm4.6-.1a.7.7,0,0,1-.6.4.6.6,0,0,1-.6-.5c0-.2-.1-.4-.1-.6s-.1-.5-.2-.8-2-1.1-2-1.1,2.4-.2,2.4-1.8-.2-1.4-2.3-1.4h-.2a1.6,1.6,0,0,1-.2,3.2c1,.1,1.1,1,1.2,1.8s.6,1.6,1.3,1.6a1.3,1.3,0,0,0,1.3-.8Zm.9.7h1.8a.5.5,0,0,1-.4-.6V80.8a.5.5,0,0,1,.4-.6H25.3a.6.6,0,0,1,.3.6v5.3a.6.6,0,0,1-.3.6Zm6.8.1a2.6,2.6,0,0,0,1.8-.9,3.2,3.2,0,0,0,1-2.5,3.3,3.3,0,0,0-1-2.5,3.1,3.1,0,0,0-1.8-.9c1,.3,1.5,1.5,1.5,3.4s-.6,3.1-1.5,3.4Zm-2.9-.9a2.6,2.6,0,0,0,1.8.9c-.9-.3-1.5-1.5-1.5-3.4S30,80.3,31,80a3.1,3.1,0,0,0-1.8.9,3.3,3.3,0,0,0-1,2.5,3.2,3.2,0,0,0,1,2.5Zm-12.5-1a1.9,1.9,0,0,1-2.1,1.7,1.6,1.6,0,0,1-1.8-1.8v-4a.5.5,0,0,1,.4-.6H11.4a.6.6,0,0,1,.3.6v4c0,1.3,1,2,2.6,2a2.2,2.2,0,0,0,2.4-1.9Zm-6.2-2.7V80.1l-.4.5H10A2.6,2.6,0,0,0,8.5,80a3.2,3.2,0,0,1,2,2.2Zm.2,3.2a2.6,2.6,0,0,1-2.2,1.2c-1.4,0-2.2-1.1-2.2-3.2s.5-3.1,1.5-3.4A3.3,3.3,0,0,0,5,83.4a3.2,3.2,0,0,0,3.2,3.4,2.9,2.9,0,0,0,2.5-1.4Zm23.6,4.7-1.5-1.9h-.3v2.4h.3v-2l1.5,2h.3V88.2h-.3ZM31,89.4a1,1,0,0,0-1-1,.9.9,0,0,0-1,1h0a1,1,0,0,0,2,0Zm.2,0h0a1.2,1.2,0,1,1-2.4,0h0a1.2,1.2,0,1,1,2.4,0Zm-4,1.2h.3V88.2h-.3Zm-3.1-2.2h.8v2.2h.3V88.4H26v-.2H24.1Zm-2,2a.9.9,0,0,1-.9-1h0a.9.9,0,0,1,.9-1,1.1,1.1,0,0,1,.8.3l.2-.2a1.5,1.5,0,0,0-1-.4,1.2,1.2,0,0,0-1.2,1.3h0a1.2,1.2,0,0,0,1.2,1.3,1.4,1.4,0,0,0,1-.5h-.2a1.1,1.1,0,0,1-.8.3Zm-3.9-.9h1.4v-.2H18.2v-.9h1.5v-.2H18v2.4h1.8v-.2H18.2Zm-2.8-1.3h-.3v2.4h1.7v-.2H15.4Zm-2.8,0h-.3v2.4H14v-.2H12.6Zm-1.8,1.2a1,1,0,0,0-1-1,.9.9,0,0,0-1,1h0a.9.9,0,0,0,1,1,.9.9,0,0,0,1-1Zm.2,0h0a1.2,1.2,0,1,1-2.4,0h0a1.2,1.2,0,1,1,2.4,0Zm-3.6.7h.2a1.4,1.4,0,0,1-1,.5,1.2,1.2,0,0,1-1.2-1.3h0a1.2,1.2,0,0,1,1.2-1.3,1.5,1.5,0,0,1,1,.4l-.2.2a1.1,1.1,0,0,0-.8-.3.9.9,0,0,0-.9,1h0a.9.9,0,0,0,.9,1,1.1,1.1,0,0,0,.8-.3Z" transform="translate(0 -0.5)" style="fill:#fefefe"/></g><g id="Group-28"><path id="Fill-106" d="M86.4,93a4.9,4.9,0,0,1-.3.7H83.9c.3,0,.3-.1.3-.5V91.2c0-.4,0-.5-.2-.5h2a2.3,2.3,0,0,0,.1.7h-.2a.5.5,0,0,0-.3-.5h-.8c-.2,0-.2,0-.2.2v.9c0,.2,0,.2.2.2h.7a.1.1,0,0,0,.1-.1v-.2h.1v.9h-.1v-.2l-.2-.2h-.6c-.2,0-.2,0-.2.1v.7c0,.3,0,.4.1.5h1.2c.1,0,.2-.2.3-.4ZM79,92.1h-.3V90.8H79a.7.7,0,0,1,.8.7.6.6,0,0,1-.3.6Zm4.4.9-.4.4H81.9c-.1-.1-.1-.2-.1-.5v-.7c0-.1,0-.1.1-.1h.7v.4h.1v-.9h-.1v.2c0,.1,0,.1-.1.1h-.7c-.1,0-.1,0-.1-.1v-.9c0-.2,0-.2.1-.2h.8c.3.1.3.2.4.5h.1c0-.3,0-.6-.1-.7h-2c.3.1.3.2.3.6v1.7c0,.5,0,.6-.3.6h-.5l-1-1.3h0a.9.9,0,0,0,.6-.8.7.7,0,0,0-.4-.6,1.1,1.1,0,0,0-.8-.2H78c-.1,0-.1,0,0,.1h.1c.2,0,.2.1.2.5v1.7c0,.5,0,.6-.3.6h-.1v.2h1.2v-.2H79c-.3,0-.3-.1-.3-.6v-.6h.2l.4.2.4.7c.4.5.6.6,1,.6h2.6c0-.2.2-.5.2-.7Zm-8.5-3h2.8c0,.2-.1.5-.1.7h-.1c0-.2-.1-.4-.2-.4l-.6-.2h-.4c-.2,0-.2,0-.2.2v2.5c0,.6,0,.7.4.7h.1c.1,0,.1.1,0,.2H75.1v-.2h.2c.3,0,.4-.1.4-.7V90.3c0-.2,0-.2-.2-.2h-.3a1,1,0,0,0-.7.2.5.5,0,0,0-.2.4c-.1,0-.2,0-.2-.1a1.3,1.3,0,0,0,.1-.6ZM56.7,93.5a.8.8,0,0,1-.6-.2,1.4,1.4,0,0,1-.2-.7v-2a.6.6,0,0,1,.1-.4h.6a1.5,1.5,0,0,1,1.7,1.6c0,1.1-.5,1.8-1.6,1.8Zm1-3.4a2.2,2.2,0,0,0-1.2-.2H55.1v.2h.1c.3,0,.3.2.3.5v2.2c0,.6,0,.6-.4.7h1.5a2.8,2.8,0,0,0,1.3-.3,2.1,2.1,0,0,0,1-1.7,1.6,1.6,0,0,0-1.2-1.6ZM74.1,93a1.9,1.9,0,0,0-.2.7H71.5v-.2h.2c.2,0,.3-.1.3-.6V91.2c0-.5-.1-.5-.3-.6h2a1.5,1.5,0,0,0,.1.6c-.1.1-.1.1-.2,0s-.1-.3-.3-.4h-.8c-.2,0-.2,0-.2.2v.9c0,.1.1.1.2.1h.7s.1,0,.1-.2v-.2h.2c0,.1-.1.3-.1.4v.5h-.1v-.2l-.2-.2h-.6c-.1,0-.2,0-.2.1v.7a4.3,4.3,0,0,0,.1.5h1.2c.1,0,.2-.2.3-.4Zm-2.8,0a4.1,4.1,0,0,1-.2.7H69c.3,0,.3-.1.3-.6V91.2c0-.5,0-.6-.3-.6h1c-.3.1-.3.1-.3.6v1.7c0,.3,0,.4.1.5h1.1c.1,0,.2-.2.3-.4Zm-3.9.5H67c-.1-.1-.1-.4-.1-.5v-.7c0-.1,0-.2.3-.2a.8.8,0,0,1,.9.8.6.6,0,0,1-.7.7Zm-.5-2.7h.3a.6.6,0,0,1,.7.7c0,.4-.3.6-.7.6s-.3,0-.3-.1Zm1,1.1h-.1c.3-.2.5-.3.5-.7a.6.6,0,0,0-.3-.6H66.1v.2h.2c.2,0,.2.1.2.4v1.8c0,.5,0,.6-.2.6h-.1c-.1.1,0,.1,0,.1h1.1c.8,0,1.3-.3,1.3-.9a.9.9,0,0,0-.7-.8Zm-2-1.4c.1,0,.1.1,0,.1h-.3a3.1,3.1,0,0,0-.1,1v.5a1.7,1.7,0,0,1-.3,1.2,1.5,1.5,0,0,1-1.8,0,1.4,1.4,0,0,1-.4-1.1V91.2c0-.5,0-.6-.2-.6h1s.1.1,0,.1h-.1c-.3,0-.3.1-.3.6v1c0,.8.3,1.3,1,1.3s.9-.5.9-1.3v-.5a3.1,3.1,0,0,0-.1-1h.7ZM61,93.6c-.9,0-1.3-1-1.3-1.7a1.2,1.2,0,0,1,1.2-1.3c.9,0,1.2.8,1.2,1.6s-.5,1.4-1.1,1.4Zm0-3.2a1.6,1.6,0,0,0-1.7,1.7,1.6,1.6,0,0,0,1.6,1.6A1.6,1.6,0,0,0,62.6,92,1.6,1.6,0,0,0,61,90.4Z" transform="translate(0 -0.5)" style="fill:#fefefe"/><path id="Fill-107" d="M70.9,77.7Zm.8,1.1h.1a.1.1,0,0,1-.1-.1Zm.8,2.3Zm.7,1.6h0Zm2.3-.6c0-2-.9-5.2-5.5-5.3h-.8s.1,0,0,.1h0c0,.1-.1,0-.1.1h.2c.1-.1.1-.1.1,0h0v.2h.3c.1.1.1.1.1,0h.2a.1.1,0,0,1,.1-.1c.1,0,.1.1.1,0h.4s.1-.1,0-.1h-.1c0-.1,0,0,.1-.1h.2a.1.1,0,0,0,.1.1s.1-.1.1,0h.1a.1.1,0,0,0,.1.1h0c0,.1.1.1,0,.1h-.1c-.1-.1,0-.2-.1-.1h-.2c0,.1.1,0,.1.1v.2h0c0,.1,0,.1-.1.1s-.1-.1-.1,0h.8a.1.1,0,0,1,.1.1c0,.1,0,.2.1.2h0c.1.1,0,.1,0,.1h-.2c-.1,0-.2,0-.1.1h.2c.1,0,.1,0,.1.1H72s.1,0,0,.1h-.2c0,.1,0,.1.1.1H72c.1.1.1,0,.1.1H72c.1.1,0,.1,0,.1s-.1-.1-.1,0h.2c.1.1.1,0,.1.1h.1c0,.1,0,0,.1,0h0c0,.1-.1.1,0,.2h0c0,.1,0,0,.1.1h0c-.1,0-.1,0-.1-.1h0c0,.1.1.1,0,.1h-.2v.2h.2v.2c0,.1.1.1,0,.1h.2c.1,0,0-.1.1,0h0c0,.1,0,.2.1.1h.1c0-.1,0-.1.1-.1h0s0,.1.1,0h-.2c0-.1.1-.1,0-.1s0,.1-.1.1h0a.1.1,0,0,0-.1.1h.4c.1,0,.2,0,.1.1s0-.1-.1,0h-.2c-.1,0-.1-.1-.1,0h-.2s-.1,0,0-.1h-.1c-.1.1-.1.1,0,.1h0s.1.1,0,.1h.1c-.1.1-.1.1,0,.2h-.3c0,.1.1.1,0,.1h0c-.1,0,0,0-.1.1s-.1,0,0,.1h-.3c-.1,0-.1,0,0,.1h-.3s-.1,0,0,.1h0c0,.1.1,0,0,.1h-.2c-.1,0-.1-.1-.1,0h0c0-.1,0,0-.1,0H70c0-.1,0,0-.1,0H70c.1.1.1,0,.1.1h-.6a.1.1,0,0,0-.1-.1h-.1c-.1.2-.1-.1-.4.2h-.1s0-.1-.1,0h-.1a.1.1,0,0,0,.1-.1h-.1a3.5,3.5,0,0,0,.3,1.6,1.7,1.7,0,0,0,1.6.7c3.5,0,5-2.2,5-5.5Zm-6.9,2.2Zm-.1-1.5Zm-.1-.2c.1,0,.1-.1,0-.1Zm0-1.5h0ZM68.1,84H68c0-.1,0-.1-.1-.1h.2ZM68,84h0Zm-.1,1h-.4c-.1-.1,0-.1-.1-.1h0v.2c0,1-.1,1.5.2,2h.1c.2-.2.2-.7.2-1.7Zm-.6-5.3h0ZM67,83.3h-.1c0,.1,0,0,.1,0h0Zm-.3.3ZM66.5,85Zm-.1,0Zm-.2-2.5ZM66,84Zm-.3.2Zm-.1-.8Zm-.1,1Zm-.1-.2Zm-.3,0Zm.1.2H65a.1.1,0,0,1,.1.1h.1Zm-.2-.5Zm-.1.7Zm-.1.3Zm-.2-.2Zm-.4-.4Zm.2-1Zm.1.9Zm.1-.3h0Zm-.5-.6Zm-.2,1.3h0Zm-.1-.2Zm-.1,0h0ZM63.5,82h0Zm-.1,1.3Zm-.2-1.5Zm0,.8h0Zm-.2,0Zm-.1.2h0Zm0,.3h-.3a.1.1,0,0,0,.1.1h.1a.1.1,0,0,1,.1.1h0Zm-.1.6Zm-.1-.8Zm0-1.3h.1c0-.1,0-.1-.1-.1h0Zm.1.9Zm0-.2Zm.1-.6Zm0-.2Zm.4.3Zm0-.3h.2c0-.1-.1-.1-.1-.2h-.1Zm.3,0h0Zm.1-.2h.1c0-.1,0-.1-.1-.1Zm0,3ZM64,83Zm-.1-.3h0Zm.1-1h0Zm.4-.2h0Zm-.1-.1h.3a.1.1,0,0,1,.1-.1h-.1c0,.1,0,.1-.1.1h0c-.1,0-.1,0-.1.1h-.1Zm-.1-1.9h0Zm-.1-.5Zm-.1.3h0Zm.1-.6Zm.1.6Zm.2.4h.1a.1.1,0,0,0-.1.1Zm.2-.2Zm.1-.5Zm.1-.4h.4c.1,0,.1,0,.1-.1h-.5Zm.3-.5h0Zm.1-.3h0c0-.1,0-.1-.1-.1h.1Zm.1-.3Zm0,.1Zm.1-.2h0Zm.1-.2h0Zm.2,1.5Zm.1-1.3h.1c-.1,0-.1,0-.1.1Zm0-.2Zm.2.9h-.1a.1.1,0,0,1,.1.1h0Zm.3,0h0Zm0-1.2h0Zm.2,3.7h0Zm.1.5Zm0-2.1Zm.2,3.1Zm-.2-.6h0c.1-.1.1-.1,0-.1h0Zm-.1,1.7Zm-.1-1.1Zm-.2-1h0a.1.1,0,0,0,.1-.1Zm0-2.7Zm-.1,1.2h0Zm-.1-.2Zm-.4,2.4Zm0-1.4Zm-.4,2.8h.1a.1.1,0,0,1-.1.1ZM64.7,81h0Zm.1-1.4Zm.1-.3h0Zm.4-.1Zm.1,2.3Zm0-1.5Zm-.3-.5h0Zm-.2.2h0c.1,0,0,0,0-.1h-.1a.1.1,0,0,0,.1.1Zm.2.7h0a.1.1,0,0,1-.1-.1h.1Zm.1,1.4Zm.1.4Zm.1-.2Zm.1-.7h0Zm0-.7h0ZM65,79.2Zm-.4.8Zm-.2.3h0Zm.2-.4h-.2c.1,0,.1,0,.1.1h.1Zm.4,1.3h-.1a.1.1,0,0,0-.1.1H65Zm-.2,3.2Zm-.2-1.5h.1c0-.1,0-.1-.1-.1Zm-.2-1.1Zm.2.3h0c0,.1-.1.1,0,.1h0Zm.2,1.4Zm1.1-1.2h0Zm.1-1.2h0Zm.1.2Zm.3,2.4h0Zm0-.6Zm.4-2.9Zm0-3.6h0Zm.3.7h-.2c0,.1,0,.1.1.1h.1Zm.2-.2Zm.1.4h0c.1,0,0-.1,0-.1h0Zm.1-.7Zm.2.2Zm.1-.2h0Zm.2.8h0Zm.1.4Zm-.4,6.6h0a.1.1,0,0,0,.1.1h-.1Zm0-.5Zm-.3-1.6Zm.2-3.6h0Zm-.3.1Zm-.3.5Zm.1-.3h0Zm0-.5Zm0,.1h0Zm-.2-1.4h0Zm.1,1.5h.1a.1.1,0,0,0-.1-.1h0Zm0,3.2h0Zm.4-2.4h0a.1.1,0,0,0-.1.1h.1Zm.2,5Zm.4-5h.1c0-.1,0-.1-.1-.1h0Zm0,.1Zm.2-3.1Zm0,2.1c.1,0,0-.1,0-.1h0Zm0-1.7h0Zm.3-.5Zm0,.2h0Zm.3.1Zm0,.2h0c0-.1,0-.1-.1-.1h.1Zm.1,3.6Zm.4.3h0Zm.3-2.7h-.1c0,.1,0,.1.1.1h0Zm.1.8h0Zm.1-.2h0Zm.1-.3h0Zm.4-.7h0Zm0,2.3Zm0,.3Zm.2-2.6Zm.1-.3Zm.4,1.3Zm.5,0h0Zm.2,1.7Zm.1.2Zm-.1,1.4Zm.4-1.7Zm.1,2.9h.2c.1,0,0,0,0-.1h-.2Zm.1-.7ZM72,84.3Zm.1-.4h0c.1-.1,0-.1,0-.1h0Zm.1-1h0Zm-.7,1.3h.1a.1.1,0,0,0-.1.1Zm0-.1h0Zm0,.2h0s-.1,0,0,.1Zm-1-.8h0Zm-.1-.2Zm-.1-2.5h0Zm-.1.8Zm.1,0h-.1a.1.1,0,0,0,.1-.1Zm0,.9Zm.1.2h0Zm0-2.1Zm.1-1.7Zm.5,4.2h0Zm.1.9Zm0-1.6Zm.1-1.3Zm0-.2h0Zm0,.2Zm.3.3Zm-.1.2Zm.2.8Zm.1.1Zm-.2,1.1Zm0-.8Zm-.1.1Zm-.2,1.2c0,.1,0,.1.1.1h-.1Zm0-.5h0Zm.4.2Zm.2-1.1Zm0,.8h0Zm-.1-1.1Zm-.2-1.5Zm-.1-.1h0ZM71,82.9h0Zm-.1-.1h-.2a.1.1,0,0,0-.1-.1h.3Zm0-3.6h-.1c.1-.1.1-.1,0-.1h.1Zm-1,2.8Zm.2-1.2h0Zm-.2.2h0c-.1.1,0,.1,0,.1Zm0,.5Zm.2.7H70c0-.1,0-.1.1-.1h0Zm0,.5h0s-.1,0,0,.1h0s.1-.1,0-.1Zm0-.3h0a.1.1,0,0,1-.1-.1h.1Zm-.1-2Zm0-1.8h-.1a.1.1,0,0,0,.1.1h0Zm-.4,4.8h0c-.1,0-.1.1-.1.2h.1Zm.3-1.9h0Zm-.2,1.4Zm-.1,1.3Zm-.1-1.6Zm0-2.1ZM69,84.2h0Zm-.1.7Zm.2-2.1Zm0-1.1Zm.1-.7Zm0-.2s.1,0,0-.1h0Zm-.3,1.4h0Zm-.3-.5h0Zm.1-2.2Zm.1.7h-.1c.1-.1,0-.1,0-.1h.1Zm-.1.3Zm0-.4Zm0,.8Zm.1.9Zm-.2-3.4h-.1a.1.1,0,0,1,.1.1Zm.2,4.8Zm.3.4Zm0,.8h0Zm.2-2.9h-.1c.1.1.1.1,0,.1h.1Zm.1.5Zm.1,2.4Zm0,.1Zm.3-.1h-.1c-.1,0,0,.1,0,.1h.1Zm0-.8h0Zm.1-1.5h0s-.1,0,0,.1Zm0,2.5Zm.3,0h0Zm.1-1.1Zm.2-.2Zm.1,1.1h.1a.1.1,0,0,1,.1-.1h-.2Zm.4.1Zm.2,0h-.3c-.1,0-.1,0-.1.1h.4Zm.4,0Zm.2-.4h-.2a.1.1,0,0,1,.1.1h.1Zm.2.2Zm.2-.1Zm.3-.5h-.1c-.1.1,0,.1,0,.1h0c0,.1,0,.1-.1.1h-.1c.1,0,.1,0,0-.1h.3Zm0-1.1Zm0,.6h0Zm-.3-1.1Zm0,.1Zm0-.2Zm.2-1.4Zm-.2.1Zm0,.5h0Zm-.1-.6h0Zm-.2-.3h0Zm0-.1Zm-.1.4Zm0-.6Zm-.4-1.5Zm-.2.5Zm-.1,0ZM71,82.6h0Zm-.4-4.3Zm-.5-.3H70c.1,0,0,.1,0,.1Zm-.9,1.3h0Zm-5.3.4h0ZM77.3,82a5.8,5.8,0,0,1-3.1,5.3,9,9,0,0,1-4,.9L67.3,88H65c-.1-.1-.2-.4-.1-.5h.5c1-.2,1.3-.4,1.3-2.2v-.3h0c-.1,0-.1,0-.1.1h-.1c0-.1.1-.1,0-.1h-.4s.1.1,0,.1h0c-.1.1-.1.1-.1,0h-.1c0-.1,0-.1.1-.1h-.6c-.1,0,0,0,0-.1h-.1c0-.1.1-.1,0-.1h0c0,.1,0,.1-.1,0h-.5c0-.1.1-.1,0-.1h-.5s.1,0,0-.1H64c-.1,0-.1,0-.1.1s.1,0,0,.1h-.5s.1-.1,0-.1h-.2c0,.1,0,0-.1.1H63v-.2h0c0-.1-.1-.1,0-.1h.2a.1.1,0,0,1,.1-.1h-.3a.1.1,0,0,0-.1.1h.1c0,.1-.1.1,0,.1H63a.1.1,0,0,0-.1-.1h-.3v-.2h-.3c.1,0,0-.1,0-.1h-.2c-.1-.1.1-.1.1-.1h.3c.1,0,.1-.1.1-.2h-.1c-.1,0-.1-.1,0-.1h0c.1-.1,0-.1,0-.1s0,.1-.1,0h-.2a.1.1,0,0,0-.1.1h-.2a.1.1,0,0,0,.1-.1h.5c0-.1.1-.1,0-.1h.3a.1.1,0,0,0,.1.1H63a.1.1,0,0,1,.1-.1h.5a.1.1,0,0,0,.1-.1h.1c.1.1,0,.1,0,.1h-.2a.1.1,0,0,1-.1-.1h.1c-.1,0,0-.1,0-.1H64c0,.1,0,.2-.1.2h-.1c.1-.1,0-.1,0-.1h-.1c.1-.1.1-.1,0-.1h.2s-.1-.1,0-.1H64c-.1-.1-.1,0-.1-.1h-.1c0-.1.1-.1,0-.1h.1s.1,0,0-.1h.3v.2h.1V78h0c0-.1.1.1.1,0a.1.1,0,0,1,.1-.1V78h.1v.2c0,.1,0,.2.1.2h.4s0-.1-.1,0h.3c0-.1-.1-.2-.1-.1h-.1c-.1,0-.1.1-.1,0h.1c0-.1.1,0,.1-.1h.1c-.1,0,0,0-.1-.1h.1c.1,0,0,0,0-.1h.4s0,.2.1.2.1,0,.1-.1,0,0,0-.1,0,.1.1.1h.3v-.2h.1c.1.1,0,.1.1.1h0c.1-.1.1,0,.1.1h.1c-.1,0-.1-.1,0-.1s.1,0,0-.1h.1c.1-.1,0,0,.1,0h.1c.1,0,0,.1,0,.1s0,.1,0,.1H67c0-.1,0,0,.1,0a.1.1,0,0,0,.1-.1h0c0-.1,0-.1.1-.1h0a.1.1,0,0,0,.1.1h.3v-.2h.2c.1,0,.1,0,.1-.1h.2c0-.1,0-.1.1-.1h.1v.2h0a.1.1,0,0,1,.1-.1h0c.1,0,0-.1.1-.1h.1a.1.1,0,0,0,.1-.1H69a.1.1,0,0,0,.1.1h.7a10,10,0,0,1,3.9.5A5.3,5.3,0,0,1,77.3,82Z" transform="translate(0 -0.5)" style="fill:#fefefe"/></g><g id="Fill-145"><path id="Fill-125" d="M227,86V83.3h.8c1,0,1.5.4,1.5,1.3s-.5,1.4-1.5,1.4Zm3.3-1.4c0-1.1-.9-1.7-2.2-1.7H226V88h1V86.4h1.1c1.3,0,2.2-.6,2.2-1.8Zm-7.2-2.2h-.5l2.8-4.4.4.2Zm-10.8.9v1.9H214v.4h-1.7v1.9h3V88h-4.1V82.9h4.1v.4Zm-3.1-.4v.4h-2.1V88h-1V83.3H204v-.4ZM219.7,87l.3.4L216.4,93l-.3-.3Zm2.7-3.4L220.2,87,218,83.5V88h-.5V82.9h1.3l1.7,2.8,1.8-2.8h1.1V88h-1Zm12.4,4.1c-1.1,0-1.7-.7-1.7-2.3s.6-2.3,1.7-2.3,1.6.8,1.6,2.3-.5,2.3-1.6,2.3Zm0-5a2.7,2.7,0,1,0,0,5.4,2.7,2.7,0,0,0,0-5.4Z" transform="translate(0 -0.5)" style="fill:#fefefe"/></g></g><g id="Group-32"><g id="Fill-2-2" data-name="Fill-2"><path id="Fill-1-2" data-name="Fill-1" d="M125.4,50.7l-1.3,3.2v.3l.3.3h-1.6a.6.6,0,0,0,.5-.5l2.1-4.8,2.1,4.8a.6.6,0,0,0,.5.5h-1.6l.3-.3v-.3Zm-27.1-.9a1.8,1.8,0,0,1,1.5.6V49.2c-.1.2-.2.2-.3.2H98.2a2.7,2.7,0,1,0,0,5.3l1.7-.3V53.2a2.2,2.2,0,0,1-1.7.8,2.1,2.1,0,0,1,0-4.2Zm6.3,4.2a1.9,1.9,0,0,0,1.8-2.1c0-1.3-.7-2.1-1.7-2.1s-1.7.9-1.7,2.1.7,2.1,1.6,2.1Zm.1-4.7a2.4,2.4,0,0,1,2.5,2.6,2.6,2.6,0,1,1-5.1,0,2.4,2.4,0,0,1,2.6-2.6Zm4.8,0v4.5c0,.5-.1.6-.4.7h1.6c-.4-.1-.5-.2-.5-.7V50.9l3.9,3.7V50.2c0-.5,0-.6.4-.7H113c.4.1.4.2.4.7V53Zm10.8,1.4c0-1-1-1.2-1.6-1.2h-1.8c.4.1.3.7.3,1.1v2.9c0,.3.1.9-.4,1h1.6c-.4-.1-.4-.7-.4-1V50h.5a.9.9,0,0,1,.9.8,1.2,1.2,0,0,1-1,1.1l2.2,2.6h1.1a6.2,6.2,0,0,1-1.4-1.4l-1-1.2a1.1,1.1,0,0,0,1-1.2Zm11.1,3.2a1.8,1.8,0,0,0,2-1.9,1.9,1.9,0,0,0-2.1-2h-.7v3.5c0,.3.1.4.4.4Zm2.9-1.9c0,1.6-1.3,2.5-3.2,2.5h-1.7c.4-.1.5-.2.5-.7V50.2c0-.5,0-.6-.5-.7h1.9c1.7,0,3,.8,3,2.5Z" transform="translate(0 -0.5)" style="fill:#fefefe"/></g><g id="Fill-4-2" data-name="Fill-4"><path id="Fill-3-2" data-name="Fill-3" d="M165.8,54.3c-.6,0-.8-.5-.8-1V51c0-1.1-.6-2-2.2-2a4.4,4.4,0,0,0-1.7.6v-.4h-.7v1h0v4.1h.7v-4a2.6,2.6,0,0,1,1.7-.7c.7,0,1.2.2,1.4.8a5.6,5.6,0,0,1,.1.7v2.1a1.1,1.1,0,0,0,1.2,1.2c.6,0,.9-.1,1.1-.4h0l-.7.2Zm18,.4-.3.4c-1.1,1.2-2.6,3-2.6,4.4a.7.7,0,0,0,.6.7c.9,0,1.6-1.6,1.9-2.8a15.8,15.8,0,0,0,.3-2.3Zm-13-3c0-1.4-.7-2.3-1.9-2.3a2.1,2.1,0,0,0-2.1,2.3c.2,1.5,2.5,1.8,3.8.9a2.9,2.9,0,0,0,.2-.9Zm-.3,1.2-.8.3a3.4,3.4,0,0,1-2.8-.5,1.6,1.6,0,0,0,1.7,1.3,2,2,0,0,0,1.9-1.1Zm20.4-3.8h-.6a2.7,2.7,0,0,0-1,.6,32.1,32.1,0,0,0-4.9,4.2h0c0,.4-.1,1.1-.1,1.4s-1.1,5.1-3,5.1a.9.9,0,0,1-1-1,5.2,5.2,0,0,1,1.3-2.8l1.8-2,.4-.5c0-.7.1-1.9,0-3.2s-.1-.4-.3-.2a11.3,11.3,0,0,0-1.1,1.1,15.2,15.2,0,0,1-2.2,2.2l-.7.2c-.4,0-.6-.3-.6-.8s.1-.6.1-.8a14.9,14.9,0,0,1,.4-1.8,8.1,8.1,0,0,1-3.4,2.9h0a6.4,6.4,0,0,1-1.7.5c-.2,0-.4-.2-.1-.3a5.4,5.4,0,0,0,1.7-.8,2.5,2.5,0,0,0,1.1-2.2,1.6,1.6,0,0,0-1.7-1.7,2,2,0,0,0-1.6.6c0,.2-.1.4-.1.8a43.5,43.5,0,0,0-.1,8c-.2.4-.3.7-.5.7s-.3-.5-.3-.7a22,22,0,0,1-.1-2.3c0-1.3.1-3.4.2-4.6s.1-1.1.1-1.1a6.1,6.1,0,0,1-1.6,1.6,2.7,2.7,0,0,1-2.8,2.1A2.4,2.4,0,0,1,166,52a2.9,2.9,0,0,1,2.9-3,2.4,2.4,0,0,1,2.5,2.6V52a6.9,6.9,0,0,0,1.6-2.1,3.2,3.2,0,0,1,2.2-.9c1.4,0,2.6.7,2.6,2.2a2.8,2.8,0,0,1-.8,1.9,5.4,5.4,0,0,0,2.4-3.1c.2-.5,0-.8.8-.8s-.2,1.9-.3,2.6a6.8,6.8,0,0,0-.2,1.5c0,.5.5.5,1.2-.1a13.4,13.4,0,0,0,2.8-3.7c.1-.2.1-.3.3-.3s.3.4.3.9a14.7,14.7,0,0,1,.1,3.6,49,49,0,0,1,4.3-3.9l1.1-.8,1-.6h.3c.1.2.1.4-.2.6Zm-32.5,1.3a2.5,2.5,0,0,0-1.8-.8,2,2,0,0,0-2,2.2,1.9,1.9,0,0,0,2,2.1,2.4,2.4,0,0,0,1.8-.9Zm0-1.2h.7v5.2h-.7v-.6a2.5,2.5,0,0,1-1.9.7,2.5,2.5,0,0,1-2.7-2.7,2.7,2.7,0,0,1,2.8-2.8,3,3,0,0,1,1.8.6Zm-7.6,4.7a2,2,0,0,1-2-2.2,1.9,1.9,0,0,1,2-2,1.7,1.7,0,0,1,1.7,1.1h.8a2.4,2.4,0,0,0-2.5-1.8,2.7,2.7,0,0,0-2.8,2.8,2.6,2.6,0,0,0,2.8,2.7,2.5,2.5,0,0,0,2.6-1.7h-.9a1.7,1.7,0,0,1-1.7,1.1Z" transform="translate(0 -0.5)" style="fill:#fefefe"/></g><g id="Group"><polyline id="Fill-1-3" data-name="Fill-1" points="224 52.3 224.3 52.3 224.3 54 222.5 54 222.5 52.3 222.8 52.3 222.8 52.1 221.4 52.1 221.4 52.3 221.6 52.3 221.6 56.1 221.4 56.1 221.4 56.4 222.8 56.4 222.8 56.1 222.5 56.1 222.5 54.4 224.3 54.4 224.3 56.1 224 56.1 224 56.4 225.5 56.4 225.5 56.1 225.2 56.1 225.2 52.3 225.5 52.3 225.5 52.1 224 52.1 224 52.3" style="fill:#fffffe"/><polyline id="Fill-2-3" data-name="Fill-2" points="227.1 53.3 226.1 53.3 226.1 53.5 226.4 53.6 226.4 56.1 226.1 56.2 226.1 56.4 227.4 56.4 227.4 56.2 227.1 56.1 227.1 53.3" style="fill:#fffffe"/><path id="Fill-3-3" data-name="Fill-3" d="M226.8,53.4c.3,0,.4-.2.4-.5s-.1-.5-.4-.5a.5.5,0,0,0,0,1" transform="translate(0 -0.5)" style="fill:#fffffe"/><polyline id="Fill-4-3" data-name="Fill-4" points="229.1 52 228 52 228 52.2 228.3 52.2 228.3 56.1 228 56.2 228 56.4 229.3 56.4 229.3 56.2 229.1 56.1 229.1 52" style="fill:#fffffe"/><path id="Fill-5-2" data-name="Fill-5" d="M230.9,55.9V54.1h.8v-.3h-.8V53l-.7.2v.6h-.6v.3h.5v2c0,.5.2.8.8.8l1-.2v-.2h-.4c-.5,0-.6-.1-.6-.6" transform="translate(0 -0.5)" style="fill:#fffffe"/><path id="Fill-6" d="M233.6,53.7a1.6,1.6,0,0,0-1.6,1.7,1.4,1.4,0,0,0,1.6,1.6,1.5,1.5,0,0,0,1.6-1.6,1.5,1.5,0,0,0-1.6-1.7m0,3c-.4,0-.7-.4-.7-1.3s.3-1.4.7-1.4.8.4.8,1.4-.3,1.3-.8,1.3" transform="translate(0 -0.5)" style="fill:#fffffe"/><path id="Fill-7-2" data-name="Fill-7" d="M238.7,54.8c0-.7-.3-1-.9-1a2.5,2.5,0,0,0-1.1.4v-.4h-1V54h.3v2.5h-.3v.2H237v-.2h-.3V54.5a1.1,1.1,0,0,1,.7-.3c.3,0,.5.2.5.7v1.7h-.3v.2H239v-.2h-.3V54.8" transform="translate(0 -0.5)" style="fill:#fffffe"/><path id="Fill-8" d="M225.6,47.8c.2.1.5-.1.6-.4V47c0-.2-.1-.2-.2-.2s-.5.1-.5.4a.3.3,0,0,0,0,.4.3.3,0,0,0,.1.2" transform="translate(0 -0.5)" style="fill:#fffffe"/><g id="Group-12"><g id="Fill-9-Clipped"><g style="mask:url(#mask)"><path id="Fill-9-2" data-name="Fill-9" d="M213.9,48.1c.2.1.5-.1.6-.3v-.5l-.2-.3a.7.7,0,0,0-.6.5.6.6,0,0,0-.1.4c.1.2.2.2.3.2" transform="translate(0 -0.5)" style="fill:#fffffe"/></g></g><g id="Fill-11-Clipped"><g style="mask:url(#mask-2-2)"><path id="Fill-11-2" data-name="Fill-11" d="M232.4,50.5c-.7-.3-1.5.6-1.9.6s-.1-1.6-.6-1.7-1.5,1.8-2.1,1.7.3-1.9,1.4-1.9.6-.2.6-.4-.2-.3-.4-.3-2.2,1.7-2.2,1.7-.8,1.3-1.3,1.3-.5-1.7-.4-2,.6-.8,0-.8-.5.2-.5.3-1.4,2.6-2,2.5-.1-1.9-.1-2.2.1-.7-.4-.9-.6.1-.9.3l-1.2,1.2s.7-1.3.2-1.4-.5.2-.6.4l-2,2c0-.1.6-1.4.1-1.3s-.7.6-.7.6,1-1.6.3-2a1.1,1.1,0,0,0-.8.1,6.1,6.1,0,0,0-1.3,1.5c-.1.2-1,1.8-1.7,1.7s-.1-2,.1-2.4-.1-.4-.4-.4h-.4l-1.8,1.3.5-.6c.2-.8-.7-1-2.7-1.5-.1,0-3-.6-2.9-1s1.5-1,2.7-1.4a10.2,10.2,0,0,1,3.4-.7c.2,0,.8-.1.9-.4s-.7-.5-1.4-.5a23.7,23.7,0,0,0-3.3.8c-2.1.8-3,1.7-3.2,2.2s.7,1.2,2.1,1.5,3.2.8,3.3,1.1-.4.4-.4.4a11.8,11.8,0,0,1-4.4,1.6c-1.8-.2-.8,1.1.4.9a19,19,0,0,0,6.7-3,2.2,2.2,0,0,0-.1.6c-.1.3-.2,1.8.9,1.8s1.6-1.2,1.7-1.3a.6.6,0,0,0,.6.8c.6.1,1.2-.5,1.5-.7a1.5,1.5,0,0,0-.1.6,26.6,26.6,0,0,0-1.8,2c-1.1,1.4-2.2,3.4-.6,3.5a2.3,2.3,0,0,0,2-1.5,33.5,33.5,0,0,0,.8-4l2-1.9-.5,2c-.1,0-.1.1,0,.2s.3,0,.4-.1,1.7-2.4,2.2-2.4-.2,1.1,0,1.8.1.9.8.9,1.7-1.4,1.7-1.4.3,1.2,1.2,1.2.7,0,1.3-.7.1.8.7.8,1.6-1.3,1.6-1.3-.1.9,1.1,1,2.5-.7,1.9-.9m-15.3-.7c0,.1-.4.9-.8.8s-.2-.7.2-1.3.5-.7.8-.5,0,.7-.2,1m-1.8,6.3c-.4,0-.1-1.4.8-2.6l1.4-1.7c-.1.5-.8,4.3-2.2,4.3" transform="translate(0 -0.5)" style="fill:#fffffe"/></g></g></g><path id="Fill-13-8" data-name="Fill-13" d="M219.2,54l-.3.2v-.6h-.3v1.4h.5a.5.5,0,0,0,.6-.6.6.6,0,0,0-.5-.6m-.1,1.1h-.2v-.7h.2c.2,0,.3.2.3.4s-.1.5-.3.5m1.4-1h.2l-.4,1c-.1.2-.2.4-.4.4h-.2v-.2h.2c.1,0,.2-.2.3-.3h0l-.4-1h.3l.2.6.3-.6h-.1" transform="translate(0 -0.5)" style="fill:#fffffe"/></g><g id="Group-18"><path id="Fill-25" d="M53.3,54.5h1V49.1h.8v5.4h1.5a1.6,1.6,0,0,0,1.2-.4,2.3,2.3,0,0,0,.6-1.2h.1v1.7H53.3Z" transform="translate(0 -0.5)" style="fill:#fefefe"/><polygon id="Fill-27" points="63 54 63.8 54 65.5 51.4 63.7 48.6 63 48.6 63 48.5 65.5 48.5 65.5 48.6 64.7 48.6 66.1 50.7 67.4 48.6 66.6 48.6 66.6 48.5 68.4 48.5 68.4 48.6 67.6 48.6 66.2 50.8 68.3 54 69 54 69 54.1 66.4 54.1 66.4 54 67.2 54 65.6 51.5 64 54 64.8 54 64.8 54.1 63 54.1 63 54" style="fill:#fefefe"/><path id="Fill-29" d="M74.6,51.5h1.2l.4-.2.2-.4c0-.2.1-.4.1-.6a1.4,1.4,0,0,0-.2-.7.3.3,0,0,0-.3-.3.5.5,0,0,0-.4-.2h-1Zm-1.8,3h1V49.1h.8c.1,0,.2,0,.2-.1h1.3a.9.9,0,0,1,.7.3,1.2,1.2,0,0,1,.5.5c0,.2.1.3.1.5a.4.4,0,0,1-.1.3c0,.1-.1.2-.2.4l-.4.3-.8.3h.4l.4.2c.2,0,.3.1.5.3l.3.4v.4c.1.1.1.2.1.4V54l.2.4a.5.5,0,0,0,.4.2h.5a.1.1,0,0,0-.1.1H77.4a.5.5,0,0,1-.4-.2c-.1-.1-.1-.3-.2-.4s-.1-.3-.1-.5v-.8c-.1-.2-.1-.4-.2-.6l-.3-.3H74.6v2.9H72.8Z" transform="translate(0 -0.5)" style="fill:#fefefe"/></g><g id="Group-29"><path id="Fill-96" d="M273.4,40c-3.1,0-5.3,2-5.3,4a3.9,3.9,0,0,0,1.3,2.7h.1a3.1,3.1,0,0,1-1.2-2.3c.2-2.3,3-3.6,5.5-3.6s5,.4,5,3.4-1.7,3.5-5.1,3.5c-1.8,0-3.2-.9-3.2-2.3a2,2,0,0,1,2.3-2h1a3.3,3.3,0,0,0-1.9.4v2h1.7V43.6a.8.8,0,0,1,.7.3v1.9h.5a1.9,1.9,0,0,1-1.6.6h0c1.6.1,2.3-.7,2.3-1.5s-.9-1.6-1.9-1.8V41.7h-1.7v1.6c-1.1.2-2.2.8-2.2,1.9s2.4,2.7,4.4,2.7,5.4-1.5,5.4-3.6-3.4-4.3-6.1-4.3m2.4,5c0-.7-.5-1.3-1.5-1.6V41.7H276v4.1h-.5a1.1,1.1,0,0,0,.3-.8" transform="translate(0 -0.5)" style="fill:#fefefe"/><polygon id="Fill-97" points="266 49.9 266 55.8 266.5 55.9 266.5 56.2 264.2 56.2 264.2 55.9 264.7 55.8 264.7 53.1 261.8 53.1 261.8 55.8 262.2 55.9 262.2 56.2 260 56.2 260 55.9 260.4 55.8 260.4 49.9 260 49.8 260 49.5 262.2 49.5 262.2 49.8 261.8 49.9 261.8 52.4 264.7 52.4 264.7 49.9 264.2 49.8 264.2 49.5 266.5 49.5 266.5 49.8 266 49.9" style="fill:#fefefe"/><path id="Fill-98" d="M269.2,50.4a.7.7,0,0,1-.8.8.7.7,0,0,1-.7-.8.7.7,0,0,1,.7-.7.7.7,0,0,1,.8.7Zm-.2,5.9h.4v.3h-2v-.3h.4v-4h-.4v-.3H269Z" transform="translate(0 -0.5)" style="fill:#fefefe"/><polygon id="Fill-99" points="270.4 55.9 270.8 55.8 270.8 49.6 270.4 49.6 270.4 49.3 272 49.3 272 55.8 272.4 55.9 272.4 56.2 270.4 56.2 270.4 55.9" style="fill:#fefefe"/><path id="Fill-100" d="M275,51.9h1.1v.5H275v2.8c0,.7.1,1,.8,1h.7v.4l-1.6.3c-.9,0-1.2-.5-1.2-1.3V52.4h-.8v-.5h.9v-1l1.2-.3Z" transform="translate(0 -0.5)" style="fill:#fefefe"/><path id="Fill-101" d="M280.3,54.3c0-1.5-.4-2.1-1.2-2.1s-1.1.6-1.1,2.1.4,2.2,1.1,2.2,1.2-.6,1.2-2.2m1.4.1a2.4,2.4,0,0,1-2.6,2.4c-1.5,0-2.5-.6-2.5-2.4a2.4,2.4,0,0,1,2.6-2.6,2.3,2.3,0,0,1,2.5,2.6" transform="translate(0 -0.5)" style="fill:#fefefe"/><path id="Fill-102" d="M287.5,56.4v.3h-2.1v-.3h.4V53.6c0-.7-.3-1.1-.8-1.1a2.1,2.1,0,0,0-1,.4v3.4h.4v.3h-2.1v-.3h.4v-4h-.4v-.4H284v.7a2.7,2.7,0,0,1,1.7-.8c.9,0,1.3.6,1.3,1.7v2.8Z" transform="translate(0 -0.5)" style="fill:#fefefe"/></g><g id="Group-17"><path id="Fill-103" d="M37.7,55.5l.6,1.7H37ZM36.3,58h.4l.2-.6h1.5l.3.6H39l-1.3-3.2Zm-.8,0h.3V54.9h-.3Zm-1.2-2.2a.6.6,0,0,1-.7.7h-.5c.1,0,1.3,1.5,1.4,1.5h.3a15.4,15.4,0,0,0-1.2-1.3h.2a.9.9,0,0,0,.9-.9.9.9,0,0,0-1-.9h-1V58H33V55.2h.6c.5,0,.7.3.7.6Zm-2.5.7a1.3,1.3,0,1,1-2.6,0,1.2,1.2,0,0,1,1.3-1.3,1.3,1.3,0,0,1,1.3,1.3Zm.3,0a1.6,1.6,0,0,0-3.2,0,1.6,1.6,0,0,0,3.2,0Zm-3.4-1.3v-.3H27v.3h.7V58H28V55.2Zm-3,2.9a.9.9,0,0,0,.8-.9c0-.4-.2-.6-.7-.9s-.6-.3-.6-.7a.5.5,0,0,1,.5-.5.9.9,0,0,1,.6.3v-.2a.9.9,0,0,0-.7-.3.8.8,0,0,0-.8.7c0,.5.3.7.8,1s.5.3.5.7a.5.5,0,0,1-.5.5.7.7,0,0,1-.6-.3l-.2.3a1.1,1.1,0,0,0,.8.3Zm-2.5-2.6.7,1.7H22.5ZM21.9,58h.3l.2-.6H24l.2.6h.3l-1.3-3.2Z" transform="translate(0 -0.5)" style="fill:#fefefe"/><path id="Fill-104" d="M20.5,55.1v-.2H18.8V58h.3V56.6h1.1v-.2H19.1V55.1Zm-2.8.6a.7.7,0,0,1-.7.7h-.5c0,.1,1.3,1.6,1.3,1.6h.4L17,56.6h.2a.9.9,0,0,0,.8-.8.8.8,0,0,0-.9-.9h-1V58h.3V55.1H17a.7.7,0,0,1,.7.6Zm-2.6.7a1.2,1.2,0,0,1-1.3,1.3,1.3,1.3,0,0,1,0-2.6,1.3,1.3,0,0,1,1.3,1.3Zm.3,0a1.5,1.5,0,0,0-1.6-1.6,1.6,1.6,0,1,0,1.6,1.6Zm-5.3-1.3a1.3,1.3,0,1,1,0,2.6H9.6V55.1Zm0,2.9a1.6,1.6,0,0,0,1.7-1.6,1.5,1.5,0,0,0-1.7-1.5H9.3V58ZM8.8,58v-.3H7.5V54.9H7.2V58ZM5.3,55.5,6,57.1H4.7ZM4,58h.3l.2-.6H6.1l.2.6h.4L5.3,54.8Zm-2.7.1.8-2,.8,2,1.2-3.2H3.8l-.9,2.4-.8-1.9-.8,1.9-1-2.4H0Z" transform="translate(0 -0.5)" style="fill:#fefefe"/><path id="Fill-105" d="M17.8,50.3v.3l-3.2-7.1h.2Zm-.2-6.8h.2l3.1,6.8v.3Zm3.4.7V44l3.5,7.5h-.3Zm-5.7-.8H13.8l3.7,8.1,1.6-3.3,1.5,3.3,1.6-3.3,1.4,3.2h1.3l-3.8-8.1-1.4,3v.3l.9-1.8,1,2.3H20.1v.2h1.6v.2H20.3v.3H22l-1,2-2.9-6.5H16.9l2,4.5-1,2L15,43.5h.3Zm7.5,3,1.4-2.9h.3l-1.6,3.3Z" transform="translate(0 -0.5)" style="fill:#fefefe"/></g></g><g id="Group-24"><g id="Group-25"><polygon id="Fill-31" points="226.5 117.8 226.5 118.7 222.6 118.7 222.6 112.6 226.5 112.6 226.5 113.5 223.5 113.5 223.5 115.2 226.1 115.2 226.1 116 223.5 116 223.5 117.8 226.5 117.8" style="fill:#fefefe"/><polygon id="Fill-33" points="221.6 112.6 221.6 118.7 220.7 118.7 220.7 114.9 220.6 114.9 219.4 117.8 218.6 117.8 217.3 114.9 217.3 114.9 217.3 118.7 216.4 118.7 216.4 112.6 217.2 112.6 219 116.6 220.7 112.6 221.6 112.6" style="fill:#fefefe"/><path id="Fill-35" d="M214.6,116.1c0-1.2-.1-1.4-.3-1.7a1.4,1.4,0,0,0-1-.5,1.3,1.3,0,0,0-.9.5c-.3.3-.3.5-.3,1.7s0,1.5.3,1.8a1.3,1.3,0,0,0,.9.4,1.3,1.3,0,0,0,1-.4c.2-.3.3-.5.3-1.8m.6-2c.2.4.3.6.3,2s-.1,1.7-.3,2a2,2,0,0,1-1.9,1.1,2.1,2.1,0,0,1-1.9-1.1c-.2-.3-.3-.5-.3-2s.1-1.6.3-2a2.3,2.3,0,0,1,1.9-1.1,2.2,2.2,0,0,1,1.9,1.1" transform="translate(0 -0.5)" style="fill:#fefefe"/><polygon id="Fill-37" points="210.3 112.6 210.3 118.7 209.3 118.7 209.3 116 206.9 116 206.9 118.7 206 118.7 206 112.6 206.9 112.6 206.9 115.2 209.3 115.2 209.3 112.6 210.3 112.6" style="fill:#fefefe"/><path id="Fill-39" d="M228.5,122v-1.5l3.3-3.3a3.4,3.4,0,0,0,.9-2,1.1,1.1,0,0,0-1.3-1.2,1.8,1.8,0,0,0-1.3,1.6h-1.5a3.8,3.8,0,0,1,2.8-3.4c1.1-.2,2.6,0,2.8,2.6a5.1,5.1,0,0,1-1.3,3.6l-2.6,2.7,4,.9v2Zm-1-8.9v9.6l7.9,3V110Z" transform="translate(0 -0.5)" style="fill:#fefefe"/><path id="Fill-41" d="M226.5,120.7l-.3.2h-.5c-.2,0-.4.1-.4.3h.6l.4.2c.2.1.2.2.2.4a.7.7,0,0,1-.8.7c-.4,0-.7,0-.9-.3l.3-.3c.1.2.3.2.6.2s.4-.1.4-.2v-.2c0-.1-.1-.1-.2-.1h-.3c-.2,0-.3,0-.4-.2a.5.5,0,0,1-.2-.4.7.7,0,0,1,.8-.7,1.1,1.1,0,0,1,.8.3" transform="translate(0 -0.5)" style="fill:#fefefe"/><polygon id="Fill-43" points="223.6 121.8 223.6 122.2 222.1 122.2 222.1 119.9 223.6 119.9 223.6 120.3 222.6 120.3 222.6 120.9 223.5 120.9 223.5 121.3 222.6 121.3 222.6 121.8 223.6 121.8" style="fill:#fefefe"/><polygon id="Fill-45" points="220.8 119.9 220.8 120.3 220.2 120.3 220.2 122.2 219.7 122.2 219.7 120.3 219.1 120.3 219.1 119.9 220.8 119.9" style="fill:#fefefe"/><polygon id="Fill-47" points="217.3 122.2 217.8 122.2 217.8 119.9 217.3 119.9 217.3 122.2" style="fill:#fefefe"/><path id="Fill-49" d="M215.9,120.4v1.5a.8.8,0,0,1-.9.8.8.8,0,0,1-.8-.8v-1.5h.4v1.5a.4.4,0,0,0,.4.4c.3,0,.4-.1.4-.4v-1.5Z" transform="translate(0 -0.5)" style="fill:#fefefe"/><path id="Fill-50" d="M212.8,120.7l-.3.2H212a.3.3,0,0,0-.3.3h.5l.5.2a.5.5,0,0,1,.2.4c0,.5-.4.7-.9.7a1,1,0,0,1-.9-.3l.3-.3a.7.7,0,0,0,.6.2c.3,0,.4-.1.4-.2s0-.2-.1-.2-.1-.1-.2-.1h-.2c-.2,0-.4,0-.5-.2a.5.5,0,0,1-.2-.4.7.7,0,0,1,.8-.7,1,1,0,0,1,.8.3" transform="translate(0 -0.5)" style="fill:#fefefe"/></g><path d="M186,113.5h-2v4.7h2c1.1,0,1.8-.9,1.8-2.4S187.1,113.5,186,113.5Zm1.1,2.3c0,1.2-.4,1.8-1.1,1.9h-1.2V114H186C186.7,114.1,187.1,114.8,187.1,115.8Z" transform="translate(0 -0.5)" style="fill:#fff"/><path d="M173,118.3l1.7-4.8h-.5l-1.4,3.6v-.2a29.3,29.3,0,0,0-1-3.3h-.5a22.1,22.1,0,0,0-1,3.4l-1.3-3.5h-.9l1.7,4.6v.2h.5l1-3.5,1,3.5Z" transform="translate(0 -0.5)" style="fill:#fff"/><path d="M152.6,115.2H150v-1.7h-.8v1.7h-.9v.5h.9v2.6h.8v-2.6h2.6v2.6h.8v-4.8h-.8Z" transform="translate(0 -0.5)" style="fill:#fff"/><polygon points="159.6 114.8 161 117.6 161.1 117.7 161.4 117.7 163.1 114.5 163.1 117.8 163.7 117.8 163.7 113 163.1 113 161.1 116.7 159.2 113 159.2 113 158.7 113 158.7 117.8 159.5 117.8 159.6 114.8" style="fill:#fff"/><path d="M167.8,117.7h-2.5v-1.8h2v-.6h-2V114h2.5l-.3-.6h-3v4.8h3.3l.2-.7Z" transform="translate(0 -0.5)" style="fill:#fff"/><path d="M156,113.3a2.5,2.5,0,1,0,2.2,2.5A2.4,2.4,0,0,0,156,113.3Zm1.7,2.5a1.7,1.7,0,0,1-1.7,1.8,1.8,1.8,0,0,1,0-3.6A1.7,1.7,0,0,1,157.7,115.8Z" transform="translate(0 -0.5)" style="fill:#fff"/><path d="M176.7,113.3a2.5,2.5,0,1,0,2.2,2.5A2.4,2.4,0,0,0,176.7,113.3Zm1.7,2.5a1.7,1.7,0,1,1-1.7-1.8A1.8,1.8,0,0,1,178.4,115.8Z" transform="translate(0 -0.5)" style="fill:#fff"/><path d="M181.4,113.3a2.5,2.5,0,1,0,2.2,2.5A2.4,2.4,0,0,0,181.4,113.3Zm1.7,2.5a1.7,1.7,0,1,1-1.7-1.8A1.8,1.8,0,0,1,183.1,115.8Z" transform="translate(0 -0.5)" style="fill:#fff"/><path d="M160.5,121.2h0c-.4-.2-.7-.3-.7-.6s.2-.4.5-.4.4,0,.5.3l.2.2.3-.6h-.1a1.3,1.3,0,0,0-.9-.2c-.6,0-1.1.3-1.1.9s.5.9.9,1.1.7.3.7.7-.2.4-.6.4a.8.8,0,0,1-.8-.4v-.3l-.3.7h.1a1.5,1.5,0,0,0,1.1.4,1.2,1.2,0,0,0,1.3-1.1C161.5,121.6,160.9,121.4,160.5,121.2Z" transform="translate(0 -0.5)" style="fill:#fff"/><path d="M164.7,119.9V122a.9.9,0,0,1-.9.9.9.9,0,0,1-.7-.3c-.2-.1-.2-.4-.2-.6v-2.2h-.7V122a1.3,1.3,0,0,0,1.5,1.4,1.2,1.2,0,0,0,1-.5h0v.2h.6v-3.3h-.7Z" transform="translate(0 -0.5)" style="fill:#fff"/><path d="M167.2,121.3v-1.4h-.7v2.7h0v.5h.7v-1.9Z" transform="translate(0 -0.5)" style="fill:#fff"/><path d="M168.1,120.2h.9v3.1h.7v-1.6h0v-1.4h1v-.4h-2.5Z" transform="translate(0 -0.5)" style="fill:#fff"/><path d="M176.1,121.2h0c-.4-.2-.7-.3-.7-.6s.3-.4.5-.4a.6.6,0,0,1,.6.3v.2l.4-.6h-.1a1.6,1.6,0,0,0-.9-.2c-.6,0-1.2.3-1.2.9s.6.9,1,1.1.7.3.7.7-.3.4-.6.4a.7.7,0,0,1-.8-.4l-.2-.3-.2.7h.1a1.4,1.4,0,0,0,1.1.4,1.1,1.1,0,0,0,1.2-1.1C177.1,121.6,176.6,121.4,176.1,121.2Z" transform="translate(0 -0.5)" style="fill:#fff"/><path d="M172.3,122.9v-1.3h1.6v-.5h-1.5v-.9h1.9l-.3-.5h-2.3v3.5h2.5l.2-.5h-2Z" transform="translate(0 -0.5)" style="fill:#fff"/><g id="Group-22"><path id="Fill-108" d="M6,119.8h.7v1.1c0,.2-.1.2-.2.4l-.5.2c-.6,0-.8-.4-.9-.9s-.1-.8-.1-1.2a5.9,5.9,0,0,1,.2-1.3.9.9,0,0,1,.9-.6c.8,0,.9.4,1.1,1h.2v-1.2H7.3l-.3.2-.9-.2a2.3,2.3,0,0,0-1.4.4,2.4,2.4,0,0,0-.7,1.8c0,1.2.6,2.2,1.9,2.2a2.1,2.1,0,0,0,1.7-.8v-1.1H8v-.3H6Z" transform="translate(0 -0.5)" style="fill:#fefefe"/><path id="Fill-109" d="M10,120.5a.7.7,0,0,1-.2.6H9.5c-.4,0-.5-.2-.5-.5s.5-.7,1-.7Zm.8-1.1h0c0-.4,0-.6-.4-.8H9.6c-.4,0-1.2.2-1.2.7s.1.4.4.4a.4.4,0,0,0,.4-.4c0-.1-.2-.2-.2-.4l.5-.2c.4,0,.5.2.5.6v.6a2.6,2.6,0,0,0-1.5.4.8.8,0,0,0-.4.7c0,.5.4.7.9.7a1.1,1.1,0,0,0,1-.5c0,.1.1.2.1.3a1,1,0,0,0,.7.2h.5v-.2h-.5Z" transform="translate(0 -0.5)" style="fill:#fefefe"/><path id="Fill-110" d="M13.8,118.4c-.5,0-.7.3-.9.7v-.6H11.5v.2H12v2.7h-.5v.2h2v-.2h-.6V120a1.7,1.7,0,0,1,.3-1l.3-.3h.1a.4.4,0,0,0-.1.3.4.4,0,0,0,.4.4.5.5,0,0,0,.5-.5.6.6,0,0,0-.6-.6" transform="translate(0 -0.5)" style="fill:#fefefe"/><path id="Fill-111" d="M16.9,120.9a.9.9,0,0,1-.7.5c-.6,0-.6-.9-.6-1.4s0-1.3.6-1.3a.7.7,0,0,1,.6.4,1.8,1.8,0,0,1,.2,1,2.5,2.5,0,0,1-.1.8Zm1-3.6H16.4v.2h.5v1.4a1,1,0,0,0-.9-.4h-.6a1.8,1.8,0,0,0-.8,1.5,1.5,1.5,0,0,0,1.4,1.6.9.9,0,0,0,.9-.6v.5h1.4v-.2h-.4Z" transform="translate(0 -0.5)" style="fill:#fefefe"/><path id="Fill-112" d="M19.9,118.6a.6.6,0,0,1,.6.6v.4H19.4c0-.4-.1-1,.5-1Zm1.5,1.3a1.3,1.3,0,0,0-.4-1,1.6,1.6,0,0,0-2.7,1.1,1.7,1.7,0,0,0,1.7,1.7,1.5,1.5,0,0,0,1.4-1h-.2c-.3.5-.6.8-1.1.8s-.8-.6-.8-1.2v-.3Z" transform="translate(0 -0.5)" style="fill:#fefefe"/><path id="Fill-113" d="M25.1,119.4c0-.4-.1-.8-.6-.9h-.4l-.5.2-.6.4v-.5H21.6v.2h.5v2.7h-.5v.2h1.8v-.2H23v-2a.9.9,0,0,1,.8-.6c.4,0,.4.4.4.7v1.9h-.4v.2h1.8v-.2h-.5Z" transform="translate(0 -0.5)" style="fill:#fefefe"/><polygon id="Fill-114" points="26.6 117.1 27.1 117.1 27.1 120.9 26.6 120.9 26.6 121.1 28.6 121.1 28.6 120.9 28.1 120.9 28.1 117.1 28.6 117.1 28.6 116.8 26.6 116.8 26.6 117.1" style="fill:#fefefe"/><path id="Fill-115" d="M32.3,119.4c0-.4-.1-.8-.6-.9h-.4l-.5.2-.6.4v-.5H28.8v.2h.5v2.7h-.5v.2h1.8v-.2h-.4v-2a.9.9,0,0,1,.8-.6c.4,0,.4.4.4.7v1.9H31v.2h1.8v-.2h-.5Z" transform="translate(0 -0.5)" style="fill:#fefefe"/><path id="Fill-116" d="M36.5,121.4v-2c0-.4-.1-.8-.6-.9h-.4l-.6.2-.5.4v-.5H33v.2h.5v2.7H33v.2h1.8v-.2h-.4v-2a.9.9,0,0,1,.8-.6c.4,0,.4.4.4.7v1.9h-.4v.2H37v-.2Z" transform="translate(0 -0.5)" style="fill:#fefefe"/><path id="Fill-117" d="M8.9,115.2c0-.1.1-.1.2-.1s.1,0,.1.1,0,.2-.1.2l-.2-.2Zm1,.8H9.2a2.4,2.4,0,0,1-1.4-.5,1.4,1.4,0,0,1-.5-1.3h0c.1-.1.2,0,.3.1h0a1.7,1.7,0,0,0,.3,1,2.1,2.1,0,0,0,1.7.5A2.2,2.2,0,0,0,9,114s-.7-.6-1.2-.2l.7.6.4.5H8.8l-.5-.5c-.2-.2-.8-.7-.8-.8h0c.9-.8,1.9.3,1.9.3s.4.7.4,1.4a2,2,0,0,1,.1.5Zm-1-4.6c0-.1.1-.1.2-.2s.1.1.1.2H8.9Zm-1.1-.3a1.8,1.8,0,0,1,1.4-.4h.7a3.5,3.5,0,0,1-.1.6,1.5,1.5,0,0,1-.4,1.3s-.7.8-1.4.6H8a.2.2,0,0,1,0-.3H8a1.4,1.4,0,0,0,1-.3,2.2,2.2,0,0,0,.6-1.7,2.1,2.1,0,0,0-1.7.6s-.6.7-.2,1.2l.6-.7c.2-.3.4-.4.5-.4h0a.1.1,0,0,1,.1.1h0l-.4.5-.8.8H7.5c-.8-.8.3-1.8.3-1.8Zm-2.4,4.1v.2l-.2-.2h.2a.1.1,0,0,1,.1.1Zm1.1.3c-.4.4-.7.4-1.4.5H4.4a1.3,1.3,0,0,0,.1-.5,2.6,2.6,0,0,1,.4-1.4,2,2,0,0,1,1.4-.6h0a.2.2,0,0,1,0,.3h0a1.4,1.4,0,0,0-1,.3,2.2,2.2,0,0,0-.5,1.7,2.2,2.2,0,0,0,1.7-.5s.5-.8.2-1.2l-.6.6-.5.5H5.4a2,2,0,0,1,.5-.5l.8-.8h.1c.8.8-.3,1.8-.3,1.8Zm-1.1-4.1H5.1c0-.1.1-.1.2-.1a.1.1,0,0,1,.1.1Zm-1-.8h.7c.7,0,1,0,1.4.4a2,2,0,0,1,.6,1.4H6.8a2.2,2.2,0,0,0-.3-.9,2.3,2.3,0,0,0-1.8-.6,2.7,2.7,0,0,0,.6,1.7s.7.6,1.2.2l-.6-.6-.5-.5h.1l.6.4.7.8a.1.1,0,0,1,0,.2c-.8.8-1.9-.4-1.9-.4a1.8,1.8,0,0,1-.4-1.3,1.8,1.8,0,0,0-.1-.6Zm-.3,5.8h6.3v-6.2H4.1Z" transform="translate(0 -0.5)" style="fill:#fefefe"/><polygon id="Fill-118" points="13.4 115.6 13 115.5 13 113 15.7 113 15.7 115.5 15.2 115.6 15.2 115.9 17.4 115.9 17.4 115.6 16.9 115.5 16.9 110.1 17.4 110 17.4 109.7 15.2 109.7 15.2 110 15.7 110.1 15.7 112.4 13 112.4 13 110.1 13.4 110 13.4 109.7 11.3 109.7 11.3 110 11.7 110.1 11.7 115.5 11.3 115.6 11.3 115.9 13.4 115.9 13.4 115.6" style="fill:#fefefe"/><polygon id="Fill-119" points="20.2 115.6 19.8 115.6 19.8 111.5 18.3 111.5 18.3 111.8 18.7 111.8 18.7 115.6 18.3 115.6 18.3 115.9 20.2 115.9 20.2 115.6" style="fill:#fefefe"/><polygon id="Fill-120" points="23 115.6 22.6 115.6 22.6 109.7 21.1 109.7 21.1 110 21.5 110 21.5 115.6 21.1 115.6 21.1 115.9 23 115.9 23 115.6" style="fill:#fefefe"/><path id="Fill-121" d="M24.2,115.3c0,.8.2,1.2,1.1,1.2l1.5-.3v-.3h-.7c-.6,0-.7-.2-.7-.9v-2.6h1V112h-1v-1.3l-1.2.4v.9h-.8v.4h.8Z" transform="translate(0 -0.5)" style="fill:#fefefe"/><path id="Fill-122" d="M29.3,112.2c.7,0,1.1.6,1.1,2s-.4,2-1.1,2-1.1-.6-1.1-2,.4-2,1.1-2m0,4.3a2.2,2.2,0,0,0,2.4-2.3,2.1,2.1,0,0,0-2.4-2.3,2.2,2.2,0,0,0-2.4,2.3c0,1.7.9,2.3,2.4,2.3" transform="translate(0 -0.5)" style="fill:#fefefe"/><path id="Fill-123" d="M34.1,116.1h-.4v-3.2a1.8,1.8,0,0,1,.9-.4c.5,0,.8.4.8,1.1v2.5H35v.3h1.9v-.3h-.4v-2.7c0-1-.3-1.5-1.2-1.5a2.4,2.4,0,0,0-1.6.7V112H32.1v.3h.4v3.7h-.4v.3h2Z" transform="translate(0 -0.5)" style="fill:#fefefe"/><path id="Fill-124" d="M19.2,111.4c.4,0,.7-.2.7-.6a.7.7,0,0,0-.7-.6.6.6,0,0,0-.6.6.6.6,0,0,0,.6.6" transform="translate(0 -0.5)" style="fill:#fefefe"/></g><g id="Group-23"><path id="Fill-141" d="M85.8,121.5l-13,3.8-13.1-3.8v-8.3l13.1-3.8,13,3.8Zm-13-12.9-13.8,4V122l13.8,4.1L86.6,122v-9.4Z" transform="translate(0 -0.5)" style="fill:#fefefe"/><path id="Fill-142" d="M78.8,117.5l.4-.8a.9.9,0,0,0,.5.7,2.6,2.6,0,0,1-.3.7c-.1.3-.3.6-.5.5s-.2-.7-.1-1.1m.6-1.1s.2-.2.3-.1.2.6.1.8-.2,0-.3-.3v-.4m-2.9,2.1c.1.6.7.4.9.3l.7-.6c0,.7.7.9,1.3.5s.7-1.3.7-1.3.7-.4.7-.4l-.7,1.8h.7a5.3,5.3,0,0,1,.9-2c.2-.3.4-.4.5-.3l-.3.8a2.9,2.9,0,0,0-.3,1.6.9.9,0,0,0,1,.8,2.6,2.6,0,0,0,1.9-1.1,2.8,2.8,0,0,0,.4-1.6c.1-.3-.1-.4-.2-.4s-.1.1-.1.7a2.9,2.9,0,0,1-1,1.8,1.1,1.1,0,0,1-1.3.2c-.3-.4,0-1.2.3-1.9s.3-.9.2-1.2-.4-.2-.6-.1-.6.4-.6.4v-.4h-.5l-.5.7-.4.3v-.4a.7.7,0,0,0-.5-.7,1.3,1.3,0,0,0-1.2.6,3,3,0,0,0-.5,1.3l-.6.6c-.1.1-.3.2-.1-.5a13.4,13.4,0,0,1,.5-1.7h.6v-.2h-.5l.3-1.1h-.7l-.3,1h-.5v.2h.4l-.2.8a6.2,6.2,0,0,0-.4,1.4" transform="translate(0 -0.5)" style="fill:#fefefe"/><path id="Fill-143" d="M67.3,116.9H67l.4-1.2a3.8,3.8,0,0,1,.9-1.3s-.3-.1-.9.4a5.9,5.9,0,0,0-1.2,2.1H65.1a8.7,8.7,0,0,1,.5-1.3l.5-1-1.3.3-1.2.4c-.3.1-.4.5-.3.6l.5-.3a5.2,5.2,0,0,1,1.5-.6,7.3,7.3,0,0,0-1,1.9h-.6v.3h.5a6.7,6.7,0,0,1-.6,1.7c-.3.7-.8,1.3-1.4,1.2a1.4,1.4,0,0,1-1.2-1.5c0-.9,0-1.2.5-1.7s.2-.5-.1-.4-.5.3-.7.9a3.3,3.3,0,0,0,.4,2.4,1.5,1.5,0,0,0,2.2.3,4.3,4.3,0,0,0,1.2-1.7l.5-1.2h1.1s-1.1,2.6.3,3.2a2,2,0,0,1-.1-1.3,14.7,14.7,0,0,1,.6-1.9h.2s.1.1.1,0v-.2" transform="translate(0 -0.5)" style="fill:#fefefe"/><path id="Fill-144" d="M74.9,117.4c.3-.7.6-1.1.8-1s.1.6-.1,1.2-.7,1-.8.9-.1-.5.1-1.1m-5.9-.3a4.7,4.7,0,0,1-.5,1c-.2.2-.4.3-.5.2s-.1-.5.1-.9a2.4,2.4,0,0,1,.5-.9c.2-.1.4-.2.5-.1a3.2,3.2,0,0,1-.1.7m3.5-.4c.1-.7-.3-.7-.5-.7a2.5,2.5,0,0,0-.7.5V116h-.6a15.4,15.4,0,0,1-.5,1.7c-.1.1-.5.7-.7.7s-.1-.3,0-.6L70,116h-.7v.2c-.1-.3-.7-.4-1.2.2a2.5,2.5,0,0,0-.7,1.7c-.1.4,0,.7.4.7s.9-.6.9-.6.2.7.5.7.9-.6.9-.6l-.2.5h.7l.6-1.6a1.4,1.4,0,0,1,.6-.7.2.2,0,0,1,.2.2c-.1.2-.7,2.1-.7,2.1h.6a12.3,12.3,0,0,0,.5-1.3,2.9,2.9,0,0,1,.7-1c.2-.2.2,0,.1.2s-.5,1.4-.5,1.6a.4.4,0,0,0,.4.6c.4,0,.9-.6.9-.6l-.4,1.6h.6l.4-1.2c.1.1.1.2.5.2s.9-.5,1.2-1.1.3-1.7-.2-1.8a.8.8,0,0,0-.7.3V116h-.6l-.5,1.7-.7.8c-.3.1-.2-.3-.1-.6s.4-1,.5-1.4-.2-.6-.6-.5a3,3,0,0,0-.8.7" transform="translate(0 -0.5)" style="fill:#fefefe"/></g><g id="Fill-146"><path id="Fill-89" d="M124.7,121.5h-.8v-1.2h0a2.7,2.7,0,0,1-2.4,1.4c-1.7,0-2.4-1-2.4-2.6v-4.4h.9v4.4c0,1.2.5,1.9,1.8,1.9s2-1.4,2-2.8v-3.5h.9Zm-6.5-6.1a2.3,2.3,0,0,0-2.5,2.4v3.7h-.8v-6.8h.7v1.6h.1a2.4,2.4,0,0,1,2.5-1.7Zm1.5-7.4a9.7,9.7,0,0,0-9.2,6.7h1.2v-2.1h.8v2.1h1.4v.7h-1.4V120c0,.4.1.7.4.8h1v.5l-.7.2c-1.1,0-1.5-.4-1.5-1.6v-4.6h-1.4a8.5,8.5,0,0,0-.3,2.3,9.7,9.7,0,1,0,9.7-9.7Z" transform="translate(0 -0.5)" style="fill:#fefefe"/></g><path d="M253.6,121.7a1.1,1.1,0,0,1,.8.3h0l.3-.2h0a2.1,2.1,0,0,0-1.1-.4,1.3,1.3,0,0,0-1.3,1.3,1.2,1.2,0,0,0,1.3,1.2,2,2,0,0,0,1.1-.3h0v-1.1h-1.1v.4h.7v.5l-.7.2a.9.9,0,1,1,0-1.8Z" transform="translate(0 -0.5)" style="fill:#fff"/><path d="M257.6,122.1c0-.2-.1-.3-.2-.5l-.7-.2h-1.3v2.4h.4v-1h.8l.6,1h.4l-.5-1A.8.8,0,0,0,257.6,122.1Zm-1.8-.3h1.3v.2a.4.4,0,0,1-.4.4h-1Z" transform="translate(0 -0.5)" style="fill:#fff"/><path d="M259,121.4l-1.1,2.4h.4l.3-.7h1.1l.3.7h.5l-1.1-2.4Zm.6,1.4h-.8l.4-.9Z" transform="translate(0 -0.5)" style="fill:#fff"/><polygon points="262.6 122.6 261.2 120.9 260.9 120.9 260.9 123.3 261.3 123.3 261.3 121.6 262.7 123.3 263 123.3 263 120.9 262.6 120.9 262.6 122.6" style="fill:#fff"/><path d="M265.7,121.7a1.2,1.2,0,0,0-.9-.3h-1v2.4h1a1.1,1.1,0,0,0,.9-.3,1.5,1.5,0,0,0,.4-.9A1.1,1.1,0,0,0,265.7,121.7Zm-1.5.1h.6c.3,0,.5,0,.6.2a.6.6,0,0,1,.3.6.7.7,0,0,1-.3.6.8.8,0,0,1-.6.2h-.6Z" transform="translate(0 -0.5)" style="fill:#fff"/><polygon points="269.4 120.9 268.5 122.8 267.7 120.9 267.2 120.9 268.3 123.3 268.7 123.3 269.8 120.9 269.4 120.9" style="fill:#fff"/><path d="M270.7,121.4l-1.1,2.4h.4l.3-.7h1.1l.3.7h.5l-1.1-2.4Zm.6,1.4h-.8l.4-.9Z" transform="translate(0 -0.5)" style="fill:#fff"/><path d="M274.5,123.1a1.8,1.8,0,0,1-.9.4.9.9,0,1,1,0-1.8,1.1,1.1,0,0,1,.8.3h0l.3-.2h0a2.1,2.1,0,0,0-1.1-.4,1.3,1.3,0,0,0-1.3,1.3,1.2,1.2,0,0,0,1.3,1.2,1.6,1.6,0,0,0,1.1-.4h.1l-.3-.2Z" transform="translate(0 -0.5)" style="fill:#fff"/><path d="M276.1,121.4l-1.2,2.4h.5l.3-.7h1.1l.3.7h.4l-1.1-2.4Zm.5,1.4h-.8l.4-.9Z" transform="translate(0 -0.5)" style="fill:#fff"/><polygon points="277.3 121.3 278.2 121.3 278.2 123.3 278.6 123.3 278.6 121.3 279.5 121.3 279.5 120.9 277.3 120.9 277.3 121.3" style="fill:#fff"/><rect x="279.9" y="120.9" width="0.4" height="2.39" style="fill:#fff"/><path d="M282.1,121.3a1.3,1.3,0,0,0-1.3,1.3,1.2,1.2,0,0,0,1.3,1.2,1.2,1.2,0,0,0,1.3-1.2A1.3,1.3,0,0,0,282.1,121.3Zm.9,1.3a.9.9,0,1,1-.9-.9A.9.9,0,0,1,283,122.6Z" transform="translate(0 -0.5)" style="fill:#fff"/><polygon points="285.7 122.6 284.3 120.9 284 120.9 284 123.3 284.4 123.3 284.4 121.6 285.8 123.3 286.1 123.3 286.1 120.9 285.7 120.9 285.7 122.6" style="fill:#fff"/><path d="M287.9,122.3h0c-.5,0-.7,0-.7-.3s.3-.3.5-.3.8.2.8.3h.1l.2-.3h0a1.6,1.6,0,0,0-1.1-.4.8.8,0,0,0-.9.8c0,.5.6.6,1.1.6s.7.1.7.4-.4.4-.7.4a1.3,1.3,0,0,1-1-.4h0l-.3.3h.1a1.6,1.6,0,0,0,1.2.4c.7,0,1.1-.3,1.1-.8S288.3,122.3,287.9,122.3Z" transform="translate(0 -0.5)" style="fill:#fff"/><polygon points="266 113.9 264.3 113.9 264.3 114.2 264.8 114.2 264.8 118.2 264.3 118.3 264.3 118.6 266.4 118.6 266.4 118.3 266 118.2 266 113.9" style="fill:#fff"/><polygon points="261.2 112.3 261.7 112.3 261.7 114.8 258.8 114.8 258.8 112.3 259.3 112.3 259.3 111.9 257.1 111.9 257.1 112.3 257.5 112.3 257.5 118.2 257.1 118.2 257.1 118.6 259.3 118.6 259.3 118.2 258.8 118.2 258.8 115.5 261.7 115.5 261.7 118.2 261.2 118.2 261.2 118.6 263.4 118.6 263.4 118.2 263 118.2 263 112.3 263.4 112.3 263.4 111.9 261.2 111.9 261.2 112.3" style="fill:#fff"/><polygon points="269.4 118.3 268.9 118.2 268.9 111.7 267.3 111.7 267.3 112 267.7 112.1 267.7 118.2 267.3 118.3 267.3 118.6 269.4 118.6 269.4 118.3" style="fill:#fff"/><path d="M265.4,113.6a.7.7,0,0,0,.7-.7.7.7,0,1,0-1.4,0A.7.7,0,0,0,265.4,113.6Z" transform="translate(0 -0.5)" style="fill:#fff"/><path d="M271.9,117.6v-2.8H273v-.4h-1.1V113l-1.2.4v1h-.9v.4h.8v3.1c0,.8.3,1.2,1.2,1.2a3.1,3.1,0,0,0,1.5-.3v-.3h-.6C272,118.6,271.9,118.3,271.9,117.6Z" transform="translate(0 -0.5)" style="fill:#fff"/><path d="M280.8,115.3l.9-.3c.6,0,.9.3.9,1v2.7h-.4v.3h2v-.3h-.4v-2.8c0-1.1-.4-1.6-1.3-1.6a2.6,2.6,0,0,0-1.7.7v-.6h-1.7v.3h.4v3.9h-.4v.3h2.1v-.3h-.4Z" transform="translate(0 -0.5)" style="fill:#fff"/><path d="M278.5,116.8a2.3,2.3,0,0,0-2.5-2.6,2.4,2.4,0,0,0-2.5,2.6c0,1.8,1,2.4,2.5,2.4A2.3,2.3,0,0,0,278.5,116.8Zm-3.7-.1c0-1.5.5-2.1,1.2-2.1s1.1.6,1.1,2.1-.4,2.2-1.1,2.2S274.8,118.2,274.8,116.7Z" transform="translate(0 -0.5)" style="fill:#fff"/></g></g><g id="Group-24-2" data-name="Group-24"><polyline id="Fill-122-2" data-name="Fill-122" points="123 139.5 123 157.6 131.1 157.6 131.1 156.8 123.8 156.8 123.8 140.3 167.8 140.3 167.8 156.8 160.4 156.8 160.4 157.6 168.6 157.6 168.6 139.5" style="fill:#fefefe"/><polygon id="Fill-123-2" data-name="Fill-123" points="135.4 158.9 135.4 157.5 133.5 157.5 133.5 158.9 132.9 158.9 132.9 155.4 133.5 155.4 133.5 156.9 135.4 156.9 135.4 155.4 136.1 155.4 136.1 158.9 135.4 158.9" style="fill:#fefefe"/><path id="Fill-124-2" data-name="Fill-124" d="M141.1,157.7a1.8,1.8,0,0,1-1.8,1.8,1.8,1.8,0,1,1,0-3.6,1.8,1.8,0,0,1,1.8,1.8m-3,0a1.2,1.2,0,0,0,1.2,1.2,1.2,1.2,0,0,0,1.1-1.2,1.1,1.1,0,0,0-1.1-1.2,1.2,1.2,0,0,0-1.2,1.2" transform="translate(0 -0.5)" style="fill:#fefefe"/><polygon id="Fill-125-2" data-name="Fill-125" points="144.9 158.9 143 156.5 143 158.9 142.4 158.9 142.4 155.4 143.1 155.4 145 157.9 145 155.4 145.6 155.4 145.6 158.9 144.9 158.9" style="fill:#fefefe"/><path id="Fill-126-2" data-name="Fill-126" d="M150.6,157.7a1.8,1.8,0,0,1-1.9,1.8,1.8,1.8,0,1,1,0-3.6,1.8,1.8,0,0,1,1.9,1.8m-3,0a1.2,1.2,0,0,0,1.1,1.2,1.2,1.2,0,0,0,1.2-1.2,1.2,1.2,0,0,0-1.2-1.2,1.1,1.1,0,0,0-1.1,1.2" transform="translate(0 -0.5)" style="fill:#fefefe"/><path id="Fill-127-2" data-name="Fill-127" d="M153.5,155.9c1.1,0,1.5.4,1.5,1.2s-.2.9-.8,1l.9,1.3h-.7l-.9-1.2h-.9v1.2h-.7v-3.5Zm-.9,1.8h.9c.6,0,.8-.1.8-.6s-.2-.6-.8-.6h-.9Z" transform="translate(0 -0.5)" style="fill:#fefefe"/><path id="Fill-128-2" data-name="Fill-128" d="M159,156.3l-.3.5a2.8,2.8,0,0,0-1.2-.4c-.4,0-.6.2-.6.5s.1.2.7.4,1.5.4,1.5,1.1-.6,1.1-1.5,1.1a3,3,0,0,1-1.6-.5l.3-.5a2.5,2.5,0,0,0,1.4.4c.4,0,.7-.1.7-.4s-.3-.4-1-.6-1.2-.4-1.2-1,.6-1,1.3-1a2.4,2.4,0,0,1,1.5.4" transform="translate(0 -0.5)" style="fill:#fefefe"/><polygon id="Fill-129-2" data-name="Fill-129" points="135.3 143.9 135.3 152 135.9 152.1 135.9 152.6 132.8 152.6 132.8 152.1 133.5 152 133.5 148.3 129.5 148.3 129.5 152 130.1 152.1 130.1 152.6 127 152.6 127 152.1 127.6 152 127.6 143.9 127 143.9 127 143.4 130.1 143.4 130.1 143.9 129.5 143.9 129.5 147.4 133.5 147.4 133.5 143.9 132.8 143.9 132.8 143.4 135.9 143.4 135.9 143.9 135.3 143.9" style="fill:#fefefe"/><polygon id="Fill-130-2" data-name="Fill-130" points="139.6 152.1 140.1 152.1 140.1 152.6 137.3 152.6 137.3 152.1 137.9 152.1 137.9 146.5 137.3 146.5 137.3 146 139.6 146 139.6 152.1" style="fill:#fefefe"/><polygon id="Fill-131-2" data-name="Fill-131" points="141.4 152.2 142 152.1 142 143.9 141.4 143.8 141.4 143.4 143.7 143.4 143.7 152.1 144.3 152.2 144.3 152.6 141.4 152.6 141.4 152.2" style="fill:#fefefe"/><path id="Fill-132-2" data-name="Fill-132" d="M147.8,146.5h1.5v.7h-1.5V151c0,1,.2,1.4,1.1,1.4h.9v.4a5.9,5.9,0,0,1-2.1.4c-1.3,0-1.6-.6-1.6-1.7v-4.2h-1.3v-.7h1.3v-1.3l1.7-.5Z" transform="translate(0 -0.5)" style="fill:#fefefe"/><path id="Fill-133-2" data-name="Fill-133" d="M157,149.9a3.2,3.2,0,0,1-3.5,3.4c-2.1,0-3.4-.9-3.4-3.4a3.3,3.3,0,0,1,3.5-3.5c2.2,0,3.4,1.2,3.4,3.5m-1.8-.1c0-2-.7-2.9-1.7-2.9s-1.5.8-1.5,2.9.6,3,1.5,3,1.7-.9,1.7-3" transform="translate(0 -0.5)" style="fill:#fefefe"/><path id="Fill-134-2" data-name="Fill-134" d="M164.8,152.6v.5H162v-.5h.5v-3.7c0-1.1-.3-1.5-1.1-1.5a2.7,2.7,0,0,0-1.4.5v4.7h.6v.5h-2.9v-.5h.6v-5.5h-.6v-.5H160v.9a4,4,0,0,1,2.4-1c1.3,0,1.9.8,1.9,2.2v4Z" transform="translate(0 -0.5)" style="fill:#fefefe"/><path id="Fill-135-2" data-name="Fill-135" d="M139.6,144.8a.9.9,0,1,1-.9-.9.9.9,0,0,1,.9.9" transform="translate(0 -0.5)" style="fill:#fefefe"/></g></g></g></svg>