<svg xmlns="http://www.w3.org/2000/svg" xmlns:xlink="http://www.w3.org/1999/xlink" width="61.133" height="59.186" viewBox="0 0 61.133 59.186">
  <defs>
    <filter id="Path_8" x="0.001" y="28.213" width="61.132" height="30.973" filterUnits="userSpaceOnUse">
      <feOffset input="SourceAlpha"/>
      <feGaussianBlur stdDeviation="5" result="blur"/>
      <feFlood flood-color="#104c97" flood-opacity="0.188"/>
      <feComposite operator="in" in2="blur"/>
      <feComposite in="SourceGraphic"/>
    </filter>
    <filter id="Path_9" x="8.27" y="5.837" width="30.973" height="52.862" filterUnits="userSpaceOnUse">
      <feOffset input="SourceAlpha"/>
      <feGaussianBlur stdDeviation="5" result="blur-2"/>
      <feFlood flood-color="#104c97" flood-opacity="0.188"/>
      <feComposite operator="in" in2="blur-2"/>
      <feComposite in="SourceGraphic"/>
    </filter>
    <filter id="Path_10" x="3.892" y="5.837" width="39.729" height="38.756" filterUnits="userSpaceOnUse">
      <feOffset input="SourceAlpha"/>
      <feGaussianBlur stdDeviation="5" result="blur-3"/>
      <feFlood flood-color="#104c97" flood-opacity="0.188"/>
      <feComposite operator="in" in2="blur-3"/>
      <feComposite in="SourceGraphic"/>
    </filter>
    <filter id="Path_11" x="0" y="5.837" width="57.096" height="53.2" filterUnits="userSpaceOnUse">
      <feOffset input="SourceAlpha"/>
      <feGaussianBlur stdDeviation="5" result="blur-4"/>
      <feFlood flood-color="#104c97" flood-opacity="0.188"/>
      <feComposite operator="in" in2="blur-4"/>
      <feComposite in="SourceGraphic"/>
    </filter>
    <filter id="Path_12" x="10.86" y="25.418" width="33.611" height="33.611" filterUnits="userSpaceOnUse">
      <feOffset input="SourceAlpha"/>
      <feGaussianBlur stdDeviation="5" result="blur-5"/>
      <feFlood flood-color="#104c97" flood-opacity="0.188"/>
      <feComposite operator="in" in2="blur-5"/>
      <feComposite in="SourceGraphic"/>
    </filter>
    <filter id="Path_13" x="11.319" y="21.048" width="35.056" height="35.056" filterUnits="userSpaceOnUse">
      <feOffset input="SourceAlpha"/>
      <feGaussianBlur stdDeviation="5" result="blur-6"/>
      <feFlood flood-color="#104c97" flood-opacity="0.188"/>
      <feComposite operator="in" in2="blur-6"/>
      <feComposite in="SourceGraphic"/>
    </filter>
    <filter id="Path_14" x="14.108" y="6.312" width="43.62" height="49.812" filterUnits="userSpaceOnUse">
      <feOffset input="SourceAlpha"/>
      <feGaussianBlur stdDeviation="5" result="blur-7"/>
      <feFlood flood-color="#104c97" flood-opacity="0.188"/>
      <feComposite operator="in" in2="blur-7"/>
      <feComposite in="SourceGraphic"/>
    </filter>
    <filter id="Path_15" x="23.836" y="8.756" width="30.973" height="30.486" filterUnits="userSpaceOnUse">
      <feOffset input="SourceAlpha"/>
      <feGaussianBlur stdDeviation="5" result="blur-8"/>
      <feFlood flood-color="#104c97" flood-opacity="0.188"/>
      <feComposite operator="in" in2="blur-8"/>
      <feComposite in="SourceGraphic"/>
    </filter>
    <filter id="Path_16" x="13.378" y="0" width="47.755" height="48.486" filterUnits="userSpaceOnUse">
      <feOffset input="SourceAlpha"/>
      <feGaussianBlur stdDeviation="5" result="blur-9"/>
      <feFlood flood-color="#104c97" flood-opacity="0.188"/>
      <feComposite operator="in" in2="blur-9"/>
      <feComposite in="SourceGraphic"/>
    </filter>
  </defs>
  <g id="_x32_5_x5F_beach_x5F_paradise" transform="translate(15.001 15)">
    <g transform="matrix(1, 0, 0, 1, -15, -15)" filter="url(#Path_8)">
      <path id="Path_8-2" data-name="Path 8" d="M0,58H31.132v.973H0Z" transform="translate(15 -14.79)" fill="#00175a"/>
    </g>
    <g transform="matrix(1, 0, 0, 1, -15, -15)" filter="url(#Path_9)">
      <path id="Path_9-2" data-name="Path 9" d="M17,12h.973V34.862H17Z" transform="translate(6.27 8.84)" fill="#00175a"/>
    </g>
    <g transform="matrix(1, 0, 0, 1, -15, -15)" filter="url(#Path_10)">
      <path id="Path_10-2" data-name="Path 10" d="M17.729,20.756h-.973c0-5.253-1.265-7.783-3.891-7.783S8.973,15.5,8.973,20.756H8C8,14.967,9.654,12,12.864,12S17.729,14.967,17.729,20.756Z" transform="translate(10.89 8.84)" fill="#00175a"/>
    </g>
    <g transform="matrix(1, 0, 0, 1, -15, -15)" filter="url(#Path_11)">
      <path id="Path_11-2" data-name="Path 11" d="M17.025,21.242H.486A.46.46,0,0,1,0,20.756a8.756,8.756,0,0,1,17.512,0,.46.46,0,0,1-.487.486ZM.973,20.269H16.539a7.8,7.8,0,0,0-15.566,0ZM26.413,35.2l-2.772-2.77H11.188v-.973H23.835a.442.442,0,0,1,.341.146l2.919,2.919Z" transform="translate(15 8.84)" fill="#00175a"/>
    </g>
    <g transform="matrix(1, 0, 0, 1, -15, -15)" filter="url(#Path_12)">
      <path id="Path_12-2" data-name="Path 12" d="M0,0H4.135V.973H0Z" transform="translate(25.86 43.34) rotate(-45)" fill="#00175a"/>
    </g>
    <g transform="matrix(1, 0, 0, 1, -15, -15)" filter="url(#Path_13)">
      <path id="Path_13-2" data-name="Path 13" d="M0,0H.973V6.178H0Z" transform="translate(26.32 36.74) rotate(-45)" fill="#00175a"/>
    </g>
    <g transform="matrix(1, 0, 0, 1, -15, -15)" filter="url(#Path_14)">
      <path id="Path_14-2" data-name="Path 14" d="M35.47,32.8,33.67,31H29v-.973h4.864a.442.442,0,0,1,.341.146l1.946,1.946Zm3.746-16.879a.474.474,0,0,1-.486-.389c0-.049-.438-1.557-2.919-1.557V13a4.071,4.071,0,0,1,3.4,1.411A4.071,4.071,0,0,1,42.62,13v.973c-2.481,0-2.919,1.508-2.919,1.6a.529.529,0,0,1-.486.341Z" transform="translate(0.11 8.32)" fill="#00175a"/>
    </g>
    <g transform="matrix(1, 0, 0, 1, -15, -15)" filter="url(#Path_15)">
      <path id="Path_15-2" data-name="Path 15" d="M49,18h.973v.486H49Z" transform="translate(-10.16 5.76)" fill="#00175a"/>
    </g>
    <g transform="matrix(1, 0, 0, 1, -15, -15)" filter="url(#Path_16)">
      <path id="Path_16-2" data-name="Path 16" d="M36.013,18.485a9.063,9.063,0,0,1-5.4-1.751l.584-.778a8.131,8.131,0,0,0,4.816,1.557,8.269,8.269,0,1,0-7.637-11.48l-.876-.39a9.242,9.242,0,1,1,8.513,12.842Z" transform="translate(0.88 15)" fill="#00175a"/>
    </g>
  </g>
</svg>
