<svg xmlns="http://www.w3.org/2000/svg" width="36" height="17.142" viewBox="0 0 36 17.142">
  <path id="Union_1" data-name="Union 1" d="M-6918.778-311.151a1,1,0,0,1,0-1.414l5.365-5.365H-6944a1,1,0,0,1-1-1,1,1,0,0,1,1-1h30.587l-5.365-5.365a1,1,0,0,1,0-1.414,1,1,0,0,1,1.414,0l7.071,7.071a1,1,0,0,1,.172.23h0l.01.019,0,0,.008.016,0,.009.005.011.006.014,0,.007.007.018v0a1,1,0,0,1,.072.351v0c0,.007,0,.014,0,.021h0c0,.008,0,.017,0,.025h0c0,.008,0,.016,0,.025v.025s0,0,0,0,0,.014,0,.021a.013.013,0,0,1,0,0c0,.007,0,.014,0,.02v.005c0,.006,0,.013,0,.019v0c0,.007,0,.013,0,.02s0,0,0,0l0,.021v0l-.005.023h0a1,1,0,0,1-.267.481l-7.071,7.071a1,1,0,0,1-.707.293A1,1,0,0,1-6918.778-311.151Z" transform="translate(6945.5 327.499)" fill="#b9b9b9" stroke="rgba(0,0,0,0)" stroke-miterlimit="10" stroke-width="1"/>
</svg>
