<svg xmlns="http://www.w3.org/2000/svg" viewBox="0 0 895.5 222.3"><g id="Layer_3" data-name="Layer 3"><g id="_2_Line_Horz_Color_CMYK" data-name="2_Line_Horz_Color_CMYK"><path d="M678.4,143.4h-3.9v9.4h3.9c2.1,0,3.6-1.9,3.6-4.7S680.5,143.4,678.4,143.4Zm2.1,4.7c0,2.2-.7,3.4-2,3.7H676v-7.3h2.4C679.7,144.6,680.5,146,680.5,148.1Z" style="fill:#fff"/><path d="M652.6,152.9l3.5-9.5H655l-2.6,7.2v-.4c-.6-2.2-1.9-6.5-1.9-6.6s-.1-.2-.9-.2h-.2v.2c0,.1-1.2,4.2-1.9,6.9l-2.5-7.1H643l3.4,9.2v.3h1l2.1-6.9,2,6.9Z" style="fill:#fff"/><path d="M612.4,146.9h-5.1v-3.5h-1.6v3.5h-1.8v1.1h1.8v5.1h1.6v-5.1h5.1v5.1h1.5v-9.5h-1.5Z" style="fill:#fff"/><polygon points="626.1 147 629 152.6 629.1 152.8 629.8 152.8 633.1 146.5 633.1 152.9 634.2 152.9 634.2 143.4 633.1 143.4 629.2 150.8 625.4 143.5 625.3 143.4 624.5 143.4 624.5 152.9 626.1 152.9 626.1 147" style="fill:#fff"/><path d="M642.3,151.7h-4.9v-3.6h4.1v-1.1h-4.1v-2.8h5l-.6-1.2h-6v9.5h6.7l.3-1.2Z" style="fill:#fff"/><path d="M619.2,143.1a5,5,0,0,0,0,9.9c2.3,0,4.3-2.2,4.3-5S621.5,143.1,619.2,143.1Zm3.3,4.9a3.4,3.4,0,1,1-6.7,0,3.4,3.4,0,1,1,6.7,0Z" style="fill:#fff"/><path d="M660,143.1c-2.4,0-4.3,2.2-4.3,4.9s1.9,5,4.3,5,4.3-2.2,4.3-5S662.4,143.1,660,143.1Zm3.3,4.9a3.4,3.4,0,1,1-3.3-3.5A3.5,3.5,0,0,1,663.3,148Z" style="fill:#fff"/><path d="M669.3,143.1c-2.4,0-4.3,2.2-4.3,4.9s1.9,5,4.3,5a5,5,0,0,0,0-9.9Zm3.4,4.9a3.4,3.4,0,1,1-6.7,0,3.4,3.4,0,1,1,6.7,0Z" style="fill:#fff"/><path d="M627.9,158.7h0c-.8-.3-1.4-.6-1.4-1.3s.6-.7,1-.7a1.4,1.4,0,0,1,1.2.6l.2.4.6-1.2h-.1a3.1,3.1,0,0,0-1.8-.5c-1.1,0-2.3.6-2.3,1.8s1.1,1.8,2,2.2,1.4.6,1.4,1.3-.6.9-1.3.9a1.6,1.6,0,0,1-1.5-.8l-.3-.5-.6,1.3.2.2a3.2,3.2,0,0,0,2.2.7,2.2,2.2,0,0,0,2.5-2.1C629.9,159.6,628.8,159.1,627.9,158.7Z" style="fill:#fff"/><path d="M636.3,156.2v4a1.8,1.8,0,0,1-1.9,1.8,1.9,1.9,0,0,1-1.3-.5,1.7,1.7,0,0,1-.5-1.3v-4.3h-1.4v4.3c0,1.7,1.2,2.8,3.1,2.8a2.5,2.5,0,0,0,2-.9.3.3,0,0,1,.1.2v.6h1.2v-4.4a19.3,19.3,0,0,0,.1-2.3v-.3h-1.4Z" style="fill:#fff"/><path d="M641.2,158.9v-3h-1.4v.3a46.4,46.4,0,0,1,0,5.3v1.4h1.4v-4Z" style="fill:#fff"/><path d="M642.9,156.8h2v6.1h1.3v-3.5c0-.9.1-1.8.1-2.6h1.9v-.9h-5Z" style="fill:#fff"/><path d="M658.9,158.7h0c-.8-.3-1.4-.6-1.4-1.3s.5-.7,1-.7a1.2,1.2,0,0,1,1.1.6l.3.4.6-1.2h-.2a2.7,2.7,0,0,0-1.8-.5,2,2,0,0,0-2.2,1.8c0,1.3,1.1,1.8,1.9,2.2s1.4.6,1.4,1.3-.5.9-1.2.9a1.7,1.7,0,0,1-1.6-.8l-.3-.5-.5,1.3.2.2a3.2,3.2,0,0,0,2.2.7,2.2,2.2,0,0,0,2.4-2.1C660.8,159.6,659.8,159.1,658.9,158.7Z" style="fill:#fff"/><path d="M651.2,162v-2.4h3v-1h-3v-1.8H655l-.6-1.1h-4.5v7h5l.3-1.1h-4Z" style="fill:#fff"/><path d="M377.5,2.5H517.4V51.3H377.5Zm-2.4,51.3H519.8V0H375.1Z" style="fill:#fff"/><polygon points="413.8 14.1 413.8 39.7 415.8 39.9 415.8 41.4 405.9 41.4 405.9 39.9 408 39.7 408 28 395.3 28 395.3 39.7 397.3 39.9 397.3 41.4 387.5 41.4 387.5 39.9 389.5 39.7 389.5 14.1 387.5 13.8 387.5 12.3 397.3 12.3 397.3 13.8 395.3 14.1 395.3 25 408 25 408 14.1 405.9 13.8 405.9 12.3 415.8 12.3 415.8 13.8 413.8 14.1" style="fill:#fff"/><polygon points="427.4 39.8 429.2 40.1 429.2 41.4 420.1 41.4 420.1 40.1 422 39.8 422 22.3 420.1 22 420.1 20.7 427.4 20.7 427.4 39.8" style="fill:#fff"/><polygon points="433.2 40.1 435 39.9 435 13.9 433.2 13.6 433.2 12.3 440.5 12.3 440.5 39.9 442.4 40.1 442.4 41.4 433.2 41.4 433.2 40.1" style="fill:#fff"/><path d="M453.5,20.7h4.9v2h-4.9V35c0,3.2.6,4.2,3.5,4.2a13.2,13.2,0,0,0,2.9-.2v1.4a20.7,20.7,0,0,1-6.7,1.3c-4.2,0-5.2-1.9-5.2-5.5V22.7h-3.8v-2h4V16.4l5.3-1.6Z" style="fill:#fff"/><path d="M482.9,31.3c0,6.4-4.3,10.7-11.2,10.7s-10.9-2.8-10.9-10.7,4.4-11.2,11.2-11.2,10.9,4.1,10.9,11.2m-5.9-.2c0-6.5-2-9.4-5.2-9.4s-5,2.8-5,9.4,1.9,9.4,5,9.4,5.2-2.6,5.2-9.4" style="fill:#fff"/><path d="M507.7,40.1v1.3h-9.1V40.1l1.8-.3V28.1c0-3.3-1.2-4.8-3.7-4.8a9,9,0,0,0-4.3,1.7V39.8l1.8.3v1.3h-9.1V40.1l1.8-.3V22.4l-1.8-.2V20.7h7.3v2.9c2.2-1.8,4.4-3.3,7.5-3.3s5.9,2.4,5.9,7.1V39.8Z" style="fill:#fff"/><path d="M427.6,15.2a2.9,2.9,0,1,1-2.9-2.9,2.9,2.9,0,0,1,2.9,2.9" style="fill:#fff"/><rect x="529.3" y="26.3" width="366.2" height="1.23" style="fill:#fff"/><rect y="26.3" width="365.4" height="1.23" style="fill:#fff"/><rect x="498.1" y="201.6" width="397.3" height="1.25" style="fill:#fff"/><rect y="201.6" width="396.5" height="1.25" style="fill:#fff"/><polyline points="405.9 187.1 405.9 219.7 420.6 219.7 420.6 218.3 407.3 218.3 407.3 188.5 486.8 188.5 486.8 218.3 473.4 218.3 473.4 219.7 488.2 219.7 488.2 187.1" style="fill:#fff"/><polygon points="428.1 222.2 428.1 219.5 424.7 219.5 424.7 222.2 423.5 222.2 423.5 215.8 424.7 215.8 424.7 218.5 428.1 218.5 428.1 215.8 429.3 215.8 429.3 222.2 428.1 222.2" style="fill:#fff"/><path d="M432.9,219a2.2,2.2,0,1,0,4.3,0,2.1,2.1,0,0,0-2.2-2.1,2.1,2.1,0,0,0-2.1,2.1m5.5,0a3.4,3.4,0,1,1-3.4-3.3,3.4,3.4,0,0,1,3.4,3.3" style="fill:#fff"/><polygon points="445.2 222.2 441.9 217.7 441.9 222.2 440.7 222.2 440.7 215.8 442 215.8 445.3 220.3 445.3 215.8 446.5 215.8 446.5 222.2 445.2 222.2" style="fill:#fff"/><path d="M450,219a2.2,2.2,0,0,0,2.2,2.2,2.1,2.1,0,0,0,2.1-2.2,2.1,2.1,0,0,0-2.1-2.1A2.1,2.1,0,0,0,450,219m5.5,0a3.4,3.4,0,1,1-3.3-3.3,3.3,3.3,0,0,1,3.3,3.3" style="fill:#fff"/><path d="M459.1,219.1h1.7c1,0,1.4-.3,1.4-1.1s-.4-1.1-1.4-1.1h-1.7Zm1.6-3.3c2,0,2.7.7,2.7,2.1s-.4,1.7-1.3,1.9l1.5,2.4h-1.3l-1.5-2.2h-1.7v2.2h-1.2v-6.4Z" style="fill:#fff"/><path d="M470.6,216.4l-.5.9a6,6,0,0,0-2.2-.6c-.6,0-1.1.3-1.1.8s.2.5,1.4.8,2.6.7,2.6,2-1.1,2-2.6,2a4.8,4.8,0,0,1-2.9-.9l.5-.8a5.9,5.9,0,0,0,2.6.7c.6,0,1.1-.3,1.1-.8s-.4-.7-1.6-1-2.4-.8-2.4-1.8,1.2-2,2.5-2a5.3,5.3,0,0,1,2.6.7" style="fill:#fff"/><polygon points="427.9 195.1 427.9 209.7 429 209.8 429 210.7 423.4 210.7 423.4 209.8 424.6 209.7 424.6 203 417.4 203 417.4 209.7 418.5 209.8 418.5 210.7 412.9 210.7 412.9 209.8 414.1 209.7 414.1 195.1 412.9 195 412.9 194.1 418.5 194.1 418.5 195 417.4 195.1 417.4 201.3 424.6 201.3 424.6 195.1 423.4 195 423.4 194.1 429 194.1 429 195 427.9 195.1" style="fill:#fff"/><polygon points="435.6 209.8 436.6 209.9 436.6 210.7 431.5 210.7 431.5 209.9 432.5 209.8 432.5 199.8 431.5 199.7 431.5 198.9 435.6 198.9 435.6 209.8" style="fill:#fff"/><polygon points="438.9 209.9 439.9 209.8 439.9 195 438.9 194.9 438.9 194.1 443 194.1 443 209.8 444.1 209.9 444.1 210.7 438.9 210.7 438.9 209.9" style="fill:#fff"/><path d="M450.4,198.9h2.8V200h-2.8v7c0,1.8.4,2.4,2,2.4h1.7v.8a12.4,12.4,0,0,1-3.9.7c-2.3,0-2.9-1.1-2.9-3.1V200h-2.2v-1.1h2.3v-2.4l3-.9Z" style="fill:#fff"/><path d="M463.7,204.8c0-3.7-1.1-5.3-2.9-5.3s-2.8,1.5-2.8,5.3,1.1,5.3,2.8,5.3,2.9-1.5,2.9-5.3m3.4.1c0,3.7-2.4,6.1-6.3,6.1s-6.2-1.6-6.2-6.1,2.5-6.3,6.4-6.3,6.1,2.3,6.1,6.3" style="fill:#fff"/><path d="M481.2,209.9v.8H476v-.8h1.1v-6.7c0-1.9-.7-2.7-2.1-2.7a4.7,4.7,0,0,0-2.5,1v8.4h1.1v.8h-5.3v-.8h1.1v-9.9l-1.1-.2v-.8h4.2v1.6a6.7,6.7,0,0,1,4.3-1.8c2.3,0,3.3,1.3,3.3,4v7.1Z" style="fill:#fff"/><path d="M435.7,195.8a1.7,1.7,0,0,1-1.6,1.7,1.7,1.7,0,0,1,0-3.4,1.7,1.7,0,0,1,1.6,1.7" style="fill:#fff"/><path d="M268.5,97.4c0,3.3-2.4,5-6.3,5h-3.3c.7-.2.9-.4.9-1.4V93.9c0-1,0-1.2-.9-1.5h3.8c3.3,0,5.8,1.6,5.8,5m-5.7,3.9a3.6,3.6,0,0,0,3.9-3.8,3.8,3.8,0,0,0-4-4.1h-1.5v6.9c0,.7.3,1,.9,1Zm-22.1-6.4c0-2-1.9-2.5-3.2-2.5h-3.6c.9.3.8,1.5.8,2.2v5.7c0,.7,0,1.9-.9,2.1h3.3c-1-.2-1-1.4-1-2.1V93.5h1a1.8,1.8,0,0,1,1.9,1.7,2.2,2.2,0,0,1-2,2.1l4.3,5.2h2.2a11.5,11.5,0,0,1-2.7-2.7l-1.9-2.4a2.3,2.3,0,0,0,1.8-2.4M219.3,92v9c0,1-.3,1.2-.9,1.5h3.3c-.9-.4-1-.5-1-1.5V95.3l7.8,7.4V93.9c0-1.1,0-1.2.7-1.5h-3c.8.2.9.4.9,1.5v5.5Zm-9.6,0a4.8,4.8,0,0,1,5,5.2,5.1,5.1,0,0,1-5,5.4,5.2,5.2,0,0,1-5.1-5.4,4.9,4.9,0,0,1,5.1-5.2m-.1,9.4c2,0,3.5-1.7,3.5-4.2s-1.4-4.1-3.4-4.1-3.4,1.7-3.4,4.1,1.4,4.2,3.3,4.2M197.1,93a3.2,3.2,0,0,1,2.9,1.3V91.9c-.2.3-.3.3-.6.3s-1.2-.2-2.6-.2a5.3,5.3,0,1,0,0,10.6,12.8,12.8,0,0,0,3.4-.6l.2-2.2a4.2,4.2,0,0,1-3.4,1.6c-2.4,0-3.8-1.7-3.8-4.2s1.5-4.2,3.9-4.2m53.8,1.9-2.5,6.4-.2.5c0,.3.2.5.7.6h-3.3a1.5,1.5,0,0,0,1.1-.9l4.2-9.5,4.2,9.5a1.3,1.3,0,0,0,1,.9h-3.2q.6-.2.6-.6a1.1,1.1,0,0,0-.1-.5Z" style="fill:#fff"/><path d="M301,101.9a4.2,4.2,0,0,1,0-8.4,3.7,3.7,0,0,1,3.5,2.2h1.6a5,5,0,0,0-5.1-3.5,5.4,5.4,0,0,0-5.5,5.5,5.2,5.2,0,0,0,5.5,5.5c3,0,4.6-1.7,5.1-3.4h-1.6a3.6,3.6,0,0,1-3.5,2.1m15.1-9.3h1.4V103h-1.4v-1.2a5,5,0,0,1-3.7,1.4c-3.4,0-5.3-2.3-5.3-5.5a5.3,5.3,0,0,1,5.5-5.5,5.8,5.8,0,0,1,3.5,1.1Zm0,2.5a4.5,4.5,0,0,0-3.5-1.6,3.9,3.9,0,0,0-4,4.2c0,2.4,1.3,4.2,3.9,4.2a4.2,4.2,0,0,0,3.6-1.8Zm64.7-2.8c-.3.2-.6.1-1.1.3a8,8,0,0,0-2.2,1.2,74.7,74.7,0,0,0-9.7,8.4v.2a22.8,22.8,0,0,1-.2,2.7c-.3,3.5-2.2,10.2-5.8,10.2a1.9,1.9,0,0,1-2.1-2c0-2.1,1.6-4.2,2.5-5.5l3.6-4.1.8-.9a44.7,44.7,0,0,0,0-6.4c0-.6-.1-.9-.6-.5s-1.4,1.6-2.1,2.3-3.1,3.7-4.4,4.3a2.2,2.2,0,0,1-1.3.4c-.8,0-1.2-.6-1.2-1.5a9.9,9.9,0,0,1,.2-1.7c.2-.9.4-2.2.7-3.5a15,15,0,0,1-6.7,5.7h-.1a11.5,11.5,0,0,1-3.4.9c-.4,0-.7-.3-.2-.5a19.6,19.6,0,0,0,3.5-1.6,5.4,5.4,0,0,0,2.1-4.3,3.2,3.2,0,0,0-3.3-3.5c-1.8,0-3,.7-3.2,1.3a4.9,4.9,0,0,0-.2,1.5,96.9,96.9,0,0,0-.3,15.8c-.3,1-.4,1.4-.9,1.4s-.6-.9-.6-1.3a44,44,0,0,1-.2-4.6c0-2.5.1-6.8.3-9.1.1-.6.2-2.3.2-2.3a12,12,0,0,1-3.1,3.3,5.3,5.3,0,0,1-5.5,4.2,4.8,4.8,0,0,1-5-5.1,5.6,5.6,0,0,1,5.8-5.8,4.6,4.6,0,0,1,4.9,5.1v.7a11.3,11.3,0,0,0,3.1-4c.4-.9,2.5-1.8,4.5-1.8s5,1.3,5,4.2a5.8,5.8,0,0,1-1.5,3.9,12.9,12.9,0,0,0,4.9-6.2c.2-1,0-1.6,1.6-1.7a36.7,36.7,0,0,1-.8,5.2,29.6,29.6,0,0,0-.3,3.1c0,1,.9,1,2.4-.2a25.1,25.1,0,0,0,5.5-7.5c.2-.3.4-.5.7-.5s.5.7.6,1.8a43.5,43.5,0,0,1,.2,7.1,97,97,0,0,1,8.5-7.7l2.2-1.6a10.7,10.7,0,0,1,1.9-1.1.6.6,0,0,1,.7.2.8.8,0,0,1-.4,1M340.2,100l-1.6.5a6.4,6.4,0,0,1-5.6-.9,3.3,3.3,0,0,0,3.5,2.5,3.9,3.9,0,0,0,3.7-2.1m.6-2.4c0-2.8-1.5-4.6-3.8-4.6s-4.2,2.1-4.2,4.6,5.1,3.6,7.7,1.8a5.7,5.7,0,0,0,.3-1.8m25.8,6-.6.7c-2.2,2.4-5.1,6-5.1,8.8,0,.7.3,1.4,1.1,1.4s3.2-3.1,3.8-5.5a17.9,17.9,0,0,0,.7-4.7Zm-35.8-.9c-1.1,0-1.6-.9-1.6-2V96.2c0-2.3-1.2-4-4.4-4a6.4,6.4,0,0,0-3.4,1.2v-.8H320v2.1h0V103h1.4V94.9a5.5,5.5,0,0,1,3.3-1.4c1.5,0,2.4.5,2.8,1.7a4.9,4.9,0,0,1,.2,1.5v4a2.2,2.2,0,0,0,2.4,2.5,2.7,2.7,0,0,0,2.2-.8h-.1a2.9,2.9,0,0,1-1.4.4" style="fill:#fff"/><path d="M107.7,102.4h1.8V91.6h-1.8v-.2h5.4v.2h-1.9v10.8h3a2.8,2.8,0,0,0,2.3-.8,4.6,4.6,0,0,0,1.2-2.4h.2v3.5H107.7Z" style="fill:#fff"/><polygon points="126.9 102.5 128.5 102.5 131.9 97.2 128.3 91.6 126.9 91.6 126.9 91.4 131.9 91.4 131.9 91.6 130.3 91.6 133 95.8 135.7 91.6 134 91.6 134 91.4 137.5 91.4 137.5 91.6 135.9 91.6 133.1 96 137.3 102.5 138.7 102.5 138.7 102.7 133.7 102.7 133.7 102.5 135.3 102.5 132 97.4 128.8 102.5 130.4 102.5 130.4 102.7 126.9 102.7 126.9 102.5" style="fill:#fff"/><path d="M146.4,102.4h1.9V91.6h-1.9v-.2H153a4.2,4.2,0,0,1,1.4.6,3.5,3.5,0,0,1,.8,1,2,2,0,0,1,.2,1v.6a3,3,0,0,1-.4.8l-.9.7a3.8,3.8,0,0,1-1.6.4h.7l1,.3.8.5a2.4,2.4,0,0,1,.6.9c.1.2.1.5.2.7v.9c0,.2.1.5.1.8a1.5,1.5,0,0,0,.1.7,1.1,1.1,0,0,0,.3.7.8.8,0,0,0,.7.3h.4l.5-.2v.2h-1.5l-1.1-.2-.7-.4a2,2,0,0,1-.4-.8c-.1-.3-.1-.7-.2-1.1V98.9a2.1,2.1,0,0,0-.3-1.2l-.6-.7-.8-.2h-2.4v5.7h1.9v.3h-5.4Zm3.5-5.9h2.5l.6-.4a1.6,1.6,0,0,0,.4-.7,5,5,0,0,0,.2-1.2,5.2,5.2,0,0,0-.2-1.4,2.2,2.2,0,0,0-.6-.7l-.8-.4h-2.1Z" style="fill:#fff"/><polygon points="759.2 153.2 759.2 155 751.5 155 751.5 142.8 759.2 142.8 759.2 144.6 753.3 144.6 753.3 148 758.4 148 758.4 149.7 753.3 149.7 753.3 153.2 759.2 153.2" style="fill:#fff"/><polygon points="749.4 142.8 749.4 155 747.6 155 747.6 147.4 747.6 147.4 745 153.2 743.5 153.2 740.9 147.4 740.9 147.4 740.9 155 739.1 155 739.1 142.8 740.8 142.8 744.3 150.7 747.7 142.8 749.4 142.8" style="fill:#fff"/><path d="M736.8,144.9c.4.7.5,1.1.5,4s-.1,3.3-.5,4a4.4,4.4,0,0,1-7.6,0c-.4-.7-.5-1.1-.5-4s.1-3.3.5-4a4.4,4.4,0,0,1,7.6,0m-1.3,4c0-2.5-.1-2.8-.6-3.5a2.5,2.5,0,0,0-3.8,0c-.4.7-.6,1-.6,3.5s.2,2.8.6,3.4a2.5,2.5,0,0,0,3.8,0c.5-.6.6-.9.6-3.4" style="fill:#fff"/><polygon points="727 142.8 727 155 725.1 155 725.1 149.7 720.3 149.7 720.3 155 718.5 155 718.5 142.8 720.3 142.8 720.3 148 725.1 148 725.1 142.8 727 142.8" style="fill:#fff"/><path d="M761.3,142.8V162l15.5,6V136.7Zm1.9,17.8v-3l6.6-6.6a6.4,6.4,0,0,0,1.7-3.9c0-1.9-1.2-2.7-2.5-2.4a3.3,3.3,0,0,0-2.6,3.2h-3.1a7.7,7.7,0,0,1,5.6-6.7c2.3-.4,5.3,0,5.6,5.1a10.3,10.3,0,0,1-2.5,7.2l-5.2,5.3,7.9,1.9v4Z" style="fill:#fff"/><path d="M759.1,157.9l-.5.5a1.9,1.9,0,0,0-1-.3c-.5,0-.7.3-.7.6s0,.3.1.3l.5.2h.5a1.9,1.9,0,0,1,.9.4,1.2,1.2,0,0,1,.3.9c0,.9-.7,1.4-1.7,1.4a2.1,2.1,0,0,1-1.7-.6l.6-.6a1.5,1.5,0,0,0,1.1.4c.6,0,.9-.2.9-.5a.5.5,0,0,0-.2-.4l-.4-.2h-.5a1.2,1.2,0,0,1-.9-.3,1.3,1.3,0,0,1-.4-1,1.4,1.4,0,0,1,1.6-1.4,1.9,1.9,0,0,1,1.5.6" style="fill:#fff"/><polygon points="753.5 161.2 753.5 162 750.5 162 750.5 157.4 753.5 157.4 753.5 158.2 751.4 158.2 751.4 159.3 753.2 159.3 753.2 160.1 751.4 160.1 751.4 161.2 753.5 161.2" style="fill:#fff"/><polygon points="747.9 157.4 747.9 158.2 746.6 158.2 746.6 162 745.7 162 745.7 158.2 744.5 158.2 744.5 157.4 747.9 157.4" style="fill:#fff"/><rect x="741" y="157.4" width="0.9" height="4.62" style="fill:#fff"/><path d="M738.1,157.4v3a1.6,1.6,0,0,1-1.7,1.6,1.6,1.6,0,0,1-1.7-1.6v-3h.9v3a.8.8,0,0,0,.8.8.7.7,0,0,0,.8-.8v-3Z" style="fill:#fff"/><path d="M732,157.9l-.6.5a1.7,1.7,0,0,0-1-.3.7.7,0,0,0-.7.6c0,.1.1.3.2.3l.4.2h.5a1.5,1.5,0,0,1,.9.4,1,1,0,0,1,.4.9,1.5,1.5,0,0,1-1.7,1.4,2,2,0,0,1-1.7-.6l.6-.6a1.5,1.5,0,0,0,1.1.4c.5,0,.8-.2.8-.5s0-.3-.1-.4a.6.6,0,0,0-.5-.2h-.5a1.2,1.2,0,0,1-.9-.3,1.7,1.7,0,0,1-.3-1,1.4,1.4,0,0,1,1.6-1.4,2,2,0,0,1,1.5.6" style="fill:#fff"/><path d="M862.4,106.9c0,.1,0,.2-.1.2a2,2,0,0,1-1.5.6,2.4,2.4,0,1,1,0-4.7,1.9,1.9,0,0,1,1.5.6c.1,0,.1.1,0,.2l-.3.4h-.2a1.5,1.5,0,0,0-1-.4,1.5,1.5,0,0,0,0,3,2,2,0,0,0,1.1-.3h.1Zm-14.2-.1h-1.9v-3.6a.1.1,0,0,0-.1-.1h-.6c-.1,0-.2,0-.2.1v4.3h2.9V107c0-.1,0-.2-.1-.2m4.3,0h-1.9v-3.6a.1.1,0,0,0-.1-.1h-.6c-.1,0-.2,0-.2.1v4.3h2.9V107c0-.1,0-.2-.1-.2m4.3-3.7h-2.7c-.1,0-.1,0-.1.1v4.3h2.9V107c0-.1,0-.2-.1-.2h-2v-1.1h1.8V105h-1.8v-1.1h2.1v-.5c0-.1,0-.1-.1-.1m-19.4,3.4h-.2a1.7,1.7,0,0,1-1,.3,1.5,1.5,0,0,1-1.5-1.5,1.5,1.5,0,0,1,1.4-1.5,2.1,2.1,0,0,1,1.1.4h.1l.4-.4v-.2a2.1,2.1,0,0,0-1.6-.6,2.2,2.2,0,0,0-2.3,2.4,2.2,2.2,0,0,0,2.3,2.3,2.5,2.5,0,0,0,1.6-.6.1.1,0,0,0,0-.2Zm43.6-3.4h-.6c-.1,0-.1,0-.1.1v2.7h0l-2.7-2.9h-.3v4.4h.8v-2.8h0l2.7,3h.2a.1.1,0,0,0,.1-.1v-4.4c0-.1,0-.1-.1-.1m-12,0h-.6c-.1,0-.1,0-.1.1v4.3h.8v-4.3c0-.1,0-.1-.1-.1m-2.2,0h-3.4a.1.1,0,0,0-.1.1v.5h1.4v3.7h.8v-3.7h1.4v-.5a.1.1,0,0,0-.1-.1m-23.1,2.3a2.3,2.3,0,0,1-2.4,2.3,2.3,2.3,0,0,1-2.3-2.3,2.3,2.3,0,0,1,2.3-2.4,2.4,2.4,0,0,1,2.4,2.4m-.9,0a1.5,1.5,0,0,0-1.5-1.6,1.6,1.6,0,0,0-1.5,1.6,1.5,1.5,0,0,0,1.5,1.4,1.4,1.4,0,0,0,1.5-1.4m32.7,0a2.3,2.3,0,1,1-4.6,0,2.3,2.3,0,1,1,4.6,0m-.8,0a1.5,1.5,0,1,0-3,0,1.5,1.5,0,0,0,3,0" style="fill:#fff"/><path d="M831.3,93.5v.8a.2.2,0,0,1-.2.2h-4.9a.3.3,0,0,1-.1-.2v-.8h5.2m57.5,0h-1.3L886,96.1l-1.6-2.6h-1.2l2.2,3.7v2.6h1.2V97.3h0l2.2-3.7h0m-33,5.4h-3V97.2h2.4c.1,0,.1-.1.1-.2v-.8a.1.1,0,0,0-.1-.1h-2.4V94.5h2.8a.2.2,0,0,0,.2-.2v-.8h-4.2v6.4h4.3v-1m6.2-2.7c-1-.5-1.3-.8-1.3-1.2s.3-.7.9-.7a2.5,2.5,0,0,1,1.3.5h.1c.1.1.2,0,.2-.1l.4-.5V94h0a3.8,3.8,0,0,0-2-.6c-1.2,0-2,.6-2,1.7s.5,1.6,1.6,2.1,1.4.7,1.4,1.2-.3.8-1,.8a2.9,2.9,0,0,1-1.6-.6h-.3l-.3.6a.2.2,0,0,0,0,.3,3.8,3.8,0,0,0,2.2.7,2,2,0,0,0,2.2-1.8c0-1.1-.6-1.6-1.8-2.1m-32.8-.9h-1a.1.1,0,0,0-.1.1v4.5h1.2V95.4a.1.1,0,0,0-.1-.1m40.5,0h-.9c-.1,0-.1,0-.1.1v4.5h1.1V95.4c0-.1,0-.1-.1-.1M880,99.8c.1,0,.1.1,0,.1h-1.2l-1.3-2.5h-1.1v2.5h-1.2V93.5H878a1.9,1.9,0,0,1,2,2,1.9,1.9,0,0,1-1.3,1.8Zm-1.2-4.4a1,1,0,0,0-1.1-1h-1.3v2h1.3a1,1,0,0,0,1.1-1m-30.9.1a2.1,2.1,0,0,1-2.2,2.1h-1.2v2.3h-1.2V93.5h2.4a2,2,0,0,1,2.2,2.1m-1.1,0a1.1,1.1,0,0,0-1.2-1.1h-1.1v2.1h1.1a1.1,1.1,0,0,0,1.2-1m-7.1,4.3h-1c-.1,0-.2,0-.2-.2l-.5-1h-2.9l-.5,1a.2.2,0,0,1-.2.2h-1l3-6.4a.1.1,0,0,1,.1-.1h.1c.1,0,.1,0,.1.1Zm-2.1-2-1-2.2h-.1l-1,2.2Zm34.1-4.4h-5.1v.8a.2.2,0,0,0,.2.2h4.9c.1,0,.1-.1.1-.2v-.8h-.1" style="fill:#fff"/><path d="M543.3,128.6A19.3,19.3,0,0,0,525,141.8h2.5v-4.1h1.6v4.1h2.8v1.4h-2.8v9.1c0,.8.1,1.4.7,1.7a2.5,2.5,0,0,0,1.3.3h.8v1a3.7,3.7,0,0,1-1.5.3c-2.2,0-3-.7-2.9-3v-9.3h-2.9a23.1,23.1,0,0,0-.5,4.6,19.3,19.3,0,1,0,19.2-19.2Zm-2.9,14.7a4.6,4.6,0,0,0-5,4.8v7.3h-1.7V141.8h1.5V145h.1a5,5,0,0,1,5.1-3.4Zm12.8,12.1h-1.5v-2.5h0a5.1,5.1,0,0,1-4.7,2.8c-3.4,0-4.8-2-4.8-5.1v-8.8h1.7v8.8c.1,2.5,1,3.8,3.6,3.8s4.1-2.7,4.1-5.5v-7.1h1.6Z" style="fill:#fff"/><polygon points="247.5 142.6 242.2 142.6 242.2 144 244.1 144 244.1 157 245.6 157 245.6 144 247.5 144 247.5 142.6" style="fill:#fff"/><polygon points="255.1 142.6 249.8 142.6 249.8 144 251.7 144 251.7 157 253.2 157 253.2 144 255.1 144 255.1 142.6" style="fill:#fff"/><path d="M221.4,157h1.4V146.6a4.8,4.8,0,0,0-.7-2.4,4.3,4.3,0,0,0-7.3,0,4.5,4.5,0,0,0-3.7-2,4.4,4.4,0,0,0-4.4,4.4V157h1.5V146.6a3,3,0,0,1,2.9-3,3.1,3.1,0,0,1,3,2.9h0V157h1.4V146.6a3,3,0,0,1,3-3,2.9,2.9,0,0,1,2.9,2.9Z" style="fill:#fff"/><path d="M233.2,156a6.2,6.2,0,0,1-6.2-6.2,6.2,6.2,0,0,1,12.3,0,6.1,6.1,0,0,1-6.1,6.2m0-13.8a7.6,7.6,0,1,0,7.6,7.6,7.6,7.6,0,0,0-7.6-7.6" style="fill:#fff"/><path d="M264.1,156a6.1,6.1,0,0,1-6.1-6.2,6.2,6.2,0,0,1,12.3,0,6.2,6.2,0,0,1-6.2,6.2m0-13.8a7.6,7.6,0,0,0,0,15.2,7.6,7.6,0,1,0,0-15.2" style="fill:#fff"/><path d="M624.5,105.8l.3.4a2.5,2.5,0,0,1-4.3-1.7h0a2.5,2.5,0,0,1,4.3-1.7l-.4.4a2,2,0,0,0-1.5-.7,1.9,1.9,0,0,0-1.9,2h0a1.9,1.9,0,0,0,1.9,2,2.4,2.4,0,0,0,1.6-.7m7.2-1.3h0a2.5,2.5,0,0,1-2.5,2.5,2.4,2.4,0,0,1-2.4-2.5h0a2.5,2.5,0,1,1,4.9,0m-.5,0a2,2,0,0,0-2-2,1.9,1.9,0,0,0-1.9,2h0a1.9,1.9,0,0,0,2,2,1.9,1.9,0,0,0,1.9-2Zm3.6-2.4h-.6v4.8h3.3v-.5h-2.7Zm5.6,0h-.5v4.8h3.2v-.5h-2.7Zm5.6,2.6h2.7v-.5H646v-1.6h3v-.5h-3.5v4.8H649v-.5h-3Zm7.7,1.8a1.9,1.9,0,0,1-1.9-2h0a1.9,1.9,0,0,1,1.9-2,2,2,0,0,1,1.5.7l.4-.4a2.5,2.5,0,0,0-4.3,1.7h0a2.5,2.5,0,0,0,4.3,1.7l-.3-.4a2.4,2.4,0,0,1-1.6.7m3.9-3.9h1.6v4.3h.6v-4.3h1.6v-.5h-3.8Zm6.2,4.3h.6v-4.8h-.6Zm8.1-2.4h0a2.5,2.5,0,0,1-2.5,2.5,2.4,2.4,0,0,1-2.5-2.5h0a2.5,2.5,0,0,1,5,0m-.6,0a1.9,1.9,0,1,0-3.8,0h0a1.9,1.9,0,1,0,3.8,0Zm6.6,1.5-3-3.9h-.5v4.8h.5V103l3.1,3.9h.5v-4.8h-.6Zm-47-9.4a4.7,4.7,0,0,1-4.2,2.4c-2.7,0-4.4-2.3-4.4-6.4s1.1-6.2,2.9-6.8a6.6,6.6,0,0,0-5.5,6.8c0,4,2.6,6.8,6.4,6.8a5.2,5.2,0,0,0,4.8-2.8m-.3-6.4V86l-.7.9h-.2a6.6,6.6,0,0,0-3.1-1c1.7.3,3.1,1.9,4,4.4M643,95.5a3.9,3.9,0,0,1-4.2,3.5c-2.3,0-3.5-1.2-3.5-3.7v-8a1.1,1.1,0,0,1,.7-1.1h-3.6a1.1,1.1,0,0,1,.7,1.1v8c0,2.6,1.9,4.1,5.1,4.1s4.6-1.2,4.8-3.9m24.8,2.1a6.5,6.5,0,0,0,3.7,1.8c-2-.6-3.1-3.1-3.1-6.8s1.1-6.2,3-6.8a7,7,0,0,0-3.7,1.9,6.3,6.3,0,0,0-2,4.9,6.4,6.4,0,0,0,2.1,5m5.7,1.8a6.5,6.5,0,0,0,3.7-1.8,6.7,6.7,0,0,0,2-5,6.9,6.9,0,0,0-5.6-6.8c1.9.6,3,3.1,3,6.8s-1.2,6.2-3.1,6.8M660,99h3.6a1,1,0,0,1-.8-1.1V87.3a1.2,1.2,0,0,1,.8-1.1H660a1.2,1.2,0,0,1,.7,1.1V97.9A1,1,0,0,1,660,99m-1.8-1.3a1.4,1.4,0,0,1-1.2.9c-.3,0-.8-.2-1.1-1s-.1-.8-.2-1.3-.3-1-.4-1.6c-.5-2.1-3.9-2.1-3.9-2.1s4.6-.5,4.6-3.6c0-.7-.3-2.9-4.4-2.9h-.4c1.4.3,2.2,1.5,2.2,3.2a3,3,0,0,1-2.7,3.3c1.9.2,2.3,1.9,2.5,3.6s1,3.2,2.6,3.2a2.2,2.2,0,0,0,2.4-1.7m-9.1.2V86.1h-2.9a1.1,1.1,0,0,1,.7,1.1V97.9c0,.6-.2,1-.7,1.1h3.6c-.5-.1-.7-.5-.7-1.1m-6.8-11.5c.5.4.6,1.1.7,2.4a3.3,3.3,0,0,1,.6-2.4l.8-.3h-2.8l.7.3" style="fill:#fff"/><path d="M549.8,83.6a3.4,3.4,0,0,0-2.8-3.2V77h3.3v8.2h-1a2.5,2.5,0,0,0,.5-1.6m-4.7-10c-6.1,0-10.6,3.9-10.6,8a6.7,6.7,0,0,0,2.7,5.2h.1a6.1,6.1,0,0,1-2.3-4.7c.4-4.6,6-7.2,11-7.2s9.8.9,9.8,6.8c0,3-3.3,7-10.2,7-3.5,0-6.3-1.9-6.3-4.6s1.9-4,4.6-4a11.8,11.8,0,0,1,2.1.3,5.8,5.8,0,0,0-3.9.8v4h3.4V80.7a5.3,5.3,0,0,1,1.5.5v4h.8a3.4,3.4,0,0,1-3.1,1.1h0c3.3.3,4.6-1.2,4.6-2.9s-1.9-3.2-3.8-3.5V77h-3.4v3.1c-2.2.4-4.3,1.7-4.3,3.8s4.6,5.4,8.6,5.4c6.2,0,10.9-2.9,10.9-7.1s-6.8-8.6-12.2-8.6" style="fill:#fff"/><polygon points="530.4 94.2 530.4 106 531.3 106.1 531.3 106.8 526.8 106.8 526.8 106.1 527.8 106 527.8 100.6 522 100.6 522 106 522.9 106.1 522.9 106.8 518.4 106.8 518.4 106.1 519.3 106 519.3 94.2 518.4 94.1 518.4 93.4 522.9 93.4 522.9 94.1 522 94.2 522 99.2 527.8 99.2 527.8 94.2 526.8 94.1 526.8 93.4 531.3 93.4 531.3 94.1 530.4 94.2" style="fill:#fff"/><path d="M536.4,106l.8.2v.6h-4.1v-.6l.8-.2V98h-.8v-.6h3.3Zm.3-11.7a1.4,1.4,0,0,1-1.5,1.5,1.4,1.4,0,0,1-1.4-1.5,1.5,1.5,0,0,1,1.4-1.5,1.5,1.5,0,0,1,1.5,1.5" style="fill:#fff"/><polygon points="539 106.2 539.9 106 539.9 93.7 539 93.6 539 93 542.3 93 542.3 106 543.2 106.2 543.2 106.8 539 106.8 539 106.2" style="fill:#fff"/><path d="M548.2,97.3h2.3v.9h-2.3v5.6c0,1.5.3,1.9,1.6,1.9h1.4v.7a9.9,9.9,0,0,1-3.1.6c-1.9,0-2.3-.9-2.3-2.5V98.2H544v-.9h1.8v-2l2.4-.7Z" style="fill:#fff"/><path d="M561.6,102.1a4.8,4.8,0,0,1-5.1,5c-3.1,0-5-1.3-5-5a4.8,4.8,0,0,1,5.1-5.1c3.1,0,5,1.9,5,5.1m-2.8,0c0-3-.8-4.4-2.3-4.4s-2.3,1.3-2.3,4.4.9,4.2,2.3,4.2,2.3-1.2,2.3-4.2" style="fill:#fff"/><path d="M573.1,106.2v.6h-4.2v-.6l.9-.2v-5.4c0-1.5-.6-2.1-1.7-2.1a3.4,3.4,0,0,0-2,.8V106l.9.2v.6h-4.2v-.6l.8-.2V98.1l-.8-.2v-.6h3.3v1.3a5.3,5.3,0,0,1,3.4-1.5c1.9,0,2.7,1.1,2.7,3.2V106Z" style="fill:#fff"/><path d="M45.1,109.4h.6l.5-1.2h3.1l.5,1.2h.6L47.7,103Zm2.6-5,1.4,3.3H46.4Zm5,5.1a1.6,1.6,0,0,0,1.6-1.7c0-.8-.5-1.3-1.3-1.8s-1.2-.7-1.2-1.4a.9.9,0,0,1,.9-1,1.8,1.8,0,0,1,1.1.5l.4-.4a2,2,0,0,0-1.5-.6,1.4,1.4,0,0,0-1.5,1.5c0,.9.6,1.4,1.4,1.9s1.1.7,1.1,1.4a.9.9,0,0,1-1,1,1.7,1.7,0,0,1-1.2-.5l-.4.4a2,2,0,0,0,1.6.7m5.9-5.8v-.5H55.4v.5h1.3v5.7h.6v-5.7Zm6.8,2.6a3,3,0,0,0-3.2-3.2,3.2,3.2,0,0,0,0,6.4,3.2,3.2,0,0,0,3.2-3.2m-.6,0a2.5,2.5,0,0,1-2.6,2.6,2.6,2.6,0,0,1-2.5-2.6,2.4,2.4,0,0,1,2.5-2.6,2.5,2.5,0,0,1,2.6,2.6m5.1-1.4a1.4,1.4,0,0,1-1.4,1.4H67.4c.1.1,2.7,3,2.7,3.1h.8l-2.4-2.7h.3a1.8,1.8,0,1,0-.2-3.5H66.7v6.2h.6v-5.7h1.2a1.3,1.3,0,0,1,1.4,1.2m2.8-1.7h-.6v6.2h.6Zm1.1,6.2h.7l.5-1.2h3l.5,1.2h.7L76.5,103Zm2.7-5,1.3,3.3H75.2Z" style="fill:#fff"/><path d="M4.1,109.5l1.6-4,1.7,4,2.5-6.4H9.2L7.3,108l-1.6-3.8L4.2,108l-1.9-4.9H1.6Zm5.4-.2h.7l.4-1.2h3.1l.5,1.2h.6l-2.6-6.4Zm2.7-5,1.3,3.3H10.9Zm6.8,5v-.6H16.5v-5.6h-.6v6.2Zm2.7,0a3.1,3.1,0,0,0,3.3-3.2,3,3,0,0,0-3.3-3H20.2v6.2h1.5m.1-5.7a2.6,2.6,0,1,1-.1,5.2h-1v-5.2h1.1m10.5,2.6a3,3,0,0,0-3.2-3.2,3.2,3.2,0,0,0,0,6.4,3.2,3.2,0,0,0,3.2-3.2m-.6,0a2.5,2.5,0,0,1-2.6,2.6,2.6,2.6,0,0,1-2.5-2.6,2.4,2.4,0,0,1,2.5-2.6,2.5,2.5,0,0,1,2.6,2.6m5.1-1.4a1.3,1.3,0,0,1-1.4,1.4h-1c.1.1,2.6,3.1,2.7,3.1h.7l-2.4-2.7h.3a1.8,1.8,0,0,0-.1-3.5h-2v6.2h.6v-5.7h1.2a1.3,1.3,0,0,1,1.4,1.2m5.6-1.2v-.5H39.1v6.2h.6v-2.7h2.1V106H39.7v-2.4Z" style="fill:#fff"/><path d="M46.9,86.4l2.8-5.8H48.1v-.3h3.6v.3H50.2l-3,6.4Zm-15-6.1H28.3v.3H29l7.5,15.9,3.1-6.4,3,6.4,3.2-6.4,2.8,6.2h-.5v.3h3.6v-.3H51L43.5,80.4l-2.7,5.8.2.7,1.7-3.5,2,4.4H41.5l.2.5h3.2l.2.4H41.9l.2.5h3.2v.2l-1.9,4.1L37.6,80.6h.6v-.3H34.6v.3h.6l4.1,8.8-2,4.1L31.4,80.6h.5ZM43.4,82l.2-.6,6.9,14.9H50Zm-6.9-1.4H37L43.2,94l-.2.5ZM37.1,94l-.3.5L30.4,80.6h.5Z" style="fill:#fff"/><path d="M736.1,101.1a3.3,3.3,0,1,0,0,6.5,3.2,3.2,0,0,0,3.2-3.3,3,3,0,0,0-3.2-3.2m.1,6.2c-1.9,0-2.5-1.8-2.5-3.2s1.2-2.7,2.2-2.7,2.5,1.6,2.5,3.2-1.1,2.7-2.2,2.7m9.8-6.1c.1.1.1.2,0,.2h-.2a.6.6,0,0,0-.5.2,10.9,10.9,0,0,0-.1,1.9v1.1a3.2,3.2,0,0,1-.7,2.2,2.3,2.3,0,0,1-1.8.7,2.5,2.5,0,0,1-1.7-.5,2.7,2.7,0,0,1-.8-2.2v-2.3c0-.9,0-1.1-.5-1.2h-.3v-.2h2.4v.2h-.2c-.6,0-.6.2-.6,1.1v2.1c0,1.5.5,2.5,1.9,2.5s1.9-1.1,1.9-2.5v-1.1a5.9,5.9,0,0,0-.2-2h-.7c-.1,0,0-.1,0-.2H746m3.9,2.9h-.1a1.5,1.5,0,0,0,.9-1.3,1.3,1.3,0,0,0-.7-1.2,3.8,3.8,0,0,0-1.6-.3h-2c-.1,0-.1.2,0,.2h.3c.4,0,.4.2.4.9V106c0,1,0,1.1-.5,1.2h-.1c-.1.1-.1.3,0,.3h2.2c1.7,0,2.5-.7,2.5-1.8a1.6,1.6,0,0,0-1.3-1.6m-2-2.3c0-.2.1-.2.2-.2h.4a1.3,1.3,0,0,1,1.4,1.3c0,.9-.5,1.2-1.5,1.2s-.5,0-.5-.3Zm1,5.4a1.1,1.1,0,0,1-.8-.3c-.2-.2-.2-.7-.2-1v-1.4c0-.2.1-.2.6-.2s1.8.8,1.8,1.6a1.2,1.2,0,0,1-1.4,1.3m7.8-1a3.8,3.8,0,0,1-.4,1.3h-4.4c-.1,0-.1-.2,0-.2h.3c.5,0,.5-.2.5-1.1v-3.4c0-1,0-1.2-.6-1.2h-.2c-.1-.1,0-.2,0-.3h2.4c0,.1.1.2,0,.3h-.2c-.6,0-.6.2-.6,1.2v3.2c0,.6,0,.9.2,1.1s.3.2,1,.2h1.2a2.9,2.9,0,0,0,.6-1c.1,0,.2,0,.2.1m5.4,0a5,5,0,0,1-.4,1.3h-4.6c-.1,0-.1-.2,0-.2h.3c.5,0,.5-.2.5-1.1v-3.4c0-1-.1-1.1-.6-1.2h-.2a.4.4,0,0,1,.1-.3h4.1c.1.2.1.9.2,1.3h-.3c-.1-.4-.2-.8-.7-.9H759c-.3,0-.3,0-.3.3v1.9c0,.3.1.3.3.3h1.4c.1,0,.2-.1.2-.3v-.4h.2v1.9h-.2v-.4a.3.3,0,0,0-.3-.3H759c-.2,0-.3,0-.3.3V106a2.2,2.2,0,0,0,.2,1c.1.1.3.2,1.1.2a2.2,2.2,0,0,0,1.2-.2c.2,0,.5-.4.7-.9s.2,0,.2.1m-32.4-5.8a6.1,6.1,0,0,0-2.4-.4h-2.8c-.1.1-.1.3,0,.3h.2c.5.1.5.3.5,1.1v4.2c0,1.2,0,1.3-.7,1.4h-.2c-.1,0-.1.2,0,.2h3.2a5.1,5.1,0,0,0,2.5-.5,3.6,3.6,0,0,0,2-3.3,3.3,3.3,0,0,0-2.3-3.3m-2,6.8a1.4,1.4,0,0,1-1.3-.5,1.9,1.9,0,0,1-.3-1.2v-4.1a1.4,1.4,0,0,1,.2-.9h1c3,0,3.6,2.1,3.6,3.3s-1,3.5-3.2,3.5m36.1-7.1h5.5c0,.4-.1,1-.1,1.4s-.2,0-.3,0a1.5,1.5,0,0,0-.2-.8,2.3,2.3,0,0,0-1.3-.3h-.8c-.3,0-.3,0-.3.4v4.9c0,1.2,0,1.4.6,1.4h.4v.3h-3c-.1,0-.1-.2,0-.3h.4c.6,0,.6-.2.6-1.4v-5c0-.3,0-.3-.4-.3h-.6a2.1,2.1,0,0,0-1.4.3,2.5,2.5,0,0,0-.4.7h-.3c.1-.5.1-.9.2-1.3s.8-.1,1.3-.1m16.9,6.1a2.5,2.5,0,0,1-.7.9h-1.2c-.8,0-1-.1-1.1-.2s-.2-.5-.2-1v-1.3c0-.2,0-.3.3-.3h1.3c.2,0,.2.2.3.4v.3h.3c0-.2-.1-.6-.1-.9s.1-.7.1-.9h-.3v.4c-.1.3-.1.3-.3.4h-1.3c-.3,0-.3,0-.3-.3V102c0-.4,0-.4.3-.4h1.6c.4.2.5.5.7.9h.2c0-.4-.1-1.1-.1-1.2H776c-.1,0-.1.2,0,.2h.1c.6.1.6.2.6,1.2v3.4c0,1,0,1.1-.6,1.2h-1a15.8,15.8,0,0,1-1.9-2.5c0-.1-.1-.2,0-.3a1.7,1.7,0,0,0,1.1-1.5,1.6,1.6,0,0,0-.7-1.4,4.1,4.1,0,0,0-1.6-.2h-2.1a.2.2,0,0,0,0,.3h.3c.4,0,.4.2.4,1.1v3.4c0,1,0,1.1-.6,1.2h-.2a.1.1,0,0,0,0,.2h2.3c.1,0,.1-.2,0-.2h-.2c-.5-.1-.5-.2-.5-1.2v-1.2c0-.2,0-.2.4-.2a.8.8,0,0,1,.7.3l.9,1.4c.7,1,1.1,1.2,1.9,1.2h5.2a10.4,10.4,0,0,0,.4-1.3s-.2-.1-.2,0m-8.7-1.8h-.6v-2.5c0-.3,0-.3.6-.3a1.4,1.4,0,0,1,1.5,1.4,1.4,1.4,0,0,1-.5,1.2,1.6,1.6,0,0,1-1,.2m14.6,1.8a10.4,10.4,0,0,1-.4,1.3h-4.7c-.1,0-.1-.1,0-.2h.3c.5-.1.6-.2.6-1.2v-3.4c0-1,0-1.1-.6-1.2h-.1c-.1,0-.1-.2,0-.2h4.1a9.7,9.7,0,0,1,.2,1.2h-.3c-.1-.5-.2-.8-.7-.9h-1.6c-.2,0-.2,0-.2.4v1.9c-.1.2,0,.2.3.2h1.3c.1-.1.2-.1.2-.4v-.4h.3c0,.2-.1.6-.1.9s.1.7.1.9h-.3v-.3c0-.2-.1-.3-.3-.4h-1.2c-.3,0-.4.1-.4.3V106a1.9,1.9,0,0,0,.2,1c.1.1.3.2,1.2.2h1.2a2.6,2.6,0,0,0,.6-.9c.1-.1.2,0,.3,0" style="fill:#fff"/><path d="M744.5,80.7Zm3.4,3.4Zm10.4,2Zm-14-3.6Zm6.9,3.2Zm17.4-1.3a11.6,11.6,0,0,1-6.2,10.5,17.5,17.5,0,0,1-7.9,1.7c-2.2,0-4.5-.3-5.7-.3h-4.7a.7.7,0,0,1-.1-.9h.8c2.1-.3,2.7-.7,2.7-4.4v-.6h-.2c0,.2.1.3,0,.3h-.2c0-.1.1-.2,0-.2h-.2c0-.1.2-.1,0-.1s-.2.2-.2,0,0,0,0-.1h-.3c.1.1.1.1,0,.2h0c0,.1.1.2,0,.2h-.3c.1,0,.2-.1.1-.1h-.3c0-.2-.1-.1,0-.2v-.2c.1,0,.2,0,.2-.1h-.1c0-.1,0-.2-.1-.1h-.5s.1-.1,0-.1-.1-.1-.2,0h-.1s-.1.2-.1.1l.2-.4h-.1c0,.1,0,.1-.1.1H745a.3.3,0,0,1-.1.2h-.1v-.2h0c-.1,0-.2-.1-.2,0s.2,0,0,.1v.2h0c0,.1,0,.1-.1.1h-.7c-.1,0-.1,0-.1-.1s.1-.1,0-.1h-.3s.1,0,0,.1,0,.2-.1.1h-.1v-.2h-.2c-.1,0,0-.1-.1,0h-.2c-.1,0,0-.2,0-.2s0-.2-.1-.2v-.2c.1,0,.2,0,.1-.1h-.3s0,.2-.1,0h-.1c-.1,0-.2.1-.1.2s.1.1,0,.1h-.3c-.1,0,0-.1-.1,0h-.3c-.1.1,0,.1-.1.1h-.1s.1,0,0,.1H741s.1-.3,0-.3a.1.1,0,0,0-.1-.1h-.2c0,.1.1.1,0,.1h-.2l.2-.2s.1,0,0-.1,0-.2-.1-.2-.2.2-.2.1v-.2h.3v-.2h-.2c0,.1.1.1-.1.1s-.2.1-.2,0,0-.1,0-.2a.4.4,0,0,0,.2-.3v-.2c-.1-.2-.2-.2-.1-.2h.2c.1.1.1.2.2.1s.1-.1,0-.2v-.2c.1-.1.1,0,.1,0h.1c.1-.2,0-.2.1-.2s-.1.1,0,.1h.2c0-.1-.1-.1-.2-.1s-.2,0-.2.1,0-.2.1-.3v-.2c0-.1,0-.1.1-.1v-.3h-.2c-.2.1,0,.2-.2.2h-.4c-.1.1-.2.1-.1.1h.3c0,.1-.2,0-.1.1s.1.1,0,.1h-.4c-.1.1-.1,0-.1.1h-.1c-.1,0,0,.1-.1.1h-.2c-.1,0-.2-.1-.1-.1s.1-.3,0-.3h-.1v-.2h.1c0-.1.1-.1.1-.2s-.2,0-.2.1h-.4v-.2h.1s0-.2.1-.2v-.2h-.2c-.1,0-.1-.1,0-.2h-.3c0-.1.2-.1.2-.1h.1a.1.1,0,0,1-.1-.1s.1-.1,0-.1,0-.1.1-.2h-.5c-.1-.1,0-.1.1-.1s-.1-.1,0-.1.1-.1,0-.2h.1a.1.1,0,0,0-.1-.1c-.2,0-.1-.1,0-.1h.3c.1,0,0,.1.1.2s.1-.3.1-.1.1.1.3,0,0-.1.1-.2h-.3c-.1-.1,0-.1,0-.1v-.2a.1.1,0,0,1,.1-.1c.1-.1,0-.1,0-.1h-.3c.1.1.1.1,0,.2h-.2c0,.1,0,.1-.1,0h-.1v-.2h-.2a.1.1,0,0,1-.1.1h-.1c-.1,0,0-.1,0-.1a.2.2,0,0,0,.2-.2h-.2a.1.1,0,0,1,.1-.1h-.1c-.1,0,0-.1,0-.1s.1-.1.1-.2,0-.1,0-.1h0s.1-.2.2-.2v-.2h.1v.2a.1.1,0,0,0,.1.1h.3v.2h0s-.1,0,0,.1.1,0,.1,0v-.2c0-.1.1-.1,0-.2h.2v.2h.2v-.2h.3l.2.2h.1v-.2h0a.1.1,0,0,1,.1-.1h0c0-.1.1-.1.1-.2h.1a.3.3,0,0,0,.1.2h.3v.2h.4c0,.1,0,.2.1.2h.1v-.2h.3v-.2h.8v-.2h-.5a.1.1,0,0,1-.1.1h0c.1,0,0-.1,0-.1s.1,0,.1-.1h0a.3.3,0,0,1-.1-.2h-.3v.2h-.3a.1.1,0,0,1,.1-.1s-.1-.1,0-.1h0v-.2h-.4a.1.1,0,0,1-.1-.1h.1c-.1,0,0-.1,0-.1h-.2V81l.2.2h.2c0-.1-.1-.4,0-.4v.2l.2.2a.2.2,0,0,0,.2-.2h0c.1-.1.2-.2.1-.2a.1.1,0,0,1,.1-.1h-.1c-.1,0-.1.2-.2.2l-.2.2c-.1-.1-.1-.1,0-.2v-.2h-.3a.1.1,0,0,1-.2,0v-.4h.2c.1,0,.1-.2,0-.2h-.2a.1.1,0,0,1,.1-.1c.1-.1,0-.2.1-.2h.3s-.1-.2,0-.2l.2-.2h-.3s.2-.1.1-.2h-.1c0-.1.1-.1,0-.2s-.2.2-.2.1.1-.2.1-.3h-.2l.3-.3h.2a.1.1,0,0,0,0-.2h-.2c0-.1.4-.2.4-.2v-.2h.3c0-.1,0,.2.1.2s.2,0,.2-.1v-.3c-.1-.1,0-.3,0-.4h.2l.2.2h.2l-.2.3a.2.2,0,0,0,.1.3.5.5,0,0,0,.1.3h.4v-.5h-.1l.2-.2s.2.1.2,0h.7l-.2-.2h-.3v-.3s-.1-.1-.1.1-.3.1-.2,0l.2-.2a.4.4,0,0,1,.1-.3c.1,0,0,.1.1.1s.3,0,.3-.1a.2.2,0,0,0-.2-.2h-.2c0-.1.1-.2,0-.2s-.1.2-.2.1.2-.2.3-.3.1-.1.2-.1v-.2h-.2c.1,0,.1,0,.1-.1h.3c.1,0,.1-.1,0-.1h-.2c-.1.1-.1,0-.1,0h.2v-.2h-.1c-.1-.1,0-.1.1-.1h.2c.2,0,.1.1.2.1s.1-.1.1,0,0,.1.2.1.1.3.2.3.2-.1.1-.1.1-.1.1-.2.1.1.2.1,0-.2.1-.2,0-.1.1-.2.1.1.1.1,0,.1.1.1.1,0,.1-.1.1-.2.2-.2h.4c.1-.1.1.1.2.1h.1c-.1-.1-.1-.1,0-.2h.1c-.1-.1,0-.1.1-.2h.3a.1.1,0,0,0,.1.1c.1,0,0,.1-.1.2s0,.1.1.1.1.1.1.2h.3c0-.1.1-.1.2,0h.2c.1-.2-.2-.1-.2-.1h.2v-.2c.1,0,.1.2.2.2a.1.1,0,0,1,.1.1v.2c-.1,0,0,.1.1.1h.3c.2.1.3.3.3.1V73h.1c0,.1,0,.2.1.2v-.2h.1c0,.2,0,.3.1.2s0-.1.1-.2.1.1.1-.1.1,0,.1,0h.1c.1,0,.2.1.2-.1s-.1,0,0-.1v-.2h.1v.3c0,.1,0,.2.1,0s.1-.1.2-.1h.1s-.1-.1,0-.1h.2l.3-.2c0-.1.2-.3.2-.1l.2.2c.1.1.2.1.1.2h1.5a22.3,22.3,0,0,1,7.8,1.1,10.6,10.6,0,0,1,7.1,10.4M744.2,73.9h0m.1.2h0m.1-.2h0m-.2,1h0c.1-.1.1-.1,0-.1m-.2.8h0m.1.1h0c0,.1,0,.1.1.1a.1.1,0,0,0-.1-.1M742,77.9h0m-.1,1.8h0s-.1,0,0,.1h0c.1-.1,0-.1,0-.2M739,85.1h0m0,.4h0m1.8,4.4h-.1c0,.1,0,.1.1.1h0m.2,0c-.1,0-.1.2,0,.1h0m11.5-11h0c0-.1,0-.1-.1-.2v0h-.1c-.1,0-.1,0,0,.1h.3m.4.9h.2a.1.1,0,0,0-.1-.1h-.1c.1.1,0,.1,0,.1h0m.1-2.2h0m1.2-1.3h-.1v.2h-.1c0-.1,0-.1.1-.1h.3s-.1-.1,0-.1h0a.1.1,0,0,0,.1-.1h-.2m.2,0h-.1c0,.1,0,.2.1.1m.8.7h-.1a.1.1,0,0,0-.1.1h.2Zm.4-.6h0m.1-.2h0m.3,9.4h0m.1-5.3h0c-.1,0-.1.1,0,.1m.2-1.9h0c.1,0,0-.1,0,0h0m.1-.1h.4a.1.1,0,0,1,.1-.1h-.5m0-.2h.1c-.1,0-.1.2-.1.2m.3-.9h0Zm0,.1h0m-.1.7h0m.1-1.1h0Zm.1.7h0c0,.1-.1.1,0,.1m-.1-.4h0m.1.5c.1-.1,0-.1,0-.1h0m.1-.3h0m0-.4c.1,0,0-.1,0-.1h0m.1.3Zm0-.2s-.1.1,0,.1h0m.1,3H757a.1.1,0,0,0,.1.1h0m.5.2h0m.1.3h0m0-.2h0m.1-.2c.1,0,0-.1,0-.1h0m-.2,1.3h0a.1.1,0,0,1,.1.1h.1c.1-.1.1-.1,0-.1h0a.1.1,0,0,0,.1-.1h-.1s-.1,0,0-.1h-.2m.3-.8h0m0,.3h.2c0-.1,0-.1-.1-.2h-.1m.3.6h0m.1-.6h0Zm.1,1.7h0m0-.8c.1,0,0-.1,0-.1s-.1.1,0,.1m.2-.4h0c.1,0,.1-.1,0-.1m-.1.2h0m.3-.2s-.1,0,0,.1h0c-.1,0-.1,0-.1-.1h.1m-.1,1.2Zm-.1-.6Zm-.1-.2c.1,0,.1-.1,0-.1h0m-.1,2.5h-.2s.1-.1,0-.1h-.1c-.1,0,0-.1,0-.1h.3m0,.4h0a.1.1,0,0,1-.1.1h-.1a.1.1,0,0,1-.1-.1H758c0,.1,0,.1.1.1h.7c-.1,0-.1,0-.1-.1h-.3Zm.1-.2h.1a.1.1,0,0,0-.1-.1h0a.1.1,0,0,1-.1.1h.1m.2-.1c.1,0,0-.1,0-.1h0m.3,2.3h.2a.1.1,0,0,0,.1-.1H759c-.1,0,0,.1,0,.1m.1-1.2h0m.2,1.7h0m0-.6s-.1.2,0,.2.1-.1,0-.2m0,1.5h0Zm-.1-1.9h0m-.1-.1h0c.1-.1,0-.1,0-.1m.1,1.1h0c-.1,0-.1.1,0,.1m-.1-.1a.1.1,0,0,0,.1-.1.1.1,0,0,0-.1.1m-.1.5h-.2v.2h-.3s.1-.1,0-.1h-.2a.1.1,0,0,0,.1-.1h0a.1.1,0,0,0,.1.1h-.1c0,.1,0,.1.1.1h.3a.1.1,0,0,0,.1-.1h-.1a.1.1,0,0,0,.1-.1h.1m-.6,1.1h.1c-.1,0-.1.1,0,.1h-.2c0,.1,0,.1-.1.1h.2m-.3.1h0c-.1,0-.1,0-.1.1h-.2a.1.1,0,0,1,.1.1h.2Zm-.1.3h0m-.2-.2v-.2h0m-.2-.5h-.2c0-.1.1-.1.1-.2h.1m-.3.8c-.1,0-.1,0,0,.1h0c0,.1,0,.1-.1.1h0s-.1.1,0,.1h.1m-.9-.1h.4c.1,0,.1,0,.1-.1h-.4a.1.1,0,0,0-.1-.1h0a.1.1,0,0,1-.1-.1H756a.1.1,0,0,0,.1.1h.3m0,.9h0m-.3-.8h0m0,.4h0m.1.4h0a.1.1,0,0,1,.1-.1h-.1Zm-.9-1h.1a.1.1,0,0,1-.1.1h0m0,.2h0m-.2-2.4h0c.1,0,.1,0,.1-.1h-.1m0,1.9h0c-.1,0-.1,0-.1-.1h.1m-.1,0a.1.1,0,0,0,.1.1.1.1,0,0,0-.1-.1m0,.3h0m-.4-1.9h0c0,.1,0,0-.1,0h.1a.1.1,0,0,0,.1-.1h.1a.1.1,0,0,0-.1.1h-.2v-.2h.1c0-.1.1,0,.1,0h-.1m-.1,2.2h.1c0-.1,0-.1-.1-.1h.1v-.2m0-1.2h0s-.1.1,0,.1m0,.2c.1,0,.1,0,.1-.1a.1.1,0,0,0-.1.1m.1.8s-.1.1,0,.1h0m-.4-.7h0v.2h0s.1-.1,0-.1m0,.7h0s.1,0,0-.1m-.3-1.2h.2c0-.1,0-.1-.1-.1h-.1Zm.1-.3h0m.1,1h0s-.1.1,0,.1m0,.7c.1,0,0-.1,0-.1h0m-.2.1h0m-.1-1.5c.1-.1,0-.1,0-.1h0m.1-3.6h0c0-.1,0-.1-.1-.1h0v.2h.1m-.2,3.2h0Zm0,.9h0m-.1.7h-.1c-.1,0-.1,0-.1.1h.1a.1.1,0,0,1,.1-.1h0m0,.7s-.1.1,0,.1h0m-.2-.2h0s0,.2.1.2h-.1m-.1-.2c-.1,0-.1.1,0,.1s0-.1,0-.1m-.2-.2H753v.2h.1v-.2h0m0-.2h0m-.2-4.8h-.1s-.1.1,0,.1h.1m0,5.1c0,.1-.1.1,0,.1h0m-.1-6h.1a.1.1,0,0,1,.1-.1h-.5c.1.1.1.1,0,.1h0a.1.1,0,0,0,.1.1h.2Zm-.1,5.3h0m-.4.5h-.1c.1.1.1.1,0,.1h.1m0,.2c-.1,0,0,.2,0,.1s0-.1,0-.1m-.1-.2h0c-.1.1-.1.1,0,.1m-.1-.2h.1c0-.1-.1.1-.1.1m.1-1.5H752s-.1.1,0,.1h0c.1,0,0,0,0,.1h.2Zm-.4,2.9h0v-.2h0m-.1-3.7h-.2c0,.1,0,.1-.1.1h.3m-.2-.2h0c-.1,0,0-.1,0-.1m-.1,1.5h0c.1-.1.1-.1,0-.1m-.2-7.3a.1.1,0,0,0-.1-.1h.1m-.1,4.2h0c.1-.1,0-.1,0-.1m-.1-4h0m.2,1.1h0c-.1,0,0,.1,0,.1m0-.9h0m0,1.5h0m0,.4h0m.1-1.1a.3.3,0,0,0-.1-.2h0a.1.1,0,0,0,.1.1m0-.8h0m0-4Zm.4,6.8h0c0-.1,0-.1-.1-.1h.1m-.1,1.6h0m-.1-3.4h-.1a.1.1,0,0,0,.1-.1m-.1-1.5h0m.1.7Zm0-.1h0Zm.1-.1h0Zm0-.3h0Zm0-1.4h0a.1.1,0,0,0-.1.1h.1m.1.8Zm0-.8h0m0-3.4c-.1,0-.1.1,0,.1s0-.1,0-.1m-.1,1h0m-.1-1.7h0c.1,0,.1-.1,0-.1m.1-.1h0m-.1,1.8h0m-.1,2.4h0m0-2.5h0m0-2.2c0-.1,0-.1-.1-.1h.1m-.1,12.2h0c0,.1-.1.1,0,.1m0-3.1h0m.1,1.6c0,.1-.1.1,0,.1s0-.2,0-.1m0-.1h-.1c0,.1.1.1.1,0m.5-.4c0-.1,0-.1-.1-.1a.1.1,0,0,0,.1.1m.1-.1V85h.2c-.1,0-.1.1-.1.2h.1c.1,0,0-.1,0-.1H752Zm0-1.5h0m.4-3.7h0Zm.2,2.3h-.1v.2h.1m.1-2.1h0c0,.1-.1.1,0,.1m-.2,2.6a.1.1,0,0,0-.1-.1h.1m0,0h0m-.2,1.3h.1v.2h0c.1,0,.1-.1,0-.1h0a.1.1,0,0,0-.1.1m.2,2.8c.1-.1.1-.1,0-.1h0m-.1-.9h0c-.1,0,0,.1,0,.1m0,1.3Zm-.1.1h0c.1,0,.1.1.1,0h-.1m.1-.4h0c-.1,0,0,.1,0,0m-.1-.7h0c.1-.1,0-.1,0-.1h0Zm-.5,3.2h0m0-1.5h0m.1,0h0m0,1.5a.1.1,0,0,0-.1.1.1.1,0,0,0,.1-.1m0,.3c.1,0,0-.1,0-.1s-.1.1,0,.1m0,.7Zm.1-1.4h.1a.1.1,0,0,0-.1-.1h0m.5-.2h0Zm.1.9c.1,0,0-.1,0-.1s-.1.2,0,.1m.5-6.1h0m0-.2h0m0-1.8h.2c-.1,0-.1,0-.1.1h.1a.1.1,0,0,0,.1-.1h-.3m0-.1H753a.1.1,0,0,0,.1.1m.2-1.4h0c-.1,0-.1.1,0,.1m.3.7Zm.1-.5h0s-.1.1,0,.1m-.2,7.7h0m-.4-2.2h.1v-.2h-.1m0-1.6s-.1,0,0,.1,0-.1,0-.1m-.1,1.9h0m.1.2h0s-.1,0,0,.1m0,.1h0m.1-2.3h0m.1-.6a.1.1,0,0,0-.1-.1h.1m0,4.5h0a.1.1,0,0,0,.1-.1h0c-.1,0-.1,0-.1.1m.1-.7h0c-.1,0,0,.1,0,.1m-.1,1.6h0c-.1.1-.1.1,0,.1m-.1.1h.2a.1.1,0,0,0-.1-.1h-.1m.3-2.5h0s.1,0,0-.1h-.1a.1.1,0,0,0,.1.1m-.1-.4h0m.1.9c.1,0,0-.1,0-.1h0m.1-.6h0c-.1,0-.1.1,0,.1m0-2.1c.1-.1,0-.1,0-.1h0m0,1.6a.1.1,0,0,0,.1.1h-.1m.2-2.2h-.4c-.1,0-.1.1,0,.1h.4m-.3-.6a.1.1,0,0,0-.1.1h.1Zm.1-.6h0m0-1.5c.1,0,0-.1,0-.1h0m.1.8h0m-.1-1.4h0m-.3,2h-.1c.1,0,.2,0,.1-.1h0m-.1.8h0c0,.1-.1.1,0,.1h0m-.1.9a.1.1,0,0,0,.1.1h-.1m-.1,4.6h0m0,1h0c0-.1-.1.2,0,.1m.2-2.3h0l-.2.2h.2Zm0,2.2h0m0-.1c.1-.1.1-.1,0-.1h0m.4-.7c.1,0,0-.1,0-.1h0m.2-5.6h-.1c0,.1-.1.1,0,.1h.1m0-2.9s-.1.1,0,.1h0m.1-1s-.1,0,0,.1h0m.1-.1h0c-.1,0-.1.1,0,.1m0-.1h0m0-1.1h0m.2,3.3h0m-.1.1h0c.1,0,.1,0,0-.1m.3,3.9h-.1v-.2h.1Zm0-1.7h0m-.1,3.2h0Zm.1-.8h-.1a.1.1,0,0,1-.1-.1h.1c0-.1.1-.1.1-.2m-.1-.1h0m-.3,0c0,.1,0,.2.1.2v-.2m.3-.8v-.2h-.1v.2h.3m-.4-1.5h.2c.1,0,.1,0,.1-.1h-.3s-.1,0,0,.1h0m0-1h.1c-.1.1-.1,0-.1,0h0m.3-.4a.1.1,0,0,1-.1-.1h0c-.1,0,0,0,0,.1h.1c.1-.1,0-.1,0-.1m-.1-.8Zm0-2.2h0m0,1.3h0m-.1-.9h0m-.2,1.5h.1a.1.1,0,0,0,0-.2h0v.2m0,1.7h0m.1,1.9h.1c.1,0,.1,0,.1-.1H754c0-.1.1-.1,0-.1h-.1c0-.1.1-.1,0-.1h0c-.1,0-.1.1,0,.2h0m1.1-7.5h0m.3.4h0m.1-1.2h0m0,.4h0m.5,2.3Zm0,4.1h0m0-.2h0m0-1.6h0m0-2c.1,0,0-.1,0-.1h0m0,6.9h-.1v-.2h.1m.2.1h0m.4-4.5Zm.3.3h0m.2.3h.2a.1.1,0,0,0-.1.1H757Zm.4,2.9h.2a.1.1,0,0,1-.1-.1h-.1Zm.1-2.7h0c-.1,0-.1.1,0,.1m.1,4.8c-.1.1-.1.1-.1.2h.1v-.2h0m0-1.5h-.2a.1.1,0,0,0-.1.1h-.2a.1.1,0,0,1,.1.1h.2c.1,0,.1,0,.1-.1h.1Zm-.2,2.3h0m0-.8c.1,0,.1,0,0-.1s-.1.1,0,.1m-.1,1.6c.1-.1,0-.1,0-.1s0,.1,0,.1m0,.2c-.1,0,0,.1,0,.1h0m-.1-1h.1v-.2a.1.1,0,0,0-.1.1h-.1a.1.1,0,0,0-.1.1h.2m-.7-.4h.2c.1,0,0,0,0-.1h-.2m0-.7h0m0,1.7a.1.1,0,0,1,.1.1h.1c0-.1-.1-.1-.1-.2h-.1m.2.2c.1,0,0,0,0-.1h0m0-.3h.1c0-.1,0-.1-.1-.1h0m0-1.7s-.1.2,0,.1.1,0,0-.1m.1,0h-.1c.1,0,.1.1.1,0m0-.7h.1s.1-.1,0-.1h-.1m.2-.2h.1l-.2-.2a.1.1,0,0,0-.1-.1h.2m0,1.2h0c.1,0,.1,0,0-.1Zm0,.4h0m.2-.4c-.1-.1-.1,0,0,.1h0c.1,0,0-.1,0-.1m0,.4h0m0-1.8c.1,0,.1-.1,0-.1s-.1.1,0,.1m.3-.1h0m.2-.2h-.2a.1.1,0,0,1,.1.1Zm-.3-.1h.1v-.2h-.1m0-.3h0m-.1.1H757a.1.1,0,0,1,.1-.1h.1a.1.1,0,0,1-.1.1h.3c0-.1,0-.1-.1-.1m-.5-1.5h0Zm0,.6h0m0-1.5h.1c0-.1-.1-.1-.1,0h0m0,.4h0m0,.4h0m.2-.3h0m.1,1.6h0m-.1-.3h0m.3-2.1h0m-.1-.1s-.1,0,0,.1.1,0,0-.1m-.5-1.5h0m-.1-2h0m-.1,3.7h.2a.2.2,0,0,0-.2.2m.1.7h0m.1-.7h0m0,1.7h0c-.1.1-.1.1,0,.1m0-.6h0m-.2-1.5h0m-.2.9h0m.1-.2h0m0,1.2h0c-.1,0-.1.1,0,.1m0-1.5h0c.1,0,.1-.1,0-.1h0m0,1.6h0m-.2.7h0m.2-3.3h0m0-1.1h0m0-1c-.1.1-.1.1,0,.1h0m-.1.9h0m0,1h-.1a.1.1,0,0,0,.1.1h0m0-2h-.1c.1,0,.1,0,.1-.1m-.1.3h0m0,5.5h.4c.1,0,.1,0,.1.1h-.5Zm.1,2.1h0m0,.5h0c.1,0,0-.1,0-.1m-.1.6h0m.2.3h-.1c.1,0,.1,0,.1-.1m-.3-2.1h0m-.1,0h0m.1,1.3h0m-.1-.1h0c0-.1-.1.1,0,0m0-.1h0m-.1-.7h0m0,1.4c-.1-.1-.1.1-.1.1a.1.1,0,0,0,.1-.1m-.1-1.5h0m-.1.5s0,.2.1.1h-.1m-.3-.8h0m-.2.7h0m.1-.6h0m0-.6h0m-.4.4h0Zm0-.4s-.1.2,0,.1h0m.1-1.7h0m0,.2c-.1,0,0,.1,0,0h0m-.1.2h0m.2,1.7a.1.1,0,0,0-.1-.1h.1m0-1.6h0m0,.1h0m0,1.4h0s-.1,0,0,.1h0m.1-.3h0m0-5.6h0m0-.6h0Zm-.1-.4h0m.1-.1h0c.1.1.1,0,.1.1h-.1m0,3.1h0m.3-1.5Zm0,0h0m.2-1.4Zm-.1,6.2c0-.1-.1,0,0,0h0m-.1-6.7h0m-.1.2h.1a.1.1,0,0,0-.1-.1h0m0,.6h0m-.1,4.7h0m.5,0h0m0-3.4h0m-.1,3.7a.1.1,0,0,0,.1.1h-.1m.1-5.6h0c0,.1.1-.1,0-.1m-.1-.1h0m-.1-.3Zm-.2-1.4h0m-.2.9h0m-.1-.2h0m.1-.8h0m-.2,3.1h0m0-.9h0m-.1,2h0m-.1,2.4a.1.1,0,0,0,.1-.1h-.1m0,1.9h.1a.1.1,0,0,1-.1-.1h0m-.1-.4h0v.2h0m-.1-.5h0m.2.7h0m-.1-1.8h0c.1-.1.1-.1,0-.1m0-.3h-.2a.2.2,0,0,0,.2-.2h0m-.2,1.4h0c.1,0,.1-.1,0-.1h0m0,.7c-.1.1-.1.1,0,.1h0m0-.5h0m.1-.1h0m-.2-1.4Zm.2-1.7h-.1a.1.1,0,0,0,.1-.1h0c.1,0,.1,0,0-.1m-.2,1.8h.1c0-.1-.1-.1-.1,0m.3,6h.1a.1.1,0,0,0-.1.1m.2-.3h0m0-2.4Zm.2.2h0a.1.1,0,0,1-.1-.1h.1Zm.1,1.7h0m.4.3h0c-.1,0-.1.1,0,.1m0,.3c.1,0,0-.1,0-.1h0m.1-.1a.1.1,0,0,0-.1-.1h.1m1.2-1.2h0m.1-.8c0-.1,0-.1-.1-.1s0,.1.1.1m-.1.8c.1,0,0-.1,0-.1h0m0,.5h0m.1.3h0c0-.1.1-.1.1-.2H757s-.1,0,0,.1Zm.1-.4h.2a.3.3,0,0,0-.1-.2h0a.1.1,0,0,1-.1.1h0m0,0h.1v-.2h-.2m.9-5.2h0m.1-.1h0c-.1,0-.1.1,0,.1m-.1.3h0m.1.1h0m.1-1.3h0m0,1.4h0m0,.2h0c.1-.1.1-.1,0-.1h0c-.1,0-.1.1,0,.1m.1-2.2h-.1a.1.1,0,0,0,.1-.1m-.1.3h0Zm-.1.2h.1a.1.1,0,0,0-.1-.1m0-.2h0m-.1.5h0m0-.8h0m0,1.3h0m-.1.1h0m0,.3h0s-.1.1,0,.1m0,1.2h0c.1,0,.1-.1,0-.1h0m.4,2.4h.1v-.2h0m0,.1s-.1.2,0,.1h0m.1-1.1h0m-.3,2.1h0c-.1,0-.1,0-.1.1h-.1v.2h.4c.1,0,0-.1,0-.1h0a.1.1,0,0,0-.1.1h0c-.1-.1-.1-.1,0-.2h-.1Zm-.3-.5h0a.1.1,0,0,0,.1-.1h-.1m0-2.5a.1.1,0,0,0,.1-.1c-.1,0-.1.2-.1.1m.3,2.6h0m-.1-.1h0m-.3-4.3h0m.1-.5h0a.1.1,0,0,1,.1-.1h-.1c-.1,0-.1,0-.1.1h.1Zm0,1.8h0c.1,0,0-.1,0-.1h0v.2m-.1,3.9c.1.1.1,0,.1,0h-.1m.4.3h0m.6-3.3h0m-.1.1h0Zm0,.9h0c.1,0,0-.1,0,0m-.1.5h.1c.1,0,.1.1,0,.1h-.1Zm0-1.4h0c.1-.1,0-.1,0-.1m.4.9h0a.1.1,0,0,0-.1.1h.1m-.6-3.9c0,.1-.1.1,0,.1s0-.1,0-.1m-.1-1.3h.1v.2h0m-.6,1.7h0c.1.1.1,0,.1,0h-.1m-.1,1.6h.3v-.3Zm.1-2.8h0v-.2m-.2-.4h-.5a.1.1,0,0,0-.1.1h0v.2h.4s-.1,0,0-.1h.1m-.5-2.4h-.1a.1.1,0,0,0,.1.1h0c.1-.1.1-.1,0-.2m0,.4Zm-.1,0c.1,0,0-.1,0-.1h0m.4.3c0,.1-.1.1,0,.1h0m0-1.5c-.1,0-.1.1,0,.1h0m-.2-.1h-.1c-.1.1-.1.2,0,.2h.1s-.1-.1,0-.1h0c0-.1.1-.1,0-.1m0-.3h0c-.1,0,0,.1,0,.1h0s.1-.1,0-.1m-.6.9h0m-.2,4.2h0m-.2-2.9h0c-.1.1-.1.1,0,.1h0m0,2.9h0m0-2.1h0m0-2.7h-.4c.1,0,.1,0,0,.1h.4a.1.1,0,0,1-.1-.1h.1Zm-.5.1h0m.1-2.9h0m0,.7h0m-.1,1.2h0m0-1.5h0m-.1.4c.1-.1,0-.1,0-.1h0m0-1.1c-.1,0-.1.1,0,.1h0m-.1.4h0v-.2m-.2,1.4h0c-.1.1-.1.1,0,.1h0m0-.7h-.3c.1,0,.1,0,.1-.1h.2m-.3,1.8h0m-.2,3.3h-.3c.1,0,.1.1,0,.1h.3m-.2-.4h0a.1.1,0,0,0-.1.1Zm.2-.2Zm-.1-2.1h0s-.1.1,0,.1m.1-2.4h-.1a.1.1,0,0,0-.1.1v.2h.1m-.8,1.4h-.1a.1.1,0,0,0,.1.1h0m-.1-1.1h0m-.1,1.7h-.1c-.1,0-.1,0,0,.1h.1Zm-.2.4h-.1a.1.1,0,0,0-.1.1h.1a.1.1,0,0,0,.1.1h.2c.1,0,.1-.1,0-.1h-.1a.1.1,0,0,0-.1-.1Zm-.2-.8a.1.1,0,0,0-.1.1c.1,0,.2-.1.1-.1m.1-.8h0a.1.1,0,0,0,.1-.1h-.1m-.2.7h0m-.3,3.9h0s0,.1.1,0h-.1m0-2.6s-.1,0,0,.1h0m-.1,3.4h0m-.4-2h0m-.1,0c-.1,0,0,.1,0,.1h0m0-1.8h-.1c0,.1.1.1.1,0m-.2,3.1h-.1a.1.1,0,0,1-.1-.1h0c-.1,0-.1,0-.1.1h.5a.3.3,0,0,1,.1-.2c-.1,0,0,0,0-.1h-.1a.1.1,0,0,1,.1.1H752Zm0-2.1h0Zm-.2-4.1h0m.1.2h0c.1-.1,0-.1,0-.1h0m-.3-1h0c-.1,0-.1,0-.1.1h.1m.1-.4h0Zm-.1-.3h0m0-.7h0m-.1.1h0c0-.1.1-.1,0-.1h0m0,.7h0c-.1,0-.1.1,0,.1m-.1.1c.1,0,.1,0,.1-.1a.1.1,0,0,0-.1.1m-.2-.2h0c0,.1,0,.1.1.1s-.1-.1,0-.1h0c.1-.1,0-.1.1-.1h-.2m-.2-.4c0,.1,0,.1.1.1H751m0,10.1h0m-.1-6.5h0m-.5,5.2h.1a.1.1,0,0,0-.1-.1h0m.1-8.5h0m0-.1h0m0,.7Zm.1,2h0m.1,0Zm-.1.8h0m0-.9h0s0-.1-.1,0h.1Zm-.1,1.6c.1-.1.1-.2,0-.2h0c-.1,0-.1.1,0,.1h0m0,2.5h0m0-4.2h0m-.1-.9c0,.1.1,0,.1-.1a.1.1,0,0,0-.1.1m.2,7.4h0m.1-5.8h0m0,1h0m.1,3.9h0m.1.8h0c.1,0,0-.1,0,0m-.1-9h0m.1,2.7h0m-.1.1h0m0,.3h0m0-2.9h0m-.3-.2h0m-.2.4h0Zm-.2,12.5Zm0-6.7h0a.1.1,0,0,0-.1.1Zm0,5.7h0m0-5.8h.2a.3.3,0,0,0-.1-.2H750v.2h.2m-.1,3.3h0m-.6,6.6h0m-.1.3s-.1.1,0,.1,0-.1,0-.1m-.2-4.4h0m-.1,1.2Zm-.3.4h.1s0-.1-.1,0h0m0-.1h0Zm.2-7.4h0m-.2-1.2h0m-.1.1s-.1.1,0,.1h0m-.3,2.1h0m-.1,1.5h0m0-2.2Zm-.1,4c-.1,0,0,.1,0,.1s0,.1,0,.1.1-.2,0-.2m-.1.4h0c.1,0,0-.1,0-.1h0m-.1-4.9h0m0,.7Zm0,2.5h0m0,1.4h.1V84h-.1Zm.2-2h0m0-1.8h0Zm-.1-.9h0m.1-.3H748a.1.1,0,0,0,.1-.1m0-1h.1c.1,0,0,0,0-.1h-.1a.1.1,0,0,1-.1-.1h.1m-.3-2.8h.1a.1.1,0,0,1,.1.1h-.2m0,5.2h0m0-6.4h0m.2.7c.1.1,0,0,.1,0H748m.1,2.9Zm0-.6c.1-.1,0-.1,0-.1h0m.2,1h0m0-.4h0m.2.1Zm-.1,1h-.2c.1,0,.1,0,.1-.1h.1m-.1.1h.1c0-.1,0,0-.1,0m.2-.5h0m0-.1h0c-.1.1-.1,0,0,.1m-.3,0h0c.1,0,.1,0,.1-.1h-.1m.1-.1Zm-.2.9h0m0,.3h.3a.1.1,0,0,1-.1.1h-.2Zm.6-1h.1c-.1,0-.1,0-.1.1h0m0-1.8h0m.2,0h0m.1,4.7h0m0-.2h0m-.1.5h.1c.1,0,.1,0,.1-.1h-.2Zm.3-3.7h0m.2.3h0m.1-1.8h-.1a.1.1,0,0,1,.1.1m.4,5.1h0m0,2.2h0m0-2.7h0m-.1,4.7h0m-.1,1h0m.1-1.6h0Zm0-3.7h0m0-1Zm0-3.1h0m0-.1h0m0-2.2h0m-.1.2c.1,0,.1-.1,0-.1s0,.1,0,.1m0,2.2h0m-.1,6.8h0m0,1.2h0m0,1.1h0c0,.1,0,.1.1.1h-.1m-.1,2.3h.1a.1.1,0,0,0-.1-.1m-.1-6.3h0m-.2,0h0m.1-.2h-.1a.1.1,0,0,0,.1-.1m0-.1h0m-.1,0h0m.1-1.8h0m0-.1h0m0,5.3h0m0-8.4h0m-.1,3.8h0Zm-.1.4h.1a.1.1,0,0,1-.1.1m0,0h0m0,1.1h0m-.1.1h0Zm-.1,2.7h.3c0-.1-.1-.1-.1-.2H749c0,.1,0,.1-.1.1h0m.1,1.4h0m.2,2.5a.1.1,0,0,0,.1-.1c-.1,0-.1,0-.1.1m.2-.2h0s-.1.2,0,.1m0-.5h-.2a.1.1,0,0,0-.1.1c.1,0,0,0,0,.1h.3m.1-3.3h0m-.1.7h0m.1,3.3h.1a.1.1,0,0,0-.1-.1h0m0,.3h.3c.1,0,0-.1,0-.1h-.3Zm.3-1.7h0c.1,0,.1,0,.1-.1h-.1c0,.1-.1.1-.1.2Zm.1-1.3h0Zm.1-5.1h0Zm-.1-.5h0m.1-4h0m.2-.6h0a.1.1,0,0,0-.1.1h.1m-.1.7h0m.1,3.6h.1a.1.1,0,0,1-.1-.1m0,4.7h0m.1-2h0m-.1-.3h0m.1,0h-.1c0-.1,0-.1-.1-.1s0,.1.1.1h.1m0,3.8h0m0-9.4h0m0-.7h0s-.1,0,0,.1h0Zm-.1-1h0m0-1.7h0c-.1,0-.1.1,0,.1m-.1,1.7h0a.1.1,0,0,0,0-.2h0m-.1-.1h0c-.1,0-.1,0-.1.1h.1a.1.1,0,0,0,0-.2h0m-.1-1.5c.1,0,0-.1,0-.1h0m0,2.3h0m0,.8h0m-.2-3.1h.2a.1.1,0,0,0-.1-.1h-.1m-.1,2.8h0m0-.2h0m-.2-2.4c0,.1.1.2.1.1h-.1m-.1,2.6h0m0-.3h0m-.1-.1h0m.1-2.6h0m-.3,0h0m0,3.1h.1c.1,0,.1,0,.1-.1H749Zm-.1-3.2c.1.1.1,0,.1,0h-.1m-.1,1.7h.1a.1.1,0,0,0,.1-.1h0v-.2h-.2m-.1-1Zm-.1-.4h0m-.2,0h0m-.1,0h0m0,.9h0a.1.1,0,0,0-.1.1h-.1c-.1,0-.1,0-.1.1h.1c0-.1,0-.1.1-.1h.1c.1.1,0,.1,0,.1h0Zm-.1-.2h.1a.1.1,0,0,0-.1-.1m-.1-.7s-.1,0,0,.1h0m-.1.6h0m-.1-.5h0m-.1-.5h0c.1,0,0-.1,0-.1h0m0,.3h0m-.1,6.8h0m0,1.2h0m0,.6h.1c.1,0,0,0,0-.1h-.1m-.3,3.3h0m0,.7a.1.1,0,0,1-.1.1h.1m-.5,0h0m.1,1Zm0,2.1h0m-.1-1h0Zm-.3-1.3h0m.1-.1h0m.1.1h-.1c0,.1,0,.1.1.1m-.1-.2h0v.2h0Zm.1-.2h0m.1.3Zm-.3-.1h0m-.2-4.2h0a.1.1,0,0,0-.1.1h.1Zm-.3-.4h0c-.1-.1-.1,0-.1,0h-.2a.1.1,0,0,1,.1.1h.2m-.1.9h0m-.2,1.5h0m0,3.2s-.1.1,0,.1,0-.1,0-.1m-.3.2h0m0,.1h0m-.1-.7h0c.1-.1,0-.1,0-.1m.1-.5h0M744.2,86Zm-.1-.5h0Zm-.4,1.9h0m-.1,1h0m-.3-4h.1c.1,0,.1,0,0-.1h-.1ZM743,84Zm.1-.5h0m-.1,1.6h0m.1,1.2h0a.1.1,0,0,1,.1.1h-.1Zm.1-.1h0m.1-1.3h0m.1.1h0m0,1h0m.2-.4h0c.1,0,.1,0,.1-.1h-.1m0-.5h0m.1-.1h0m0,3.7h0m-.1.3h0Zm.2-.2h-.1a.1.1,0,0,0,.1-.1m0-3h0m.1-.3h0a.1.1,0,0,0-.1-.1h.1Zm0-2.2h0m0-.5h0m0,.6c0-.1.1,0,.1,0h0c0-.1,0,0-.1,0m0,3.4h0m0,1.6c.1,0,0-.1,0-.1h0s-.1.1,0,.1m0-.5h0c.1,0,.1-.1,0-.1m.1-.6Zm0-2.5h-.1a.1.1,0,0,1,.1.1h0m0-2h0c-.1,0,0,.1,0,.1h-.1s-.1,0,0,.1h.1Zm-.8-2a.1.1,0,0,0,.1.1.1.1,0,0,0-.1-.1h0m-.1.3h0m.1,1.4c.1-.1,0-.1,0-.1s-.1.2,0,.1m.1-2.3h-.1a.1.1,0,0,0-.1-.1h-.2c.1.1.1.1,0,.1h.1a.1.1,0,0,1,.1.1h.2m-.3.7h0a.1.1,0,0,0-.1.1h.1m0,.5c0-.1-.1,0,0,0h0m0,1h0m0-1.1h0m-.2.3h0m0-.5h0m.5-.8c0,.1,0,.1.1.1h-.1m.2-.1h0m.6-1.4h.3c-.1,0-.1,0-.1.1h-.2m0-.7h0m1.2-2.4h-.1a.1.1,0,0,1-.1.1h.2Zm-.1,4.5c.1,0,.1-.1,0-.1h0m0-1.5h0m.1,1.6h0s-.1.1,0,.1m-.1-1.2h0c0,.1,0,0,.1.1h-.1m0-3.2h0m-.1,2.9h0m-.1,2.8h-.1v.2h0m.1,0h0c-.1,0-.1,0,0,.1m0,1.3h0m-.1,1.9h0m-.2,1h0m0-.5h0m.1-.9h0m-.2.4h0m-.1.7h0m-.1-1.5h0a.1.1,0,0,1-.1-.1h-.3v.2h.4m-.1.3h0Zm-.2,1.4h0m.1-1.3h0m0-1.2h0Zm.2-.1h0m-.2-1.8h.4v-.2c-.1,0,0-.1,0-.1h-.2a.1.1,0,0,0-.1.1h-.2c0-.1-.1-.1-.1-.2h-.1a.1.1,0,0,1,.1.1h.1m-.1.1h0c.1-.1,0-.1,0,0m-.1-.1h0c.1,0,0,0,0-.1m-.3-1.6h.2v-.2h0v.2h0m0,2.6c-.1.1,0,.2,0,.1h0m.1-2.7h0c.1,0,0-.1,0-.1m0,2.7h0c-.1.1-.1.1,0,.1m.1-2.1h-.1c0,.1-.1,0,0,.1h.1m.3-.9h0a.1.1,0,0,1,.1-.1h0a.1.1,0,0,0-.1.1h0Zm.1.1a.1.1,0,0,0,.1-.1.1.1,0,0,0-.1.1m-.1,1.2h0c-.1,0-.1.1,0,.1m0-.2h0m.3-1h0m0,1.1h0m.3-.2h-.1a.1.1,0,0,1-.1.1h.2c.1,0,.1,0,.1-.1Zm0-.3h0m.1-.8h0m-.1,1.4h0m-.1-1.4h0m0,2.5h0m-.1,2.1a.1.1,0,0,0,.1.1h-.1m0-.7h0c-.1.1,0,.1,0,.1h0m-.1-1.2h0m-.1,1.4h0m-.1.2h0Zm-.1.1h0m.6-.3h0a.1.1,0,0,0,.1-.1h-.2c.1,0,0,0,0,.1h.1Zm.1-2.6h0m0-.3c.1,0,.1-.1,0-.1h0m.1-.4h0m0-.2h0m-.1-.7h0m0-.3h-.2a.1.1,0,0,0,.1-.1h.1m-.2-.4Zm-.1.4h0c-.1,0-.1,0-.1.1h.2c0-.1-.1-.1-.1-.2Zm-.8-.2h0m0-.5h0m0,.8h0m-.2,1.1h0c-.1,0-.1,0,0,.1h0Zm0-.4h-.1c.1.1.1,0,.1.1h0c.1,0,.1-.1,0-.1m-.1.1h0m-.1.4h.1c.1-.1,0,0,0-.1h-.1m.1.1h0m-.1.8h0m-.1-.4a.1.1,0,0,0,.1.1h-.1m.1.8h0s-.1.1,0,.1m0,1.1s.1-.1,0-.1h0m0,.1s.1.1.1,0h-.1m.1-.3h0m.1.1h0m.4,2.8h0m.2.7h0m0-1.4h0m.1,1.2h0m0-.8h0m0,.5h0Zm.1,1.3c-.1,0,0,.1,0,.1h.3c.1.1.1,0,.2,0h-.2c-.1,0-.1,0-.1-.1h-.2Zm.5-.3h.1s-.1-.1-.1,0m.1-1.5h0s0-.1-.1,0h.1m0,.2h0m0,.7h0m.1-.8Zm-.1.5h0m.1-2.6c-.1,0-.1.1,0,.1h0m0-.3h0c-.1-.1-.1.1,0,0h0m.1-1.4h0c.1-.1.1-.1,0-.1h-.1c0-.1,0-.1-.1-.1h0v.2h.2m.1,1.7c.1,0,.1,0,.1-.1h-.1m.1-1.4h0m-.1,1.2s-.1.1,0,.1h0m0-7.4h0c-.1.1-.1.1,0,.1h0m-.1,3.4c.1,0,.1-.1,0-.1h0m0,5.3Zm.1.7h0m0,.2h0m-.1.4h0m.2-.3h0m-.1.6h.1a.1.1,0,0,1-.1-.1h0m.1,2.5h0m.1-6.7h0m.1-4.7h0m.1,1.3h0m0-1.3h0m.1.6h0M746,79h0m0-1.8h0m.2,2h-.3c-.1.1,0,.1,0,.1h.3Zm.2.3h0m0,.3h0m0-2.3h0m-.1,3.6h0m0-1.4Zm-.2,1.6h0m-.2-1.7h0m-.2-1.5h0c.1,0,0,0,.1-.1h-.1m0-1.2h0s-.1,0,0,.1h0m0,2h0m0,4.6h0m.1-.1h0m0-4.6h0m-.2-1h.1a.1.1,0,0,1-.1-.1m0,4.1h0m0,4.7h0m.1.6h0c-.1-.1-.1-.1-.1,0h.1m.1-3.3h0Zm.1-.4h0m.1.1h0m0,.7h0m0-1.1h0m-.1,0h0m.4-1.9h0Zm.3-4.1h-.1v.2h.1m0,0c.1,0,0,0,.1-.1h-.1m.2.9h-.1c0,.1.1.1.1,0m-.1,3.1h.1a.1.1,0,0,0-.1.1m0-3h0m-.1,4.4Zm-.1-2.8h0m.1.1h0m0-2.3h-.1a.1.1,0,0,0,.1-.1h0m0,2.4c.1,0,0-.1,0-.1h0m-.1-4.6h.1c-.1,0,0-.1,0-.1h-.1c0,.1-.1,0,0,.1h0m-.1,3.2h.2a.1.1,0,1,1-.2,0m0,4.2Zm.2.2h-.1V83m.3,2.9h0m.1-1.3Zm0-1h0m.1,2.1h0m0,1h.2c0-.1,0-.1-.1-.1h-.1Zm.1-.3h0m.1-3.1h.1c.1,0,0-.1,0-.2v.2h0m.1-3.5h.1s0,.1-.1,0m0,1.3h0m0,2.8s.1,0,0-.1h0m0,2a.1.1,0,0,0,.1-.1h-.1m.1-5.9h0m.1,6.4h0m0,.1h0m.1-1.7a.1.1,0,0,0-.1.1.1.1,0,0,0,.1-.1m-.1-.7c-.1,0-.1.1,0,.1s.1,0,0-.1m.1-.2c.1-.1,0-.1,0-.1s-.1.1,0,.1m0-.2h0m0,.8h0m0-10.4h0m-.1-.1c.1-.1,0-.1,0-.1h0m0,8.8h0m-.1-1.1h0m0-6.4h0m0,1.6h0m-.1-2.5h0c-.1-.1,0,.1,0,0m-.1,1.1h0m0,2.8h.1a.1.1,0,0,0,.1-.1h-.2m.1,3.6h0c-.1,0-.1.1,0,.1m-.1-1.4h0m0,2.1h-.5a.1.1,0,0,0-.1.1h.4c-.1,0,0-.1,0-.1h.2m0-1.5h0m-.1-1.1s-.1,0,0,.1h0m0-2.3h0m0,0h0s-.1.1,0,.1m-.1,3.8h0s-.1.1,0,.1h0m0-.9h0m0-3.5h0c.1,0,0-.1,0-.1m-.1-.8h0m0,4.4h0m0-2.9h0m0-1.5a.1.1,0,0,0-.1.1c-.1.1,0,.1,0,.1h.1m-.1-1.7h-.1c0,.1,0,.1.1,0m0,.3h0m-.1-.7h.1s.1,0,0-.1h-.1m0,.1h-.1a.1.1,0,0,1,.1.1h0Zm-.1-.3h0m0,.1h0m-.1,2.4h0m-.1-2.3h0m-.1,1.5h0s-.1,0,0,.1m-.1-.6h0m0,.7h0m-.3.7h-.1c0,.1,0,.1.1.1h.3c.1,0,.1-.2.1-.2h-.2c0-.1,0-.1.1-.1h0c0-.1-.1-.1,0-.1H746Zm-.1-.5h0c.1,0,0-.1,0,0m0-1.1c.1,0,.1-.1,0-.1h0m.1,1.4h0m0-1.1h0c.1,0,0-.1,0-.1h0m-.1-1h0m0-.3h0s-.1.1,0,.1m-.1.3h0m0,.5h0Zm0,.4h0m-.1.1h0m-.1-.4h0m.1-.2s-.1.1,0,.1h0m-.2-.7h.2c-.1,0-.1,0-.1.1h-.1m0,.8c.1,0,0,.1,0,0s.1-.1,0-.1h0m0,0h0m0,3.1h.1c-.1,0-.1.1-.1.2h0Zm-.1,3.6h.1c0-.1-.1,0-.1,0m0-2h0m-.1-4.7h0c-.1,0-.1.1,0,.1m-.1-.2h0m0,.3h0Zm-.2,0h0a.1.1,0,0,0,.1.1H745m.1-.4h0m0,.2h0c-.1,0,0,.1,0,.1m-.1-.3h0m0-.4h0m0,.7h0m-.1.7h0m0-1.5h0m-.1-.1h0m0,.6h0m0,1.1c-.1,0,0,.1,0,.1h.1c-.1,0-.1,0-.1.1Zm-.1.2h.3a.1.1,0,0,0-.1.1.1.1,0,0,1-.1-.1h-.1m0-.2h-.1a.1.1,0,0,0,.1.1h0c.1,0,0-.1,0-.1h0m-.1-.1h0a.1.1,0,0,0-.1.1h.1m0-.4h0m0-.7h0m-.2,1h0m-.1-.1h0m0,.9h0m.1-.1h0m.1,0h-.1c-.1-.1-.1,0-.1,0h0c.1,0,.1,0,.1-.1h.1m-.1.6h.1a.1.1,0,0,1-.1.1h0Zm-.3.5h0m-.3.5h.8a.1.1,0,0,0,.1-.1h0c0-.1,0-.1.1-.1h-.4c-.1,0-.1,0-.1-.1h-.5m0,1.2h0m-.1-.1a.1.1,0,0,0-.1.1s.1-.1.1,0,0-.1.1-.1h-.1m-.2-.3h.2c.1,0,0,0,0-.1h-.2Zm0,.1h0m-.1.9h.1a.1.1,0,0,0-.1.1h0m-.3-1.3h0m-.1,1.7h.2c0,.1,0,.1.1.1h0c0,.1.1.1.2.1h-.1a.1.1,0,0,1-.1-.1h-.1s-.2,0-.2.1m-.1-2.5h.1c.1,0,0-.1,0-.1h.1a.1.1,0,0,0-.1.1h-.1Zm-.1,1.2h.1a.1.1,0,0,0-.1-.1Zm0,2.2h0c-.1,0-.1.1,0,0m-.3-1.6h0m-.2-1.2h0m.2,1.2c-.1,0-.1.1,0,.1h0m-.2-1.1h0m-.1-.6h0m-.1,2.9h0m0-1.3h0c.1-.1,0-.1,0-.1h0m0,1h0m.2-1.6h0Zm0,1.8Zm0-1.1h0m0,.5h0m0-.3h0c0-.1-.1,0,0,0m0,2.8h0m.1-1.8h0a.1.1,0,0,0-.1.1h.1m0,.5h0m0,.7h0m0,.2h0m.1-.1h0m0-1.3h0c.1-.1.1-.1,0-.1h0Zm0-.6h0m0,1.8h0m.1.5h0m0,.1h0m0-2.6h-.1a.1.1,0,0,0-.1.1h.2m0,.8a.1.1,0,0,0,.1-.1.1.1,0,0,0-.1.1m.1.3h0c-.1,0-.1.1,0,.1m0,.1h0m0,.4h0m0,.2h0m.1.7h0s-.1,0,0,.1m0,1.2h.7a.1.1,0,0,0-.1.1h.1a.1.1,0,0,1-.1.1h.1a.1.1,0,0,1-.1-.1h-.6Zm0,1.9Zm.1-1.6h-.1v-.2m-.2-.1h0m-.1.8h0m-.1,2.4h0m0-.1h0m.2-.6h0m-.1-.8h0c-.1,0,0,.1,0,.1h0Zm-.4-1.3h.2a.1.1,0,0,1,.1.1h0a.1.1,0,0,1,.1-.1h-.4Zm-.1.2s.1-.1,0-.1h0m0,.6h0m-.1,1.3h0c.1.1.1.1,0,.1Zm.1.5h.1c-.1,0-.1,0-.1-.1H742c0,.1,0,.1-.1.1h.2Zm0,1.8h0m0-1h-.2a.1.1,0,0,1,.1.1h.1m-.1,1.3h0m-.4.4h-.1l-.2.3h.3m-.3-1.2h0m.3.6h0m.1-2.6h0s-.1.1,0,.1m0,2.3h0m0-.4h0m-.1-2.4h0m.2-1.6h0m0,4h0m0-2h0m0,2.7Zm.1-.3h0m0,.9h0m0,.2h0m0-4h0m-.1,1.3h0m0-2.8h0m-.2-.5h0m-.1.9h0Zm-.1,3.8h0m-.1-4.3h.1v-.2h-.2m-.2-.1h0Zm-.3.1h.3v-.2h-.2m-.1.5h0m.2,1h0m0,.7s-.1.1,0,.1.1-.1,0-.1m-.1-.6h-.1c-.1,0,0,.2.1.1m-.3-2.8h0m0,3.3h0m-.4-2.1h.1c.1,0,0-.1,0-.1h-.1m-.2-.1h0m0,.4h.2a.1.1,0,0,0,0-.2h-.2m.2.4Zm-.5,1.1h0m0,.1h0m.1-.4h.1a.1.1,0,0,0,.1-.1h-.2m0-.9h0m.2,0h0m-.1,1h0m-.1.3h.2a.1.1,0,0,0,.1-.1h-.3Zm.4-.6h0c-.1,0-.1,0,0,.1h0m.1-.6h0m-.1-.2h.1a.1.1,0,0,0-.1.1h0m-.2,0h0a.1.1,0,0,0-.1.1h.1Zm-.2-.5h0Zm-.2.2h0m0,1.6h0s.1,0,0-.1h0m0,.2h0c-.1,0,0,.1,0,0m-.1.6h0m-.2-.9h0m.1.9c.1,0,0-.1,0-.1s-.1.1,0,.1m.2.2h0m0,1.7h0m.2-.1h0m.1-.9h0m0,.8h0Zm0-.2h0m.2.3h0m0-.4h0m0-.9h-.1c.1,0,.1,0,.1-.1h0c.1,0,.1-.1,0-.1m-.1-.7h0m0,0h0m-.1.6h0m0-.3h-.1c0,.1.1.1.1,0m.3.2h0m.1-.8h.1a.1.1,0,0,0-.1.1h-.6c0,.1,0,.1.1.1h.2c0-.1,0-.1.1-.1h.2Zm.1.7h0m-.1,0h0m0,1.1h0m.1-.6h0a.1.1,0,0,0-.1.1h.1m.1.5h0m-.1-.1h0m.2-1.6h0m0-1.5Zm.1,2.6h0m.1.6h0m0-.2h0c.1-.1,0-.1,0-.1m0-.5h0m0-1.2h0c-.1,0-.1,0,0,.1h0m.2,1.7Zm.1-.2h-.1c0,.1.1,0,.1,0m.2-2.4h-.1a.1.1,0,0,0-.1.1h.2m-.1,5.2h0m.1.2h-.1a.1.1,0,0,0,.1-.1m0,.4h0m0-.7h0m.3.4h0m0-.8h-.2a.1.1,0,0,1-.1.1h.2c.1,0,.1,0,.1-.1m.1.6h0m.1-.5c.1,0,.1-.1,0-.1h-.1a.1.1,0,0,0-.1.1h.2m.1.4h0m0-.6h0m.1.7h0m.1-.3h0m.2-.7Zm.1-.5h0m0-.1h0c-.1.1,0,.1,0,.1m0-1.3h1a.1.1,0,0,0,.1-.1h0a.1.1,0,0,0,.1.1h0a.1.1,0,0,1,.1.1h-1a.1.1,0,0,0-.1-.1h-.2Zm1,1.2h0c-.1,0-.1,0-.1-.1h.1m-.1.3h0m-.3,1.1h0m0-.1h0m.1-.3Zm.1-.2h0m-.4-.8h0m.1-.1s-.1.1,0,.1h0m0-.3h0m0,.7h0m.2-1.1h0m0-.3Zm-.1.1h0m0,1.4h.1c0-.1-.1-.1-.1,0h0m.2-1.1h.1a.1.1,0,0,0-.1-.1m0-.2h0m0,.6h0m.2.1h0c0-.1,0-.1-.1-.1h.1m0-.6h0c.1-.1,0-.1,0-.1m0,.2h0m0,1h.1c.1,0,0,0,0-.1h-.1Zm.1.8Zm.1-1.9h0m0,1.5h0m0,.4h0m-.8-1.9h0m-.3,1.5h0m0-.3h0c-.1,0,0,0,0,.1h0m-.1.6h0c.1,0,.1-.1,0-.1m.3-.1h0Zm0-2h0m0,.8h0m.3,2.3h0c-.1,0-.1,0-.1.1h.1m.5-.4h0Zm.4.5h-.1c.1-.1,0-.1,0-.1h.1m.1-.3h0m0-.1h-.1a.1.1,0,0,0,.1-.1h0m0-.3h-.2c-.1,0-.1,0-.1-.1h0a.1.1,0,0,0-.1.1h-.6a.1.1,0,0,1,.1-.1h.1c0,.1,0,.1.1.1h.7m0-.6h0m.1,0a.1.1,0,0,1-.1-.1h.1m0-.2h0m.1-.7h0m0-.7c.1.1.1,0,.1,0h-.1m.1,1.2h0c.1,0,0-.1,0-.1m-.2.8h0m.1.4h0m.1.1h0m.1.1h0m.2-.2h0m-.1-.5c0-.1-.1,0,0,0h0m0,.1h0m.1-.2c.1-.1.1-.1,0-.1h0a.1.1,0,0,1-.1-.1h.1m-.1-.4h0m.1-.1h0m.1.6h0s-.1,0,0,.1h0m.1-1.3h0m-.1-.3h.1c.1,0,.1-.1,0-.1h-.1m.2.6h0m0-.6h0m0,1.9h0m.1.3h0m0-.9h0m0-.2h-.2a.1.1,0,0,0,.1-.1h.1m0,.1h0m.1.8h0m0-.1h0m.1-.2h0m.1-.3h0m-.2-.8h0m.1-.8h0m-.1,1.3h0m.2.4h0m0,.1h0m.1.7h-.1c0,.1,0,.1.1.1Zm0-1.3h0Zm-.1-.4h0m.1-1.1h.1c.1,0,.1-.1,0-.1h-.3a.1.1,0,0,1-.1.1h-.6a.1.1,0,0,1,.1.1h.8m.1.3h0m0,1.4h0m.2-.1h0Zm0-.2h0m.1-1.2h0m0-1.3h0m.2,3.5h0m0-3.8h0m.2,2.7h0m.1.9h-.1a.1.1,0,0,0,.1-.1m0-.5h0c-.1,0,0,.1,0,0m.3-3.4H746c-.1,0-.1,0,0,.1h.3c0,.1,0,.1.1.1h0a.1.1,0,0,0,.1.1h0m.1,2.1h0Zm0,2.7c-.1.1,0,.1,0,.1s0-.1,0-.1m0-.1h0c-.1,0,.1-.1,0-.1m.1-1.4h0m0-.9h0m0-.1h0m0,2.3h0m.1-2.3Zm0,1.7h0m0,.6s.1-.1,0-.1h0m.1.2h0s.1,0,0-.1h0Zm.2.1h-.2c.1,0,.1,0,.1-.1h.1m-.1-.7h0m.2-.8h0m0,.4c-.1,0-.1.1,0,.1h0m0,1.1h-.1a.1.1,0,0,0,.1-.1m0-.3h0m0,.6h0m.1-.3h0c.1,0,.1-.1,0-.1m0-.4h0c.1,0,.1-.1,0-.1m0-1.3h0m.2-1h.2v-.2H747c-.1,0-.1.1-.1.2h.6Zm.1.3h0m.1.3c0-.1,0-.1-.1-.1h.1Zm0-.2h0m0-2.9Zm.1,2.8h0m.1-1.4h0m-.1.6h0m0-.8h-.1a.1.1,0,0,1,.1.1h.1a.1.1,0,0,0-.1-.1h0m0,0h0m.1,1.2Zm0-2.4h0m0-.9c-.1,0,0,.1,0,.1h0m.2,3.5h0Zm0-.7h0m0,.4h0m.1.6h0m0-3.6h0m.1-.7h0m.1,3.3h0m0-4.3h.1c0-.1,0,0-.1,0h0m.1,4.4h0m0-6.5Zm0,7.4Zm0-.8h0m.1-.1Zm0,.5h-.1c0,.1.1.1.1,0h0m0-7.4h0m.1-.5h-.6a.1.1,0,0,1,.1.1h0a.1.1,0,0,0,.1-.1h.4Zm0,7.8Zm.1.4h0m1.2,2.4h-.1c-.1.1-.2,0-.3,0s.1,0,0,.1h-.1c-.1-.1,0-.3-.1-.2h-.1c0,.1.1.1,0,.1s-.2-.1-.1,0h0c-.1.1,0,.2-.1.1l-.2-.2h-.1V91c0,1.9-.1,2.9.5,3.8h.1c.4-.5.5-1.5.6-3.5Zm.1-1.9h0m.1-.2H750c0-.1,0-.1-.1-.1h0a.1.1,0,0,0-.1.1h.4m.1-1.2h0Zm.1-.2h-.1a.1.1,0,0,0,.1-.1m0-.5h0m0,.4h0m.1.6h0m0-3.9c0-.1-.1-.1-.1,0h.1m-.1-.7h0c.1,0,0,.1.1,0h-.1m.1-.1h-.1c.1,0,0,.1.1,0h0m.1,3.9h0m0-3.4h0Zm.2,3.1h-.1v.2Zm-.1-.6c-.1.1,0,.1,0,.1s.1-.1,0-.1m.1-3h0Zm0,.4s.1-.2,0-.1h0m0,.2c.1-.1,0-.1,0-.1h0m.1,3.4h0m0-.6h0m.1-.5s.1-.1,0-.1-.1.2-.1.2h.1m0,3.6s-.1.1,0,.1.1-.1,0-.1m0-2.4h.1c0-.1-.1-.1-.1,0m.1-.7h0c.1,0,.1-.1,0-.1m.1-.3h-.1a.1.1,0,0,0,0,.2h.1Zm0-2.5h0m0,2.7s.1-.1,0-.1h0m0,1.1h0m0,.2h.1c-.1-.1-.1-.1-.1,0m0,1.6Zm13.9-4.3c0-3.9-1.9-10.4-11.1-10.5h-1.5c.1,0,.2,0,.1.1a.5.5,0,0,0-.1.3c-.1,0-.2-.1-.2,0v.2c.1.1.1.1.1.3s.2.1.1.2h-.3v.2h0s-.2,0-.1.1h.2c.2-.1.2-.1.3-.3h.4c.1.1,0,.1.1.3v.2s-.1-.1-.2.1,0,.2.1.2,0,.1.1.1h.3a.3.3,0,0,0-.1-.2c-.1,0-.2-.1-.1-.1s.2,0,.2-.1h0c0-.1,0,0,.1-.1h.2c.1.1.2.2.2,0s0-.2.1-.2h.3c0,.2-.1.2,0,.3h.2c.1,0,.1.1.1-.1h.1c0-.1.1-.1,0-.2h-.1v-.2c-.1,0-.1,0-.1-.1h-.2c0-.1.1-.2.3-.2s.1.2.2,0,0-.2.1-.1h.6c.1-.1.2-.2.1-.2s-.3.1-.2,0h.1c0-.1,0-.2.1-.2h.4c0,.2-.1.3.1.3s.2-.2.2-.1,0,.2.2.2h.1c-.1.1.1.1.1.1s0,.1.1.1.2.2.1.2-.2.1-.2.3h.1c-.2.1-.2.2-.3.1s0-.2-.2-.1h-.4v.2s.2,0,.2.1v.3c0,.1-.1-.1,0,.1s0,.2-.1.2-.3-.2-.3-.1l.4.3.2-.2h.2c0-.2,0-.3.1-.2h.2c.1-.1.1-.2.2-.1h.4c.1,0,.2.2.2.3s0,.2.1.2.1.1.1.2h0s-.2-.2-.3-.1h-.2c-.1,0-.3,0-.1.1h.4c.1,0,.2.1.1.1s-.2.1,0,.1h.2c0-.1,0-.2.1-.1s.2-.1.3,0a.1.1,0,0,0,.1.1c0,.1-.1.1,0,.1s-.2,0-.2.1v.2c0,.1.1.1,0,.1s0-.1-.2-.1h-.3a.1.1,0,0,1,.1.1h0c0,.1-.1,0,0,.1h-.4s0-.2-.1-.1a.4.4,0,0,0,.1.3.1.1,0,0,1,.1.1c0,.1-.2.1-.1.2h.1c.1,0,.1-.1.2,0h.2c0-.1,0-.3.1-.2h.4c0,.2,0,.2-.1.2s-.1,0-.1.2,0,.1-.1,0h-.1c0,.1,0,.2.1.2s.1,0,.1.2h.4c0,.1,0,.2.1.2s-.1,0,0,.1h.2c0,.2-.1.2,0,.3s.2.2.2.3h-.1c0,.1,0,.2-.1.2h.2c0,.2,0,.2.1.2h.3v.2c.1.1.2.1,0,.1h-.3c0,.2.1.2,0,.2h-.1c0-.1,0-.1-.1,0s-.1.1-.1-.1h-.1v.2c.1.1.1.1.1.2h-.2c0-.1.1,0,0-.1h-.2v-.2h-.1s-.1,0,0,.1v.3h.1c.1.1.1.2.2.2h.1v.4h.1c-.1.1-.2,0-.1.1h.3v.6h0s.1.2.1.1,0-.2.1-.2,0-.1.1.1,0,.1.1.2,0,.2.1.1v-.2h.2s0,.1.1,0h0c0-.1-.1,0,0-.1v-.2c.1,0,0-.1.1,0h.4c0-.1-.1-.1,0-.2h.1c0,.1-.1.1,0,.2a.3.3,0,0,0,.1.2h.1a.1.1,0,0,1-.1.1c.1.1.1.1.1.2v.2h-.1a.1.1,0,0,0,.1.1v.2s-.2-.1-.1-.1.1.2.1.3.2.1.1.1h-.3a.3.3,0,0,0-.1-.2h-.1a.1.1,0,0,1,0,.2h-.1c0,.1-.1.1-.1,0H760a.1.1,0,0,1-.1-.1c0-.1.1-.2,0-.1h-.2c.1.1,0,.1.1.2h-.3c.1.2,0,.3.1.3h.2c.1-.2.1.1.1.1s.1-.2.2-.2h.3c-.2,0-.2.1-.1.1s.3.1.2.2h-.2c-.1.1-.1.2,0,.2l.2.2s.2,0,0,.1-.2-.2-.2-.1H760c0,.1.1.1,0,.2h0c0,.1.1.2,0,.1s-.1-.2-.2,0v.2h-.1c0,.1,0,.2-.1.2s0-.2-.1-.2a.1.1,0,0,0-.1.1c0,.1.1.1,0,.1s-.1.1-.2.2a.3.3,0,0,1-.1-.2c.1-.1.1-.3,0-.2s-.2.3-.1.3h0v.2c.1.1.3.1.2.2s-.1.2,0,.2,0,.1,0,.2h-.1c-.1,0-.1-.2-.1-.1h-.3s-.1,0,0,.1h0c-.1,0-.1-.1-.1,0v.2c-.1.1-.2.1-.1.2s.1,0,0,.1h-.1c-.2-.1-.2,0-.2-.1s0,.1-.2,0h-.1c0,.1,0,.1-.1.1h-.5c0,.1-.1,0,0,.1s.1.1.1.2h-.2v-.2h-.4c0,.2,0,.2-.1.2h0c.1,0,.3-.1.3,0v.2c0,.1.1.1,0,.1h-.5l-.2-.2c0,.1,0,.1-.1.1h0a.1.1,0,0,0-.1-.1h-.3c-.1,0-.1,0-.1-.1h-.4s.1.1,0,.1-.1,0-.1.1H755c0-.1,0-.2-.1-.1s-.1-.1-.1.1.1.1.1.2h-.4a.1.1,0,0,0-.1-.1h-.1c-.1,0,0,0-.1.1s0,0-.1-.1h-.3c0,.1,0,0,.1.1h.1v.2h0c-.1,0-.2-.1-.1,0h.1c.1.1.1,0,.1.1h-.5v-.2h-.2a.1.1,0,0,1-.1-.1h-.2s.2,0,.1-.1h-.3a.3.3,0,0,1,.1.2c.1.1-.1.1-.1.1s-.3-.2-.3-.1-.2-.1-.7.4h-.3c.1.1.2.1.1.3h-.1c-.1.1,0,.1-.1.2s0-.1-.1,0h0c0-.1.1-.3,0-.2h-.2c0-.1.1-.2,0-.2a5.9,5.9,0,0,0,.7,3.1,3.5,3.5,0,0,0,3.3,1.5c6.8,0,9.9-4.5,9.9-11m-5.4,3.4h.1a.1.1,0,0,0-.1.1Zm.1-2.4h0m.5.2h.1c0,.1,0,.1-.1.1m-1.2-3.1h0a.1.1,0,0,0-.1.1h.1m-.1.4h0s.1.1,0,.1m.1-.2c.1,0,0,0,0-.1h0m.1-.3h0m-1.9-4.4h0m.2-.1Zm0,.4c-.1,0-.1.1,0,.1h0m-.2-1.3h-.1c-.1,0-.1.1,0,0a.1.1,0,0,0,.1.1h0m-.1.1h0c.1,0,0,.1,0,0s0-.1,0-.1m-1.4-1h0c.1,0,.1-.1,0-.1m0,.5h.1c-.1,0,0,.1-.1.1m.1-1h0Zm.4,0c.1,0,0-.1.1-.1h-.1m.2,0h0m1.2,5.9Zm-11.5,3.3h0c-.1,0,0,.1,0,0m8.5,2.3Zm-8.5-2h0m-.1-2.5c.1-.1,0,0,0-.1h0c-.1,0,0,.1,0,.1m8.1-5.9Zm.4-.9h0Zm-10.9,6.8h0m10.1,6.9h0m1.3-2.9Zm-1.3,2.9h0m-9.5-7.1h0m11,6.5Z" style="fill:#fff"/><path d="M312.3,156.2h1.3v2.2c0,.3-.1.4-.3.7a1.4,1.4,0,0,1-1.1.4c-1.1,0-1.5-.7-1.7-1.7a19.3,19.3,0,0,1-.1-2.4,7.2,7.2,0,0,1,.3-2.5,1.7,1.7,0,0,1,1.9-1.3c1.5,0,1.7.7,2,2h.5v-2.3h-.3l-.6.4a2.8,2.8,0,0,0-1.8-.6,3.9,3.9,0,0,0-2.7,1,4.5,4.5,0,0,0-1.4,3.5c0,2.4,1.3,4.3,3.8,4.3a3.8,3.8,0,0,0,3.3-1.6v-2.1h.8v-.5h-3.9Z" style="fill:#fff"/><path d="M321.9,155.4h0a1.4,1.4,0,0,0-1-1.5,3.2,3.2,0,0,0-1.4-.3c-.9,0-2.5.4-2.5,1.6a.8.8,0,0,0,.8.8.9.9,0,0,0,.8-.8c0-.4-.3-.6-.3-.8s.7-.4.9-.4,1,.3,1,1.1v1.1a6,6,0,0,0-2.9.8,1.9,1.9,0,0,0-.8,1.5c0,1,.7,1.5,1.7,1.5a2.6,2.6,0,0,0,2-1,.5.5,0,0,1,.2.4,2,2,0,0,0,1.5.4h1v-.4h-1Zm-1.7,2.2a1.4,1.4,0,0,1-.4,1.1.9.9,0,0,1-.6.3,1,1,0,0,1-1-1.1c0-1.2,1-1.3,2-1.4Z" style="fill:#fff"/><path d="M327.8,153.5c-1,0-1.4.5-1.8,1.3v-1.1h-2.8v.4h.9v5.2h-.9v.4h4v-.4H326v-2.7a3.3,3.3,0,0,1,.5-2c.1-.2.5-.6.7-.6h.2c0,.1-.3.3-.3.7a.9.9,0,0,0,1,.8.8.8,0,0,0,.9-.9A1.1,1.1,0,0,0,327.8,153.5Z" style="fill:#fff"/><path d="M335.8,151.2H333v.4h1v2.8a2.2,2.2,0,0,0-1.9-.9,2,2,0,0,0-1.1.3,3.2,3.2,0,0,0-1.6,3,2.8,2.8,0,0,0,2.8,3.1,2,2,0,0,0,1.8-1.1v.9h2.8v-.4h-1Zm-1.9,7.1a1.8,1.8,0,0,1-1.4,1.1c-1.1,0-1.2-1.9-1.2-2.7s0-2.7,1.3-2.7a1.4,1.4,0,0,1,1.2.9,3.8,3.8,0,0,1,.3,1.8A7.8,7.8,0,0,1,333.9,158.3Z" style="fill:#fff"/><path d="M342.9,156.3a2.9,2.9,0,0,0-2.9-2.8,3,3,0,0,0-3.2,3.2,3.1,3.1,0,0,0,3.3,3.2,2.8,2.8,0,0,0,2.7-1.9h-.3a2.6,2.6,0,0,1-2.2,1.5c-1.4,0-1.5-1.3-1.5-2.4v-.7Zm-2.9-2.5c.8,0,1,.5,1,1.2v.9h-2.2C338.8,154.9,338.7,153.8,340,153.8Z" style="fill:#fff"/><path d="M350.3,155.4c0-.9-.2-1.5-1.2-1.8h-.9l-1,.2a2.7,2.7,0,0,0-1.2.9v-.9h-2.8v.4h1v5.2h-1v.4h3.7v-.4H346v-2.9a3.4,3.4,0,0,1,.1-1,1.7,1.7,0,0,1,1.5-1.3c.9,0,.9.9.9,1.5v3.7h-.9v.4h3.6v-.4h-.9Z" style="fill:#fff"/><polygon points="353.3 151.7 354.3 151.7 354.3 159.3 353.3 159.3 353.3 159.7 357.1 159.7 357.1 159.3 356.1 159.3 356.1 151.7 357.1 151.7 357.1 151.3 353.3 151.3 353.3 151.7" style="fill:#fff"/><path d="M364.6,155.4c0-.9-.2-1.5-1.2-1.8h-.8l-1.1.2a2.7,2.7,0,0,0-1.2.9v-.9h-2.7v.4h.9v5.2h-.9v.4h3.7v-.4h-1v-2.9a3.4,3.4,0,0,1,.1-1,1.8,1.8,0,0,1,1.5-1.3c.9,0,.9.9.9,1.5v3.7H362v.4h3.6v-.4h-1Z" style="fill:#fff"/><path d="M372.9,159.3v-3.9c0-.9-.2-1.5-1.2-1.8h-.8l-1.1.2a2.4,2.4,0,0,0-1.1.9v-.9h-2.8v.4h1v5.2h-1v.4h3.7v-.4h-.9v-2.9a3.4,3.4,0,0,1,0-1,1.8,1.8,0,0,1,1.5-1.3c.9,0,.9.9.9,1.5v3.7h-.8v.4h3.6v-.4Z" style="fill:#fff"/><path d="M320.9,137.1H308.5v12.3h12.4Zm-11.7.7h.2l1.1.2c1.3.1,1.9.1,2.8.9s1.4,1.3,1.1,2.7h0c-.2.1-.5.1-.6-.1h0a3.3,3.3,0,0,0-.6-1.9,4.3,4.3,0,0,0-3.4-1.1,4.3,4.3,0,0,0,1.1,3.4s1.4,1.1,2.4.4l-1.3-1.2-.9-1h0s.1-.2.2-.2h.1a5.8,5.8,0,0,1,1,.9,10.2,10.2,0,0,1,1.5,1.6c.1.1,0,.3,0,.3-1.7,1.6-3.8-.6-3.8-.6a4.2,4.2,0,0,1-.8-2.8l-.2-1.1A.4.4,0,0,1,309.2,137.8Zm1.9,1.7a.3.3,0,0,1-.3.3.3.3,0,1,1,0-.6A.3.3,0,0,1,311.1,139.5Zm2.2,8.2c-.9.8-1.5.8-2.8.9h-1.1c-.1.1-.2.1-.2,0s-.1-.1-.1-.2l.2-1.1c.1-1.3.1-1.9.9-2.8s1.3-1.4,2.7-1.1h.1a.5.5,0,0,1-.1.6h-.1a2.9,2.9,0,0,0-1.9.6,4.3,4.3,0,0,0-1.1,3.4,4.3,4.3,0,0,0,3.4-1.1s1.1-1.5.4-2.4l-1.2,1.3-1,.8c-.1.1-.1,0-.1,0h-.2l.9-1,1.6-1.6h.3C315.5,145.6,313.3,147.7,313.3,147.7Zm-2.2-.6a.3.3,0,0,1-.3.3.3.3,0,0,1,0-.6A.3.3,0,0,1,311.1,147.1Zm4.8-8.3a4.2,4.2,0,0,1,2.8-.8l1.1-.2h.2a.2.2,0,0,1,0,.3,8,8,0,0,1-.1,1.1c-.1,1.3-.1,1.9-.9,2.7s-1.3,1.5-2.7,1.2h-.1a.4.4,0,0,1,.1-.6h0a3.8,3.8,0,0,0,2-.6,4.3,4.3,0,0,0,1.1-3.4,4.3,4.3,0,0,0-3.4,1.1s-1.2,1.4-.4,2.4a9.2,9.2,0,0,1,1.2-1.3l1-.9h.1l.2.2H318c0,.2-.4.6-.8,1.1l-1.6,1.5a.2.2,0,0,1-.3-.1C313.7,140.9,315.9,138.8,315.9,138.8Zm2.2.7a.3.3,0,0,1,.3-.3.3.3,0,1,1-.3.3Zm1.9,9.2c0,.1-.1,0-.2,0h-1.1c-1.3-.1-1.9-.1-2.8-.9s-1.4-1.4-1.1-2.7h0c.2-.2.4-.1.6.1h0a2.7,2.7,0,0,0,.6,1.9,4,4,0,0,0,3.4,1.2,4.3,4.3,0,0,0-1.1-3.4s-1.5-1.2-2.4-.4l1.3,1.2.9,1h-.3l-1-.8-1.6-1.7V144c1.7-1.6,3.7.6,3.7.6a3.7,3.7,0,0,1,.9,2.7,10.5,10.5,0,0,1,.1,1.2C320.1,148.6,320.1,148.7,320,148.7Zm-1.9-1.6a.3.3,0,1,1,.6,0,.3.3,0,0,1-.3.3A.3.3,0,0,1,318.1,147.1Z" style="fill:#fff"/><polygon points="327 148.8 326.2 148.7 326.2 143.7 331.5 143.7 331.5 148.7 330.6 148.8 330.6 149.4 334.8 149.4 334.8 148.8 334 148.7 334 137.8 334.8 137.7 334.8 137.1 330.6 137.1 330.6 137.7 331.5 137.8 331.5 142.5 326.2 142.5 326.2 137.8 327 137.7 327 137.1 322.9 137.1 322.9 137.7 323.7 137.8 323.7 148.7 322.9 148.8 322.9 149.4 327 149.4 327 148.8" style="fill:#fff"/><polygon points="340.5 148.9 339.7 148.8 339.7 140.7 336.7 140.7 336.7 141.2 337.5 141.3 337.5 148.8 336.7 148.9 336.7 149.4 340.5 149.4 340.5 148.9" style="fill:#fff"/><polygon points="346.1 148.9 345.3 148.8 345.3 137.1 342.2 137.1 342.2 137.6 343 137.8 343 148.8 342.2 148.9 342.2 149.4 346.1 149.4 346.1 148.9" style="fill:#fff"/><path d="M348.5,147.2c0,1.5.4,2.3,2.2,2.3a7.9,7.9,0,0,0,2.8-.5v-.6h-1.2c-1.2,0-1.5-.5-1.5-1.8v-5.2h2.1v-.8h-2.1v-2.6l-2.3.7v1.9h-1.6v.8h1.6Z" style="fill:#fff"/><path d="M358.5,149.7c2.9,0,4.8-1.8,4.8-4.6s-1.8-4.7-4.6-4.7a4.5,4.5,0,0,0-4.8,4.7C353.9,148.5,355.7,149.7,358.5,149.7Zm.1-8.6c1.3,0,2.1,1.2,2.1,4s-.7,3.9-2.1,3.9-2.2-1.1-2.2-3.9S357.3,141.1,358.6,141.1Z" style="fill:#fff"/><path d="M368.1,148.9h-.8v-6.3a3.4,3.4,0,0,1,1.8-.7c1.1,0,1.6.6,1.6,2v5h-.8v.5h3.9v-.5H373v-5.3c0-2-.8-3-2.5-3a4.7,4.7,0,0,0-3.2,1.4v-1.2h-3.1v.6h.8v7.4h-.8v.5h3.9Z" style="fill:#fff"/><path d="M338.6,139.6a1.3,1.3,0,0,0,1.3-1.3,1.3,1.3,0,0,0-1.3-1.2,1.2,1.2,0,0,0-1.2,1.2A1.2,1.2,0,0,0,338.6,139.6Z" style="fill:#fff"/><path d="M165.6,143.2a5.4,5.4,0,1,0,5.5,5.4A5.2,5.2,0,0,0,165.6,143.2Zm0,10c-2.2,0-3.3-1.5-3.3-4.6s1.1-4.6,3.3-4.6,3.3,1.5,3.3,4.6S167.8,153.2,165.6,153.2ZM141,144.9l-4.4,6.9-4.4-7.1v9h-.9V143.5h2.5l3.5,5.6,3.6-5.6H143v10.2h-2Zm-5.4,6.9.6.8-7,11-.7-.5Zm-20.8-8.3v.8h-4.2v9.4h-2v-9.4h-4.2v-.8Zm6.1.8v3.9h3.3v.8h-3.3v3.7h6v.9h-8V143.5h8v.8Zm21.5-1.7h-1l5.6-8.8.7.5Zm14.3,4.4c0-2.2-1.7-3.5-4.3-3.5h-4.3v10.2h2v-3.2h2.3C155,150.5,156.7,149.3,156.7,147Zm-6.6,2.7v-5.4h1.6c2,0,2.9.9,2.9,2.7s-.9,2.7-2.9,2.7Z" style="fill:#fff"/><path d="M29.9,149H46.8V127.2H29.9Zm16.2-.7H30.7V127.9H46.1Z" style="fill:#fff"/><path d="M31.1,147.9H45.7V128.4H31.1Zm2.5-9.7a2.8,2.8,0,0,0,1.6.7v-6a1.2,1.2,0,0,0-1.3-1.2v-.5h8.7v3h-.7a2.1,2.1,0,0,0-2.2-2.2h-2v6a2.6,2.6,0,0,1,1.9-1.9v.6a2.2,2.2,0,0,1,1.7-.4v.4a2,2,0,0,1,1.6.9H41.3l.3.6a2.9,2.9,0,0,0-1.4.3l.4.4a2.3,2.3,0,0,1-2.7.4h-.1l.8-.6c1.6-1.4,2.3-1.5,3.4-1.4-.5-.4-1.9-.5-3.3.6s-4.5,1.4-5.4.7Zm9.2,6.9H33.9v-.5c.4-.1,1.3-.3,1.3-1.3v-3.2h0a4.5,4.5,0,0,0,2.5-.7v4.7H40c1.5,0,2.1-1.2,2.1-2.7h.7Z" style="fill:#fff"/><path d="M12.1,157.2c-.1-.8-.1-.8-1.3-.9v2h2.2a1.5,1.5,0,0,0,.6-1.1H14v1.4c-.1.2-.1.2-.4.2H8.3v-.3h.9v-4.2H8.4v-.3h5.2v1.4h-.4a.9.9,0,0,0-.3-.7c-.3-.4-1-.4-1.6-.4h-.5V156h1c.3-.2.3-.4.3-.7h.4c0,.4-.1.8-.1,1.3a5.6,5.6,0,0,1,.1.7h-.4" style="fill:#fff"/><path d="M24.4,154.2v4.2h.9v.3H21.9v-.3h.9v-3.6l-.4.8-.8,1.7-.7,1.4h-.4l-.4-.9-1.5-3.1v3.7h.9v.3H17.2v-.3h.9v-4.2h-.8v-.3h2.6l.4,1,1,2,.9-2,.5-1h2.5v.3h-.8" style="fill:#fff"/><path d="M30.9,156.3a3.2,3.2,0,0,1,1.4.2,1,1,0,0,1,.5.8,1.1,1.1,0,0,1-.5.9,3.6,3.6,0,0,1-1.4.2v-2.1Zm-1.6,1v1.1h-.9v.3h3.1A3.2,3.2,0,0,0,34,158a.9.9,0,0,0,.3-.7,1.4,1.4,0,0,0-.2-.6,2.1,2.1,0,0,0-1.3-.5h-.1c.3-.1,1.4-.3,1.4-1.1s-.2-.8-.9-1l-1.3-.2H28.4v.3h.9v3.1Zm1.6-3h1.3a.9.9,0,0,1,.3.7,1.1,1.1,0,0,1-.3.8,3,3,0,0,1-1.3.2v-1.7" style="fill:#fff"/><path d="M41.1,155.6l-.8-1.8h-.9l-.7,1.7-.5,1.1-.8,1.8h-.7v.3h2.2v-.3H38l.5-1.2h1.7l.5,1.2h-.8v.3h3.2v-.3h-.7l-.5-1-.4-.8Zm-2.4,1.3.6-1.7.6,1.2v.5H38.7" style="fill:#fff"/><path d="M46.8,157a3.1,3.1,0,0,0,.2.7,1.6,1.6,0,0,0,1.5.8c.9,0,1.3-.5,1.3-.9s-.4-.6-1-.7l-.6-.2c-.6-.1-1.8-.4-1.8-1.5s.9-1.5,2-1.5a4.2,4.2,0,0,1,1.4.3l.2-.2h.3a3.2,3.2,0,0,0-.1.7,1.5,1.5,0,0,0,.1.7h-.4c-.1-.3-.1-.5-.2-.6a1.3,1.3,0,0,0-1.3-.7c-.6,0-1.1.3-1.1.7s.5.5,1.2.7l.6.2c.5.1,1.7.4,1.7,1.5s-1,1.7-2.3,1.7a3.4,3.4,0,0,1-1.5-.4l-.3.3-.3-.2a1.5,1.5,0,0,0,.1-.7,2.2,2.2,0,0,0-.1-.8h.4" style="fill:#fff"/><path d="M54.8,157l.3.7a1.6,1.6,0,0,0,1.5.8c.9,0,1.3-.5,1.3-.9s-.5-.6-1.1-.7l-.5-.2c-.6-.1-1.8-.4-1.8-1.5s.9-1.5,2-1.5a3.1,3.1,0,0,1,1.3.3l.3-.2h.2v1.4H58c-.1-.3-.1-.5-.2-.6a1.5,1.5,0,0,0-1.3-.7c-.6,0-1.1.3-1.1.7s.5.5,1.2.7l.6.2c.5.1,1.6.4,1.6,1.5s-.9,1.7-2.2,1.7a4.6,4.6,0,0,1-1.6-.4l-.2.3-.3-.2c0-.2.1-.4.1-.7s-.1-.5-.1-.8h.3" style="fill:#fff"/><path d="M66.1,156.5v1.9H67v.3H63.5v-.3h1v-1.9l-1.1-1.4-.7-.9H62v-.3h3.2v.3h-.7l1.3,1.9.9-1.3.3-.6h-.7v-.3h2.1v.3h-.7l-1.6,2.3" style="fill:#fff"/><path d="M17.2,166.7a3.1,3.1,0,0,0,.2.7,1.6,1.6,0,0,0,1.5.8c.9,0,1.3-.5,1.3-.9s-.5-.6-1.1-.7l-.5-.2c-.6-.1-1.8-.4-1.8-1.5s.9-1.5,2-1.5a3.7,3.7,0,0,1,1.4.3l.2-.2h.2v.7a1.5,1.5,0,0,0,.1.7h-.4c-.1-.3-.1-.5-.2-.6a1.3,1.3,0,0,0-1.3-.7c-.6,0-1.1.2-1.1.7s.5.5,1.3.7l.5.2c.5.1,1.7.4,1.7,1.5s-1,1.6-2.2,1.6a4,4,0,0,1-1.6-.3l-.3.3-.3-.2c0-.2.1-.5.1-.7s-.1-.5-.1-.9h.4" style="fill:#fff"/><path d="M29.6,166.3a2.2,2.2,0,0,1-.3,1.5,2.8,2.8,0,0,1-2.1.7,3.7,3.7,0,0,1-2.2-.6c-.4-.4-.4-.9-.4-1.8v-2.2h-.9v-.3h3.5v.3h-1v2.9a1.9,1.9,0,0,0,.3,1c.1.1.3.4,1.1.4s1.4-.8,1.4-1.1.1-2.7.1-3.2h-.9v-.3h2.3v.3h-.9v2.4" style="fill:#fff"/><path d="M35.4,168.1h.9v.3H32.9v-.3h.9v-4.2h-.9v-.3h3.4v.3h-.9v4.2" style="fill:#fff"/><path d="M42.6,168.1h.9v.3H39.9v-.3h1v-4.2h-1a1,1,0,0,0-.8,1v.3h-.4v-1.7h5.9v1.7h-.3V165c-.1-.5-.1-.7-.3-.8a1.8,1.8,0,0,0-1.3-.3v4.2" style="fill:#fff"/><path d="M50.8,166.9c-.2-.8-.2-.8-1.3-.9v2H50a3.5,3.5,0,0,0,1.7-.2c.5-.2.5-.5.6-1h.4v.7a3.2,3.2,0,0,0-.1.7c0,.2-.1.2-.4.2H47v-.3h.9v-4.2h-.8v-.3h5.2v1.4H52c-.1-.3-.1-.5-.3-.7a2.3,2.3,0,0,0-1.7-.4h-.5v1.8h1a.7.7,0,0,0,.3-.7h.3v2h-.3" style="fill:#fff"/><path d="M56,166.7a3.1,3.1,0,0,0,.2.7,1.6,1.6,0,0,0,1.5.8c.9,0,1.3-.5,1.3-.9s-.4-.6-1-.7l-.5-.2c-.6-.1-1.9-.4-1.9-1.5s.9-1.5,2-1.5a3.7,3.7,0,0,1,1.4.3l.2-.2h.3a3.2,3.2,0,0,0-.1.7c0,.3.1.5.1.7h-.4c-.1-.3-.1-.5-.2-.6a1.3,1.3,0,0,0-1.3-.7c-.6,0-1.1.2-1.1.7s.5.5,1.3.7l.5.2c.5.1,1.7.4,1.7,1.5s-1,1.6-2.2,1.6a4,4,0,0,1-1.6-.3l-.3.3-.3-.2a1.7,1.7,0,0,0,.1-.7,3.1,3.1,0,0,0-.1-.9H56" style="fill:#fff"/><polygon points="445.4 99.3 446.1 99.4 446.1 102.6 442.4 102.6 442.4 99.4 442.9 99.3 442.9 98.9 440.1 98.9 440.1 99.3 440.7 99.4 440.7 106.9 440.1 106.9 440.1 107.4 442.9 107.4 442.9 106.9 442.4 106.9 442.4 103.4 446.1 103.4 446.1 106.9 445.4 106.9 445.4 107.4 448.3 107.4 448.3 106.9 447.7 106.9 447.7 99.4 448.3 99.3 448.3 98.9 445.4 98.9 445.4 99.3" style="fill:#fff"/><polygon points="451.7 101.3 449.5 101.3 449.5 101.7 450.1 101.8 450.1 106.9 449.5 107 449.5 107.4 452.2 107.4 452.2 107 451.7 106.9 451.7 101.3" style="fill:#fff"/><path d="M450.9,100.4c.6,0,.9-.4.9-1a.8.8,0,0,0-.9-.9.9.9,0,0,0-.9.9.9.9,0,0,0,.9,1" style="fill:#fff"/><polygon points="455.4 98.6 453.3 98.6 453.3 99 453.9 99.1 453.9 106.9 453.3 107 453.3 107.4 456 107.4 456 107 455.4 106.9 455.4 98.6" style="fill:#fff"/><path d="M459.2,105.5v-3.6h1.4v-.6h-1.4V99.6l-1.5.5v1.2h-1.2v.6h1.1v3.9c0,1.1.3,1.6,1.5,1.6l2-.3v-.5h-.9c-.8,0-1-.3-1-1.2" style="fill:#fff"/><path d="M464.5,107.1c-.9,0-1.4-.8-1.4-2.7s.5-2.8,1.4-2.8,1.5.9,1.5,2.8-.5,2.7-1.5,2.7m.1-5.9a3.1,3.1,0,0,0-3.3,3.2c0,2.3,1.2,3.1,3.2,3.1a2.9,2.9,0,0,0,3.2-3.1,2.9,2.9,0,0,0-3.1-3.2" style="fill:#fff"/><path d="M474.6,103.3c0-1.4-.5-2.1-1.7-2.1a3.2,3.2,0,0,0-2.2,1v-.9h-2.1v.4h.6v5.1h-.6v.4h2.7V107h-.6v-4.3a2.7,2.7,0,0,1,1.3-.5c.7,0,1.1.4,1.1,1.4v3.4h-.6v.4h2.7V107h-.6Z" style="fill:#fff"/><path d="M448.6,89.4c.4.1.9-.4,1.1-.9a2.5,2.5,0,0,0,.1-.9c-.1-.2-.3-.2-.5-.3s-.8.2-1,.8a1.1,1.1,0,0,0,0,.8l.3.5" style="fill:#fff"/><path d="M425.3,90a1,1,0,0,0,1.1-.7,1.4,1.4,0,0,0,0-.9.8.8,0,1,0-1.5.3,3.7,3.7,0,0,0-.2.9c.1.3.4.3.6.4" style="fill:#fff"/><path d="M428.2,105.8c-1,0-.3-2.8,1.4-5.1s2.5-3.1,2.8-3.4-1.5,8.6-4.2,8.5m3.6-12.6c-.2.3-1,2-1.7,1.8s-.4-1.5.4-2.6,1-1.4,1.6-1.1-.1,1.4-.3,1.9m30.4,1.4c-1.5-.6-3.1,1.3-3.9,1.3s-.2-3.2-1.2-3.3-2.9,3.6-4.2,3.2.6-3.6,2.8-3.6c.5,0,1.2-.5,1.2-.9s-.4-.6-.7-.6c-2.9,0-4.4,3.5-4.4,3.5s-1.6,2.4-2.7,2.4-.9-3.2-.6-4,1-1.5-.2-1.5a.9.9,0,0,0-.9.6c-.2.3-2.8,5.2-4,5.1s-.3-3.8-.2-4.5.2-1.4-.8-1.8-1.2.2-1.7.6-2.4,2.5-2.4,2.5,1.2-2.7.3-2.9-1.1.5-1.3.7l-3.8,4.1c0-.2,1.2-2.9.1-2.7s-1.3,1.3-1.3,1.3,1.9-3.2.5-3.9a1.4,1.4,0,0,0-1.5.2,8.2,8.2,0,0,0-2.6,3c-.2.4-2.1,3.6-3.3,3.4s-.3-4.2,0-4.9-.1-.8-.7-.8a2,2,0,0,0-.7.2,35.7,35.7,0,0,1-3.6,2.6,3.4,3.4,0,0,0,.8-1.2c.4-1.6-1.3-1.9-5.3-2.9-.2-.1-5.8-1.3-5.7-2s3-2.1,5.4-2.9a22.7,22.7,0,0,1,6.7-1.3,2.4,2.4,0,0,0,1.8-.7c.4-1-1.3-1.2-2.7-1a30.5,30.5,0,0,0-6.6,1.5c-4.2,1.6-6.1,3.3-6.3,4.3s1.4,2.3,4,3.1c4.3,1.1,6.5,1.6,6.7,2.1s-.8.9-.9.9c-1.6,1.2-7.3,3.1-8.8,3-3.5-.3-1.6,2.4.9,1.9s8.8-3.1,13.3-5.9a3.3,3.3,0,0,0-.2,1.1c-.1.6-.4,3.5,1.7,3.5s3.3-2.2,3.4-2.4a1.5,1.5,0,0,0,1.3,1.5c1.2.2,2.4-1,2.9-1.5a10.5,10.5,0,0,0-.2,1.3,35.8,35.8,0,0,0-3.5,3.9c-2.2,2.9-4.5,6.8-1.1,7s3.3-1.6,3.8-3a54.5,54.5,0,0,0,1.7-7.8l3.8-4-1,4s-.1.4.2.5.5,0,.7-.3,3.5-4.7,4.4-4.7-.4,2.2,0,3.6.3,1.8,1.6,1.9,3.5-2.9,3.5-2.9.4,2.4,2.3,2.4a3.4,3.4,0,0,0,2.6-1.4c.1.5.2,1.6,1.4,1.7s3.2-2.7,3.2-2.7-.3,1.8,2.2,2,4.9-1.4,3.8-1.9" style="fill:#fff"/><path d="M438.4,101.8h.7v.2h-.2l-.9,2.1c-.2.4-.3.8-.7.8h-.4v-.5h.1v.2c0,.1.1.1.2.1s.4-.4.5-.7h0l-.8-2h-.2v-.2h.9v.2h-.1l.5,1.3.5-1.3h-.2Zm-2.7,2-.5-.2v-1.4h.4c.3,0,.6.3.6.8s-.2.9-.5.9m.2-2a.8.8,0,0,0-.7.3v-1.2h-.5v2.8h.5l.5.2c.7,0,1.1-.4,1.1-1.2a.9.9,0,0,0-.9-1" style="fill:#fff"/></g><path d="M824.9,157.7a2.5,2.5,0,0,1,1.5.6h.1l.5-.5h-.1a2.9,2.9,0,0,0-2-.7,2.4,2.4,0,1,0,0,4.7,4,4,0,0,0,2.1-.7h0v-2h-2.1v.7h1.4v.9a1.8,1.8,0,0,1-1.3.4,1.7,1.7,0,0,1-1.8-1.7A1.8,1.8,0,0,1,824.9,157.7Z" style="fill:#fff"/><path d="M832.4,158.5a1.2,1.2,0,0,0-.4-.9,1.6,1.6,0,0,0-1.2-.4h-2.5v4.5h.7v-1.8h1.7l1,1.8h.8l-1.1-1.9A1.4,1.4,0,0,0,832.4,158.5Zm-3.4-.6h1.8a.8.8,0,0,1,.7.2.6.6,0,0,1,.1.4.7.7,0,0,1-.7.7H829Z" style="fill:#fff"/><path d="M835.2,157.2l-2.1,4.5h.8l.5-1.3h2.1l.6,1.3h.8l-2.1-4.5Zm1,2.5h-1.5l.8-1.6Z" style="fill:#fff"/><polygon points="842 160.3 839.3 157.2 838.7 157.2 838.7 161.7 839.4 161.7 839.4 158.5 842.1 161.7 842.7 161.7 842.7 157.2 842 157.2 842 160.3" style="fill:#fff"/><path d="M847.9,157.8a2.1,2.1,0,0,0-1.7-.6h-2.1v4.5h2.1a2,2,0,0,0,1.6-.6,2.1,2.1,0,0,0,.7-1.7A2.3,2.3,0,0,0,847.9,157.8Zm-3,.1h1.2a1.5,1.5,0,0,1,1.2.4,1.5,1.5,0,0,1,.4,1.1,1.6,1.6,0,0,1-.4,1.2,1.9,1.9,0,0,1-1.2.4h-1.2Z" style="fill:#fff"/><polygon points="854.7 157.2 853.1 160.7 851.5 157.2 850.7 157.2 852.8 161.7 853.4 161.7 855.6 157.2 854.7 157.2" style="fill:#fff"/><path d="M857.3,157.2l-2.1,4.5h.8l.6-1.3h2l.6,1.3h.8l-2.1-4.5Zm1,2.5h-1.4l.7-1.6Z" style="fill:#fff"/><path d="M864.4,160.4a2.3,2.3,0,0,1-1.7.7,1.7,1.7,0,0,1-1.7-1.7,1.8,1.8,0,0,1,1.7-1.7,2.3,2.3,0,0,1,1.5.6h.1l.5-.5h0a3.1,3.1,0,0,0-2.1-.7,2.4,2.4,0,1,0,0,4.7,3.5,3.5,0,0,0,2.2-.9h0l-.5-.6Z" style="fill:#fff"/><path d="M867.4,157.2l-2.1,4.5h.8l.6-1.3h2l.6,1.3h.8l-2.1-4.5Zm1,2.5h-1.5l.8-1.6Z" style="fill:#fff"/><polygon points="869.7 157.9 871.4 157.9 871.4 161.7 872.1 161.7 872.1 157.9 873.8 157.9 873.8 157.2 869.7 157.2 869.7 157.9" style="fill:#fff"/><rect x="874.6" y="157.2" width="0.8" height="4.53" style="fill:#fff"/><path d="M878.8,157.1a2.4,2.4,0,1,0,0,4.7,2.5,2.5,0,0,0,2.5-2.4A2.4,2.4,0,0,0,878.8,157.1Zm1.7,2.3a1.7,1.7,0,0,1-1.7,1.7,1.6,1.6,0,0,1-1.7-1.7,1.7,1.7,0,0,1,1.7-1.7A1.8,1.8,0,0,1,880.5,159.4Z" style="fill:#fff"/><polygon points="885.7 160.3 883.1 157.2 882.4 157.2 882.4 161.7 883.2 161.7 883.2 158.5 885.8 161.7 886.5 161.7 886.5 157.2 885.7 157.2 885.7 160.3" style="fill:#fff"/><path d="M889.8,158.9h-.1c-.8,0-1.3-.1-1.3-.5s.5-.7,1-.7a2.6,2.6,0,0,1,1.6.5h.1l.4-.5h0a3.6,3.6,0,0,0-2-.6c-.9,0-1.9.3-1.9,1.3s1.2,1.2,2.1,1.3,1.3.1,1.3.7-.6.7-1.2.7a3,3,0,0,1-1.9-.7h-.1l-.4.5h0a3.6,3.6,0,0,0,2.4.9c1.2,0,2-.6,2-1.5S890.5,159,889.8,158.9Z" style="fill:#fff"/><polygon points="848.3 143.9 845.2 143.9 845.2 144.4 846 144.6 846 152.1 845.2 152.2 845.2 152.8 849.1 152.8 849.1 152.2 848.3 152.1 848.3 143.9" style="fill:#fff"/><polygon points="839.3 140.9 840.2 141 840.2 145.7 834.8 145.7 834.8 141 835.6 140.9 835.6 140.2 831.4 140.2 831.4 140.9 832.3 141 832.3 152 831.4 152.2 831.4 152.8 835.6 152.8 835.6 152.2 834.8 152 834.8 147 840.2 147 840.2 152 839.3 152.2 839.3 152.8 843.5 152.8 843.5 152.2 842.7 152 842.7 141 843.5 140.9 843.5 140.2 839.3 140.2 839.3 140.9" style="fill:#fff"/><polygon points="854.7 152.2 853.9 152.1 853.9 139.9 850.8 139.9 850.8 140.4 851.6 140.6 851.6 152.1 850.8 152.2 850.8 152.8 854.7 152.8 854.7 152.2" style="fill:#fff"/><path d="M847.2,142.5a1.4,1.4,0,0,0,1.4-1.5,1.3,1.3,0,0,0-1.4-1.3,1.4,1.4,0,0,0,0,2.8Z" style="fill:#fff"/><path d="M859.4,150v-5.3h2.1v-.8h-2.1v-2.6l-2.2.7v1.9h-1.7v.8h1.6v5.8c0,1.6.4,2.4,2.2,2.4a8.8,8.8,0,0,0,2.9-.6v-.6H861C859.7,151.8,859.4,151.4,859.4,150Z" style="fill:#fff"/><path d="M876.3,145.7a3.4,3.4,0,0,1,1.8-.7c1.1,0,1.6.6,1.6,2v5.1h-.8v.6h3.9v-.6H882v-5.4c0-2-.8-3-2.5-3a4.7,4.7,0,0,0-3.2,1.4v-1.2h-3.2v.6h.8v7.5h-.8v.6h4v-.6h-.8Z" style="fill:#fff"/><path d="M872,148.4c0-3-1.8-4.8-4.7-4.8a4.5,4.5,0,0,0-4.8,4.8c0,3.4,1.9,4.7,4.7,4.7A4.5,4.5,0,0,0,872,148.4Zm-6.9,0c0-2.9.8-4.1,2.1-4.1s2.2,1.2,2.2,4.1-.7,4-2.2,4S865.1,151.2,865.1,148.4Z" style="fill:#fff"/><path d="M445.4,134.1l-27.3,8v18.7l27.3,8,27.4-8V142.1Zm25.9,25.6-25.9,7.6-25.8-7.6V143.3l25.8-7.7,25.9,7.7Z" style="fill:#fff"/><path d="M452.9,153.8c.1,1.3,1.2.8,1.7.5a9.6,9.6,0,0,0,1.3-1.1c.1,1.3,1.4,1.7,2.6,1s1.5-2.7,1.5-2.7,1.2-.7,1.2-.7l-1.2,3.7h1.3a14,14,0,0,1,1.9-4.2c.3-.5.7-.7.8-.5s-.1.6-.5,1.6a5.5,5.5,0,0,0-.5,3.1,1.7,1.7,0,0,0,1.9,1.6,4.4,4.4,0,0,0,3.7-2.2,4.8,4.8,0,0,0,.9-3c.1-.7-.2-1-.5-.9s-.2.2-.2,1.4-1.2,2.9-1.9,3.5-1.8,1-2.5.4-.1-2.4.5-3.7.6-1.8.5-2.3-.9-.5-1.3-.4l-1.2,1V149h-1.2a2.9,2.9,0,0,1-.8,1.4,1.2,1.2,0,0,1-.9.5v-.8a1.5,1.5,0,0,0-1.1-1.3,2.7,2.7,0,0,0-2.3,1.2,6.3,6.3,0,0,0-1,2.5,3.4,3.4,0,0,1-1.2,1.2c-.3.2-.5.4-.3-.9a34.2,34.2,0,0,1,1.1-3.4h1.2v-.5h-1.1l.7-2.1-1.4.2-.6,1.9h-1.1v.4h.9s-.4,1.4-.5,1.6a11.9,11.9,0,0,0-.6,2.9m5.7-4.3s.3-.3.6-.2.3,1.2.1,1.7-.4,0-.6-.6a1.6,1.6,0,0,1-.1-.9m-1.1,2.2a7.4,7.4,0,0,1,.6-1.4,2.1,2.1,0,0,0,1,1.3,5.9,5.9,0,0,1-.5,1.4c-.2.6-.7,1.1-1,.9s-.4-1.4-.1-2.2" style="fill:#fff"/><path d="M434.5,150.5h-.6a16.1,16.1,0,0,1,.9-2.5,6.2,6.2,0,0,1,1.7-2.5s-.6-.2-1.8.7-2.4,4.3-2.4,4.3h-2.2a17.5,17.5,0,0,1,1-2.6,15.5,15.5,0,0,1,1.1-1.9l-2.7.6a19.1,19.1,0,0,0-2.4.7c-.5.2-.8,1-.5,1.1s.6-.2,1-.5,2.1-1.2,3-1.1a9.1,9.1,0,0,0-2,3.7h-1.3v.6h1.1a15,15,0,0,1-1.2,3.4c-.7,1.4-1.5,2.6-2.8,2.4a2.9,2.9,0,0,1-2.4-3.1c.1-1.7.1-2.3,1-3.3s.4-.9-.2-.8-1,.6-1.3,1.7a6,6,0,0,0,.8,4.8,3,3,0,0,0,4.4.6,10.2,10.2,0,0,0,2.4-3.4l.8-2.3h2.2s-2,5.1.6,6.4a4.7,4.7,0,0,1-.1-2.7,19.8,19.8,0,0,1,1.2-3.7h.6a1.3,1.3,0,0,0,.1-.5" style="fill:#fff"/><path d="M444.8,150.2c.2-1.4-.5-1.5-1-1.3a4.8,4.8,0,0,0-1.4.9,4.1,4.1,0,0,0,.1-1h-1.2s-.9,3.1-1.1,3.4-.9,1.4-1.4,1.4-.2-.7,0-1.3,1.1-3.5,1.1-3.5h-1.3l-.2.4c-.2-.6-1.5-.7-2.5.3a6,6,0,0,0-1.4,3.4c-.1,1,0,1.5.9,1.5s1.8-1.1,1.8-1.1.2,1.2.9,1.2,1.7-1,1.7-1l-.3.8h1.4l1.2-3.2a2.9,2.9,0,0,1,1.1-1.3c.3-.1.5.2.4.5s-1.3,4.1-1.3,4.1h1.2l1.1-2.7a4,4,0,0,1,1.3-1.9c.4-.3.3,0,.2.4s-1,2.8-1.1,3.2.1,1.2.8,1.2,1.9-1.2,1.9-1.2l-.9,3.1h1.3l.8-2.4c.2.2.2.3.9.3s1.9-1,2.3-2.1.7-3.5-.3-3.6a1.5,1.5,0,0,0-1.4.6v-.5h-1l-1.1,3.2a3.7,3.7,0,0,1-1.4,1.6c-.5.2-.4-.5-.2-1.1a29.1,29.1,0,0,0,1-2.8c.2-.8-.3-1.2-1.1-1a5.3,5.3,0,0,0-1.7,1.4m-6.8.7a6.2,6.2,0,0,1-1,2,2,2,0,0,1-1.1.6c-.2-.1-.1-1,.2-1.8s.7-1.7,1.1-1.9a1.3,1.3,0,0,1,.8-.3,2,2,0,0,1,0,1.4m11.7.6c.5-1.2,1.1-2.1,1.4-1.9a2.7,2.7,0,0,1-.2,2.3c-.4,1.2-1.2,2-1.5,1.9s-.2-1.1.3-2.3" style="fill:#fff"/></g></svg>